M48
;Layer_Color=9474304
;FILE_FORMAT=2:5
INCH,LZ
;TYPE=PLATED
T1F00S00C0.01200
T2F00S00C0.02800
T3F00S00C0.03000
T4F00S00C0.03150
T5F00S00C0.03898
T6F00S00C0.03937
T7F00S00C0.09843
T8F00S00C0.11811
%
T01
X043937Y0183268
X0277165Y0124606
X027441Y0126969
X0267717Y0104528
X0263779
X0242913Y0102165
X023937Y0109252
X0233071Y0109251
X0211811Y0108071
X020876Y0093504
X0197638Y0119095
X0198917Y012815
X0181594Y0120669
X0181496Y0155315
X0189764Y0156496
X0172146Y0165059
X0174015Y0168307
X0157382Y01625
X015935Y0157382
X0117815Y0149705
X0164961Y0069095
X0229921Y0067126
X0233858Y0063976
X0223425Y0043307
X021565Y003937
X0141535Y0193307
X0162598Y0309646
X0304134Y03
X0300394Y0272244
X0311024Y0267126
X0316929Y0252953
X029685Y0259646
X0275984Y0260433
X0294881Y0236023
X0294488Y0230906
X0323228Y0207677
X0356693Y0223031
X0358268Y0230315
X037126Y0211221
X0400984Y0231693
X0397638Y0235236
X040748Y0242126
X0424409Y0234449
X042126Y0252953
X0386614Y025689
Y0268504
X0385433Y0279724
X038563Y0337992
X0409449Y0192913
X0423228
X0425196Y0205708
X0428739Y020807
X0440945Y0205709
X0445276Y0206496
Y0210039
X0444095Y0192717
X0433071Y0191535
X0435433Y0187598
X0443307Y0227362
X0440945Y0238189
X0429921Y025059
X0437008Y0268701
X0426181Y0276575
X0484252Y0251378
X051063Y0227362
X0457874Y0219094
X0623032Y0216535
X0379724Y037874
X0233071Y0342717
T02
X0286221Y0074213
X0176772Y0236024
T03
X0305118Y009311
Y010311
Y011311
X0388189Y0110039
Y0120039
Y0100039
X0265748Y0336557
X0275448
X0285648Y0336457
X0295748
X0412402Y0313976
Y0284449
X0426575
X0440748
X0455315
Y0313976
X0440748
X0426575
X0679134Y022374
Y021374
Y020374
Y019374
X0455315Y0343504
X0440748
X0426575
Y0373031
X0440748
X0455315
X0412402
Y0343504
X0295648Y0346557
X0285648Y0346457
X0275748
X0265748
X0162874Y0382874
X0152874
X0124567Y0381693
X0114567
X0090039
X0080039
T04
X0223268Y0024606
X0233268
X0243268
X0433071Y0154528
Y0164528
X0423071
X0413071
Y0154528
X0423071
X0243268Y0034606
X0233268
X0223268
T05
X0117717Y034252
X0153937Y0347441
X0164075
X0174213
X0107579Y034252
X0097441
T06
X0043307Y014311
Y0162795
X0044488Y0213976
Y0233661
X0043504Y0322835
Y034252
T07
X0012795Y0392717
T08
X0008661Y0013189
X0680118Y0009843
X0682087Y0398622
M30
