G04 Layer_Physical_Order=2*
G04 Layer_Color=16711680*
%FSLAX25Y25*%
%MOIN*%
G70*
G01*
G75*
%ADD22C,0.00600*%
%ADD24C,0.00984*%
%ADD26C,0.11811*%
%ADD28C,0.06000*%
%ADD29R,0.06000X0.06000*%
%ADD30O,0.09843X0.06000*%
%ADD31O,0.09843X0.05906*%
%ADD32O,0.06000X0.09843*%
%ADD33R,0.06000X0.09843*%
%ADD34R,0.09843X0.06000*%
%ADD35R,0.11417X0.07480*%
%ADD36O,0.11417X0.07480*%
%ADD37C,0.02500*%
%ADD38C,0.05000*%
G36*
X201772Y295079D02*
Y236941D01*
X179747D01*
X179480Y237587D01*
X178983Y238235D01*
X178335Y238732D01*
X177581Y239044D01*
X176772Y239150D01*
X175962Y239044D01*
X175208Y238732D01*
X174561Y238235D01*
X174064Y237587D01*
X173751Y236833D01*
X173645Y236024D01*
X173751Y235214D01*
X174064Y234460D01*
X174561Y233813D01*
X175208Y233316D01*
X175962Y233003D01*
X176772Y232897D01*
X177581Y233003D01*
X178335Y233316D01*
X178983Y233813D01*
X179480Y234460D01*
X179747Y235106D01*
X201772D01*
Y142501D01*
X201310Y142310D01*
X189900Y153719D01*
X190065Y154262D01*
X190642Y154377D01*
X191386Y154874D01*
X191883Y155618D01*
X191958Y155996D01*
X189764D01*
Y156496D01*
X189264D01*
Y158691D01*
X188886Y158616D01*
X188142Y158118D01*
X187644Y157374D01*
X187530Y156797D01*
X186987Y156632D01*
X175804Y167816D01*
X175901Y168307D01*
X175758Y169028D01*
X175349Y169640D01*
X174737Y170049D01*
X174015Y170193D01*
X173293Y170049D01*
X172681Y169640D01*
X172273Y169028D01*
X172129Y168307D01*
X172273Y167585D01*
X172392Y167406D01*
X172234Y167111D01*
X172104Y166937D01*
X171424Y166802D01*
X170812Y166393D01*
X170403Y165781D01*
X170259Y165059D01*
X170403Y164337D01*
X170812Y163725D01*
X171228Y163447D01*
Y154921D01*
X171298Y154570D01*
X171497Y154272D01*
X197129Y128640D01*
X197031Y128150D01*
X197175Y127428D01*
X197583Y126816D01*
X197959Y126565D01*
X198079Y125959D01*
X197159Y124969D01*
X196659Y124960D01*
X159243Y162376D01*
X159268Y162500D01*
X159125Y163222D01*
X158716Y163834D01*
X158104Y164243D01*
X157382Y164386D01*
X156660Y164243D01*
X156048Y163834D01*
X155639Y163222D01*
X155496Y162500D01*
X155639Y161778D01*
X156048Y161166D01*
X156660Y160757D01*
X157382Y160614D01*
X157777Y160692D01*
X158851Y159618D01*
X158706Y159140D01*
X158628Y159125D01*
X158017Y158716D01*
X157608Y158104D01*
X157464Y157382D01*
X157608Y156660D01*
X158017Y156048D01*
X158628Y155639D01*
X159350Y155496D01*
X159841Y155593D01*
X190760Y124674D01*
X190569Y124213D01*
X166725D01*
X155410Y135528D01*
X154419Y136341D01*
X153289Y136945D01*
X152063Y137317D01*
X150787Y137443D01*
X149512Y137317D01*
X148286Y136945D01*
X147156Y136341D01*
X146165Y135528D01*
X145352Y134537D01*
X144748Y133407D01*
X144376Y132181D01*
X144250Y130905D01*
X144376Y129630D01*
X144748Y128404D01*
X145352Y127274D01*
X146165Y126283D01*
X147774Y124674D01*
X147582Y124213D01*
X22638D01*
Y285630D01*
X22258Y295112D01*
X22605Y295472D01*
X201378D01*
X201772Y295079D01*
D02*
G37*
G36*
X212598Y404528D02*
Y303346D01*
X21791D01*
Y369094D01*
X21791Y369094D01*
X21705Y369524D01*
X21462Y369888D01*
X5817Y385532D01*
X394Y391535D01*
X0Y391929D01*
X-0Y407343D01*
X209784D01*
X212598Y404528D01*
D02*
G37*
G36*
X698878Y404457D02*
Y1122D01*
X575650D01*
X574803Y1969D01*
Y4921D01*
X139139D01*
X138976Y5315D01*
Y69095D01*
X137803Y122674D01*
X138153Y123031D01*
X149417D01*
X169000Y103448D01*
X169990Y102636D01*
X171121Y102032D01*
X172347Y101660D01*
X173622Y101534D01*
X174897Y101660D01*
X176124Y102032D01*
X177254Y102636D01*
X178244Y103448D01*
X179057Y104439D01*
X179661Y105569D01*
X180033Y106796D01*
X180159Y108071D01*
X180033Y109346D01*
X179661Y110573D01*
X179057Y111703D01*
X178244Y112693D01*
X168368Y122570D01*
X168559Y123031D01*
X181424D01*
X181474Y122531D01*
X181246Y122486D01*
X180873Y122412D01*
X180261Y122003D01*
X179852Y121391D01*
X179708Y120669D01*
X179852Y119948D01*
X180261Y119335D01*
X180873Y118927D01*
X181594Y118783D01*
X181854Y118835D01*
X206925Y93764D01*
X206873Y93504D01*
X207017Y92782D01*
X207426Y92170D01*
X208038Y91761D01*
X208760Y91618D01*
X209482Y91761D01*
X210093Y92170D01*
X210502Y92782D01*
X210646Y93504D01*
X210502Y94226D01*
X210093Y94838D01*
X209482Y95247D01*
X208760Y95390D01*
X208500Y95338D01*
X183429Y120410D01*
X183481Y120669D01*
X183337Y121391D01*
X182928Y122003D01*
X182316Y122412D01*
X181943Y122486D01*
X181715Y122531D01*
X181764Y123031D01*
X192403D01*
X195849Y119585D01*
X195752Y119095D01*
X195895Y118373D01*
X196304Y117761D01*
X196916Y117352D01*
X197638Y117208D01*
X198360Y117352D01*
X198972Y117761D01*
X199381Y118373D01*
X199396Y118450D01*
X199874Y118595D01*
X210003Y108466D01*
X209925Y108071D01*
X210068Y107349D01*
X210477Y106737D01*
X211089Y106328D01*
X211811Y106185D01*
X212533Y106328D01*
X213145Y106737D01*
X213554Y107349D01*
X213697Y108071D01*
X213554Y108793D01*
X213145Y109405D01*
X212533Y109813D01*
X211811Y109957D01*
X211687Y109932D01*
X199050Y122570D01*
X199241Y123031D01*
X217992D01*
X231282Y109742D01*
X231185Y109251D01*
X231328Y108529D01*
X231737Y107917D01*
X232349Y107508D01*
X233071Y107365D01*
X233793Y107508D01*
X234405Y107917D01*
X234813Y108529D01*
X234957Y109251D01*
X234813Y109973D01*
X234405Y110585D01*
X233793Y110994D01*
X233071Y111137D01*
X232580Y111039D01*
X221050Y122570D01*
X221241Y123031D01*
X276191D01*
X276443Y122863D01*
X277165Y122720D01*
X277886Y122863D01*
X278138Y123031D01*
X382668D01*
Y116439D01*
X393710D01*
Y123031D01*
X574803D01*
Y142323D01*
X522047D01*
Y250984D01*
X522047Y250984D01*
X522047Y250984D01*
X522441Y251378D01*
X520472D01*
Y142028D01*
X520079Y141634D01*
X296144D01*
X295952Y142096D01*
X336207Y182350D01*
X437758D01*
X438036Y181934D01*
X438648Y181525D01*
X439370Y181381D01*
X440092Y181525D01*
X440704Y181934D01*
X441113Y182546D01*
X441256Y183268D01*
X441113Y183990D01*
X440704Y184601D01*
X440092Y185010D01*
X439370Y185154D01*
X438648Y185010D01*
X438036Y184601D01*
X437758Y184185D01*
X335826D01*
X335475Y184116D01*
X335178Y183917D01*
X292895Y141634D01*
X291026D01*
X290834Y142096D01*
X335420Y186681D01*
X433821D01*
X434099Y186265D01*
X434711Y185856D01*
X435433Y185712D01*
X436155Y185856D01*
X436767Y186265D01*
X437176Y186877D01*
X437319Y187598D01*
X437176Y188320D01*
X436767Y188932D01*
X436155Y189341D01*
X435433Y189485D01*
X434711Y189341D01*
X434099Y188932D01*
X433821Y188516D01*
X432037D01*
X431964Y188617D01*
X431849Y189016D01*
X432580Y189747D01*
X433071Y189649D01*
X433793Y189793D01*
X434405Y190202D01*
X434813Y190814D01*
X434915Y191325D01*
X434957Y191535D01*
X435415Y191799D01*
X442483D01*
X442761Y191383D01*
X443373Y190974D01*
X444095Y190830D01*
X444816Y190974D01*
X445428Y191383D01*
X445837Y191995D01*
X445981Y192717D01*
X445837Y193438D01*
X445428Y194050D01*
X444816Y194459D01*
X444095Y194603D01*
X443373Y194459D01*
X442761Y194050D01*
X442483Y193634D01*
X435310D01*
X434610Y194334D01*
X434313Y194533D01*
X433961Y194603D01*
X432180D01*
X431829Y194533D01*
X431531Y194334D01*
X428878Y191681D01*
X425160D01*
X424925Y192122D01*
X424971Y192192D01*
X425115Y192913D01*
X424971Y193635D01*
X424562Y194247D01*
X423950Y194656D01*
X423228Y194800D01*
X422507Y194656D01*
X421895Y194247D01*
X421617Y193831D01*
X411061D01*
X410783Y194247D01*
X410171Y194656D01*
X409449Y194800D01*
X408727Y194656D01*
X408115Y194247D01*
X407706Y193635D01*
X407563Y192913D01*
X407706Y192192D01*
X407753Y192122D01*
X407517Y191681D01*
X343278D01*
X327027Y207932D01*
X326729Y208131D01*
X326378Y208201D01*
X325010D01*
X324971Y208399D01*
X324562Y209011D01*
X323950Y209420D01*
X323228Y209563D01*
X322506Y209420D01*
X321895Y209011D01*
X321486Y208399D01*
X321342Y207677D01*
X321486Y206955D01*
X321895Y206343D01*
X322506Y205935D01*
X323228Y205791D01*
X323950Y205935D01*
X324562Y206343D01*
X324577Y206366D01*
X325998D01*
X341421Y190943D01*
X341229Y190481D01*
X336210D01*
X296277Y230415D01*
X296374Y230906D01*
X296231Y231627D01*
X295822Y232239D01*
X295210Y232648D01*
X294488Y232792D01*
X293766Y232648D01*
X293154Y232239D01*
X292745Y231627D01*
X292602Y230906D01*
X292745Y230184D01*
X293154Y229572D01*
X293766Y229163D01*
X294488Y229019D01*
X294979Y229117D01*
X335080Y189016D01*
X335060Y188772D01*
X335024Y188665D01*
X334915Y188491D01*
X334688Y188446D01*
X334390Y188247D01*
X287777Y141634D01*
X229429D01*
Y142028D01*
X205118Y166339D01*
X205906Y167126D01*
Y235106D01*
X293269D01*
X293547Y234689D01*
X294159Y234280D01*
X294881Y234137D01*
X295603Y234280D01*
X296215Y234689D01*
X296624Y235301D01*
X296767Y236023D01*
X296624Y236745D01*
X296215Y237357D01*
X295603Y237766D01*
X294881Y237909D01*
X294159Y237766D01*
X293547Y237357D01*
X293270Y236941D01*
X205906D01*
Y249803D01*
X215748D01*
Y302953D01*
X214961Y303740D01*
X215354Y404921D01*
X600000D01*
Y404412D01*
X603346Y404528D01*
X678337D01*
X678417Y404210D01*
X678418Y404028D01*
X677464Y403244D01*
X676651Y402254D01*
X676047Y401124D01*
X675675Y399897D01*
X675550Y398622D01*
X675675Y397347D01*
X676047Y396120D01*
X676651Y394990D01*
X677464Y394000D01*
X678455Y393187D01*
X679585Y392583D01*
X680811Y392211D01*
X682087Y392085D01*
X683362Y392211D01*
X684588Y392583D01*
X685718Y393187D01*
X686709Y394000D01*
X687522Y394990D01*
X688126Y396120D01*
X688498Y397347D01*
X688624Y398622D01*
X688498Y399897D01*
X688126Y401124D01*
X687522Y402254D01*
X686709Y403244D01*
X685755Y404028D01*
X685756Y404210D01*
X685836Y404528D01*
X697835D01*
X698321Y405014D01*
X698878Y404457D01*
D02*
G37*
G36*
X201772Y139252D02*
Y126969D01*
X200883D01*
X200680Y127349D01*
X200668Y127469D01*
X200804Y128150D01*
X200660Y128871D01*
X200251Y129483D01*
X199639Y129892D01*
X198917Y130036D01*
X198426Y129938D01*
X173063Y155301D01*
Y163447D01*
X173479Y163725D01*
X173888Y164337D01*
X174032Y165059D01*
X173888Y165781D01*
X173769Y165960D01*
X173927Y166255D01*
X174048Y166417D01*
X174546Y166478D01*
X201772Y139252D01*
D02*
G37*
%LPC*%
G36*
X141035Y192807D02*
X139341D01*
X139416Y192429D01*
X139913Y191685D01*
X140657Y191188D01*
X141035Y191112D01*
Y192807D01*
D02*
G37*
G36*
X143730D02*
X142035D01*
Y191112D01*
X142413Y191188D01*
X143158Y191685D01*
X143655Y192429D01*
X143730Y192807D01*
D02*
G37*
G36*
X141035Y195502D02*
X140657Y195426D01*
X139913Y194929D01*
X139416Y194185D01*
X139341Y193807D01*
X141035D01*
Y195502D01*
D02*
G37*
G36*
X50797Y218317D02*
X38179D01*
Y209636D01*
X50797D01*
Y218317D01*
D02*
G37*
G36*
X142035Y195502D02*
Y193807D01*
X143730D01*
X143655Y194185D01*
X143158Y194929D01*
X142413Y195426D01*
X142035Y195502D01*
D02*
G37*
G36*
X46457Y238039D02*
X42520D01*
X41387Y237890D01*
X40331Y237453D01*
X39424Y236757D01*
X38729Y235850D01*
X38291Y234794D01*
X38142Y233661D01*
X38291Y232528D01*
X38729Y231473D01*
X39424Y230566D01*
X40331Y229870D01*
X41387Y229433D01*
X42520Y229284D01*
X46457D01*
X47590Y229433D01*
X48645Y229870D01*
X49552Y230566D01*
X50248Y231473D01*
X50685Y232528D01*
X50834Y233661D01*
X50685Y234794D01*
X50248Y235850D01*
X49552Y236757D01*
X48645Y237453D01*
X47590Y237890D01*
X46457Y238039D01*
D02*
G37*
G36*
X190264Y158691D02*
Y156996D01*
X191958D01*
X191883Y157374D01*
X191386Y158118D01*
X190642Y158616D01*
X190264Y158691D01*
D02*
G37*
G36*
X45276Y167173D02*
X41339D01*
X40206Y167024D01*
X39150Y166586D01*
X38243Y165891D01*
X37547Y164984D01*
X37110Y163928D01*
X36961Y162795D01*
X37110Y161662D01*
X37547Y160607D01*
X38243Y159700D01*
X39150Y159004D01*
X40206Y158567D01*
X41339Y158418D01*
X45276D01*
X46409Y158567D01*
X47464Y159004D01*
X48371Y159700D01*
X49067Y160607D01*
X49504Y161662D01*
X49653Y162795D01*
X49504Y163928D01*
X49067Y164984D01*
X48371Y165891D01*
X47464Y166586D01*
X46409Y167024D01*
X45276Y167173D01*
D02*
G37*
G36*
X120010Y149205D02*
X118315D01*
Y147510D01*
X118693Y147585D01*
X119437Y148083D01*
X119934Y148827D01*
X120010Y149205D01*
D02*
G37*
G36*
X117315Y151899D02*
X116937Y151824D01*
X116193Y151327D01*
X115696Y150583D01*
X115620Y150205D01*
X117315D01*
Y151899D01*
D02*
G37*
G36*
X118315D02*
Y150205D01*
X120010D01*
X119934Y150583D01*
X119437Y151327D01*
X118693Y151824D01*
X118315Y151899D01*
D02*
G37*
G36*
X49616Y147450D02*
X36998D01*
Y138770D01*
X49616D01*
Y147450D01*
D02*
G37*
G36*
X117315Y149205D02*
X115620D01*
X115696Y148827D01*
X116193Y148083D01*
X116937Y147585D01*
X117315Y147510D01*
Y149205D01*
D02*
G37*
G36*
X154437Y351410D02*
Y347941D01*
X157906D01*
X157834Y348485D01*
X157431Y349458D01*
X156790Y350294D01*
X155954Y350935D01*
X154981Y351338D01*
X154437Y351410D01*
D02*
G37*
G36*
X84039Y381193D02*
X80539D01*
Y375772D01*
X84039D01*
Y381193D01*
D02*
G37*
G36*
X124067Y381193D02*
X120567D01*
Y375772D01*
X124067D01*
Y381193D01*
D02*
G37*
G36*
X128567D02*
X125067D01*
Y375772D01*
X128567D01*
Y381193D01*
D02*
G37*
G36*
X79539Y381193D02*
X76039D01*
Y375772D01*
X79539D01*
Y381193D01*
D02*
G37*
G36*
X153437Y351410D02*
X152893Y351338D01*
X151920Y350935D01*
X151084Y350294D01*
X150443Y349458D01*
X150040Y348485D01*
X149968Y347941D01*
X153437D01*
Y351410D01*
D02*
G37*
G36*
X108079Y346488D02*
Y343020D01*
X111547D01*
X111476Y343564D01*
X111073Y344537D01*
X110432Y345373D01*
X109596Y346014D01*
X108623Y346417D01*
X108079Y346488D01*
D02*
G37*
G36*
X153437Y346941D02*
X149968D01*
X150040Y346397D01*
X150443Y345424D01*
X151084Y344588D01*
X151920Y343947D01*
X152893Y343544D01*
X153437Y343472D01*
Y346941D01*
D02*
G37*
G36*
X157906D02*
X154437D01*
Y343472D01*
X154981Y343544D01*
X155954Y343947D01*
X156790Y344588D01*
X157431Y345424D01*
X157834Y346397D01*
X157906Y346941D01*
D02*
G37*
G36*
X107079Y346488D02*
X106535Y346417D01*
X105561Y346014D01*
X104726Y345373D01*
X104085Y344537D01*
X103682Y343564D01*
X103610Y343020D01*
X107079D01*
Y346488D01*
D02*
G37*
G36*
X164075Y351072D02*
X163135Y350948D01*
X162259Y350586D01*
X161507Y350009D01*
X160930Y349256D01*
X160567Y348381D01*
X160444Y347441D01*
X160567Y346501D01*
X160930Y345625D01*
X161507Y344873D01*
X162259Y344296D01*
X163135Y343934D01*
X164075Y343810D01*
X165015Y343934D01*
X165890Y344296D01*
X166642Y344873D01*
X167219Y345625D01*
X167582Y346501D01*
X167706Y347441D01*
X167582Y348381D01*
X167219Y349256D01*
X166642Y350009D01*
X165890Y350586D01*
X165015Y350948D01*
X164075Y351072D01*
D02*
G37*
G36*
X174213D02*
X173273Y350948D01*
X172397Y350586D01*
X171645Y350009D01*
X171068Y349256D01*
X170705Y348381D01*
X170581Y347441D01*
X170705Y346501D01*
X171068Y345625D01*
X171645Y344873D01*
X172397Y344296D01*
X173273Y343934D01*
X174213Y343810D01*
X175152Y343934D01*
X176028Y344296D01*
X176780Y344873D01*
X177357Y345625D01*
X177720Y346501D01*
X177844Y347441D01*
X177720Y348381D01*
X177357Y349256D01*
X176780Y350009D01*
X176028Y350586D01*
X175152Y350948D01*
X174213Y351072D01*
D02*
G37*
G36*
X79539Y387614D02*
X76039D01*
Y382193D01*
X79539D01*
Y387614D01*
D02*
G37*
G36*
X84039D02*
X80539D01*
Y382193D01*
X84039D01*
Y387614D01*
D02*
G37*
G36*
X89539Y387583D02*
X88995Y387511D01*
X88022Y387108D01*
X87186Y386467D01*
X86545Y385631D01*
X86142Y384658D01*
X86005Y383614D01*
Y382193D01*
X89539D01*
Y387583D01*
D02*
G37*
G36*
X124067Y387614D02*
X120567D01*
Y382193D01*
X124067D01*
Y387614D01*
D02*
G37*
G36*
X128567D02*
X125067D01*
Y382193D01*
X128567D01*
Y387614D01*
D02*
G37*
G36*
X115067Y387583D02*
Y382193D01*
X118601D01*
Y383614D01*
X118464Y384658D01*
X118061Y385631D01*
X117420Y386467D01*
X116584Y387108D01*
X115611Y387511D01*
X115067Y387583D01*
D02*
G37*
G36*
X153374Y388764D02*
Y383374D01*
X156909D01*
Y384795D01*
X156771Y385840D01*
X156368Y386812D01*
X155727Y387648D01*
X154891Y388289D01*
X153918Y388692D01*
X153374Y388764D01*
D02*
G37*
G36*
X166874Y388795D02*
X163374D01*
Y383374D01*
X166874D01*
Y388795D01*
D02*
G37*
G36*
X12795Y398285D02*
X11354Y398096D01*
X10011Y397539D01*
X8857Y396654D01*
X7972Y395501D01*
X7416Y394158D01*
X7226Y392717D01*
X7416Y391275D01*
X7972Y389932D01*
X8857Y388779D01*
X10011Y387894D01*
X11354Y387337D01*
X12795Y387148D01*
X14237Y387337D01*
X15580Y387894D01*
X16733Y388779D01*
X17618Y389932D01*
X18174Y391275D01*
X18364Y392717D01*
X18174Y394158D01*
X17618Y395501D01*
X16733Y396654D01*
X15580Y397539D01*
X14237Y398096D01*
X12795Y398285D01*
D02*
G37*
G36*
X90539Y387583D02*
Y382193D01*
X94074D01*
Y383614D01*
X93936Y384658D01*
X93533Y385631D01*
X92892Y386467D01*
X92057Y387108D01*
X91084Y387511D01*
X90539Y387583D01*
D02*
G37*
G36*
X152374Y388764D02*
X151830Y388692D01*
X150857Y388289D01*
X150021Y387648D01*
X149380Y386812D01*
X148977Y385840D01*
X148839Y384795D01*
Y383374D01*
X152374D01*
Y388764D01*
D02*
G37*
G36*
X162374Y388795D02*
X158874D01*
Y383374D01*
X162374D01*
Y388795D01*
D02*
G37*
G36*
X114067Y387583D02*
X113523Y387511D01*
X112550Y387108D01*
X111714Y386467D01*
X111073Y385631D01*
X110670Y384658D01*
X110532Y383614D01*
Y382193D01*
X114067D01*
Y387583D01*
D02*
G37*
G36*
X118601Y381193D02*
X115067D01*
Y375803D01*
X115611Y375875D01*
X116584Y376278D01*
X117420Y376919D01*
X118061Y377754D01*
X118464Y378727D01*
X118601Y379772D01*
Y381193D01*
D02*
G37*
G36*
X114067D02*
X110532D01*
Y379772D01*
X110670Y378727D01*
X111073Y377754D01*
X111714Y376919D01*
X112550Y376278D01*
X113523Y375875D01*
X114067Y375803D01*
Y381193D01*
D02*
G37*
G36*
X89539Y381193D02*
X86005D01*
Y379772D01*
X86142Y378727D01*
X86545Y377754D01*
X87186Y376919D01*
X88022Y376278D01*
X88995Y375875D01*
X89539Y375803D01*
Y381193D01*
D02*
G37*
G36*
X94074D02*
X90539D01*
Y375803D01*
X91084Y375875D01*
X92057Y376278D01*
X92892Y376919D01*
X93533Y377754D01*
X93936Y378727D01*
X94074Y379772D01*
Y381193D01*
D02*
G37*
G36*
X152374Y382374D02*
X148839D01*
Y380953D01*
X148977Y379909D01*
X149380Y378936D01*
X150021Y378100D01*
X150857Y377459D01*
X151830Y377056D01*
X152374Y376984D01*
Y382374D01*
D02*
G37*
G36*
X162374D02*
X158874D01*
Y376953D01*
X162374D01*
Y382374D01*
D02*
G37*
G36*
X166874D02*
X163374D01*
Y376953D01*
X166874D01*
Y382374D01*
D02*
G37*
G36*
X156909D02*
X153374D01*
Y376984D01*
X153918Y377056D01*
X154891Y377459D01*
X155727Y378100D01*
X156368Y378936D01*
X156771Y379909D01*
X156909Y380953D01*
Y382374D01*
D02*
G37*
G36*
X162098Y309146D02*
X160404D01*
X160479Y308768D01*
X160976Y308024D01*
X161721Y307526D01*
X162098Y307451D01*
Y309146D01*
D02*
G37*
G36*
X164793D02*
X163098D01*
Y307451D01*
X163476Y307526D01*
X164221Y308024D01*
X164718Y308768D01*
X164793Y309146D01*
D02*
G37*
G36*
X107079Y342020D02*
X103610D01*
X103682Y341476D01*
X104085Y340502D01*
X104726Y339667D01*
X105561Y339026D01*
X106535Y338623D01*
X107079Y338551D01*
Y342020D01*
D02*
G37*
G36*
X111547D02*
X108079D01*
Y338551D01*
X108623Y338623D01*
X109596Y339026D01*
X110432Y339667D01*
X111073Y340502D01*
X111476Y341476D01*
X111547Y342020D01*
D02*
G37*
G36*
X97441Y346151D02*
X96501Y346027D01*
X95625Y345664D01*
X94873Y345087D01*
X94296Y344335D01*
X93934Y343460D01*
X93810Y342520D01*
X93934Y341580D01*
X94296Y340704D01*
X94873Y339952D01*
X95625Y339375D01*
X96501Y339012D01*
X97441Y338889D01*
X98381Y339012D01*
X99256Y339375D01*
X100008Y339952D01*
X100585Y340704D01*
X100948Y341580D01*
X101072Y342520D01*
X100948Y343460D01*
X100585Y344335D01*
X100008Y345087D01*
X99256Y345664D01*
X98381Y346027D01*
X97441Y346151D01*
D02*
G37*
G36*
X45473Y346897D02*
X41536D01*
X40403Y346748D01*
X39347Y346311D01*
X38440Y345615D01*
X37745Y344708D01*
X37307Y343653D01*
X37158Y342520D01*
X37307Y341387D01*
X37745Y340331D01*
X38440Y339424D01*
X39347Y338729D01*
X40403Y338291D01*
X41536Y338142D01*
X45473D01*
X46606Y338291D01*
X47662Y338729D01*
X48568Y339424D01*
X49264Y340331D01*
X49701Y341387D01*
X49850Y342520D01*
X49701Y343653D01*
X49264Y344708D01*
X48568Y345615D01*
X47662Y346311D01*
X46606Y346748D01*
X45473Y346897D01*
D02*
G37*
G36*
X117717Y346151D02*
X116777Y346027D01*
X115901Y345664D01*
X115149Y345087D01*
X114572Y344335D01*
X114209Y343460D01*
X114085Y342520D01*
X114209Y341580D01*
X114572Y340704D01*
X115149Y339952D01*
X115901Y339375D01*
X116777Y339012D01*
X117717Y338889D01*
X118656Y339012D01*
X119532Y339375D01*
X120284Y339952D01*
X120861Y340704D01*
X121224Y341580D01*
X121348Y342520D01*
X121224Y343460D01*
X120861Y344335D01*
X120284Y345087D01*
X119532Y345664D01*
X118656Y346027D01*
X117717Y346151D01*
D02*
G37*
G36*
X43004Y322335D02*
X36796D01*
Y318094D01*
X43004D01*
Y322335D01*
D02*
G37*
G36*
X162098Y311840D02*
X161721Y311765D01*
X160976Y311268D01*
X160479Y310524D01*
X160404Y310146D01*
X162098D01*
Y311840D01*
D02*
G37*
G36*
X163098D02*
Y310146D01*
X164793D01*
X164718Y310524D01*
X164221Y311268D01*
X163476Y311765D01*
X163098Y311840D01*
D02*
G37*
G36*
X50213Y327575D02*
X44004D01*
Y323335D01*
X50213D01*
Y327575D01*
D02*
G37*
G36*
Y322335D02*
X44004D01*
Y318094D01*
X50213D01*
Y322335D01*
D02*
G37*
G36*
X43004Y327575D02*
X36796D01*
Y323335D01*
X43004D01*
Y327575D01*
D02*
G37*
G36*
X457374Y218595D02*
X455679D01*
X455755Y218217D01*
X456252Y217472D01*
X456996Y216975D01*
X457374Y216900D01*
Y218595D01*
D02*
G37*
G36*
X681055Y217371D02*
X677213D01*
X676273Y217248D01*
X675397Y216885D01*
X674645Y216308D01*
X674068Y215556D01*
X673705Y214680D01*
X673582Y213740D01*
X673705Y212800D01*
X674068Y211925D01*
X674645Y211173D01*
X675397Y210596D01*
X676273Y210233D01*
X677213Y210109D01*
X681055D01*
X681995Y210233D01*
X682871Y210596D01*
X683623Y211173D01*
X684200Y211925D01*
X684562Y212800D01*
X684686Y213740D01*
X684562Y214680D01*
X684200Y215556D01*
X683623Y216308D01*
X682871Y216885D01*
X681995Y217248D01*
X681055Y217371D01*
D02*
G37*
G36*
X622532Y216035D02*
X620837D01*
X620912Y215657D01*
X621409Y214913D01*
X622154Y214416D01*
X622532Y214341D01*
Y216035D01*
D02*
G37*
G36*
X625226D02*
X623531D01*
Y214341D01*
X623909Y214416D01*
X624654Y214913D01*
X625151Y215657D01*
X625226Y216035D01*
D02*
G37*
G36*
X457374Y221289D02*
X456996Y221214D01*
X456252Y220717D01*
X455755Y219972D01*
X455679Y219595D01*
X457374D01*
Y221289D01*
D02*
G37*
G36*
X458374D02*
Y219595D01*
X460069D01*
X459994Y219972D01*
X459496Y220717D01*
X458752Y221214D01*
X458374Y221289D01*
D02*
G37*
G36*
X681055Y227371D02*
X677213D01*
X676273Y227248D01*
X675397Y226885D01*
X674645Y226308D01*
X674068Y225556D01*
X673705Y224680D01*
X673582Y223740D01*
X673705Y222800D01*
X674068Y221925D01*
X674645Y221173D01*
X675397Y220596D01*
X676273Y220233D01*
X677213Y220109D01*
X681055D01*
X681995Y220233D01*
X682871Y220596D01*
X683623Y221173D01*
X684200Y221925D01*
X684562Y222800D01*
X684686Y223740D01*
X684562Y224680D01*
X684200Y225556D01*
X683623Y226308D01*
X682871Y226885D01*
X681995Y227248D01*
X681055Y227371D01*
D02*
G37*
G36*
X460069Y218595D02*
X458374D01*
Y216900D01*
X458752Y216975D01*
X459496Y217472D01*
X459994Y218217D01*
X460069Y218595D01*
D02*
G37*
G36*
X622532Y218730D02*
X622154Y218655D01*
X621409Y218158D01*
X620912Y217413D01*
X620837Y217035D01*
X622532D01*
Y218730D01*
D02*
G37*
G36*
X623531D02*
Y217035D01*
X625226D01*
X625151Y217413D01*
X624654Y218158D01*
X623909Y218655D01*
X623531Y218730D01*
D02*
G37*
G36*
X685023Y193240D02*
X679634D01*
Y189753D01*
X681102D01*
X682134Y189889D01*
X683096Y190287D01*
X683921Y190921D01*
X684555Y191747D01*
X684953Y192708D01*
X685023Y193240D01*
D02*
G37*
G36*
X423071Y168159D02*
X422131Y168035D01*
X421255Y167672D01*
X420503Y167095D01*
X419926Y166343D01*
X419563Y165467D01*
X419440Y164528D01*
X419563Y163588D01*
X419926Y162712D01*
X420503Y161960D01*
X421255Y161383D01*
X422131Y161020D01*
X423071Y160897D01*
X424011Y161020D01*
X424886Y161383D01*
X425638Y161960D01*
X426216Y162712D01*
X426578Y163588D01*
X426702Y164528D01*
X426578Y165467D01*
X426216Y166343D01*
X425638Y167095D01*
X424886Y167672D01*
X424011Y168035D01*
X423071Y168159D01*
D02*
G37*
G36*
X436671Y168128D02*
X429471D01*
Y160928D01*
X436671D01*
Y168128D01*
D02*
G37*
G36*
X678634Y193240D02*
X673244D01*
X673314Y192708D01*
X673713Y191747D01*
X674346Y190921D01*
X675172Y190287D01*
X676133Y189889D01*
X677165Y189753D01*
X678634D01*
Y193240D01*
D02*
G37*
G36*
X681055Y207371D02*
X677213D01*
X676273Y207247D01*
X675397Y206885D01*
X674645Y206308D01*
X674068Y205556D01*
X673705Y204680D01*
X673582Y203740D01*
X673705Y202800D01*
X674068Y201925D01*
X674645Y201173D01*
X675397Y200596D01*
X676273Y200233D01*
X677213Y200109D01*
X681055D01*
X681995Y200233D01*
X682871Y200596D01*
X683623Y201173D01*
X684200Y201925D01*
X684562Y202800D01*
X684686Y203740D01*
X684562Y204680D01*
X684200Y205556D01*
X683623Y206308D01*
X682871Y206885D01*
X681995Y207247D01*
X681055Y207371D01*
D02*
G37*
G36*
X371260Y213107D02*
X370538Y212963D01*
X369926Y212554D01*
X369517Y211942D01*
X369374Y211221D01*
X369517Y210499D01*
X369926Y209887D01*
X370538Y209478D01*
X371260Y209334D01*
X371982Y209478D01*
X372594Y209887D01*
X372872Y210303D01*
X394108D01*
X401502Y202909D01*
X401799Y202710D01*
X402151Y202640D01*
X426086D01*
X426438Y202710D01*
X426735Y202909D01*
X428617Y204791D01*
X439333D01*
X439611Y204375D01*
X440223Y203966D01*
X440945Y203822D01*
X441667Y203966D01*
X442279Y204375D01*
X442688Y204987D01*
X442831Y205709D01*
X442701Y206364D01*
X442731Y206499D01*
X442982Y206890D01*
X443004Y206892D01*
X443389Y206496D01*
X443533Y205774D01*
X443942Y205162D01*
X444554Y204753D01*
X445276Y204610D01*
X445997Y204753D01*
X446609Y205162D01*
X447018Y205774D01*
X447162Y206496D01*
X447018Y207218D01*
X446609Y207830D01*
X446404Y207967D01*
Y208568D01*
X446609Y208706D01*
X447018Y209317D01*
X447162Y210039D01*
X447018Y210761D01*
X446609Y211373D01*
X445997Y211782D01*
X445276Y211926D01*
X444554Y211782D01*
X443942Y211373D01*
X443785Y211138D01*
X427848D01*
X427497Y211068D01*
X427200Y210869D01*
X425940Y209610D01*
X425741Y209312D01*
X425671Y208961D01*
Y207894D01*
X425285Y207577D01*
X425196Y207594D01*
X424474Y207451D01*
X423862Y207042D01*
X423453Y206430D01*
X423310Y205708D01*
X423453Y204986D01*
X423500Y204917D01*
X423264Y204476D01*
X402531D01*
X395137Y211869D01*
X394839Y212068D01*
X394488Y212138D01*
X372872D01*
X372594Y212554D01*
X371982Y212963D01*
X371260Y213107D01*
D02*
G37*
G36*
X678634Y197727D02*
X677165D01*
X676133Y197591D01*
X675172Y197193D01*
X674346Y196559D01*
X673713Y195734D01*
X673314Y194772D01*
X673244Y194240D01*
X678634D01*
Y197727D01*
D02*
G37*
G36*
X681102D02*
X679634D01*
Y194240D01*
X685023D01*
X684953Y194772D01*
X684555Y195734D01*
X683921Y196559D01*
X683096Y197193D01*
X682134Y197591D01*
X681102Y197727D01*
D02*
G37*
G36*
X319124Y252453D02*
X317429D01*
Y250758D01*
X317807Y250833D01*
X318551Y251331D01*
X319049Y252075D01*
X319124Y252453D01*
D02*
G37*
G36*
X429421Y252785D02*
X429043Y252710D01*
X428299Y252213D01*
X427802Y251468D01*
X427727Y251091D01*
X429421D01*
Y252785D01*
D02*
G37*
G36*
X430421D02*
Y251091D01*
X432116D01*
X432041Y251468D01*
X431543Y252213D01*
X430799Y252710D01*
X430421Y252785D01*
D02*
G37*
G36*
X483752Y250878D02*
X482057D01*
X482132Y250500D01*
X482630Y249756D01*
X483374Y249258D01*
X483752Y249183D01*
Y250878D01*
D02*
G37*
G36*
X486447D02*
X484752D01*
Y249183D01*
X485130Y249258D01*
X485874Y249756D01*
X486371Y250500D01*
X486447Y250878D01*
D02*
G37*
G36*
X316429Y252453D02*
X314735D01*
X314810Y252075D01*
X315307Y251331D01*
X316051Y250833D01*
X316429Y250758D01*
Y252453D01*
D02*
G37*
G36*
X317429Y255147D02*
Y253453D01*
X319124D01*
X319049Y253831D01*
X318551Y254575D01*
X317807Y255072D01*
X317429Y255147D01*
D02*
G37*
G36*
X386614Y270390D02*
X385892Y270247D01*
X385280Y269838D01*
X384872Y269226D01*
X384728Y268504D01*
X384872Y267782D01*
X385280Y267170D01*
X385697Y266892D01*
Y258502D01*
X385280Y258224D01*
X384872Y257612D01*
X384728Y256890D01*
X384872Y256168D01*
X385280Y255556D01*
X385892Y255147D01*
X386614Y255003D01*
X387336Y255147D01*
X387948Y255556D01*
X388357Y256168D01*
X388500Y256890D01*
X388357Y257612D01*
X387948Y258224D01*
X387532Y258502D01*
Y266892D01*
X387948Y267170D01*
X388357Y267782D01*
X388500Y268504D01*
X388357Y269226D01*
X387948Y269838D01*
X387336Y270247D01*
X386614Y270390D01*
D02*
G37*
G36*
X275484Y259933D02*
X273790D01*
X273865Y259555D01*
X274362Y258811D01*
X275106Y258314D01*
X275484Y258239D01*
Y259933D01*
D02*
G37*
G36*
X483752Y253573D02*
X483374Y253497D01*
X482630Y253000D01*
X482132Y252256D01*
X482057Y251878D01*
X483752D01*
Y253573D01*
D02*
G37*
G36*
X484752D02*
Y251878D01*
X486447D01*
X486371Y252256D01*
X485874Y253000D01*
X485130Y253497D01*
X484752Y253573D01*
D02*
G37*
G36*
X316429Y255147D02*
X316051Y255072D01*
X315307Y254575D01*
X314810Y253831D01*
X314735Y253453D01*
X316429D01*
Y255147D01*
D02*
G37*
G36*
X357193Y225226D02*
Y223532D01*
X358888D01*
X358812Y223909D01*
X358315Y224654D01*
X357571Y225151D01*
X357193Y225226D01*
D02*
G37*
G36*
X510130Y226862D02*
X508435D01*
X508510Y226484D01*
X509008Y225740D01*
X509752Y225243D01*
X510130Y225168D01*
Y226862D01*
D02*
G37*
G36*
X512824D02*
X511130D01*
Y225168D01*
X511508Y225243D01*
X512252Y225740D01*
X512749Y226484D01*
X512824Y226862D01*
D02*
G37*
G36*
X356193Y222532D02*
X354498D01*
X354573Y222154D01*
X355071Y221409D01*
X355815Y220912D01*
X356193Y220837D01*
Y222532D01*
D02*
G37*
G36*
X358888D02*
X357193D01*
Y220837D01*
X357571Y220912D01*
X358315Y221409D01*
X358812Y222154D01*
X358888Y222532D01*
D02*
G37*
G36*
X356193Y225226D02*
X355815Y225151D01*
X355071Y224654D01*
X354573Y223909D01*
X354498Y223532D01*
X356193D01*
Y225226D01*
D02*
G37*
G36*
X429421Y250091D02*
X427727D01*
X427802Y249713D01*
X428299Y248968D01*
X429043Y248471D01*
X429421Y248396D01*
Y250091D01*
D02*
G37*
G36*
X432116D02*
X430421D01*
Y248396D01*
X430799Y248471D01*
X431543Y248968D01*
X432041Y249713D01*
X432116Y250091D01*
D02*
G37*
G36*
X424409Y236335D02*
X423688Y236192D01*
X423076Y235783D01*
X422667Y235171D01*
X422523Y234449D01*
X422667Y233727D01*
X423076Y233115D01*
X423688Y232706D01*
X424409Y232563D01*
X425131Y232706D01*
X425743Y233115D01*
X426021Y233531D01*
X435840D01*
X441518Y227853D01*
X441421Y227362D01*
X441564Y226640D01*
X441973Y226028D01*
X442585Y225620D01*
X443307Y225476D01*
X444029Y225620D01*
X444641Y226028D01*
X445050Y226640D01*
X445193Y227362D01*
X445050Y228084D01*
X444641Y228696D01*
X444029Y229105D01*
X443307Y229248D01*
X442816Y229151D01*
X436869Y235098D01*
X436572Y235297D01*
X436221Y235366D01*
X426021D01*
X425743Y235783D01*
X425131Y236192D01*
X424409Y236335D01*
D02*
G37*
G36*
X510130Y229557D02*
X509752Y229482D01*
X509008Y228984D01*
X508510Y228240D01*
X508435Y227862D01*
X510130D01*
Y229557D01*
D02*
G37*
G36*
X511130D02*
Y227862D01*
X512824D01*
X512749Y228240D01*
X512252Y228984D01*
X511508Y229482D01*
X511130Y229557D01*
D02*
G37*
G36*
X413071Y168159D02*
X412131Y168035D01*
X411255Y167672D01*
X410503Y167095D01*
X409926Y166343D01*
X409563Y165467D01*
X409440Y164528D01*
X409563Y163588D01*
X409926Y162712D01*
X410503Y161960D01*
X411255Y161383D01*
X412131Y161020D01*
X413071Y160897D01*
X414011Y161020D01*
X414886Y161383D01*
X415638Y161960D01*
X416216Y162712D01*
X416578Y163588D01*
X416702Y164528D01*
X416578Y165467D01*
X416216Y166343D01*
X415638Y167095D01*
X414886Y167672D01*
X414011Y168035D01*
X413071Y168159D01*
D02*
G37*
G36*
X285720Y77677D02*
X285307Y77622D01*
X284455Y77270D01*
X283724Y76709D01*
X283163Y75978D01*
X282811Y75126D01*
X282756Y74713D01*
X285720D01*
Y77677D01*
D02*
G37*
G36*
X286720D02*
Y74713D01*
X289685D01*
X289630Y75126D01*
X289278Y75978D01*
X288717Y76709D01*
X287986Y77270D01*
X287134Y77622D01*
X286720Y77677D01*
D02*
G37*
G36*
X304618Y92610D02*
X299228D01*
X299300Y92066D01*
X299703Y91093D01*
X300344Y90257D01*
X301180Y89616D01*
X302153Y89213D01*
X303197Y89076D01*
X304618D01*
Y92610D01*
D02*
G37*
G36*
X165461Y71289D02*
Y69595D01*
X167155D01*
X167080Y69972D01*
X166583Y70717D01*
X165839Y71214D01*
X165461Y71289D01*
D02*
G37*
G36*
X285720Y73713D02*
X282756D01*
X282811Y73299D01*
X283163Y72448D01*
X283724Y71716D01*
X284455Y71155D01*
X285307Y70803D01*
X285720Y70748D01*
Y73713D01*
D02*
G37*
G36*
X289685D02*
X286720D01*
Y70748D01*
X287134Y70803D01*
X287986Y71155D01*
X288717Y71716D01*
X289278Y72448D01*
X289630Y73299D01*
X289685Y73713D01*
D02*
G37*
G36*
X387689Y99539D02*
X382299D01*
X382371Y98995D01*
X382774Y98022D01*
X383415Y97186D01*
X384250Y96545D01*
X385224Y96142D01*
X386268Y96005D01*
X387689D01*
Y99539D01*
D02*
G37*
G36*
X394079D02*
X388689D01*
Y96005D01*
X390110D01*
X391154Y96142D01*
X392127Y96545D01*
X392963Y97186D01*
X393604Y98022D01*
X394007Y98995D01*
X394079Y99539D01*
D02*
G37*
G36*
X242413Y101665D02*
X240719D01*
X240794Y101287D01*
X241291Y100543D01*
X242036Y100046D01*
X242413Y99971D01*
Y101665D01*
D02*
G37*
G36*
X311008Y92610D02*
X305618D01*
Y89076D01*
X307039D01*
X308084Y89213D01*
X309057Y89616D01*
X309892Y90257D01*
X310533Y91093D01*
X310936Y92066D01*
X311008Y92610D01*
D02*
G37*
G36*
X304618Y97145D02*
X303197D01*
X302153Y97007D01*
X301180Y96604D01*
X300344Y95963D01*
X299703Y95127D01*
X299300Y94154D01*
X299228Y93610D01*
X304618D01*
Y97145D01*
D02*
G37*
G36*
X307039D02*
X305618D01*
Y93610D01*
X311008D01*
X310936Y94154D01*
X310533Y95127D01*
X309892Y95963D01*
X309057Y96604D01*
X308084Y97007D01*
X307039Y97145D01*
D02*
G37*
G36*
X227236Y24106D02*
X223768D01*
Y20638D01*
X224312Y20709D01*
X225285Y21112D01*
X226121Y21754D01*
X226762Y22589D01*
X227165Y23562D01*
X227236Y24106D01*
D02*
G37*
G36*
X243268Y28237D02*
X242328Y28114D01*
X241452Y27751D01*
X240700Y27174D01*
X240123Y26422D01*
X239760Y25546D01*
X239637Y24606D01*
X239760Y23666D01*
X240123Y22791D01*
X240700Y22039D01*
X241452Y21462D01*
X242328Y21099D01*
X243268Y20975D01*
X244208Y21099D01*
X245083Y21462D01*
X245835Y22039D01*
X246412Y22791D01*
X246775Y23666D01*
X246899Y24606D01*
X246775Y25546D01*
X246412Y26422D01*
X245835Y27174D01*
X245083Y27751D01*
X244208Y28114D01*
X243268Y28237D01*
D02*
G37*
G36*
X222768Y28575D02*
X222223Y28503D01*
X221251Y28100D01*
X220415Y27459D01*
X219774Y26624D01*
X219371Y25651D01*
X219299Y25106D01*
X222768D01*
Y28575D01*
D02*
G37*
G36*
X680118Y16379D02*
X678843Y16254D01*
X677617Y15882D01*
X676486Y15278D01*
X675496Y14465D01*
X674683Y13474D01*
X674079Y12344D01*
X673707Y11118D01*
X673581Y9843D01*
X673707Y8567D01*
X674079Y7341D01*
X674683Y6211D01*
X675496Y5220D01*
X676486Y4407D01*
X677617Y3803D01*
X678843Y3431D01*
X680118Y3306D01*
X681393Y3431D01*
X682620Y3803D01*
X683750Y4407D01*
X684740Y5220D01*
X685553Y6211D01*
X686158Y7341D01*
X686529Y8567D01*
X686655Y9843D01*
X686529Y11118D01*
X686158Y12344D01*
X685553Y13474D01*
X684740Y14465D01*
X683750Y15278D01*
X682620Y15882D01*
X681393Y16254D01*
X680118Y16379D01*
D02*
G37*
G36*
X600000Y6436D02*
X599571Y6351D01*
X599207Y6108D01*
X598813Y5714D01*
X598570Y5350D01*
X598485Y4921D01*
X598570Y4492D01*
X598813Y4128D01*
X599177Y3885D01*
X599606Y3800D01*
X600035Y3885D01*
X600399Y4128D01*
X600793Y4522D01*
X601036Y4886D01*
X601122Y5315D01*
X601036Y5744D01*
X600793Y6108D01*
X600429Y6351D01*
X600000Y6436D01*
D02*
G37*
G36*
X222768Y24106D02*
X219299D01*
X219371Y23562D01*
X219774Y22589D01*
X220415Y21754D01*
X221251Y21112D01*
X222223Y20709D01*
X222768Y20638D01*
Y24106D01*
D02*
G37*
G36*
X164461Y68594D02*
X162766D01*
X162841Y68217D01*
X163338Y67472D01*
X164083Y66975D01*
X164461Y66900D01*
Y68594D01*
D02*
G37*
G36*
X167155D02*
X165461D01*
Y66900D01*
X165839Y66975D01*
X166583Y67472D01*
X167080Y68217D01*
X167155Y68594D01*
D02*
G37*
G36*
X164461Y71289D02*
X164083Y71214D01*
X163338Y70717D01*
X162841Y69972D01*
X162766Y69595D01*
X164461D01*
Y71289D01*
D02*
G37*
G36*
X215650Y41256D02*
X214928Y41113D01*
X214316Y40704D01*
X213907Y40092D01*
X213763Y39370D01*
X213907Y38648D01*
X214316Y38036D01*
X214928Y37627D01*
X215650Y37484D01*
X216141Y37582D01*
X218450Y35272D01*
Y32991D01*
X218520Y32640D01*
X218719Y32342D01*
X221003Y30057D01*
X221301Y29858D01*
X221652Y29789D01*
X223933D01*
X224936Y28786D01*
X224653Y28362D01*
X224312Y28503D01*
X223768Y28575D01*
Y25106D01*
X227236D01*
X227165Y25651D01*
X227024Y25991D01*
X227448Y26274D01*
X229716Y24006D01*
X229760Y23666D01*
X230123Y22791D01*
X230700Y22039D01*
X231452Y21462D01*
X232328Y21099D01*
X233268Y20975D01*
X234208Y21099D01*
X235083Y21462D01*
X235835Y22039D01*
X236412Y22791D01*
X236775Y23666D01*
X236899Y24606D01*
X236775Y25546D01*
X236412Y26422D01*
X235835Y27174D01*
X235083Y27751D01*
X234208Y28114D01*
X233268Y28237D01*
X232328Y28114D01*
X231452Y27751D01*
X230700Y27174D01*
X230331Y26693D01*
X229698Y26619D01*
X225296Y31021D01*
X225283Y31049D01*
X225355Y31670D01*
X225835Y32039D01*
X226412Y32791D01*
X226775Y33667D01*
X226899Y34606D01*
X226775Y35546D01*
X226412Y36422D01*
X225835Y37174D01*
X225083Y37751D01*
X224207Y38114D01*
X223268Y38237D01*
X222328Y38114D01*
X221452Y37751D01*
X220700Y37174D01*
X220331Y36693D01*
X219711Y36621D01*
X219683Y36635D01*
X217438Y38879D01*
X217536Y39370D01*
X217392Y40092D01*
X216983Y40704D01*
X216371Y41113D01*
X215650Y41256D01*
D02*
G37*
G36*
X233268Y38237D02*
X232328Y38114D01*
X231452Y37751D01*
X230700Y37174D01*
X230123Y36422D01*
X229760Y35546D01*
X229637Y34606D01*
X229760Y33667D01*
X230123Y32791D01*
X230700Y32039D01*
X231452Y31462D01*
X232328Y31099D01*
X233268Y30975D01*
X234208Y31099D01*
X235083Y31462D01*
X235835Y32039D01*
X236412Y32791D01*
X236775Y33667D01*
X236899Y34606D01*
X236775Y35546D01*
X236412Y36422D01*
X235835Y37174D01*
X235083Y37751D01*
X234208Y38114D01*
X233268Y38237D01*
D02*
G37*
G36*
X223425Y45193D02*
X222703Y45050D01*
X222091Y44641D01*
X221683Y44029D01*
X221539Y43307D01*
X221683Y42585D01*
X222091Y41973D01*
X222703Y41564D01*
X223425Y41421D01*
X224147Y41564D01*
X224759Y41973D01*
X225037Y42390D01*
X234187D01*
X239668Y36909D01*
Y31006D01*
X246868D01*
Y38206D01*
X240966D01*
X235216Y43956D01*
X234918Y44155D01*
X234567Y44225D01*
X225037D01*
X224759Y44641D01*
X224147Y45050D01*
X223425Y45193D01*
D02*
G37*
G36*
X245108Y101665D02*
X243413D01*
Y99971D01*
X243791Y100046D01*
X244536Y100543D01*
X245033Y101287D01*
X245108Y101665D01*
D02*
G37*
G36*
X433071Y158159D02*
X432131Y158035D01*
X431255Y157672D01*
X430503Y157095D01*
X429926Y156343D01*
X429564Y155467D01*
X429440Y154528D01*
X429564Y153588D01*
X429926Y152712D01*
X430503Y151960D01*
X431255Y151383D01*
X432131Y151020D01*
X433071Y150897D01*
X434011Y151020D01*
X434886Y151383D01*
X435638Y151960D01*
X436215Y152712D01*
X436578Y153588D01*
X436702Y154528D01*
X436578Y155467D01*
X436215Y156343D01*
X435638Y157095D01*
X434886Y157672D01*
X434011Y158035D01*
X433071Y158159D01*
D02*
G37*
G36*
X412571Y154027D02*
X409102D01*
X409174Y153483D01*
X409577Y152510D01*
X410218Y151675D01*
X411054Y151034D01*
X412027Y150630D01*
X412571Y150559D01*
Y154027D01*
D02*
G37*
G36*
X417040D02*
X413571D01*
Y150559D01*
X414115Y150630D01*
X415088Y151034D01*
X415924Y151675D01*
X416565Y152510D01*
X416968Y153483D01*
X417040Y154027D01*
D02*
G37*
G36*
X423071Y158159D02*
X422131Y158035D01*
X421255Y157672D01*
X420503Y157095D01*
X419926Y156343D01*
X419563Y155467D01*
X419440Y154528D01*
X419563Y153588D01*
X419926Y152712D01*
X420503Y151960D01*
X421255Y151383D01*
X422131Y151020D01*
X423071Y150897D01*
X424011Y151020D01*
X424886Y151383D01*
X425638Y151960D01*
X426216Y152712D01*
X426578Y153588D01*
X426702Y154528D01*
X426578Y155467D01*
X426216Y156343D01*
X425638Y157095D01*
X424886Y157672D01*
X424011Y158035D01*
X423071Y158159D01*
D02*
G37*
G36*
X412571Y158496D02*
X412027Y158425D01*
X411054Y158022D01*
X410218Y157380D01*
X409577Y156545D01*
X409174Y155572D01*
X409102Y155027D01*
X412571D01*
Y158496D01*
D02*
G37*
G36*
X413571Y158496D02*
Y155027D01*
X417040D01*
X416968Y155572D01*
X416565Y156545D01*
X415924Y157380D01*
X415088Y158022D01*
X414115Y158425D01*
X413571Y158496D01*
D02*
G37*
G36*
X243413Y104360D02*
Y102665D01*
X245108D01*
X245033Y103043D01*
X244536Y103788D01*
X243791Y104285D01*
X243413Y104360D01*
D02*
G37*
G36*
X267717Y106414D02*
X266995Y106270D01*
X266383Y105861D01*
X266019Y105316D01*
X265748Y105280D01*
X265477Y105316D01*
X265113Y105861D01*
X264501Y106270D01*
X263779Y106414D01*
X263058Y106270D01*
X262446Y105861D01*
X262037Y105249D01*
X261893Y104528D01*
X262037Y103806D01*
X262446Y103194D01*
X262468Y103179D01*
Y97427D01*
X257494Y92453D01*
X254331D01*
X253980Y92383D01*
X253682Y92184D01*
X230412Y68915D01*
X229921Y69012D01*
X229199Y68869D01*
X228588Y68460D01*
X228179Y67848D01*
X228035Y67126D01*
X228179Y66404D01*
X228588Y65792D01*
X229199Y65383D01*
X229921Y65240D01*
X230643Y65383D01*
X231255Y65792D01*
X231664Y66404D01*
X231807Y67126D01*
X231710Y67617D01*
X254711Y90618D01*
X257874D01*
X258225Y90688D01*
X258523Y90887D01*
X264035Y96398D01*
X264234Y96696D01*
X264303Y97047D01*
Y102745D01*
X264501Y102785D01*
X265113Y103194D01*
X265477Y103739D01*
X265748Y103775D01*
X266019Y103739D01*
X266383Y103194D01*
X266799Y102916D01*
Y98215D01*
X234349Y65765D01*
X233858Y65863D01*
X233136Y65719D01*
X232524Y65310D01*
X232116Y64698D01*
X231972Y63976D01*
X232116Y63254D01*
X232524Y62643D01*
X233136Y62234D01*
X233858Y62090D01*
X234580Y62234D01*
X235192Y62643D01*
X235601Y63254D01*
X235745Y63976D01*
X235647Y64467D01*
X268365Y97186D01*
X268564Y97483D01*
X268634Y97835D01*
Y102916D01*
X269050Y103194D01*
X269459Y103806D01*
X269603Y104528D01*
X269459Y105249D01*
X269050Y105861D01*
X268438Y106270D01*
X267717Y106414D01*
D02*
G37*
G36*
X390110Y113670D02*
X386268D01*
X385328Y113547D01*
X384452Y113184D01*
X383700Y112607D01*
X383123Y111855D01*
X382760Y110979D01*
X382637Y110039D01*
X382760Y109100D01*
X383123Y108224D01*
X383700Y107472D01*
X384452Y106895D01*
X385328Y106532D01*
X386268Y106408D01*
X390110D01*
X391050Y106532D01*
X391926Y106895D01*
X392678Y107472D01*
X393255Y108224D01*
X393618Y109100D01*
X393741Y110039D01*
X393618Y110979D01*
X393255Y111855D01*
X392678Y112607D01*
X391926Y113184D01*
X391050Y113547D01*
X390110Y113670D01*
D02*
G37*
G36*
X387689Y104074D02*
X386268D01*
X385224Y103936D01*
X384250Y103533D01*
X383415Y102892D01*
X382774Y102057D01*
X382371Y101084D01*
X382299Y100539D01*
X387689D01*
Y104074D01*
D02*
G37*
G36*
X390110D02*
X388689D01*
Y100539D01*
X394079D01*
X394007Y101084D01*
X393604Y102057D01*
X392963Y102892D01*
X392127Y103533D01*
X391154Y103936D01*
X390110Y104074D01*
D02*
G37*
G36*
X242413Y104360D02*
X242036Y104285D01*
X241291Y103788D01*
X240794Y103043D01*
X240719Y102665D01*
X242413D01*
Y104360D01*
D02*
G37*
G36*
X310639Y116710D02*
X299597D01*
Y110475D01*
X299097Y110146D01*
X298976Y110170D01*
X240982D01*
X240704Y110586D01*
X240092Y110995D01*
X239370Y111138D01*
X238648Y110995D01*
X238036Y110586D01*
X237627Y109974D01*
X237484Y109252D01*
X237627Y108530D01*
X238036Y107918D01*
X238648Y107509D01*
X239370Y107366D01*
X240092Y107509D01*
X240704Y107918D01*
X240982Y108334D01*
X298596D01*
X300714Y106217D01*
X300681Y105718D01*
X300629Y105678D01*
X300052Y104926D01*
X299690Y104050D01*
X299566Y103110D01*
X299690Y102170D01*
X300052Y101295D01*
X300629Y100543D01*
X301381Y99966D01*
X302257Y99603D01*
X303197Y99479D01*
X307039D01*
X307979Y99603D01*
X308855Y99966D01*
X309607Y100543D01*
X310184Y101295D01*
X310547Y102170D01*
X310670Y103110D01*
X310547Y104050D01*
X310184Y104926D01*
X309607Y105678D01*
X308855Y106255D01*
X307979Y106618D01*
X307039Y106741D01*
X303197D01*
X302833Y106693D01*
X300478Y109048D01*
X300669Y109510D01*
X310639D01*
Y116710D01*
D02*
G37*
G36*
X459284Y372532D02*
X455815D01*
Y369063D01*
X456359Y369134D01*
X457332Y369537D01*
X458168Y370179D01*
X458809Y371014D01*
X459212Y371987D01*
X459284Y372532D01*
D02*
G37*
G36*
X426575Y376663D02*
X425635Y376539D01*
X424759Y376176D01*
X424007Y375599D01*
X423430Y374847D01*
X423068Y373971D01*
X422944Y373031D01*
X423068Y372092D01*
X423430Y371216D01*
X424007Y370464D01*
X424759Y369887D01*
X425635Y369524D01*
X426575Y369400D01*
X427515Y369524D01*
X428390Y369887D01*
X429142Y370464D01*
X429719Y371216D01*
X430082Y372092D01*
X430206Y373031D01*
X430082Y373971D01*
X429719Y374847D01*
X429142Y375599D01*
X428390Y376176D01*
X427515Y376539D01*
X426575Y376663D01*
D02*
G37*
G36*
X416002Y376631D02*
X408802D01*
Y369431D01*
X416002D01*
Y376631D01*
D02*
G37*
G36*
X343701Y371587D02*
X343350Y371517D01*
X343052Y371318D01*
X342853Y371020D01*
X342783Y370669D01*
X342853Y370318D01*
X343052Y370020D01*
X345020Y368052D01*
X345318Y367853D01*
X345669Y367783D01*
X359055D01*
X359406Y367853D01*
X359704Y368052D01*
X359903Y368350D01*
X359973Y368701D01*
X359903Y369052D01*
X359704Y369350D01*
X359406Y369549D01*
X359055Y369618D01*
X346049D01*
X344350Y371318D01*
X344052Y371517D01*
X343701Y371587D01*
D02*
G37*
G36*
X454815Y372532D02*
X451346D01*
X451418Y371987D01*
X451821Y371014D01*
X452462Y370179D01*
X453298Y369537D01*
X454271Y369134D01*
X454815Y369063D01*
Y372532D01*
D02*
G37*
G36*
Y377000D02*
X454271Y376928D01*
X453298Y376525D01*
X452462Y375884D01*
X451821Y375049D01*
X451418Y374076D01*
X451346Y373532D01*
X454815D01*
Y377000D01*
D02*
G37*
G36*
X455815D02*
Y373532D01*
X459284D01*
X459212Y374076D01*
X458809Y375049D01*
X458168Y375884D01*
X457332Y376525D01*
X456359Y376928D01*
X455815Y377000D01*
D02*
G37*
G36*
X285648Y350088D02*
X284708Y349964D01*
X283833Y349601D01*
X283081Y349024D01*
X282503Y348272D01*
X282141Y347396D01*
X282017Y346457D01*
X282141Y345517D01*
X282503Y344641D01*
X283081Y343889D01*
X283734Y343388D01*
X283649Y342972D01*
X283604Y342887D01*
X277792D01*
X277747Y342972D01*
X277662Y343388D01*
X278316Y343889D01*
X278893Y344641D01*
X279255Y345517D01*
X279379Y346457D01*
X279255Y347396D01*
X278893Y348272D01*
X278316Y349024D01*
X277564Y349601D01*
X276688Y349964D01*
X275748Y350088D01*
X274808Y349964D01*
X273933Y349601D01*
X273181Y349024D01*
X272603Y348272D01*
X272241Y347396D01*
X272117Y346457D01*
X272241Y345517D01*
X272603Y344641D01*
X273181Y343889D01*
X273834Y343388D01*
X273749Y342972D01*
X273704Y342887D01*
X268489D01*
X268319Y343388D01*
X268601Y343604D01*
X269242Y344439D01*
X269645Y345412D01*
X269717Y345957D01*
X265748D01*
X261779D01*
X261851Y345412D01*
X262254Y344439D01*
X262895Y343604D01*
X263177Y343388D01*
X263007Y342887D01*
X234923D01*
X234813Y343438D01*
X234405Y344050D01*
X233793Y344459D01*
X233071Y344603D01*
X232349Y344459D01*
X231737Y344050D01*
X231328Y343438D01*
X231185Y342717D01*
X231328Y341995D01*
X231737Y341383D01*
X232349Y340974D01*
X233071Y340830D01*
X233371Y340890D01*
X233587Y340745D01*
X234013Y340661D01*
X265508D01*
X265541Y340160D01*
X265470Y340151D01*
X264808Y340064D01*
X263932Y339701D01*
X263180Y339124D01*
X262603Y338372D01*
X262241Y337496D01*
X262117Y336557D01*
X262241Y335617D01*
X262603Y334741D01*
X263180Y333989D01*
X263932Y333412D01*
X264808Y333049D01*
X265748Y332926D01*
X266688Y333049D01*
X267564Y333412D01*
X268316Y333989D01*
X268893Y334741D01*
X269255Y335617D01*
X269379Y336557D01*
X269255Y337496D01*
X268893Y338372D01*
X268316Y339124D01*
X267564Y339701D01*
X266688Y340064D01*
X266026Y340151D01*
X265955Y340160D01*
X265988Y340661D01*
X275208D01*
X275241Y340160D01*
X275170Y340151D01*
X274508Y340064D01*
X273633Y339701D01*
X272881Y339124D01*
X272303Y338372D01*
X271941Y337496D01*
X271817Y336557D01*
X271941Y335617D01*
X272303Y334741D01*
X272881Y333989D01*
X273633Y333412D01*
X274508Y333049D01*
X275448Y332926D01*
X276388Y333049D01*
X277264Y333412D01*
X278016Y333989D01*
X278593Y334741D01*
X278955Y335617D01*
X279079Y336557D01*
X278955Y337496D01*
X278593Y338372D01*
X278016Y339124D01*
X277264Y339701D01*
X276388Y340064D01*
X275726Y340151D01*
X275655Y340160D01*
X275688Y340661D01*
X289064D01*
X290256Y339469D01*
X290617Y339227D01*
X291043Y339142D01*
X291043Y339142D01*
X292257D01*
X292831Y338568D01*
X292603Y338272D01*
X292241Y337397D01*
X292117Y336457D01*
X292241Y335517D01*
X292603Y334641D01*
X293180Y333889D01*
X293933Y333312D01*
X294808Y332949D01*
X295748Y332826D01*
X296688Y332949D01*
X297564Y333312D01*
X298316Y333889D01*
X298893Y334641D01*
X299255Y335517D01*
X299379Y336457D01*
X299255Y337397D01*
X298893Y338272D01*
X298316Y339024D01*
X297564Y339601D01*
X296688Y339964D01*
X295748Y340088D01*
X294808Y339964D01*
X294650Y339899D01*
X293506Y341043D01*
X293144Y341285D01*
X292718Y341369D01*
X291505D01*
X290313Y342561D01*
X289951Y342803D01*
X289525Y342887D01*
X287692D01*
X287647Y342972D01*
X287562Y343388D01*
X288216Y343889D01*
X288793Y344641D01*
X289155Y345517D01*
X289279Y346457D01*
X289155Y347396D01*
X288793Y348272D01*
X288216Y349024D01*
X287464Y349601D01*
X286588Y349964D01*
X285648Y350088D01*
D02*
G37*
G36*
X299248Y350157D02*
X292048D01*
Y342957D01*
X299248D01*
Y350157D01*
D02*
G37*
G36*
X455815Y347473D02*
Y344004D01*
X459284D01*
X459212Y344548D01*
X458809Y345521D01*
X458168Y346357D01*
X457332Y346998D01*
X456359Y347401D01*
X455815Y347473D01*
D02*
G37*
G36*
X265248Y350425D02*
X264704Y350354D01*
X263731Y349951D01*
X262895Y349309D01*
X262254Y348474D01*
X261851Y347501D01*
X261779Y346957D01*
X265248D01*
Y350425D01*
D02*
G37*
G36*
X266248Y350425D02*
Y346957D01*
X269717D01*
X269645Y347501D01*
X269242Y348474D01*
X268601Y349309D01*
X267765Y349951D01*
X266792Y350354D01*
X266248Y350425D01*
D02*
G37*
G36*
X454815Y347473D02*
X454271Y347401D01*
X453298Y346998D01*
X452462Y346357D01*
X451821Y345521D01*
X451418Y344548D01*
X451346Y344004D01*
X454815D01*
Y347473D01*
D02*
G37*
G36*
X379224Y378240D02*
X377530D01*
X377605Y377862D01*
X378102Y377118D01*
X378847Y376621D01*
X379224Y376546D01*
Y378240D01*
D02*
G37*
G36*
X381919D02*
X380224D01*
Y376546D01*
X380602Y376621D01*
X381347Y377118D01*
X381844Y377862D01*
X381919Y378240D01*
D02*
G37*
G36*
X379224Y380935D02*
X378847Y380860D01*
X378102Y380362D01*
X377605Y379618D01*
X377530Y379240D01*
X379224D01*
Y380935D01*
D02*
G37*
G36*
X380224D02*
Y379240D01*
X381919D01*
X381844Y379618D01*
X381347Y380362D01*
X380602Y380860D01*
X380224Y380935D01*
D02*
G37*
G36*
X455815Y288418D02*
Y284949D01*
X459284D01*
X459212Y285493D01*
X458809Y286466D01*
X458168Y287302D01*
X457332Y287943D01*
X456359Y288346D01*
X455815Y288418D01*
D02*
G37*
G36*
X303634Y299500D02*
X301939D01*
X302014Y299122D01*
X302512Y298378D01*
X303256Y297881D01*
X303634Y297805D01*
Y299500D01*
D02*
G37*
G36*
X306329D02*
X304634D01*
Y297805D01*
X305012Y297881D01*
X305756Y298378D01*
X306253Y299122D01*
X306329Y299500D01*
D02*
G37*
G36*
X426575Y288080D02*
X425635Y287956D01*
X424759Y287593D01*
X424007Y287016D01*
X423430Y286264D01*
X423068Y285389D01*
X422944Y284449D01*
X423068Y283509D01*
X423430Y282633D01*
X424007Y281881D01*
X424759Y281304D01*
X425635Y280942D01*
X426575Y280818D01*
X427515Y280942D01*
X428390Y281304D01*
X429142Y281881D01*
X429719Y282633D01*
X430082Y283509D01*
X430206Y284449D01*
X430082Y285389D01*
X429719Y286264D01*
X429142Y287016D01*
X428390Y287593D01*
X427515Y287956D01*
X426575Y288080D01*
D02*
G37*
G36*
X416002Y288049D02*
X408802D01*
Y280849D01*
X416002D01*
Y288049D01*
D02*
G37*
G36*
X454815Y288418D02*
X454271Y288346D01*
X453298Y287943D01*
X452462Y287302D01*
X451821Y286466D01*
X451418Y285493D01*
X451346Y284949D01*
X454815D01*
Y288418D01*
D02*
G37*
G36*
Y313476D02*
X451346D01*
X451418Y312932D01*
X451821Y311959D01*
X452462Y311123D01*
X453298Y310482D01*
X454271Y310079D01*
X454815Y310008D01*
Y313476D01*
D02*
G37*
G36*
X303634Y302195D02*
X303256Y302119D01*
X302512Y301622D01*
X302014Y300878D01*
X301939Y300500D01*
X303634D01*
Y302195D01*
D02*
G37*
G36*
X304634D02*
Y300500D01*
X306329D01*
X306253Y300878D01*
X305756Y301622D01*
X305012Y302119D01*
X304634Y302195D01*
D02*
G37*
G36*
X353543Y303346D02*
Y303150D01*
X353740D01*
X353543Y303346D01*
D02*
G37*
G36*
X338583Y302953D02*
X328346D01*
Y272638D01*
X322795Y267086D01*
X322106Y267775D01*
X321808Y267974D01*
X321457Y268044D01*
X312635D01*
X312357Y268460D01*
X311745Y268869D01*
X311024Y269012D01*
X310302Y268869D01*
X309690Y268460D01*
X309281Y267848D01*
X309137Y267126D01*
X309235Y266635D01*
X303163Y260563D01*
X298462D01*
X298184Y260979D01*
X297572Y261388D01*
X296850Y261532D01*
X296129Y261388D01*
X295517Y260979D01*
X295108Y260367D01*
X294964Y259646D01*
X295108Y258924D01*
X295517Y258312D01*
X296129Y257903D01*
X296850Y257759D01*
X297572Y257903D01*
X298184Y258312D01*
X298462Y258728D01*
X303543D01*
X303894Y258798D01*
X304192Y258997D01*
X310533Y265337D01*
X311024Y265240D01*
X311745Y265383D01*
X312357Y265792D01*
X312635Y266208D01*
X321077D01*
X321497Y265788D01*
X305512Y249803D01*
X307874D01*
X308268Y249410D01*
X323072Y264213D01*
X356479Y230806D01*
X356382Y230315D01*
X356525Y229593D01*
X356934Y228981D01*
X357546Y228572D01*
X358268Y228429D01*
X358990Y228572D01*
X359601Y228981D01*
X360010Y229593D01*
X360154Y230315D01*
X360010Y231037D01*
X359601Y231649D01*
X358990Y232058D01*
X358268Y232201D01*
X357777Y232104D01*
X324369Y265511D01*
X338583Y279724D01*
Y302953D01*
D02*
G37*
G36*
X300394Y274130D02*
X299672Y273987D01*
X299060Y273578D01*
X298651Y272966D01*
X298507Y272244D01*
X298651Y271522D01*
X299060Y270910D01*
X299672Y270501D01*
X300394Y270358D01*
X301115Y270501D01*
X301728Y270910D01*
X302136Y271522D01*
X302280Y272244D01*
X302136Y272966D01*
X301728Y273578D01*
X301115Y273987D01*
X300394Y274130D01*
D02*
G37*
G36*
X384933Y279224D02*
X383239D01*
X383314Y278847D01*
X383811Y278102D01*
X384555Y277605D01*
X384933Y277530D01*
Y279224D01*
D02*
G37*
G36*
X278179Y259933D02*
X276484D01*
Y258239D01*
X276862Y258314D01*
X277606Y258811D01*
X278104Y259555D01*
X278179Y259933D01*
D02*
G37*
G36*
X275484Y262628D02*
X275106Y262552D01*
X274362Y262055D01*
X273865Y261311D01*
X273790Y260933D01*
X275484D01*
Y262628D01*
D02*
G37*
G36*
X276484D02*
Y260933D01*
X278179D01*
X278104Y261311D01*
X277606Y262055D01*
X276862Y262552D01*
X276484Y262628D01*
D02*
G37*
G36*
X385933Y281919D02*
Y280224D01*
X387628D01*
X387552Y280602D01*
X387055Y281347D01*
X386311Y281844D01*
X385933Y281919D01*
D02*
G37*
G36*
X454815Y283949D02*
X451346D01*
X451418Y283405D01*
X451821Y282432D01*
X452462Y281596D01*
X453298Y280955D01*
X454271Y280552D01*
X454815Y280480D01*
Y283949D01*
D02*
G37*
G36*
X459284D02*
X455815D01*
Y280480D01*
X456359Y280552D01*
X457332Y280955D01*
X458168Y281596D01*
X458809Y282432D01*
X459212Y283405D01*
X459284Y283949D01*
D02*
G37*
G36*
X387628Y279224D02*
X385933D01*
Y277530D01*
X386311Y277605D01*
X387055Y278102D01*
X387552Y278847D01*
X387628Y279224D01*
D02*
G37*
G36*
X426575Y317607D02*
X425635Y317484D01*
X424759Y317121D01*
X424007Y316544D01*
X423430Y315792D01*
X423068Y314916D01*
X422944Y313976D01*
X423068Y313037D01*
X423430Y312161D01*
X424007Y311409D01*
X424759Y310832D01*
X425635Y310469D01*
X426575Y310345D01*
X427515Y310469D01*
X428390Y310832D01*
X428408Y310845D01*
X432153Y307100D01*
Y283845D01*
X427652Y279343D01*
X427453Y279046D01*
X427383Y278695D01*
Y278576D01*
X426972Y278312D01*
X426883Y278321D01*
X426181Y278461D01*
X425459Y278317D01*
X424847Y277909D01*
X424438Y277297D01*
X424295Y276575D01*
X424438Y275853D01*
X424847Y275241D01*
X425264Y274963D01*
Y271049D01*
X399942Y245728D01*
X399743Y245430D01*
X399673Y245079D01*
Y240931D01*
X396989Y238247D01*
X396790Y237950D01*
X396720Y237598D01*
Y236848D01*
X396304Y236570D01*
X395895Y235958D01*
X395752Y235236D01*
X395895Y234514D01*
X396304Y233902D01*
X396916Y233494D01*
X397638Y233350D01*
X398360Y233494D01*
X398972Y233902D01*
X399380Y234514D01*
X399524Y235236D01*
X399380Y235958D01*
X398972Y236570D01*
X398675Y236768D01*
X398639Y237302D01*
X399605Y238268D01*
X400067Y238076D01*
Y233305D01*
X399651Y233027D01*
X399242Y232415D01*
X399098Y231693D01*
X399242Y230971D01*
X399651Y230359D01*
X400262Y229950D01*
X400984Y229807D01*
X401706Y229950D01*
X402318Y230359D01*
X402727Y230971D01*
X402871Y231693D01*
X402727Y232415D01*
X402318Y233027D01*
X401902Y233305D01*
Y238868D01*
X405114Y242080D01*
X405639Y241898D01*
X405738Y241404D01*
X406146Y240792D01*
X406758Y240383D01*
X407480Y240240D01*
X408202Y240383D01*
X408814Y240792D01*
X409092Y241208D01*
X436628D01*
X439156Y238680D01*
X439059Y238189D01*
X439202Y237467D01*
X439611Y236855D01*
X440223Y236446D01*
X440945Y236303D01*
X441667Y236446D01*
X442279Y236855D01*
X442688Y237467D01*
X442831Y238189D01*
X442688Y238911D01*
X442279Y239523D01*
X441667Y239932D01*
X440945Y240075D01*
X440454Y239978D01*
X437657Y242775D01*
X437359Y242974D01*
X437008Y243044D01*
X409092D01*
X408814Y243460D01*
X408202Y243869D01*
X407708Y243967D01*
X407526Y244492D01*
X428980Y265946D01*
X429179Y266244D01*
X429249Y266595D01*
Y277465D01*
X429218Y277617D01*
Y278314D01*
X433720Y282816D01*
X433919Y283113D01*
X433989Y283465D01*
Y307480D01*
X433919Y307832D01*
X433720Y308129D01*
X429706Y312143D01*
X429719Y312161D01*
X430082Y313037D01*
X430206Y313976D01*
X430082Y314916D01*
X429719Y315792D01*
X429142Y316544D01*
X428390Y317121D01*
X427515Y317484D01*
X426575Y317607D01*
D02*
G37*
G36*
X384933Y281919D02*
X384555Y281844D01*
X383811Y281347D01*
X383314Y280602D01*
X383239Y280224D01*
X384933D01*
Y281919D01*
D02*
G37*
G36*
X459284Y313476D02*
X455815D01*
Y310008D01*
X456359Y310079D01*
X457332Y310482D01*
X458168Y311123D01*
X458809Y311959D01*
X459212Y312932D01*
X459284Y313476D01*
D02*
G37*
G36*
X385130Y340187D02*
X384752Y340112D01*
X384008Y339614D01*
X383510Y338870D01*
X383435Y338492D01*
X385130D01*
Y340187D01*
D02*
G37*
G36*
X386130D02*
Y338492D01*
X387825D01*
X387749Y338870D01*
X387252Y339614D01*
X386508Y340112D01*
X386130Y340187D01*
D02*
G37*
G36*
X426575Y347135D02*
X425635Y347011D01*
X424759Y346649D01*
X424007Y346072D01*
X423430Y345320D01*
X423068Y344444D01*
X422944Y343504D01*
X423068Y342564D01*
X423430Y341688D01*
X424007Y340936D01*
X424759Y340359D01*
X425635Y339997D01*
X426575Y339873D01*
X427515Y339997D01*
X428390Y340359D01*
X429142Y340936D01*
X429719Y341688D01*
X430082Y342564D01*
X430206Y343504D01*
X430082Y344444D01*
X429719Y345320D01*
X429142Y346072D01*
X428390Y346649D01*
X427515Y347011D01*
X426575Y347135D01*
D02*
G37*
G36*
X440748Y376663D02*
X439808Y376539D01*
X438933Y376176D01*
X438180Y375599D01*
X437603Y374847D01*
X437241Y373971D01*
X437117Y373031D01*
X437241Y372092D01*
X437603Y371216D01*
X438180Y370464D01*
X438933Y369887D01*
X439808Y369524D01*
X439830Y369521D01*
Y349399D01*
X436199Y345768D01*
X436000Y345470D01*
X435930Y345119D01*
Y280549D01*
X436000Y280198D01*
X436090Y280063D01*
Y270313D01*
X435674Y270035D01*
X435265Y269423D01*
X435122Y268701D01*
X435219Y268210D01*
X421751Y254741D01*
X421260Y254839D01*
X420538Y254695D01*
X419926Y254287D01*
X419517Y253675D01*
X419374Y252953D01*
X419517Y252231D01*
X419926Y251619D01*
X420538Y251210D01*
X421260Y251066D01*
X421982Y251210D01*
X422594Y251619D01*
X423002Y252231D01*
X423146Y252953D01*
X423048Y253444D01*
X436517Y266912D01*
X437008Y266815D01*
X437730Y266958D01*
X438342Y267367D01*
X438751Y267979D01*
X438894Y268701D01*
X438751Y269423D01*
X438342Y270035D01*
X437925Y270313D01*
Y280389D01*
X437856Y280740D01*
X437766Y280875D01*
Y281676D01*
X438266Y281816D01*
X438933Y281304D01*
X439808Y280942D01*
X440748Y280818D01*
X441688Y280942D01*
X442564Y281304D01*
X443316Y281881D01*
X443893Y282633D01*
X444255Y283509D01*
X444379Y284449D01*
X444255Y285389D01*
X443893Y286264D01*
X443316Y287016D01*
X442564Y287593D01*
X441688Y287956D01*
X440748Y288080D01*
X439808Y287956D01*
X438933Y287593D01*
X438266Y287082D01*
X437766Y287222D01*
Y311203D01*
X438266Y311344D01*
X438933Y310832D01*
X439808Y310469D01*
X440748Y310345D01*
X441688Y310469D01*
X442564Y310832D01*
X443316Y311409D01*
X443893Y312161D01*
X444255Y313037D01*
X444379Y313976D01*
X444255Y314916D01*
X443893Y315792D01*
X443316Y316544D01*
X442564Y317121D01*
X441688Y317484D01*
X440748Y317607D01*
X439808Y317484D01*
X438933Y317121D01*
X438266Y316609D01*
X437766Y316749D01*
Y340731D01*
X438266Y340871D01*
X438933Y340359D01*
X439808Y339997D01*
X440748Y339873D01*
X441688Y339997D01*
X442564Y340359D01*
X443316Y340936D01*
X443893Y341688D01*
X444255Y342564D01*
X444379Y343504D01*
X444255Y344444D01*
X443893Y345320D01*
X443316Y346072D01*
X442564Y346649D01*
X441688Y347011D01*
X440855Y347121D01*
X440600Y347574D01*
X441397Y348371D01*
X441596Y348668D01*
X441666Y349019D01*
Y369521D01*
X441688Y369524D01*
X442564Y369887D01*
X443316Y370464D01*
X443893Y371216D01*
X444255Y372092D01*
X444379Y373031D01*
X444255Y373971D01*
X443893Y374847D01*
X443316Y375599D01*
X442564Y376176D01*
X441688Y376539D01*
X440748Y376663D01*
D02*
G37*
G36*
X416002Y347104D02*
X408802D01*
Y339904D01*
X416002D01*
Y347104D01*
D02*
G37*
G36*
X454815Y343004D02*
X451346D01*
X451418Y342460D01*
X451821Y341487D01*
X452462Y340651D01*
X453298Y340010D01*
X454271Y339607D01*
X454815Y339535D01*
Y343004D01*
D02*
G37*
G36*
X459284D02*
X455815D01*
Y339535D01*
X456359Y339607D01*
X457332Y340010D01*
X458168Y340651D01*
X458809Y341487D01*
X459212Y342460D01*
X459284Y343004D01*
D02*
G37*
G36*
X387825Y337492D02*
X386130D01*
Y335798D01*
X386508Y335873D01*
X387252Y336370D01*
X387749Y337114D01*
X387825Y337492D01*
D02*
G37*
G36*
X454815Y317945D02*
X454271Y317873D01*
X453298Y317470D01*
X452462Y316829D01*
X451821Y315994D01*
X451418Y315021D01*
X451346Y314476D01*
X454815D01*
Y317945D01*
D02*
G37*
G36*
X455815D02*
Y314476D01*
X459284D01*
X459212Y315021D01*
X458809Y315994D01*
X458168Y316829D01*
X457332Y317470D01*
X456359Y317873D01*
X455815Y317945D01*
D02*
G37*
G36*
X416002Y317576D02*
X408802D01*
Y310376D01*
X416002D01*
Y317576D01*
D02*
G37*
G36*
X285648Y340088D02*
X284708Y339964D01*
X283833Y339601D01*
X283081Y339024D01*
X282503Y338272D01*
X282141Y337397D01*
X282017Y336457D01*
X282141Y335517D01*
X282503Y334641D01*
X283081Y333889D01*
X283833Y333312D01*
X284708Y332949D01*
X285648Y332826D01*
X286588Y332949D01*
X287464Y333312D01*
X288216Y333889D01*
X288793Y334641D01*
X289155Y335517D01*
X289279Y336457D01*
X289155Y337397D01*
X288793Y338272D01*
X288216Y339024D01*
X287464Y339601D01*
X286588Y339964D01*
X285648Y340088D01*
D02*
G37*
G36*
X385130Y337492D02*
X383435D01*
X383510Y337114D01*
X384008Y336370D01*
X384752Y335873D01*
X385130Y335798D01*
Y337492D01*
D02*
G37*
%LPD*%
G36*
X427414Y269994D02*
Y266975D01*
X401970Y241531D01*
X401508Y241723D01*
Y244699D01*
X426830Y270020D01*
X426913Y270145D01*
X427414Y269994D01*
D02*
G37*
%LPC*%
G36*
X180996Y154815D02*
X179301D01*
X179377Y154437D01*
X179874Y153693D01*
X180618Y153196D01*
X180996Y153120D01*
Y154815D01*
D02*
G37*
G36*
X183691D02*
X181996D01*
Y153120D01*
X182374Y153196D01*
X183118Y153693D01*
X183616Y154437D01*
X183691Y154815D01*
D02*
G37*
G36*
X181996Y157510D02*
Y155815D01*
X183691D01*
X183616Y156193D01*
X183118Y156937D01*
X182374Y157434D01*
X181996Y157510D01*
D02*
G37*
G36*
X180996D02*
X180618Y157434D01*
X179874Y156937D01*
X179377Y156193D01*
X179301Y155815D01*
X180996D01*
Y157510D01*
D02*
G37*
%LPD*%
D22*
X234567Y43307D02*
X243268Y34606D01*
X223425Y43307D02*
X234567D01*
X230413Y24606D02*
X233268D01*
X224313Y30706D02*
X230413Y24606D01*
X221652Y30706D02*
X224313D01*
X219368Y32991D02*
X221652Y30706D01*
X219368Y32991D02*
Y35652D01*
X215650Y39370D02*
X219368Y35652D01*
X321457Y267126D02*
X358268Y230315D01*
X311024Y267126D02*
X321457D01*
X407480Y242126D02*
X437008D01*
X440945Y238189D01*
X400984Y239248D02*
X428331Y266595D01*
X421260Y252953D02*
X437008Y268701D01*
Y280389D01*
X436848Y280549D02*
X437008Y280389D01*
X436848Y280549D02*
Y345119D01*
X440748Y349019D01*
Y373031D01*
X428301Y278695D02*
X433071Y283465D01*
X428301Y277496D02*
Y278695D01*
Y277496D02*
X428331Y277465D01*
Y266595D02*
Y277465D01*
X433071Y283465D02*
Y307480D01*
X400984Y231693D02*
Y239248D01*
X426575Y313976D02*
X433071Y307480D01*
X397638Y237598D02*
X400591Y240551D01*
X397638Y235236D02*
Y237598D01*
X400591Y240551D02*
Y245079D01*
X426181Y270669D01*
Y276575D01*
X386614Y256890D02*
Y268504D01*
X409449Y192913D02*
X423228D01*
X431099Y189563D02*
X433071Y191535D01*
X294488Y230906D02*
X335830Y189563D01*
X429258Y190763D02*
X432180Y193685D01*
X326378Y207283D02*
X342898Y190763D01*
X429258D01*
X335830Y189563D02*
X431099D01*
X335039Y187598D02*
X435433D01*
X274410Y126969D02*
X335039Y187598D01*
X194488Y156496D02*
X196850Y158858D01*
X189764Y156496D02*
X194488D01*
X343701Y370669D02*
X345669Y368701D01*
X359055D01*
X371260Y211221D02*
X394488D01*
X402151Y203558D01*
X303543Y259646D02*
X311024Y267126D01*
X296850Y259646D02*
X303543D01*
X323228Y207677D02*
X323622Y207283D01*
X326378D01*
X432180Y193685D02*
X433961D01*
X434930Y192717D01*
X444095D01*
X436221Y234449D02*
X443307Y227362D01*
X424409Y234449D02*
X436221D01*
X428237Y205709D02*
X440945D01*
X426086Y203558D02*
X428237Y205709D01*
X402151Y203558D02*
X426086D01*
X443701Y208070D02*
X445276Y206496D01*
X427848Y210220D02*
X445095D01*
X445276Y210039D01*
X426589Y208961D02*
X427848Y210220D01*
X426589Y207180D02*
Y208961D01*
Y207180D02*
X426590Y207179D01*
Y207102D02*
Y207179D01*
X428739Y208070D02*
X443701D01*
X335826Y183268D02*
X439370D01*
X277165Y124606D02*
X335826Y183268D01*
X267717Y97835D02*
Y104528D01*
X233858Y63976D02*
X267717Y97835D01*
X263386Y97047D02*
Y104134D01*
X257874Y91535D02*
X263386Y97047D01*
X254331Y91535D02*
X257874D01*
X263386Y104134D02*
X263779Y104528D01*
X229921Y67126D02*
X254331Y91535D01*
X176772Y236024D02*
X294880D01*
X294881Y236023D01*
X425196Y205708D02*
X426590Y207102D01*
X298976Y109252D02*
X305118Y103110D01*
X239370Y109252D02*
X298976D01*
X174015Y168307D02*
X233071Y109251D01*
X172146Y154921D02*
X198917Y128150D01*
X172146Y154921D02*
Y165059D01*
X159350Y157382D02*
X197638Y119095D01*
D24*
X181594Y120669D02*
X208760Y93504D01*
X157545Y162500D02*
X211811Y108233D01*
Y108071D02*
Y108233D01*
X157382Y162500D02*
X157545D01*
X233071Y342717D02*
X234013Y341774D01*
X291043Y340256D02*
X292718D01*
X289525Y341774D02*
X291043Y340256D01*
X234013Y341774D02*
X289525D01*
X292718Y340256D02*
X297108Y335866D01*
D26*
X176181Y289370D02*
Y315354D01*
X150787Y130905D02*
X173622Y108071D01*
X248031Y117126D02*
Y151772D01*
X192520Y185236D02*
X209842D01*
X513386Y203740D02*
X527559D01*
X324409Y285630D02*
X346063D01*
X196850Y262402D02*
X222835D01*
X191929Y243110D02*
X214764D01*
X65354Y288779D02*
Y311614D01*
X512205Y159252D02*
X528740D01*
X531102Y248622D02*
Y253740D01*
X521654Y111614D02*
Y142717D01*
D28*
X455315Y373031D02*
D03*
X440748D02*
D03*
X426575D02*
D03*
X423071Y164528D02*
D03*
X413071D02*
D03*
X433071Y154528D02*
D03*
X423071D02*
D03*
X413071D02*
D03*
X97441Y342520D02*
D03*
X117717D02*
D03*
X107579D02*
D03*
X295748Y336457D02*
D03*
X285648D02*
D03*
Y346457D02*
D03*
X275448Y336557D02*
D03*
X275748Y346457D02*
D03*
X265748Y336557D02*
D03*
Y346457D02*
D03*
X223268Y24606D02*
D03*
X233268D02*
D03*
X243268D02*
D03*
X223268Y34606D02*
D03*
X233268D02*
D03*
X426575Y343504D02*
D03*
X440748D02*
D03*
X455315D02*
D03*
Y313976D02*
D03*
X440748D02*
D03*
X426575D02*
D03*
Y284449D02*
D03*
X440748D02*
D03*
X455315D02*
D03*
X682087Y398622D02*
D03*
X680118Y9843D02*
D03*
X8661Y13189D02*
D03*
X12795Y392717D02*
D03*
X153937Y347441D02*
D03*
X174213D02*
D03*
X164075D02*
D03*
D29*
X412402Y373031D02*
D03*
X433071Y164528D02*
D03*
X295648Y346557D02*
D03*
X243268Y34606D02*
D03*
X412402Y343504D02*
D03*
Y313976D02*
D03*
Y284449D02*
D03*
D30*
X679134Y213740D02*
D03*
Y203740D02*
D03*
Y223740D02*
D03*
X388189Y110039D02*
D03*
Y100039D02*
D03*
X305118Y103110D02*
D03*
Y93110D02*
D03*
D31*
X679134Y193740D02*
D03*
D32*
X90039Y381693D02*
D03*
X114567D02*
D03*
X152874Y382874D02*
D03*
D33*
X80039Y381693D02*
D03*
X124567D02*
D03*
X162874Y382874D02*
D03*
D34*
X388189Y120039D02*
D03*
X305118Y113110D02*
D03*
D35*
X43307Y143110D02*
D03*
X44488Y213976D02*
D03*
X43504Y322835D02*
D03*
D36*
X43307Y162795D02*
D03*
X44488Y233661D02*
D03*
X43504Y342520D02*
D03*
D37*
X316929Y252953D02*
D03*
X223425Y43307D02*
D03*
X215650Y39370D02*
D03*
X623032Y216535D02*
D03*
X358268Y230315D02*
D03*
X407480Y242126D02*
D03*
X440945Y238189D02*
D03*
X421260Y252953D02*
D03*
X437008Y268701D02*
D03*
X400984Y231693D02*
D03*
X397638Y235236D02*
D03*
X426181Y276575D02*
D03*
X386614Y268504D02*
D03*
Y256890D02*
D03*
X409449Y192913D02*
D03*
X423228D02*
D03*
X189764Y156496D02*
D03*
X484252Y251378D02*
D03*
X385433Y279724D02*
D03*
X385630Y337992D02*
D03*
X379724Y378740D02*
D03*
X356693Y223031D02*
D03*
X371260Y211221D02*
D03*
X296850Y259646D02*
D03*
X311024Y267126D02*
D03*
X323228Y207677D02*
D03*
X444095Y192717D02*
D03*
X443307Y227362D02*
D03*
X424409Y234449D02*
D03*
X428739Y208070D02*
D03*
X440945Y205709D02*
D03*
X439370Y183268D02*
D03*
X277165Y124606D02*
D03*
X267717Y104528D02*
D03*
X233858Y63976D02*
D03*
X435433Y187598D02*
D03*
X274410Y126969D02*
D03*
X263779Y104528D02*
D03*
X229921Y67126D02*
D03*
X294881Y236023D02*
D03*
X294488Y230906D02*
D03*
X433071Y191535D02*
D03*
X445276Y206496D02*
D03*
X300394Y272244D02*
D03*
X275984Y260433D02*
D03*
X445276Y210039D02*
D03*
X425196Y205708D02*
D03*
X510630Y227362D02*
D03*
X457874Y219094D02*
D03*
X429921Y250590D02*
D03*
X239370Y109252D02*
D03*
X164961Y69095D02*
D03*
X242913Y102165D02*
D03*
X233071Y109251D02*
D03*
X174015Y168307D02*
D03*
X172146Y165059D02*
D03*
X197638Y119095D02*
D03*
X181594Y120669D02*
D03*
X159350Y157382D02*
D03*
X198917Y128150D02*
D03*
X211811Y108071D02*
D03*
X157382Y162500D02*
D03*
X208760Y93504D02*
D03*
X141535Y193307D02*
D03*
X181496Y155315D02*
D03*
X117815Y149705D02*
D03*
X304134Y300000D02*
D03*
X233071Y342717D02*
D03*
X162598Y309646D02*
D03*
D38*
X176772Y236024D02*
D03*
X286221Y74213D02*
D03*
M02*
