G04 Layer_Color=16711935*
%FSLAX25Y25*%
%MOIN*%
G70*
G01*
G75*
%ADD66C,0.00200*%
%ADD67C,0.00394*%
D66*
X252052Y406053D02*
X309548D01*
X253052Y426316D02*
Y426982D01*
X253385Y427315D01*
X253718Y426982D01*
Y426316D01*
Y426816D01*
X253052D01*
X254052Y426316D02*
Y427315D01*
X254718Y426316D01*
Y427315D01*
X255051D02*
X255718D01*
X255385D01*
Y426316D01*
X256717Y427315D02*
X256051D01*
Y426316D01*
X256717D01*
X256051Y426816D02*
X256384D01*
X257051Y426316D02*
Y427315D01*
X257717Y426316D01*
Y427315D01*
X258050Y426316D02*
Y427315D01*
X258717Y426316D01*
Y427315D01*
X259050Y426316D02*
Y426982D01*
X259383Y427315D01*
X259717Y426982D01*
Y426316D01*
Y426816D01*
X259050D01*
X261049Y426316D02*
Y426982D01*
X261383Y427315D01*
X261716Y426982D01*
Y426316D01*
Y426816D01*
X261049D01*
X262049Y426316D02*
Y427315D01*
X262549D01*
X262716Y427149D01*
Y426816D01*
X262549Y426649D01*
X262049D01*
X262382D02*
X262716Y426316D01*
X263715Y427315D02*
X263049D01*
Y426316D01*
X263715D01*
X263049Y426816D02*
X263382D01*
X264049Y426316D02*
Y426982D01*
X264382Y427315D01*
X264715Y426982D01*
Y426316D01*
Y426816D01*
X264049D01*
X253718Y425149D02*
X253552Y425315D01*
X253219D01*
X253052Y425149D01*
Y424482D01*
X253219Y424316D01*
X253552D01*
X253718Y424482D01*
X254052Y425315D02*
Y424482D01*
X254218Y424316D01*
X254552D01*
X254718Y424482D01*
Y425315D01*
X255051D02*
X255718D01*
X255385D01*
Y424316D01*
X256551Y425315D02*
X256218D01*
X256051Y425149D01*
Y424482D01*
X256218Y424316D01*
X256551D01*
X256717Y424482D01*
Y425149D01*
X256551Y425315D01*
X257051D02*
Y424482D01*
X257217Y424316D01*
X257551D01*
X257717Y424482D01*
Y425315D01*
X258050D02*
X258717D01*
X258384D01*
Y424316D01*
X260050D02*
Y425315D01*
X260550D01*
X260716Y425149D01*
Y424816D01*
X260550Y424649D01*
X260050D01*
X261549Y425315D02*
X261216D01*
X261049Y425149D01*
Y424482D01*
X261216Y424316D01*
X261549D01*
X261716Y424482D01*
Y425149D01*
X261549Y425315D01*
X262049D02*
Y424316D01*
X262716D01*
X263049Y425315D02*
Y425149D01*
X263382Y424816D01*
X263715Y425149D01*
Y425315D01*
X263382Y424816D02*
Y424316D01*
X264715Y425149D02*
X264548Y425315D01*
X264215D01*
X264049Y425149D01*
Y424482D01*
X264215Y424316D01*
X264548D01*
X264715Y424482D01*
Y424816D01*
X264382D01*
X265548Y425315D02*
X265215D01*
X265048Y425149D01*
Y424482D01*
X265215Y424316D01*
X265548D01*
X265715Y424482D01*
Y425149D01*
X265548Y425315D01*
X266048Y424316D02*
Y425315D01*
X266714Y424316D01*
Y425315D01*
D67*
X177165Y316634D02*
Y322342D01*
X168504Y316634D02*
Y322342D01*
Y316634D02*
X177165D01*
X168504Y322342D02*
X177165D01*
X177559Y325295D02*
Y331004D01*
X168898Y325295D02*
Y331004D01*
Y325295D02*
X177559D01*
X168898Y331004D02*
X177559D01*
X644587Y223819D02*
X650295D01*
X644587Y215158D02*
X650295D01*
Y223819D01*
X644587Y215158D02*
Y223819D01*
X652461D02*
X658169D01*
X652461Y215158D02*
X658169D01*
Y223819D01*
X652461Y215158D02*
Y223819D01*
X360925Y230709D02*
X366634D01*
X360925Y222047D02*
X366634D01*
Y230709D01*
X360925Y222047D02*
Y230709D01*
X391634Y229921D02*
X397342D01*
X391634Y221260D02*
X397342D01*
Y229921D01*
X391634Y221260D02*
Y229921D01*
X371949Y230709D02*
X377658D01*
X371949Y222047D02*
X377658D01*
Y230709D01*
X371949Y222047D02*
Y230709D01*
X381791Y230906D02*
X387500D01*
X381791Y222244D02*
X387500D01*
Y230906D01*
X381791Y222244D02*
Y230906D01*
X498032Y188681D02*
Y194390D01*
X506693Y188681D02*
Y194390D01*
X498032D02*
X506693D01*
X498032Y188681D02*
X506693D01*
X498228Y224508D02*
Y230217D01*
X506890Y224508D02*
Y230217D01*
X498228D02*
X506890D01*
X498228Y224508D02*
X506890D01*
X337303Y104527D02*
X343012D01*
X337303Y95866D02*
X343012D01*
Y104527D01*
X337303Y95866D02*
Y104527D01*
X347933D02*
X353642D01*
X347933Y95866D02*
X353642D01*
Y104527D01*
X347933Y95866D02*
Y104527D01*
X356988Y105118D02*
X362697D01*
X356988Y96457D02*
X362697D01*
Y105118D01*
X356988Y96457D02*
Y105118D01*
X328248Y104527D02*
X333957D01*
X328248Y95866D02*
X333957D01*
Y104527D01*
X328248Y95866D02*
Y104527D01*
X477362Y264272D02*
Y269980D01*
X486024Y264272D02*
Y269980D01*
X477362D02*
X486024D01*
X477362Y264272D02*
X486024D01*
X392717Y283169D02*
Y288878D01*
X384055Y283169D02*
Y288878D01*
Y283169D02*
X392717D01*
X384055Y288878D02*
X392717D01*
X393110Y340650D02*
Y346358D01*
X384449Y340650D02*
Y346358D01*
Y340650D02*
X393110D01*
X384449Y346358D02*
X393110D01*
X391732Y367618D02*
Y373327D01*
X383071Y367618D02*
Y373327D01*
Y367618D02*
X391732D01*
X383071Y373327D02*
X391732D01*
X476772Y254429D02*
Y260138D01*
X485433Y254429D02*
Y260138D01*
X476772D02*
X485433D01*
X476772Y254429D02*
X485433D01*
X392913Y292224D02*
Y297933D01*
X384252Y292224D02*
Y297933D01*
Y292224D02*
X392913D01*
X384252Y297933D02*
X392913D01*
X393110Y349114D02*
Y354823D01*
X384449Y349114D02*
Y354823D01*
Y349114D02*
X393110D01*
X384449Y354823D02*
X393110D01*
X392126Y375492D02*
Y381201D01*
X383465Y375492D02*
Y381201D01*
Y375492D02*
X392126D01*
X383465Y381201D02*
X392126D01*
X164075Y162402D02*
X169783D01*
X164075Y153740D02*
X169783D01*
Y162402D01*
X164075Y153740D02*
Y162402D01*
X173917Y162598D02*
X179626D01*
X173917Y153937D02*
X179626D01*
Y162598D01*
X173917Y153937D02*
Y162598D01*
X149213Y176083D02*
Y181791D01*
X140551Y176083D02*
Y181791D01*
Y176083D02*
X149213D01*
X140551Y181791D02*
X149213D01*
X148819Y185531D02*
Y191240D01*
X140157Y185531D02*
Y191240D01*
Y185531D02*
X148819D01*
X140157Y191240D02*
X148819D01*
X167618Y76772D02*
X173327D01*
X167618Y68110D02*
X173327D01*
Y76772D01*
X167618Y68110D02*
Y76772D01*
X176279D02*
X181988D01*
X176279Y68110D02*
X181988D01*
Y76772D01*
X176279Y68110D02*
Y76772D01*
X186516Y76968D02*
X192224D01*
X186516Y68307D02*
X192224D01*
Y76968D01*
X186516Y68307D02*
Y76968D01*
X195177D02*
X200886D01*
X195177Y68307D02*
X200886D01*
Y76968D01*
X195177Y68307D02*
Y76968D01*
X327953Y30413D02*
Y36122D01*
X336614Y30413D02*
Y36122D01*
X327953D02*
X336614D01*
X327953Y30413D02*
X336614D01*
X328740Y66240D02*
Y71949D01*
X337402Y66240D02*
Y71949D01*
X328740D02*
X337402D01*
X328740Y66240D02*
X337402D01*
X155512Y316240D02*
Y321949D01*
X164173Y316240D02*
Y321949D01*
X155512D02*
X164173D01*
X155512Y316240D02*
X164173D01*
X155512Y325295D02*
Y331004D01*
X164173Y325295D02*
Y331004D01*
X155512D02*
X164173D01*
X155512Y325295D02*
X164173D01*
X97047Y315453D02*
Y321161D01*
X105709Y315453D02*
Y321161D01*
X97047D02*
X105709D01*
X97047Y315453D02*
X105709D01*
X97047Y324902D02*
Y330610D01*
X105709Y324902D02*
Y330610D01*
X97047D02*
X105709D01*
X97047Y324902D02*
X105709D01*
X122047Y315059D02*
Y320768D01*
X113386Y315059D02*
Y320768D01*
Y315059D02*
X122047D01*
X113386Y320768D02*
X122047D01*
X121850Y324803D02*
Y330512D01*
X113189Y324803D02*
Y330512D01*
Y324803D02*
X121850D01*
X113189Y330512D02*
X121850D01*
X296457Y242224D02*
Y247933D01*
X305118Y242224D02*
Y247933D01*
X296457D02*
X305118D01*
X296457Y242224D02*
X305118D01*
X296850Y233563D02*
Y239272D01*
X305512Y233563D02*
Y239272D01*
X296850D02*
X305512D01*
X296850Y233563D02*
X305512D01*
X296457Y284350D02*
Y290059D01*
X305118Y284350D02*
Y290059D01*
X296457D02*
X305118D01*
X296457Y284350D02*
X305118D01*
X296850Y292618D02*
Y298327D01*
X305512Y292618D02*
Y298327D01*
X296850D02*
X305512D01*
X296850Y292618D02*
X305512D01*
X298425Y367815D02*
Y373524D01*
X289764Y367815D02*
Y373524D01*
Y367815D02*
X298425D01*
X289764Y373524D02*
X298425D01*
X298031Y353642D02*
Y359350D01*
X289370Y353642D02*
Y359350D01*
Y353642D02*
X298031D01*
X289370Y359350D02*
X298031D01*
M02*
