G04 Layer_Color=32896*
%FSLAX25Y25*%
%MOIN*%
G70*
G01*
G75*
%ADD40C,0.01000*%
D40*
X460827Y387205D02*
X461614Y386417D01*
X398228Y387205D02*
X460827D01*
X461614Y359252D02*
Y386417D01*
X461221Y358858D02*
X461614Y359252D01*
X398228Y358858D02*
X461221D01*
X398228Y373031D02*
Y387205D01*
Y358858D02*
Y373031D01*
Y329331D02*
Y343504D01*
Y357677D01*
Y329331D02*
X461221D01*
X461614Y329724D01*
Y356890D01*
X398228Y357677D02*
X460827D01*
X461614Y356890D01*
X460827Y328150D02*
X461614Y327362D01*
X398228Y328150D02*
X460827D01*
X461614Y300197D02*
Y327362D01*
X461221Y299803D02*
X461614Y300197D01*
X398228Y299803D02*
X461221D01*
X398228Y313976D02*
Y328150D01*
Y299803D02*
Y313976D01*
Y270276D02*
Y284449D01*
Y298622D01*
Y270276D02*
X461221D01*
X461614Y270669D01*
Y297835D01*
X398228Y298622D02*
X460827D01*
X461614Y297835D01*
X486552Y385117D02*
X487552Y386116D01*
X489551D01*
X490551Y385117D01*
Y381118D01*
X489551Y380118D01*
X487552D01*
X486552Y381118D01*
X481554Y386116D02*
X483553D01*
X484553Y385117D01*
Y381118D01*
X483553Y380118D01*
X481554D01*
X480554Y381118D01*
Y385117D01*
X481554Y386116D01*
X478555Y380118D02*
Y386116D01*
X474556Y380118D01*
Y386116D01*
X468558D02*
X472557D01*
Y383117D01*
X470558Y384117D01*
X469558D01*
X468558Y383117D01*
Y381118D01*
X469558Y380118D01*
X471557D01*
X472557Y381118D01*
X485568Y358345D02*
X486568Y359345D01*
X488567D01*
X489567Y358345D01*
Y354346D01*
X488567Y353346D01*
X486568D01*
X485568Y354346D01*
X480570Y359345D02*
X482569D01*
X483569Y358345D01*
Y354346D01*
X482569Y353346D01*
X480570D01*
X479570Y354346D01*
Y358345D01*
X480570Y359345D01*
X477571Y353346D02*
Y359345D01*
X473572Y353346D01*
Y359345D01*
X467574D02*
X469573Y358345D01*
X471573Y356346D01*
Y354346D01*
X470573Y353346D01*
X468574D01*
X467574Y354346D01*
Y355346D01*
X468574Y356346D01*
X471573D01*
X483993Y326849D02*
X484993Y327849D01*
X486992D01*
X487992Y326849D01*
Y322850D01*
X486992Y321850D01*
X484993D01*
X483993Y322850D01*
X478995Y327849D02*
X480994D01*
X481994Y326849D01*
Y322850D01*
X480994Y321850D01*
X478995D01*
X477995Y322850D01*
Y326849D01*
X478995Y327849D01*
X475996Y321850D02*
Y327849D01*
X471997Y321850D01*
Y327849D01*
X469998D02*
X465999D01*
Y326849D01*
X469998Y322850D01*
Y321850D01*
X482812Y293384D02*
X483812Y294384D01*
X485811D01*
X486811Y293384D01*
Y289386D01*
X485811Y288386D01*
X483812D01*
X482812Y289386D01*
X477814Y294384D02*
X479813D01*
X480813Y293384D01*
Y289386D01*
X479813Y288386D01*
X477814D01*
X476814Y289386D01*
Y293384D01*
X477814Y294384D01*
X474815Y288386D02*
Y294384D01*
X470816Y288386D01*
Y294384D01*
X468817Y293384D02*
X467817Y294384D01*
X465818D01*
X464818Y293384D01*
Y292385D01*
X465818Y291385D01*
X464818Y290385D01*
Y289386D01*
X465818Y288386D01*
X467817D01*
X468817Y289386D01*
Y290385D01*
X467817Y291385D01*
X468817Y292385D01*
Y293384D01*
X467817Y291385D02*
X465818D01*
M02*
