G04 Layer_Color=65535*
%FSLAX25Y25*%
%MOIN*%
G70*
G01*
G75*
%ADD24C,0.00984*%
%ADD25C,0.03937*%
%ADD39C,0.02362*%
%ADD40C,0.01000*%
%ADD41C,0.00787*%
%ADD42C,0.00050*%
G36*
X250883Y326757D02*
X250548D01*
Y329276D01*
X250883D01*
Y326757D01*
D02*
G37*
G36*
X255051D02*
X254741D01*
Y328726D01*
X254738Y328722D01*
X254719Y328708D01*
X254698Y328686D01*
X254661Y328660D01*
X254621Y328628D01*
X254570Y328591D01*
X254512Y328551D01*
X254447Y328511D01*
X254443D01*
X254439Y328507D01*
X254417Y328493D01*
X254381Y328475D01*
X254337Y328453D01*
X254286Y328427D01*
X254232Y328402D01*
X254177Y328377D01*
X254122Y328355D01*
Y328653D01*
X254126D01*
X254133Y328660D01*
X254148Y328664D01*
X254166Y328675D01*
X254188Y328686D01*
X254214Y328700D01*
X254275Y328737D01*
X254348Y328777D01*
X254421Y328828D01*
X254497Y328886D01*
X254574Y328948D01*
X254577Y328952D01*
X254581Y328955D01*
X254592Y328966D01*
X254607Y328977D01*
X254639Y329013D01*
X254683Y329057D01*
X254727Y329108D01*
X254774Y329166D01*
X254814Y329225D01*
X254851Y329287D01*
X255051D01*
Y326757D01*
D02*
G37*
G36*
X252623Y329316D02*
X252656Y329312D01*
X252696Y329308D01*
X252736Y329305D01*
X252783Y329294D01*
X252881Y329272D01*
X252991Y329239D01*
X253045Y329217D01*
X253096Y329192D01*
X253147Y329159D01*
X253198Y329126D01*
X253202Y329123D01*
X253209Y329119D01*
X253223Y329108D01*
X253242Y329090D01*
X253260Y329072D01*
X253285Y329046D01*
X253311Y329017D01*
X253340Y328988D01*
X253369Y328952D01*
X253398Y328908D01*
X253431Y328864D01*
X253460Y328817D01*
X253485Y328762D01*
X253515Y328708D01*
X253537Y328649D01*
X253558Y328584D01*
X253231Y328507D01*
Y328511D01*
X253227Y328518D01*
X253220Y328533D01*
X253212Y328551D01*
X253205Y328573D01*
X253194Y328602D01*
X253165Y328660D01*
X253129Y328726D01*
X253085Y328791D01*
X253030Y328853D01*
X252972Y328908D01*
X252965Y328915D01*
X252943Y328930D01*
X252907Y328948D01*
X252859Y328974D01*
X252798Y328995D01*
X252728Y329017D01*
X252645Y329032D01*
X252554Y329035D01*
X252524D01*
X252506Y329032D01*
X252481D01*
X252452Y329028D01*
X252383Y329017D01*
X252306Y329003D01*
X252226Y328977D01*
X252142Y328941D01*
X252066Y328893D01*
X252062D01*
X252059Y328886D01*
X252033Y328868D01*
X252000Y328839D01*
X251960Y328795D01*
X251913Y328741D01*
X251869Y328679D01*
X251829Y328602D01*
X251793Y328518D01*
Y328515D01*
X251789Y328507D01*
X251786Y328497D01*
X251782Y328478D01*
X251775Y328457D01*
X251767Y328431D01*
X251757Y328369D01*
X251742Y328296D01*
X251727Y328216D01*
X251720Y328129D01*
X251716Y328034D01*
Y328031D01*
Y328020D01*
Y328002D01*
Y327980D01*
X251720Y327954D01*
Y327922D01*
X251724Y327885D01*
X251727Y327845D01*
X251738Y327758D01*
X251757Y327663D01*
X251778Y327568D01*
X251807Y327474D01*
Y327470D01*
X251811Y327463D01*
X251818Y327452D01*
X251826Y327434D01*
X251848Y327390D01*
X251880Y327339D01*
X251920Y327281D01*
X251971Y327219D01*
X252029Y327164D01*
X252099Y327113D01*
X252102D01*
X252110Y327110D01*
X252120Y327102D01*
X252135Y327095D01*
X252153Y327088D01*
X252175Y327077D01*
X252226Y327055D01*
X252292Y327033D01*
X252364Y327015D01*
X252445Y327001D01*
X252528Y326997D01*
X252554D01*
X252575Y327001D01*
X252601D01*
X252626Y327004D01*
X252692Y327019D01*
X252768Y327037D01*
X252845Y327066D01*
X252925Y327106D01*
X252965Y327128D01*
X253001Y327157D01*
X253005Y327161D01*
X253009Y327164D01*
X253020Y327175D01*
X253034Y327186D01*
X253049Y327204D01*
X253067Y327226D01*
X253089Y327248D01*
X253107Y327277D01*
X253129Y327310D01*
X253154Y327346D01*
X253176Y327383D01*
X253198Y327427D01*
X253216Y327474D01*
X253234Y327525D01*
X253253Y327579D01*
X253267Y327638D01*
X253602Y327554D01*
Y327550D01*
X253598Y327536D01*
X253591Y327514D01*
X253580Y327485D01*
X253569Y327452D01*
X253555Y327412D01*
X253537Y327368D01*
X253515Y327321D01*
X253464Y327219D01*
X253398Y327117D01*
X253358Y327066D01*
X253318Y327015D01*
X253274Y326972D01*
X253223Y326928D01*
X253220Y326924D01*
X253212Y326917D01*
X253194Y326910D01*
X253176Y326895D01*
X253147Y326877D01*
X253118Y326859D01*
X253078Y326840D01*
X253038Y326822D01*
X252991Y326800D01*
X252940Y326782D01*
X252885Y326764D01*
X252827Y326746D01*
X252765Y326731D01*
X252699Y326724D01*
X252630Y326717D01*
X252557Y326713D01*
X252517D01*
X252488Y326717D01*
X252455D01*
X252415Y326720D01*
X252372Y326728D01*
X252321Y326735D01*
X252215Y326753D01*
X252106Y326782D01*
X251997Y326822D01*
X251946Y326848D01*
X251895Y326877D01*
X251891Y326881D01*
X251884Y326884D01*
X251869Y326895D01*
X251855Y326910D01*
X251833Y326924D01*
X251807Y326946D01*
X251778Y326972D01*
X251749Y327001D01*
X251720Y327033D01*
X251687Y327066D01*
X251622Y327150D01*
X251560Y327248D01*
X251505Y327357D01*
Y327361D01*
X251498Y327372D01*
X251494Y327390D01*
X251483Y327412D01*
X251476Y327441D01*
X251465Y327477D01*
X251451Y327518D01*
X251440Y327561D01*
X251429Y327608D01*
X251414Y327663D01*
X251396Y327776D01*
X251382Y327903D01*
X251374Y328034D01*
Y328038D01*
Y328052D01*
Y328074D01*
X251378Y328100D01*
Y328136D01*
X251382Y328173D01*
X251385Y328220D01*
X251393Y328267D01*
X251411Y328373D01*
X251436Y328489D01*
X251473Y328606D01*
X251523Y328719D01*
X251527Y328722D01*
X251531Y328733D01*
X251538Y328748D01*
X251553Y328766D01*
X251567Y328791D01*
X251585Y328821D01*
X251633Y328886D01*
X251695Y328959D01*
X251767Y329032D01*
X251851Y329104D01*
X251949Y329166D01*
X251953Y329170D01*
X251964Y329174D01*
X251978Y329181D01*
X251997Y329192D01*
X252026Y329203D01*
X252055Y329214D01*
X252091Y329228D01*
X252131Y329243D01*
X252175Y329257D01*
X252222Y329272D01*
X252324Y329294D01*
X252441Y329312D01*
X252561Y329319D01*
X252597D01*
X252623Y329316D01*
D02*
G37*
D24*
X224311Y50886D02*
G03*
X224311Y50886I-492J0D01*
G01*
X124705Y173130D02*
G03*
X124705Y173130I-492J0D01*
G01*
X411319Y199311D02*
G03*
X411319Y199311I-492J0D01*
G01*
D25*
X450630Y172244D02*
G03*
X450630Y172244I-1969J0D01*
G01*
X260827Y42323D02*
G03*
X260827Y42323I-1969J0D01*
G01*
D39*
X228346Y59646D02*
G03*
X228346Y59646I-1181J0D01*
G01*
X133661Y168504D02*
G03*
X133661Y168504I-1181J0D01*
G01*
X415354Y208071D02*
G03*
X415354Y208071I-1181J0D01*
G01*
D40*
X699134Y193740D02*
G03*
X699134Y223740I-5000J15000D01*
G01*
X303937Y280906D02*
G03*
X303937Y280906I-394J0D01*
G01*
X301153Y270646D02*
G03*
X301476Y261221I-1190J-4759D01*
G01*
X443071Y144528D02*
Y154528D01*
X403071Y144528D02*
X443071D01*
X403071D02*
Y174528D01*
X443071D01*
Y154528D02*
Y174528D01*
X219291Y97441D02*
X221260D01*
X219291Y93504D02*
Y97441D01*
Y50197D02*
Y53347D01*
Y50197D02*
X220866D01*
X266535Y50590D02*
Y53740D01*
X262598Y50590D02*
X266535D01*
X262598Y97441D02*
X266535D01*
Y95079D02*
Y97441D01*
X482283Y238779D02*
X494095D01*
Y179724D02*
Y238779D01*
X470472Y179724D02*
X494095D01*
X470472D02*
Y238779D01*
X482283D01*
X314173Y80512D02*
X325984D01*
Y21457D02*
Y80512D01*
X302362Y21457D02*
X325984D01*
X302362D02*
Y80512D01*
X314173D01*
X679134Y233740D02*
X699134D01*
Y183740D02*
Y233740D01*
X659134Y183740D02*
X699134D01*
X659134D02*
Y233740D01*
X679134D01*
X89567Y337008D02*
X125000D01*
X89567Y350394D02*
X89567D01*
X91535Y352362D01*
X122244D01*
X124606Y350000D01*
X123031Y354724D02*
X125000Y352756D01*
Y337008D02*
Y352756D01*
X91142Y354724D02*
X123031D01*
X89567Y353150D02*
X91142Y354724D01*
X89567Y337008D02*
Y353150D01*
X406299Y245866D02*
X408268D01*
X406299Y241929D02*
Y245866D01*
Y198622D02*
Y201772D01*
Y198622D02*
X407874D01*
X453543Y199016D02*
Y202165D01*
X449606Y199016D02*
X453543D01*
X449606Y245866D02*
X453543D01*
Y243504D02*
Y245866D01*
X273228Y249803D02*
Y283071D01*
Y249803D02*
X301378D01*
Y283071D01*
X273228D02*
X301378D01*
X252048Y330557D02*
X309248D01*
X309548Y330857D01*
Y428457D01*
X252048D02*
X309548D01*
X252048Y330557D02*
Y428457D01*
X70039Y371693D02*
Y381693D01*
Y371693D02*
X80039D01*
X100039D01*
Y391693D01*
X70039D02*
X100039D01*
X70039Y381693D02*
Y391693D01*
X134567Y381693D02*
Y391693D01*
X124567D02*
X134567D01*
X104567D02*
X124567D01*
X104567Y371693D02*
Y391693D01*
Y371693D02*
X134567D01*
Y381693D01*
X172874Y382874D02*
Y392874D01*
X162874D02*
X172874D01*
X142874D02*
X162874D01*
X142874Y372874D02*
Y392874D01*
Y372874D02*
X172874D01*
Y382874D01*
X388189Y130039D02*
X408189D01*
Y90039D02*
Y130039D01*
X378189D02*
X388189D01*
X378189Y90039D02*
X408189D01*
X368189Y130039D02*
X378189D01*
X368189Y90039D02*
Y130039D01*
Y90039D02*
X378189D01*
X305118Y123110D02*
X325118D01*
Y83110D02*
Y123110D01*
X295118D02*
X305118D01*
X295118Y83110D02*
X325118D01*
X285118Y123110D02*
X295118D01*
X285118Y83110D02*
Y123110D01*
Y83110D02*
X295118D01*
X23622Y123425D02*
Y182480D01*
X62992D01*
Y123425D02*
Y182480D01*
X23622Y123425D02*
X62992D01*
X24803Y194291D02*
Y253346D01*
X64173D01*
Y194291D02*
Y253346D01*
X24803Y194291D02*
X64173D01*
X253268Y24606D02*
Y44606D01*
X213268D02*
X253268D01*
X213268Y14606D02*
Y44606D01*
Y14606D02*
X253268D01*
Y24606D01*
X600000Y142323D02*
X698228D01*
X600000Y251378D02*
X698425D01*
X138583Y4921D02*
Y7677D01*
Y123031D01*
X520768Y142323D02*
X600000D01*
X520472Y142028D02*
Y251378D01*
X600000D01*
X200000Y171063D02*
X229429Y141634D01*
X430709Y124606D02*
X434252Y128150D01*
X430709Y83661D02*
Y124606D01*
Y83661D02*
X431102Y83268D01*
X492913D01*
X494095Y84449D01*
Y126969D01*
X492913Y128150D02*
X494095Y126969D01*
X434252Y128150D02*
X492913D01*
X576476Y141634D02*
X576772Y141929D01*
X229429Y141634D02*
X576476D01*
X200394Y249803D02*
X273228D01*
X327559Y271457D02*
X328346Y272244D01*
Y272638D02*
Y303150D01*
X305906Y249803D02*
X327559Y271457D01*
X301378Y249803D02*
X305906D01*
X20079Y262795D02*
X199606D01*
X200394Y127756D02*
Y263583D01*
X195669Y123031D02*
X200394Y127756D01*
X20866Y123031D02*
X195669D01*
X353543Y303346D02*
Y404921D01*
Y303346D02*
X353740Y303150D01*
X212795D02*
X353740D01*
X212205Y303740D02*
Y404921D01*
Y303740D02*
X212795Y303150D01*
X63189D02*
X212795D01*
X23819D02*
Y362205D01*
X63189D01*
Y303150D02*
Y362205D01*
X23819Y303150D02*
X63189D01*
X146063Y341929D02*
X181496D01*
X146063Y355315D02*
X146063D01*
X148031Y357283D01*
X178740D01*
X181102Y354921D01*
X179528Y359646D02*
X181496Y357677D01*
Y341929D02*
Y357677D01*
X147638Y359646D02*
X179528D01*
X146063Y358071D02*
X147638Y359646D01*
X146063Y341929D02*
Y358071D01*
X438992Y115668D02*
Y121666D01*
X441991D01*
X442991Y120666D01*
Y118667D01*
X441991Y117667D01*
X438992D01*
X440991D02*
X442991Y115668D01*
X448989Y120666D02*
X447989Y121666D01*
X445990D01*
X444990Y120666D01*
Y116667D01*
X445990Y115668D01*
X447989D01*
X448989Y116667D01*
X438992Y106070D02*
Y112068D01*
X441991D01*
X442991Y111068D01*
Y109069D01*
X441991Y108070D01*
X438992D01*
X440991D02*
X442991Y106070D01*
X448989Y112068D02*
X444990D01*
Y106070D01*
X448989D01*
X444990Y109069D02*
X446989D01*
X454987Y111068D02*
X453987Y112068D01*
X451988D01*
X450988Y111068D01*
Y107070D01*
X451988Y106070D01*
X453987D01*
X454987Y107070D01*
X460985Y112068D02*
X456986D01*
Y106070D01*
X460985D01*
X456986Y109069D02*
X458986D01*
X462984Y112068D02*
X464984D01*
X463984D01*
Y106070D01*
X462984D01*
X464984D01*
X467983Y112068D02*
Y108070D01*
X469982Y106070D01*
X471981Y108070D01*
Y112068D01*
X477980D02*
X473981D01*
Y106070D01*
X477980D01*
X473981Y109069D02*
X475980D01*
X479979Y106070D02*
Y112068D01*
X482978D01*
X483978Y111068D01*
Y109069D01*
X482978Y108070D01*
X479979D01*
X481978D02*
X483978Y106070D01*
X438992Y102471D02*
Y96472D01*
Y99471D01*
X442991D01*
Y102471D01*
Y96472D01*
X448989Y102471D02*
X444990D01*
Y96472D01*
X448989D01*
X444990Y99471D02*
X446989D01*
X450988Y96472D02*
Y102471D01*
X453987D01*
X454987Y101471D01*
Y99471D01*
X453987Y98472D01*
X450988D01*
X452988D02*
X454987Y96472D01*
X460985Y102471D02*
X456986D01*
Y96472D01*
X460985D01*
X456986Y99471D02*
X458986D01*
X394608Y150022D02*
X393608Y149023D01*
Y147023D01*
X394608Y146024D01*
X398607D01*
X399606Y147023D01*
Y149023D01*
X398607Y150022D01*
X393608Y155021D02*
Y153021D01*
X394608Y152022D01*
X398607D01*
X399606Y153021D01*
Y155021D01*
X398607Y156020D01*
X394608D01*
X393608Y155021D01*
X399606Y158020D02*
X393608D01*
X399606Y162019D01*
X393608D01*
X399606Y164018D02*
Y166017D01*
Y165017D01*
X393608D01*
X394608Y164018D01*
X70425Y355288D02*
X66426D01*
Y352289D01*
X68425D01*
X66426D01*
Y349290D01*
X76423D02*
X72424D01*
X76423Y353289D01*
Y354288D01*
X75423Y355288D01*
X73424D01*
X72424Y354288D01*
X215688Y111050D02*
Y106052D01*
X216688Y105052D01*
X218687D01*
X219687Y106052D01*
Y111050D01*
X225685D02*
X221686D01*
Y108051D01*
X223686Y109051D01*
X224685D01*
X225685Y108051D01*
Y106052D01*
X224685Y105052D01*
X222686D01*
X221686Y106052D01*
X465748Y177061D02*
X469747Y171063D01*
Y177061D02*
X465748Y171063D01*
X471746Y177061D02*
X475745D01*
X473745D01*
Y171063D01*
X477744D02*
Y175062D01*
X479743Y177061D01*
X481743Y175062D01*
Y171063D01*
Y174062D01*
X477744D01*
X483742Y177061D02*
Y171063D01*
X487741D01*
X493739D02*
X489740D01*
X493739Y175062D01*
Y176061D01*
X492739Y177061D01*
X490740D01*
X489740Y176061D01*
X303543Y18400D02*
X307542Y12402D01*
Y18400D02*
X303543Y12402D01*
X309541Y18400D02*
X313540D01*
X311541D01*
Y12402D01*
X315539D02*
Y16400D01*
X317539Y18400D01*
X319538Y16400D01*
Y12402D01*
Y15401D01*
X315539D01*
X321537Y18400D02*
Y12402D01*
X325536D01*
X327536D02*
X329535D01*
X328535D01*
Y18400D01*
X327536Y17400D01*
X676181Y242218D02*
Y237220D01*
X677181Y236221D01*
X679180D01*
X680180Y237220D01*
Y242218D01*
X682179Y236221D02*
X684178D01*
X683179D01*
Y242218D01*
X682179Y241219D01*
X690177Y236221D02*
Y242218D01*
X687178Y239219D01*
X691176D01*
X131890Y138085D02*
Y133086D01*
X132889Y132087D01*
X134889D01*
X135889Y133086D01*
Y138085D01*
X141886D02*
X139887Y137085D01*
X137888Y135086D01*
Y133086D01*
X138888Y132087D01*
X140887D01*
X141886Y133086D01*
Y134086D01*
X140887Y135086D01*
X137888D01*
X88617Y364241D02*
Y359242D01*
X89617Y358243D01*
X91616D01*
X92616Y359242D01*
Y364241D01*
X94615Y363241D02*
X95615Y364241D01*
X97614D01*
X98614Y363241D01*
Y362241D01*
X97614Y361242D01*
X96615D01*
X97614D01*
X98614Y360242D01*
Y359242D01*
X97614Y358243D01*
X95615D01*
X94615Y359242D01*
X448425Y191628D02*
Y186630D01*
X449425Y185630D01*
X451424D01*
X452424Y186630D01*
Y191628D01*
X458422Y185630D02*
X454423D01*
X458422Y189629D01*
Y190628D01*
X457422Y191628D01*
X455423D01*
X454423Y190628D01*
X273687Y292612D02*
Y287614D01*
X274687Y286614D01*
X276686D01*
X277686Y287614D01*
Y292612D01*
X279685Y286614D02*
X281685D01*
X280685D01*
Y292612D01*
X279685Y291613D01*
X252598Y437955D02*
X254597D01*
X253598D01*
Y431957D01*
X252598D01*
X254597D01*
X261595Y436955D02*
X260595Y437955D01*
X258596D01*
X257596Y436955D01*
Y432956D01*
X258596Y431957D01*
X260595D01*
X261595Y432956D01*
X263595Y431957D02*
X265594D01*
X264594D01*
Y437955D01*
X263595Y436955D01*
X73881Y399683D02*
X72881Y400683D01*
X70882D01*
X69882Y399683D01*
Y395685D01*
X70882Y394685D01*
X72881D01*
X73881Y395685D01*
X78879Y400683D02*
X76880D01*
X75880Y399683D01*
Y395685D01*
X76880Y394685D01*
X78879D01*
X79879Y395685D01*
Y399683D01*
X78879Y400683D01*
X81878Y394685D02*
Y400683D01*
X85877Y394685D01*
Y400683D01*
X87876Y394685D02*
X89875D01*
X88876D01*
Y400683D01*
X87876Y399683D01*
X96873Y400683D02*
X94874Y399683D01*
X92874Y397684D01*
Y395685D01*
X93874Y394685D01*
X95873D01*
X96873Y395685D01*
Y396684D01*
X95873Y397684D01*
X92874D01*
X108329Y399683D02*
X107330Y400683D01*
X105330D01*
X104331Y399683D01*
Y395685D01*
X105330Y394685D01*
X107330D01*
X108329Y395685D01*
X113328Y400683D02*
X111328D01*
X110329Y399683D01*
Y395685D01*
X111328Y394685D01*
X113328D01*
X114328Y395685D01*
Y399683D01*
X113328Y400683D01*
X116327Y394685D02*
Y400683D01*
X120326Y394685D01*
Y400683D01*
X122325Y394685D02*
X124324D01*
X123325D01*
Y400683D01*
X122325Y399683D01*
X131322Y400683D02*
X127323D01*
Y397684D01*
X129323Y398684D01*
X130322D01*
X131322Y397684D01*
Y395685D01*
X130322Y394685D01*
X128323D01*
X127323Y395685D01*
X146715Y400668D02*
X145716Y401667D01*
X143716D01*
X142717Y400668D01*
Y396669D01*
X143716Y395669D01*
X145716D01*
X146715Y396669D01*
X151714Y401667D02*
X149714D01*
X148715Y400668D01*
Y396669D01*
X149714Y395669D01*
X151714D01*
X152713Y396669D01*
Y400668D01*
X151714Y401667D01*
X154713Y395669D02*
Y401667D01*
X158711Y395669D01*
Y401667D01*
X160711Y395669D02*
X162710D01*
X161710D01*
Y401667D01*
X160711Y400668D01*
X168708Y395669D02*
Y401667D01*
X165709Y398668D01*
X169708D01*
X32542Y298306D02*
X31542Y299305D01*
X29543D01*
X28543Y298306D01*
Y294307D01*
X29543Y293307D01*
X31542D01*
X32542Y294307D01*
X37540Y299305D02*
X35541D01*
X34541Y298306D01*
Y294307D01*
X35541Y293307D01*
X37540D01*
X38540Y294307D01*
Y298306D01*
X37540Y299305D01*
X40539Y293307D02*
Y299305D01*
X44538Y293307D01*
Y299305D01*
X46538Y293307D02*
X48537D01*
X47537D01*
Y299305D01*
X46538Y298306D01*
X51536D02*
X52536Y299305D01*
X54535D01*
X55535Y298306D01*
Y297306D01*
X54535Y296306D01*
X53535D01*
X54535D01*
X55535Y295306D01*
Y294307D01*
X54535Y293307D01*
X52536D01*
X51536Y294307D01*
X376046Y87479D02*
X375046Y88478D01*
X373047D01*
X372047Y87479D01*
Y83480D01*
X373047Y82480D01*
X375046D01*
X376046Y83480D01*
X381044Y88478D02*
X379045D01*
X378045Y87479D01*
Y83480D01*
X379045Y82480D01*
X381044D01*
X382044Y83480D01*
Y87479D01*
X381044Y88478D01*
X384043Y82480D02*
Y88478D01*
X388042Y82480D01*
Y88478D01*
X390041Y82480D02*
X392041D01*
X391041D01*
Y88478D01*
X390041Y87479D01*
X399039Y82480D02*
X395040D01*
X399039Y86479D01*
Y87479D01*
X398039Y88478D01*
X396040D01*
X395040Y87479D01*
X289661Y131571D02*
X288661Y132571D01*
X286662D01*
X285662Y131571D01*
Y127572D01*
X286662Y126572D01*
X288661D01*
X289661Y127572D01*
X294659Y132571D02*
X292660D01*
X291660Y131571D01*
Y127572D01*
X292660Y126572D01*
X294659D01*
X295659Y127572D01*
Y131571D01*
X294659Y132571D01*
X297658Y126572D02*
Y132571D01*
X301657Y126572D01*
Y132571D01*
X303656Y126572D02*
X305656D01*
X304656D01*
Y132571D01*
X303656Y131571D01*
X308655Y126572D02*
X310654D01*
X309654D01*
Y132571D01*
X308655Y131571D01*
X66262Y147896D02*
X65262Y146897D01*
Y144897D01*
X66262Y143898D01*
X70260D01*
X71260Y144897D01*
Y146897D01*
X70260Y147896D01*
X65262Y152895D02*
Y150895D01*
X66262Y149896D01*
X70260D01*
X71260Y150895D01*
Y152895D01*
X70260Y153894D01*
X66262D01*
X65262Y152895D01*
X71260Y155894D02*
X65262D01*
X71260Y159892D01*
X65262D01*
X71260Y164891D02*
X65262D01*
X68261Y161892D01*
Y165891D01*
X69017Y211282D02*
X68018Y210282D01*
Y208283D01*
X69017Y207283D01*
X73016D01*
X74016Y208283D01*
Y210282D01*
X73016Y211282D01*
X68018Y216281D02*
Y214281D01*
X69017Y213281D01*
X73016D01*
X74016Y214281D01*
Y216281D01*
X73016Y217280D01*
X69017D01*
X68018Y216281D01*
X74016Y219280D02*
X68018D01*
X74016Y223278D01*
X68018D01*
X69017Y225278D02*
X68018Y226277D01*
Y228277D01*
X69017Y229276D01*
X70017D01*
X71017Y228277D01*
Y227277D01*
Y228277D01*
X72016Y229276D01*
X73016D01*
X74016Y228277D01*
Y226277D01*
X73016Y225278D01*
X207557Y34938D02*
X208557Y35938D01*
Y37937D01*
X207557Y38937D01*
X203559D01*
X202559Y37937D01*
Y35938D01*
X203559Y34938D01*
X208557Y29940D02*
Y31939D01*
X207557Y32939D01*
X203559D01*
X202559Y31939D01*
Y29940D01*
X203559Y28940D01*
X207557D01*
X208557Y29940D01*
X202559Y26941D02*
X208557D01*
X202559Y22942D01*
X208557D01*
X202559Y16944D02*
Y20943D01*
X206558Y16944D01*
X207557D01*
X208557Y17944D01*
Y19943D01*
X207557Y20943D01*
X185495Y321337D02*
X184495Y322337D01*
X182496D01*
X181496Y321337D01*
Y317338D01*
X182496Y316339D01*
X184495D01*
X185495Y317338D01*
X191493Y322337D02*
X189494Y321337D01*
X187494Y319338D01*
Y317338D01*
X188494Y316339D01*
X190493D01*
X191493Y317338D01*
Y318338D01*
X190493Y319338D01*
X187494D01*
X193492Y321337D02*
X194492Y322337D01*
X196491D01*
X197491Y321337D01*
Y320337D01*
X196491Y319338D01*
X195492D01*
X196491D01*
X197491Y318338D01*
Y317338D01*
X196491Y316339D01*
X194492D01*
X193492Y317338D01*
X185889Y330786D02*
X184889Y331785D01*
X182889D01*
X181890Y330786D01*
Y326787D01*
X182889Y325787D01*
X184889D01*
X185889Y326787D01*
X191886Y331785D02*
X189887Y330786D01*
X187888Y328786D01*
Y326787D01*
X188888Y325787D01*
X190887D01*
X191886Y326787D01*
Y327787D01*
X190887Y328786D01*
X187888D01*
X197885Y325787D02*
X193886D01*
X197885Y329786D01*
Y330786D01*
X196885Y331785D01*
X194886D01*
X193886Y330786D01*
X642443Y232542D02*
X641443Y231542D01*
Y229543D01*
X642443Y228543D01*
X646441D01*
X647441Y229543D01*
Y231542D01*
X646441Y232542D01*
X641443Y238540D02*
X642443Y236541D01*
X644442Y234541D01*
X646441D01*
X647441Y235541D01*
Y237540D01*
X646441Y238540D01*
X645442D01*
X644442Y237540D01*
Y234541D01*
X647441Y240539D02*
Y242539D01*
Y241539D01*
X641443D01*
X642443Y240539D01*
X652285Y231755D02*
X651285Y230755D01*
Y228756D01*
X652285Y227756D01*
X656284D01*
X657283Y228756D01*
Y230755D01*
X656284Y231755D01*
X651285Y237753D02*
X652285Y235753D01*
X654284Y233754D01*
X656284D01*
X657283Y234754D01*
Y236753D01*
X656284Y237753D01*
X655284D01*
X654284Y236753D01*
Y233754D01*
X652285Y239752D02*
X651285Y240752D01*
Y242751D01*
X652285Y243751D01*
X656284D01*
X657283Y242751D01*
Y240752D01*
X656284Y239752D01*
X652285D01*
X361143Y238054D02*
X360144Y237054D01*
Y235055D01*
X361143Y234055D01*
X365142D01*
X366142Y235055D01*
Y237054D01*
X365142Y238054D01*
X366142Y243052D02*
X360144D01*
X363143Y240053D01*
Y244052D01*
X366142Y249050D02*
X360144D01*
X363143Y246051D01*
Y250050D01*
X391852Y238841D02*
X390852Y237842D01*
Y235842D01*
X391852Y234842D01*
X395851D01*
X396850Y235842D01*
Y237842D01*
X395851Y238841D01*
X396850Y243840D02*
X390852D01*
X393851Y240841D01*
Y244839D01*
X391852Y246839D02*
X390852Y247838D01*
Y249838D01*
X391852Y250837D01*
X392852D01*
X393851Y249838D01*
Y248838D01*
Y249838D01*
X394851Y250837D01*
X395851D01*
X396850Y249838D01*
Y247838D01*
X395851Y246839D01*
X370986Y238251D02*
X369986Y237251D01*
Y235252D01*
X370986Y234252D01*
X374985D01*
X375984Y235252D01*
Y237251D01*
X374985Y238251D01*
X375984Y243249D02*
X369986D01*
X372985Y240250D01*
Y244249D01*
X375984Y250247D02*
Y246248D01*
X371986Y250247D01*
X370986D01*
X369986Y249247D01*
Y247248D01*
X370986Y246248D01*
X381222Y238841D02*
X380222Y237842D01*
Y235842D01*
X381222Y234842D01*
X385221D01*
X386221Y235842D01*
Y237842D01*
X385221Y238841D01*
X386221Y243840D02*
X380222D01*
X383221Y240841D01*
Y244839D01*
X386221Y246839D02*
Y248838D01*
Y247838D01*
X380222D01*
X381222Y246839D01*
X500455Y201652D02*
X499456Y202652D01*
X497456D01*
X496457Y201652D01*
Y197653D01*
X497456Y196653D01*
X499456D01*
X500455Y197653D01*
X505454Y196653D02*
Y202652D01*
X502455Y199653D01*
X506454D01*
X508453Y201652D02*
X509452Y202652D01*
X511452D01*
X512452Y201652D01*
Y197653D01*
X511452Y196653D01*
X509452D01*
X508453Y197653D01*
Y201652D01*
X501899Y238702D02*
X500899Y239701D01*
X498900D01*
X497900Y238702D01*
Y234703D01*
X498900Y233703D01*
X500899D01*
X501899Y234703D01*
X503898Y238702D02*
X504898Y239701D01*
X506897D01*
X507897Y238702D01*
Y237702D01*
X506897Y236702D01*
X505897D01*
X506897D01*
X507897Y235702D01*
Y234703D01*
X506897Y233703D01*
X504898D01*
X503898Y234703D01*
X509896D02*
X510896Y233703D01*
X512895D01*
X513895Y234703D01*
Y238702D01*
X512895Y239701D01*
X510896D01*
X509896Y238702D01*
Y237702D01*
X510896Y236702D01*
X513895D01*
X339096Y113644D02*
X338096Y112645D01*
Y110645D01*
X339096Y109646D01*
X343095D01*
X344094Y110645D01*
Y112645D01*
X343095Y113644D01*
X339096Y115644D02*
X338096Y116643D01*
Y118643D01*
X339096Y119642D01*
X340096D01*
X341095Y118643D01*
Y117643D01*
Y118643D01*
X342095Y119642D01*
X343095D01*
X344094Y118643D01*
Y116643D01*
X343095Y115644D01*
X339096Y121642D02*
X338096Y122642D01*
Y124641D01*
X339096Y125640D01*
X340096D01*
X341095Y124641D01*
X342095Y125640D01*
X343095D01*
X344094Y124641D01*
Y122642D01*
X343095Y121642D01*
X342095D01*
X341095Y122642D01*
X340096Y121642D01*
X339096D01*
X341095Y122642D02*
Y124641D01*
X348939Y112266D02*
X347939Y111267D01*
Y109267D01*
X348939Y108268D01*
X352937D01*
X353937Y109267D01*
Y111267D01*
X352937Y112266D01*
X348939Y114266D02*
X347939Y115266D01*
Y117265D01*
X348939Y118264D01*
X349938D01*
X350938Y117265D01*
Y116265D01*
Y117265D01*
X351938Y118264D01*
X352937D01*
X353937Y117265D01*
Y115266D01*
X352937Y114266D01*
X347939Y120264D02*
Y124262D01*
X348939D01*
X352937Y120264D01*
X353937D01*
X357600Y112463D02*
X356600Y111464D01*
Y109464D01*
X357600Y108465D01*
X361599D01*
X362598Y109464D01*
Y111464D01*
X361599Y112463D01*
X357600Y114463D02*
X356600Y115462D01*
Y117462D01*
X357600Y118461D01*
X358600D01*
X359599Y117462D01*
Y116462D01*
Y117462D01*
X360599Y118461D01*
X361599D01*
X362598Y117462D01*
Y115462D01*
X361599Y114463D01*
X356600Y124459D02*
X357600Y122460D01*
X359599Y120461D01*
X361599D01*
X362598Y121460D01*
Y123460D01*
X361599Y124459D01*
X360599D01*
X359599Y123460D01*
Y120461D01*
X328466Y113251D02*
X327467Y112251D01*
Y110252D01*
X328466Y109252D01*
X332465D01*
X333465Y110252D01*
Y112251D01*
X332465Y113251D01*
X328466Y115250D02*
X327467Y116250D01*
Y118249D01*
X328466Y119249D01*
X329466D01*
X330466Y118249D01*
Y117249D01*
Y118249D01*
X331465Y119249D01*
X332465D01*
X333465Y118249D01*
Y116250D01*
X332465Y115250D01*
X327467Y125247D02*
Y121248D01*
X330466D01*
X329466Y123247D01*
Y124247D01*
X330466Y125247D01*
X332465D01*
X333465Y124247D01*
Y122248D01*
X332465Y121248D01*
X493566Y267794D02*
X492566Y268793D01*
X490567D01*
X489567Y267794D01*
Y263795D01*
X490567Y262795D01*
X492566D01*
X493566Y263795D01*
X495565Y267794D02*
X496565Y268793D01*
X498564D01*
X499564Y267794D01*
Y266794D01*
X498564Y265794D01*
X497564D01*
X498564D01*
X499564Y264795D01*
Y263795D01*
X498564Y262795D01*
X496565D01*
X495565Y263795D01*
X504562Y262795D02*
Y268793D01*
X501563Y265794D01*
X505562D01*
X368172Y288463D02*
X367172Y289463D01*
X365173D01*
X364173Y288463D01*
Y284464D01*
X365173Y283465D01*
X367172D01*
X368172Y284464D01*
X370171Y288463D02*
X371171Y289463D01*
X373170D01*
X374170Y288463D01*
Y287463D01*
X373170Y286464D01*
X372171D01*
X373170D01*
X374170Y285464D01*
Y284464D01*
X373170Y283465D01*
X371171D01*
X370171Y284464D01*
X376169Y288463D02*
X377169Y289463D01*
X379168D01*
X380168Y288463D01*
Y287463D01*
X379168Y286464D01*
X378169D01*
X379168D01*
X380168Y285464D01*
Y284464D01*
X379168Y283465D01*
X377169D01*
X376169Y284464D01*
X367581Y344762D02*
X366582Y345762D01*
X364582D01*
X363583Y344762D01*
Y340763D01*
X364582Y339764D01*
X366582D01*
X367581Y340763D01*
X369581Y344762D02*
X370580Y345762D01*
X372580D01*
X373579Y344762D01*
Y343762D01*
X372580Y342763D01*
X371580D01*
X372580D01*
X373579Y341763D01*
Y340763D01*
X372580Y339764D01*
X370580D01*
X369581Y340763D01*
X379577Y339764D02*
X375579D01*
X379577Y343762D01*
Y344762D01*
X378578Y345762D01*
X376578D01*
X375579Y344762D01*
X376513Y368624D02*
X377513Y367624D01*
X379512D01*
X380512Y368624D01*
Y372622D01*
X379512Y373622D01*
X377513D01*
X376513Y372622D01*
X374514Y368624D02*
X373514Y367624D01*
X371515D01*
X370515Y368624D01*
Y369623D01*
X371515Y370623D01*
X372514D01*
X371515D01*
X370515Y371623D01*
Y372622D01*
X371515Y373622D01*
X373514D01*
X374514Y372622D01*
X368516Y373622D02*
X366516D01*
X367516D01*
Y367624D01*
X368516Y368624D01*
X492975Y259132D02*
X491975Y260132D01*
X489976D01*
X488976Y259132D01*
Y255134D01*
X489976Y254134D01*
X491975D01*
X492975Y255134D01*
X494974Y259132D02*
X495974Y260132D01*
X497973D01*
X498973Y259132D01*
Y258133D01*
X497973Y257133D01*
X496974D01*
X497973D01*
X498973Y256133D01*
Y255134D01*
X497973Y254134D01*
X495974D01*
X494974Y255134D01*
X500973Y259132D02*
X501972Y260132D01*
X503971D01*
X504971Y259132D01*
Y255134D01*
X503971Y254134D01*
X501972D01*
X500973Y255134D01*
Y259132D01*
X367188Y298306D02*
X366188Y299305D01*
X364189D01*
X363189Y298306D01*
Y294307D01*
X364189Y293307D01*
X366188D01*
X367188Y294307D01*
X373186Y293307D02*
X369187D01*
X373186Y297306D01*
Y298306D01*
X372186Y299305D01*
X370187D01*
X369187Y298306D01*
X375185Y294307D02*
X376185Y293307D01*
X378184D01*
X379184Y294307D01*
Y298306D01*
X378184Y299305D01*
X376185D01*
X375185Y298306D01*
Y297306D01*
X376185Y296306D01*
X379184D01*
X368566Y353620D02*
X367566Y354620D01*
X365567D01*
X364567Y353620D01*
Y349622D01*
X365567Y348622D01*
X367566D01*
X368566Y349622D01*
X374564Y348622D02*
X370565D01*
X374564Y352621D01*
Y353620D01*
X373564Y354620D01*
X371565D01*
X370565Y353620D01*
X376563D02*
X377563Y354620D01*
X379562D01*
X380562Y353620D01*
Y352621D01*
X379562Y351621D01*
X380562Y350621D01*
Y349622D01*
X379562Y348622D01*
X377563D01*
X376563Y349622D01*
Y350621D01*
X377563Y351621D01*
X376563Y352621D01*
Y353620D01*
X377563Y351621D02*
X379562D01*
X382936Y387872D02*
X381936Y388872D01*
X379937D01*
X378937Y387872D01*
Y383874D01*
X379937Y382874D01*
X381936D01*
X382936Y383874D01*
X388934Y382874D02*
X384935D01*
X388934Y386873D01*
Y387872D01*
X387934Y388872D01*
X385935D01*
X384935Y387872D01*
X390933Y388872D02*
X394932D01*
Y387872D01*
X390933Y383874D01*
Y382874D01*
X163899Y168763D02*
X162900Y167763D01*
Y165763D01*
X163899Y164764D01*
X167898D01*
X168898Y165763D01*
Y167763D01*
X167898Y168763D01*
X168898Y174760D02*
Y170762D01*
X164899Y174760D01*
X163899D01*
X162900Y173761D01*
Y171762D01*
X163899Y170762D01*
X168898Y180759D02*
Y176760D01*
X164899Y180759D01*
X163899D01*
X162900Y179759D01*
Y177760D01*
X163899Y176760D01*
X175317Y141991D02*
X174317Y140991D01*
Y138992D01*
X175317Y137992D01*
X179315D01*
X180315Y138992D01*
Y140991D01*
X179315Y141991D01*
X180315Y147989D02*
Y143990D01*
X176316Y147989D01*
X175317D01*
X174317Y146989D01*
Y144990D01*
X175317Y143990D01*
X180315Y149988D02*
Y151988D01*
Y150988D01*
X174317D01*
X175317Y149988D01*
X126637Y181573D02*
X125637Y182573D01*
X123637D01*
X122638Y181573D01*
Y177575D01*
X123637Y176575D01*
X125637D01*
X126637Y177575D01*
X132635Y176575D02*
X128636D01*
X132635Y180573D01*
Y181573D01*
X131635Y182573D01*
X129636D01*
X128636Y181573D01*
X134634D02*
X135634Y182573D01*
X137633D01*
X138633Y181573D01*
Y177575D01*
X137633Y176575D01*
X135634D01*
X134634Y177575D01*
Y181573D01*
X127030Y189841D02*
X126031Y190841D01*
X124031D01*
X123031Y189841D01*
Y185842D01*
X124031Y184843D01*
X126031D01*
X127030Y185842D01*
X129030Y184843D02*
X131029D01*
X130029D01*
Y190841D01*
X129030Y189841D01*
X134028Y185842D02*
X135028Y184843D01*
X137027D01*
X138027Y185842D01*
Y189841D01*
X137027Y190841D01*
X135028D01*
X134028Y189841D01*
Y188841D01*
X135028Y187841D01*
X138027D01*
X167443Y85495D02*
X166443Y84495D01*
Y82496D01*
X167443Y81496D01*
X171441D01*
X172441Y82496D01*
Y84495D01*
X171441Y85495D01*
X172441Y87494D02*
Y89494D01*
Y88494D01*
X166443D01*
X167443Y87494D01*
Y92493D02*
X166443Y93492D01*
Y95491D01*
X167443Y96491D01*
X168442D01*
X169442Y95491D01*
X170442Y96491D01*
X171441D01*
X172441Y95491D01*
Y93492D01*
X171441Y92493D01*
X170442D01*
X169442Y93492D01*
X168442Y92493D01*
X167443D01*
X169442Y93492D02*
Y95491D01*
X177285Y84117D02*
X176285Y83117D01*
Y81118D01*
X177285Y80118D01*
X181284D01*
X182283Y81118D01*
Y83117D01*
X181284Y84117D01*
X182283Y86116D02*
Y88116D01*
Y87116D01*
X176285D01*
X177285Y86116D01*
X176285Y91114D02*
Y95113D01*
X177285D01*
X181284Y91114D01*
X182283D01*
X186340Y83920D02*
X185340Y82920D01*
Y80921D01*
X186340Y79921D01*
X190339D01*
X191339Y80921D01*
Y82920D01*
X190339Y83920D01*
X191339Y85919D02*
Y87919D01*
Y86919D01*
X185340D01*
X186340Y85919D01*
X185340Y94916D02*
X186340Y92917D01*
X188340Y90918D01*
X190339D01*
X191339Y91917D01*
Y93917D01*
X190339Y94916D01*
X189339D01*
X188340Y93917D01*
Y90918D01*
X196970Y83723D02*
X195970Y82723D01*
Y80724D01*
X196970Y79724D01*
X200969D01*
X201969Y80724D01*
Y82723D01*
X200969Y83723D01*
X201969Y85723D02*
Y87722D01*
Y86722D01*
X195970D01*
X196970Y85723D01*
X195970Y94720D02*
Y90721D01*
X198969D01*
X197970Y92720D01*
Y93720D01*
X198969Y94720D01*
X200969D01*
X201969Y93720D01*
Y91720D01*
X200969Y90721D01*
X331599Y44581D02*
X330599Y45581D01*
X328600D01*
X327600Y44581D01*
Y40582D01*
X328600Y39583D01*
X330599D01*
X331599Y40582D01*
X333598Y39583D02*
X335597D01*
X334598D01*
Y45581D01*
X333598Y44581D01*
X341596Y39583D02*
Y45581D01*
X338596Y42582D01*
X342595D01*
X332357Y80463D02*
X331357Y81463D01*
X329358D01*
X328358Y80463D01*
Y76464D01*
X329358Y75465D01*
X331357D01*
X332357Y76464D01*
X334356Y75465D02*
X336356D01*
X335356D01*
Y81463D01*
X334356Y80463D01*
X339355D02*
X340354Y81463D01*
X342354D01*
X343353Y80463D01*
Y79463D01*
X342354Y78464D01*
X341354D01*
X342354D01*
X343353Y77464D01*
Y76464D01*
X342354Y75465D01*
X340354D01*
X339355Y76464D01*
X142188Y320943D02*
X141188Y321943D01*
X139189D01*
X138189Y320943D01*
Y316945D01*
X139189Y315945D01*
X141188D01*
X142188Y316945D01*
X144187Y315945D02*
X146186D01*
X145187D01*
Y321943D01*
X144187Y320943D01*
X153184Y315945D02*
X149185D01*
X153184Y319944D01*
Y320943D01*
X152184Y321943D01*
X150185D01*
X149185Y320943D01*
X146715Y310117D02*
X145716Y311116D01*
X143716D01*
X142717Y310117D01*
Y306118D01*
X143716Y305118D01*
X145716D01*
X146715Y306118D01*
X148715Y305118D02*
X150714D01*
X149714D01*
Y311116D01*
X148715Y310117D01*
X153713Y305118D02*
X155712D01*
X154713D01*
Y311116D01*
X153713Y310117D01*
X81164Y319369D02*
X80164Y320368D01*
X78165D01*
X77165Y319369D01*
Y315370D01*
X78165Y314370D01*
X80164D01*
X81164Y315370D01*
X83163Y314370D02*
X85163D01*
X84163D01*
Y320368D01*
X83163Y319369D01*
X88162D02*
X89161Y320368D01*
X91161D01*
X92160Y319369D01*
Y315370D01*
X91161Y314370D01*
X89161D01*
X88162Y315370D01*
Y319369D01*
X85692Y328817D02*
X84692Y329817D01*
X82693D01*
X81693Y328817D01*
Y324819D01*
X82693Y323819D01*
X84692D01*
X85692Y324819D01*
X87691D02*
X88691Y323819D01*
X90690D01*
X91690Y324819D01*
Y328817D01*
X90690Y329817D01*
X88691D01*
X87691Y328817D01*
Y327818D01*
X88691Y326818D01*
X91690D01*
X128802Y320550D02*
X127802Y321549D01*
X125803D01*
X124803Y320550D01*
Y316551D01*
X125803Y315551D01*
X127802D01*
X128802Y316551D01*
X130801Y320550D02*
X131801Y321549D01*
X133800D01*
X134800Y320550D01*
Y319550D01*
X133800Y318550D01*
X134800Y317550D01*
Y316551D01*
X133800Y315551D01*
X131801D01*
X130801Y316551D01*
Y317550D01*
X131801Y318550D01*
X130801Y319550D01*
Y320550D01*
X131801Y318550D02*
X133800D01*
X128802Y330294D02*
X127802Y331293D01*
X125803D01*
X124803Y330294D01*
Y326295D01*
X125803Y325295D01*
X127802D01*
X128802Y326295D01*
X130801Y331293D02*
X134800D01*
Y330294D01*
X130801Y326295D01*
Y325295D01*
X312660Y247715D02*
X311660Y248715D01*
X309661D01*
X308661Y247715D01*
Y243716D01*
X309661Y242717D01*
X311660D01*
X312660Y243716D01*
X318658Y248715D02*
X316659Y247715D01*
X314660Y245716D01*
Y243716D01*
X315659Y242717D01*
X317658D01*
X318658Y243716D01*
Y244716D01*
X317658Y245716D01*
X314660D01*
X312070Y238660D02*
X311070Y239660D01*
X309071D01*
X308071Y238660D01*
Y234661D01*
X309071Y233661D01*
X311070D01*
X312070Y234661D01*
X318068Y239660D02*
X314069D01*
Y236661D01*
X316068Y237660D01*
X317068D01*
X318068Y236661D01*
Y234661D01*
X317068Y233661D01*
X315069D01*
X314069Y234661D01*
X312660Y289447D02*
X311660Y290447D01*
X309661D01*
X308661Y289447D01*
Y285449D01*
X309661Y284449D01*
X311660D01*
X312660Y285449D01*
X317658Y284449D02*
Y290447D01*
X314660Y287448D01*
X318658D01*
X311873Y298109D02*
X310873Y299108D01*
X308874D01*
X307874Y298109D01*
Y294110D01*
X308874Y293110D01*
X310873D01*
X311873Y294110D01*
X313872Y298109D02*
X314872Y299108D01*
X316871D01*
X317871Y298109D01*
Y297109D01*
X316871Y296109D01*
X315871D01*
X316871D01*
X317871Y295110D01*
Y294110D01*
X316871Y293110D01*
X314872D01*
X313872Y294110D01*
X281164Y372124D02*
X280164Y373124D01*
X278165D01*
X277165Y372124D01*
Y368126D01*
X278165Y367126D01*
X280164D01*
X281164Y368126D01*
X287162Y367126D02*
X283163D01*
X287162Y371125D01*
Y372124D01*
X286162Y373124D01*
X284163D01*
X283163Y372124D01*
X281951Y358738D02*
X280952Y359738D01*
X278952D01*
X277953Y358738D01*
Y354740D01*
X278952Y353740D01*
X280952D01*
X281951Y354740D01*
X283951Y353740D02*
X285950D01*
X284950D01*
Y359738D01*
X283951Y358738D01*
X133089Y356219D02*
X129090D01*
Y353220D01*
X131089D01*
X129090D01*
Y350221D01*
X135088D02*
X137087D01*
X136088D01*
Y356219D01*
X135088Y355220D01*
X145045Y369173D02*
Y364175D01*
X146045Y363175D01*
X148044D01*
X149044Y364175D01*
Y369173D01*
X154042Y363175D02*
Y369173D01*
X151043Y366174D01*
X155042D01*
X523622Y349487D02*
X524622Y350486D01*
X526621D01*
X527621Y349487D01*
Y348487D01*
X526621Y347487D01*
X525621D01*
X526621D01*
X527621Y346487D01*
Y345488D01*
X526621Y344488D01*
X524622D01*
X523622Y345488D01*
X529620Y350486D02*
Y344488D01*
X532619D01*
X533619Y345488D01*
Y346487D01*
X532619Y347487D01*
X529620D01*
X532619D01*
X533619Y348487D01*
Y349487D01*
X532619Y350486D01*
X529620D01*
X535618Y344488D02*
Y350486D01*
X538617D01*
X539617Y349487D01*
Y347487D01*
X538617Y346487D01*
X535618D01*
X545615Y350486D02*
X541616D01*
Y344488D01*
X545615D01*
X541616Y347487D02*
X543616D01*
X547614Y350486D02*
X549614D01*
X548614D01*
Y344488D01*
X547614D01*
X549614D01*
X558611D02*
Y348487D01*
X560610Y350486D01*
X562609Y348487D01*
Y344488D01*
Y347487D01*
X558611D01*
X568608Y350486D02*
Y344488D01*
X565609D01*
X564609Y345488D01*
Y347487D01*
X565609Y348487D01*
X568608D01*
X570607D02*
X572606Y344488D01*
X574606Y348487D01*
X577605D02*
X579604D01*
X580604Y347487D01*
Y344488D01*
X577605D01*
X576605Y345488D01*
X577605Y346487D01*
X580604D01*
X582603Y344488D02*
Y348487D01*
X585602D01*
X586602Y347487D01*
Y344488D01*
X592600Y348487D02*
X589601D01*
X588601Y347487D01*
Y345488D01*
X589601Y344488D01*
X592600D01*
X597598D02*
X595599D01*
X594599Y345488D01*
Y347487D01*
X595599Y348487D01*
X597598D01*
X598598Y347487D01*
Y346487D01*
X594599D01*
X604596Y350486D02*
Y344488D01*
X601597D01*
X600597Y345488D01*
Y347487D01*
X601597Y348487D01*
X604596D01*
X612593Y344488D02*
Y350486D01*
X615592D01*
X616592Y349487D01*
Y347487D01*
X615592Y346487D01*
X612593D01*
X622590Y348487D02*
X619591D01*
X618591Y347487D01*
Y345488D01*
X619591Y344488D01*
X622590D01*
X624589Y350486D02*
Y344488D01*
X627588D01*
X628588Y345488D01*
Y346487D01*
Y347487D01*
X627588Y348487D01*
X624589D01*
X526575Y375093D02*
Y369094D01*
X529574D01*
X530574Y370094D01*
Y374093D01*
X529574Y375093D01*
X526575D01*
X535572Y369094D02*
X533572D01*
X532573Y370094D01*
Y372094D01*
X533572Y373093D01*
X535572D01*
X536572Y372094D01*
Y371094D01*
X532573D01*
X538571Y369094D02*
X541570D01*
X542570Y370094D01*
X541570Y371094D01*
X539571D01*
X538571Y372094D01*
X539571Y373093D01*
X542570D01*
X544569Y369094D02*
X546568D01*
X545569D01*
Y373093D01*
X544569D01*
X549567Y369094D02*
Y373093D01*
X552566D01*
X553566Y372094D01*
Y369094D01*
X557565Y367095D02*
X558565D01*
X559564Y368095D01*
Y373093D01*
X556565D01*
X555565Y372094D01*
Y370094D01*
X556565Y369094D01*
X559564D01*
X564563D02*
X562563D01*
X561563Y370094D01*
Y372094D01*
X562563Y373093D01*
X564563D01*
X565562Y372094D01*
Y371094D01*
X561563D01*
X571560Y375093D02*
Y369094D01*
X568561D01*
X567561Y370094D01*
Y372094D01*
X568561Y373093D01*
X571560D01*
X579558Y375093D02*
Y369094D01*
X582557D01*
X583556Y370094D01*
Y371094D01*
Y372094D01*
X582557Y373093D01*
X579558D01*
X585556D02*
Y370094D01*
X586555Y369094D01*
X589554D01*
Y368095D01*
X588555Y367095D01*
X587555D01*
X589554Y369094D02*
Y373093D01*
X597552Y375093D02*
Y369094D01*
X600551D01*
X601551Y370094D01*
Y371094D01*
X600551Y372094D01*
X597552D01*
X600551D01*
X601551Y373093D01*
Y374093D01*
X600551Y375093D01*
X597552D01*
X606549Y369094D02*
X604550D01*
X603550Y370094D01*
Y372094D01*
X604550Y373093D01*
X606549D01*
X607549Y372094D01*
Y371094D01*
X603550D01*
X609548Y369094D02*
Y373093D01*
X612547D01*
X613547Y372094D01*
Y369094D01*
X621544Y375093D02*
Y369094D01*
X624543D01*
X625543Y370094D01*
Y374093D01*
X624543Y375093D01*
X621544D01*
X630541Y369094D02*
X628542D01*
X627542Y370094D01*
Y372094D01*
X628542Y373093D01*
X630541D01*
X631541Y372094D01*
Y371094D01*
X627542D01*
X639538Y375093D02*
Y369094D01*
X643537D01*
X646536Y373093D02*
X648535D01*
X649535Y372094D01*
Y369094D01*
X646536D01*
X645536Y370094D01*
X646536Y371094D01*
X649535D01*
X652534Y374093D02*
Y373093D01*
X651534D01*
X653534D01*
X652534D01*
Y370094D01*
X653534Y369094D01*
X656533Y375093D02*
Y369094D01*
Y372094D01*
X657532Y373093D01*
X659532D01*
X660532Y372094D01*
Y369094D01*
X663530D02*
X665530D01*
X666530Y370094D01*
Y372094D01*
X665530Y373093D01*
X663530D01*
X662531Y372094D01*
Y370094D01*
X663530Y369094D01*
X668529Y373093D02*
Y370094D01*
X669529Y369094D01*
X672528D01*
Y373093D01*
X674527D02*
Y370094D01*
X675527Y369094D01*
X676526Y370094D01*
X677526Y369094D01*
X678526Y370094D01*
Y373093D01*
X683524Y369094D02*
X681525D01*
X680525Y370094D01*
Y372094D01*
X681525Y373093D01*
X683524D01*
X684524Y372094D01*
Y371094D01*
X680525D01*
X686523Y373093D02*
Y369094D01*
Y371094D01*
X687523Y372094D01*
X688522Y373093D01*
X689522D01*
X14764Y93504D02*
Y99502D01*
X16763Y97503D01*
X18763Y99502D01*
Y93504D01*
X21761Y97503D02*
X23761D01*
X24761Y96503D01*
Y93504D01*
X21761D01*
X20762Y94504D01*
X21761Y95503D01*
X24761D01*
X26760Y97503D02*
Y93504D01*
Y95503D01*
X27760Y96503D01*
X28759Y97503D01*
X29759D01*
X32758D02*
X34757Y93504D01*
X36757Y97503D01*
X38756Y93504D02*
X40755D01*
X39756D01*
Y97503D01*
X38756D01*
X43754Y93504D02*
Y97503D01*
X46753D01*
X47753Y96503D01*
Y93504D01*
X56750Y98502D02*
Y97503D01*
X55751D01*
X57750D01*
X56750D01*
Y94504D01*
X57750Y93504D01*
X60749Y99502D02*
Y93504D01*
Y96503D01*
X61749Y97503D01*
X63748D01*
X64748Y96503D01*
Y93504D01*
X69746D02*
X67747D01*
X66747Y94504D01*
Y96503D01*
X67747Y97503D01*
X69746D01*
X70746Y96503D01*
Y95503D01*
X66747D01*
X78743Y99502D02*
Y93504D01*
Y96503D01*
X79743Y97503D01*
X81742D01*
X82742Y96503D01*
Y93504D01*
X85741Y97503D02*
X87740D01*
X88740Y96503D01*
Y93504D01*
X85741D01*
X84741Y94504D01*
X85741Y95503D01*
X88740D01*
X94738Y97503D02*
X91739D01*
X90739Y96503D01*
Y94504D01*
X91739Y93504D01*
X94738D01*
X96737D02*
Y99502D01*
Y95503D02*
X99736Y97503D01*
X96737Y95503D02*
X99736Y93504D01*
X102735Y99502D02*
Y93504D01*
X105734D01*
X106734Y94504D01*
Y95503D01*
Y96503D01*
X105734Y97503D01*
X102735D01*
X109733Y93504D02*
X111732D01*
X112732Y94504D01*
Y96503D01*
X111732Y97503D01*
X109733D01*
X108733Y96503D01*
Y94504D01*
X109733Y93504D01*
X115731Y98502D02*
Y97503D01*
X114731D01*
X116731D01*
X115731D01*
Y94504D01*
X116731Y93504D01*
X360236Y47244D02*
Y51243D01*
X362236Y53242D01*
X364235Y51243D01*
Y47244D01*
Y50243D01*
X360236D01*
X366234Y53242D02*
X370233D01*
X368234D01*
Y47244D01*
X372232D02*
Y51243D01*
X373232D01*
X374232Y50243D01*
Y47244D01*
Y50243D01*
X375231Y51243D01*
X376231Y50243D01*
Y47244D01*
X381229D02*
X379230D01*
X378230Y48244D01*
Y50243D01*
X379230Y51243D01*
X381229D01*
X382229Y50243D01*
Y49243D01*
X378230D01*
X386228Y45245D02*
X387228D01*
X388227Y46244D01*
Y51243D01*
X385228D01*
X384228Y50243D01*
Y48244D01*
X385228Y47244D01*
X388227D01*
X391226Y51243D02*
X393226D01*
X394225Y50243D01*
Y47244D01*
X391226D01*
X390227Y48244D01*
X391226Y49243D01*
X394225D01*
X402223Y47244D02*
X405222D01*
X406221Y48244D01*
X405222Y49243D01*
X403222D01*
X402223Y50243D01*
X403222Y51243D01*
X406221D01*
X411220Y47244D02*
X409220D01*
X408221Y48244D01*
Y50243D01*
X409220Y51243D01*
X411220D01*
X412219Y50243D01*
Y49243D01*
X408221D01*
X418218Y51243D02*
X415218D01*
X414219Y50243D01*
Y48244D01*
X415218Y47244D01*
X418218D01*
X421216D02*
X423216D01*
X424216Y48244D01*
Y50243D01*
X423216Y51243D01*
X421216D01*
X420217Y50243D01*
Y48244D01*
X421216Y47244D01*
X426215D02*
Y51243D01*
X429214D01*
X430214Y50243D01*
Y47244D01*
X436212Y53242D02*
Y47244D01*
X433213D01*
X432213Y48244D01*
Y50243D01*
X433213Y51243D01*
X436212D01*
X439211D02*
X441210D01*
X442210Y50243D01*
Y47244D01*
X439211D01*
X438211Y48244D01*
X439211Y49243D01*
X442210D01*
X444209Y51243D02*
Y47244D01*
Y49243D01*
X445209Y50243D01*
X446208Y51243D01*
X447208D01*
X450207D02*
Y48244D01*
X451207Y47244D01*
X454206D01*
Y46244D01*
X453206Y45245D01*
X452207D01*
X454206Y47244D02*
Y51243D01*
X462203Y50243D02*
X466202D01*
X464203Y52242D02*
Y48244D01*
X474199Y51243D02*
Y47244D01*
Y49243D01*
X475199Y50243D01*
X476199Y51243D01*
X477198D01*
X484196D02*
X481197D01*
X480197Y50243D01*
Y48244D01*
X481197Y47244D01*
X484196D01*
X492194Y51243D02*
Y47244D01*
Y49243D01*
X493193Y50243D01*
X494193Y51243D01*
X495193D01*
X501191Y47244D02*
X499191D01*
X498192Y48244D01*
Y50243D01*
X499191Y51243D01*
X501191D01*
X502190Y50243D01*
Y49243D01*
X498192D01*
X508188Y51243D02*
X505189D01*
X504190Y50243D01*
Y48244D01*
X505189Y47244D01*
X508188D01*
X513187D02*
X511187D01*
X510188Y48244D01*
Y50243D01*
X511187Y51243D01*
X513187D01*
X514186Y50243D01*
Y49243D01*
X510188D01*
X516186Y47244D02*
X518185D01*
X517185D01*
Y51243D01*
X516186D01*
X521184D02*
X523183Y47244D01*
X525183Y51243D01*
X530181Y47244D02*
X528182D01*
X527182Y48244D01*
Y50243D01*
X528182Y51243D01*
X530181D01*
X531181Y50243D01*
Y49243D01*
X527182D01*
X533180Y51243D02*
Y47244D01*
Y49243D01*
X534180Y50243D01*
X535180Y51243D01*
X536179D01*
X545176Y50243D02*
X549175D01*
X547176Y52242D02*
Y48244D01*
X557172Y53242D02*
Y47244D01*
Y50243D01*
X561171D01*
Y53242D01*
Y47244D01*
X567169Y52242D02*
X566170Y53242D01*
X564170D01*
X563171Y52242D01*
Y48244D01*
X564170Y47244D01*
X566170D01*
X567169Y48244D01*
X569169Y50243D02*
X573167D01*
X579165Y52242D02*
X578166Y53242D01*
X576166D01*
X575167Y52242D01*
Y51243D01*
X576166Y50243D01*
X578166D01*
X579165Y49243D01*
Y48244D01*
X578166Y47244D01*
X576166D01*
X575167Y48244D01*
X581165Y47244D02*
Y53242D01*
X584164D01*
X585163Y52242D01*
Y50243D01*
X584164Y49243D01*
X581165D01*
X583164D02*
X585163Y47244D01*
X587163Y52242D02*
X588163Y53242D01*
X590162D01*
X591161Y52242D01*
Y48244D01*
X590162Y47244D01*
X588163D01*
X587163Y48244D01*
Y52242D01*
X596160Y47244D02*
Y53242D01*
X593161Y50243D01*
X597160D01*
X605157Y45245D02*
Y51243D01*
X608156D01*
X609156Y50243D01*
Y48244D01*
X608156Y47244D01*
X605157D01*
X611155Y51243D02*
Y47244D01*
Y49243D01*
X612155Y50243D01*
X613154Y51243D01*
X614154D01*
X618153Y47244D02*
X620152D01*
X621152Y48244D01*
Y50243D01*
X620152Y51243D01*
X618153D01*
X617153Y50243D01*
Y48244D01*
X618153Y47244D01*
X627150Y51243D02*
X624151D01*
X623151Y50243D01*
Y48244D01*
X624151Y47244D01*
X627150D01*
X632148D02*
X630149D01*
X629149Y48244D01*
Y50243D01*
X630149Y51243D01*
X632148D01*
X633148Y50243D01*
Y49243D01*
X629149D01*
X635147Y47244D02*
X638146D01*
X639146Y48244D01*
X638146Y49243D01*
X636147D01*
X635147Y50243D01*
X636147Y51243D01*
X639146D01*
X641145Y47244D02*
X644144D01*
X645144Y48244D01*
X644144Y49243D01*
X642145D01*
X641145Y50243D01*
X642145Y51243D01*
X645144D01*
X647143Y47244D02*
X649143D01*
X648143D01*
Y51243D01*
X647143D01*
X652142Y47244D02*
Y51243D01*
X655141D01*
X656141Y50243D01*
Y47244D01*
X660139Y45245D02*
X661139D01*
X662139Y46244D01*
Y51243D01*
X659139D01*
X658140Y50243D01*
Y48244D01*
X659139Y47244D01*
X662139D01*
X222835Y184055D02*
Y188054D01*
X224834Y190053D01*
X226833Y188054D01*
Y184055D01*
Y187054D01*
X222835D01*
X228833Y190053D02*
X232831D01*
X230832D01*
Y184055D01*
X234831D02*
Y188054D01*
X235830D01*
X236830Y187054D01*
Y184055D01*
Y187054D01*
X237830Y188054D01*
X238829Y187054D01*
Y184055D01*
X243828D02*
X241828D01*
X240829Y185055D01*
Y187054D01*
X241828Y188054D01*
X243828D01*
X244828Y187054D01*
Y186055D01*
X240829D01*
X248826Y182056D02*
X249826D01*
X250826Y183055D01*
Y188054D01*
X247827D01*
X246827Y187054D01*
Y185055D01*
X247827Y184055D01*
X250826D01*
X253825Y188054D02*
X255824D01*
X256824Y187054D01*
Y184055D01*
X253825D01*
X252825Y185055D01*
X253825Y186055D01*
X256824D01*
X258823Y184055D02*
Y190053D01*
X260822Y188054D01*
X262822Y190053D01*
Y184055D01*
X265821Y188054D02*
X267820D01*
X268820Y187054D01*
Y184055D01*
X265821D01*
X264821Y185055D01*
X265821Y186055D01*
X268820D01*
X270819Y184055D02*
X272818D01*
X271819D01*
Y188054D01*
X270819D01*
X275817Y184055D02*
Y188054D01*
X278817D01*
X279816Y187054D01*
Y184055D01*
X281816Y187054D02*
X285814D01*
X283815Y189053D02*
Y185055D01*
X287814Y188054D02*
Y184055D01*
Y186055D01*
X288813Y187054D01*
X289813Y188054D01*
X290813D01*
X294811Y184055D02*
X296811D01*
X297810Y185055D01*
Y187054D01*
X296811Y188054D01*
X294811D01*
X293812Y187054D01*
Y185055D01*
X294811Y184055D01*
X300809Y189053D02*
Y188054D01*
X299810D01*
X301809D01*
X300809D01*
Y185055D01*
X301809Y184055D01*
X305808Y188054D02*
X307807D01*
X308807Y187054D01*
Y184055D01*
X305808D01*
X304808Y185055D01*
X305808Y186055D01*
X308807D01*
X310806Y188054D02*
Y184055D01*
Y186055D01*
X311806Y187054D01*
X312806Y188054D01*
X313805D01*
X316804D02*
Y185055D01*
X317804Y184055D01*
X320803D01*
Y183055D01*
X319803Y182056D01*
X318804D01*
X320803Y184055D02*
Y188054D01*
X331799Y184055D02*
X329800D01*
X328800Y185055D01*
Y187054D01*
X329800Y188054D01*
X331799D01*
X332799Y187054D01*
Y186055D01*
X328800D01*
X334798Y184055D02*
Y188054D01*
X337797D01*
X338797Y187054D01*
Y184055D01*
X344795Y188054D02*
X341796D01*
X340796Y187054D01*
Y185055D01*
X341796Y184055D01*
X344795D01*
X347794D02*
X349794D01*
X350793Y185055D01*
Y187054D01*
X349794Y188054D01*
X347794D01*
X346795Y187054D01*
Y185055D01*
X347794Y184055D01*
X356791Y190053D02*
Y184055D01*
X353792D01*
X352793Y185055D01*
Y187054D01*
X353792Y188054D01*
X356791D01*
X361790Y184055D02*
X359790D01*
X358791Y185055D01*
Y187054D01*
X359790Y188054D01*
X361790D01*
X362789Y187054D01*
Y186055D01*
X358791D01*
X364789Y188054D02*
Y184055D01*
Y186055D01*
X365788Y187054D01*
X366788Y188054D01*
X367788D01*
X370787Y184055D02*
X373786D01*
X374785Y185055D01*
X373786Y186055D01*
X371786D01*
X370787Y187054D01*
X371786Y188054D01*
X374785D01*
X222047Y395079D02*
Y399077D01*
X224047Y401077D01*
X226046Y399077D01*
Y395079D01*
Y398078D01*
X222047D01*
X228045Y395079D02*
Y401077D01*
X232044Y395079D01*
Y401077D01*
X234043D02*
X238042D01*
X236043D01*
Y395079D01*
X240041Y401077D02*
Y395079D01*
Y398078D01*
X244040D01*
Y401077D01*
Y395079D01*
X246040D02*
X249039Y398078D01*
X246040Y401077D01*
X334947Y336085D02*
Y332087D01*
X340945D01*
Y336085D01*
X337946Y332087D02*
Y334086D01*
X335946Y342083D02*
X334947Y341084D01*
Y339084D01*
X335946Y338085D01*
X336946D01*
X337946Y339084D01*
Y341084D01*
X338946Y342083D01*
X339945D01*
X340945Y341084D01*
Y339084D01*
X339945Y338085D01*
X340945Y344083D02*
X334947D01*
Y347082D01*
X335946Y348081D01*
X337946D01*
X338946Y347082D01*
Y344083D01*
X335946Y350081D02*
X334947Y351080D01*
Y353080D01*
X335946Y354080D01*
X336946D01*
X337946Y353080D01*
X338946Y354080D01*
X339945D01*
X340945Y353080D01*
Y351080D01*
X339945Y350081D01*
X338946D01*
X337946Y351080D01*
X336946Y350081D01*
X335946D01*
X337946Y351080D02*
Y353080D01*
X340945Y360078D02*
Y356079D01*
X336946Y360078D01*
X335946D01*
X334947Y359078D01*
Y357079D01*
X335946Y356079D01*
X334947Y366076D02*
X335946Y364076D01*
X337946Y362077D01*
X339945D01*
X340945Y363077D01*
Y365076D01*
X339945Y366076D01*
X338946D01*
X337946Y365076D01*
Y362077D01*
X334947Y372074D02*
X335946Y370074D01*
X337946Y368075D01*
X339945D01*
X340945Y369075D01*
Y371074D01*
X339945Y372074D01*
X338946D01*
X337946Y371074D01*
Y368075D01*
X542126Y159344D02*
Y153347D01*
Y156345D01*
X546125D01*
Y159344D01*
Y153347D01*
X552123Y158345D02*
X551123Y159344D01*
X549124D01*
X548124Y158345D01*
Y154346D01*
X549124Y153347D01*
X551123D01*
X552123Y154346D01*
X554122Y156345D02*
X558121D01*
X564119Y158345D02*
X563119Y159344D01*
X561120D01*
X560120Y158345D01*
Y157345D01*
X561120Y156345D01*
X563119D01*
X564119Y155346D01*
Y154346D01*
X563119Y153347D01*
X561120D01*
X560120Y154346D01*
X566118Y153347D02*
Y159344D01*
X569117D01*
X570117Y158345D01*
Y156345D01*
X569117Y155346D01*
X566118D01*
X568118D02*
X570117Y153347D01*
X572116Y158345D02*
X573116Y159344D01*
X575115D01*
X576115Y158345D01*
Y154346D01*
X575115Y153347D01*
X573116D01*
X572116Y154346D01*
Y158345D01*
X581113Y153347D02*
Y159344D01*
X578114Y156345D01*
X582113D01*
X180709Y285329D02*
Y279331D01*
X184707D01*
X190705Y285329D02*
X186707D01*
Y279331D01*
X190705D01*
X186707Y282330D02*
X188706D01*
X192705Y285329D02*
Y281330D01*
X194704Y279331D01*
X196704Y281330D01*
Y285329D01*
X202701D02*
X198703D01*
Y279331D01*
X202701D01*
X198703Y282330D02*
X200702D01*
X204701Y285329D02*
Y279331D01*
X208700D01*
X220696Y284329D02*
X219696Y285329D01*
X217697D01*
X216697Y284329D01*
Y280330D01*
X217697Y279331D01*
X219696D01*
X220696Y280330D01*
X225694Y285329D02*
X223695D01*
X222695Y284329D01*
Y280330D01*
X223695Y279331D01*
X225694D01*
X226694Y280330D01*
Y284329D01*
X225694Y285329D01*
X228693Y279331D02*
Y285329D01*
X232692Y279331D01*
Y285329D01*
X234691D02*
Y281330D01*
X236690Y279331D01*
X238690Y281330D01*
Y285329D01*
X244688D02*
X240689D01*
Y279331D01*
X244688D01*
X240689Y282330D02*
X242689D01*
X246687Y279331D02*
Y285329D01*
X249686D01*
X250686Y284329D01*
Y282330D01*
X249686Y281330D01*
X246687D01*
X248687D02*
X250686Y279331D01*
X252685Y285329D02*
X256684D01*
X254685D01*
Y279331D01*
X261683Y285329D02*
X259683D01*
X258683Y284329D01*
Y280330D01*
X259683Y279331D01*
X261683D01*
X262682Y280330D01*
Y284329D01*
X261683Y285329D01*
X264682Y279331D02*
Y285329D01*
X267681D01*
X268680Y284329D01*
Y282330D01*
X267681Y281330D01*
X264682D01*
X266681D02*
X268680Y279331D01*
X79528Y236811D02*
Y242809D01*
X81527Y240810D01*
X83526Y242809D01*
Y236811D01*
X88525Y242809D02*
X86525D01*
X85526Y241809D01*
Y237811D01*
X86525Y236811D01*
X88525D01*
X89524Y237811D01*
Y241809D01*
X88525Y242809D01*
X91524D02*
X95522D01*
X93523D01*
Y236811D01*
X100521Y242809D02*
X98521D01*
X97522Y241809D01*
Y237811D01*
X98521Y236811D01*
X100521D01*
X101521Y237811D01*
Y241809D01*
X100521Y242809D01*
X103520Y236811D02*
Y242809D01*
X106519D01*
X107518Y241809D01*
Y239810D01*
X106519Y238810D01*
X103520D01*
X105519D02*
X107518Y236811D01*
X115516Y242809D02*
Y236811D01*
X118515D01*
X119515Y237811D01*
Y241809D01*
X118515Y242809D01*
X115516D01*
X121514Y236811D02*
Y242809D01*
X124513D01*
X125513Y241809D01*
Y239810D01*
X124513Y238810D01*
X121514D01*
X123513D02*
X125513Y236811D01*
X127512Y242809D02*
X129511D01*
X128512D01*
Y236811D01*
X127512D01*
X129511D01*
X132510Y242809D02*
Y238810D01*
X134510Y236811D01*
X136509Y238810D01*
Y242809D01*
X142507D02*
X138508D01*
Y236811D01*
X142507D01*
X138508Y239810D02*
X140508D01*
X144507Y236811D02*
Y242809D01*
X147506D01*
X148505Y241809D01*
Y239810D01*
X147506Y238810D01*
X144507D01*
X146506D02*
X148505Y236811D01*
X595472Y82677D02*
Y88675D01*
X598471D01*
X599471Y87675D01*
Y85676D01*
X598471Y84676D01*
X595472D01*
X597472D02*
X599471Y82677D01*
X605469Y88675D02*
X601471D01*
Y82677D01*
X605469D01*
X601471Y85676D02*
X603470D01*
X607469Y88675D02*
Y84676D01*
X609468Y82677D01*
X611467Y84676D01*
Y88675D01*
X619465Y87675D02*
X620464Y88675D01*
X622464D01*
X623463Y87675D01*
Y86676D01*
X622464Y85676D01*
X621464D01*
X622464D01*
X623463Y84676D01*
Y83677D01*
X622464Y82677D01*
X620464D01*
X619465Y83677D01*
X41339Y368157D02*
X45337D01*
X43338Y370156D02*
Y366157D01*
D41*
X128543Y139764D02*
X148228D01*
X128543Y172441D02*
X148228D01*
Y139764D02*
Y172441D01*
X128543Y139764D02*
Y172441D01*
D42*
X270452Y420816D02*
X289252D01*
X270152Y420766D02*
X289552D01*
X269952Y420716D02*
X289752D01*
X269752Y420666D02*
X289952D01*
X269602Y420616D02*
X290102D01*
X269452Y420566D02*
X290252D01*
X269352Y420516D02*
X290352D01*
X269202Y420466D02*
X290502D01*
X293002D02*
X293502D01*
X269102Y420416D02*
X290602D01*
X292852D02*
X293602D01*
X269002Y420366D02*
X283702D01*
X289352D02*
X290702D01*
X292802D02*
X293702D01*
X268902Y420316D02*
X283402D01*
X289602D02*
X290802D01*
X292752D02*
X293102D01*
X293402D02*
X293752D01*
X268802Y420266D02*
X283252D01*
X289802D02*
X290902D01*
X292652D02*
X292952D01*
X293552D02*
X293802D01*
X268752Y420216D02*
X283052D01*
X290002D02*
X290952D01*
X292652D02*
X292902D01*
X293602D02*
X293852D01*
X268652Y420166D02*
X282952D01*
X290152D02*
X291052D01*
X292602D02*
X292802D01*
X293652D02*
X293902D01*
X268552Y420116D02*
X282802D01*
X290252D02*
X291102D01*
X292552D02*
X292752D01*
X292902D02*
X293352D01*
X293702D02*
X293902D01*
X268502Y420066D02*
X282702D01*
X290402D02*
X291202D01*
X292552D02*
X292752D01*
X292902D02*
X293502D01*
X293752D02*
X293952D01*
X268452Y420016D02*
X282602D01*
X290502D02*
X291252D01*
X292502D02*
X292702D01*
X292902D02*
X293552D01*
X293802D02*
X293952D01*
X268352Y419966D02*
X282502D01*
X290602D02*
X291352D01*
X292502D02*
X292702D01*
X292902D02*
X293052D01*
X293302D02*
X293552D01*
X293802D02*
X294002D01*
X268302Y419916D02*
X282402D01*
X290702D02*
X291402D01*
X292502D02*
X292652D01*
X292902D02*
X293052D01*
X293352D02*
X293552D01*
X293852D02*
X294002D01*
X268252Y419866D02*
X282302D01*
X290752D02*
X291452D01*
X292452D02*
X292652D01*
X292902D02*
X293052D01*
X293352D02*
X293552D01*
X293852D02*
X294002D01*
X268152Y419816D02*
X282252D01*
X290852D02*
X291552D01*
X292452D02*
X292652D01*
X292902D02*
X293052D01*
X293352D02*
X293552D01*
X293852D02*
X294002D01*
X268102Y419766D02*
X282152D01*
X290902D02*
X291602D01*
X292452D02*
X292652D01*
X292902D02*
X293552D01*
X293852D02*
X294052D01*
X268052Y419716D02*
X282102D01*
X291002D02*
X291652D01*
X292452D02*
X292652D01*
X292902D02*
X293502D01*
X293852D02*
X294052D01*
X268002Y419666D02*
X282002D01*
X291052D02*
X291702D01*
X292452D02*
X292602D01*
X292902D02*
X293402D01*
X293852D02*
X294052D01*
X267952Y419616D02*
X281952D01*
X291152D02*
X291752D01*
X292452D02*
X292652D01*
X292902D02*
X293052D01*
X293152D02*
X293402D01*
X293852D02*
X294052D01*
X267902Y419566D02*
X281902D01*
X291202D02*
X291802D01*
X292452D02*
X292652D01*
X292902D02*
X293052D01*
X293252D02*
X293452D01*
X293852D02*
X294002D01*
X267852Y419516D02*
X281852D01*
X291252D02*
X291852D01*
X292452D02*
X292652D01*
X292902D02*
X293052D01*
X293252D02*
X293502D01*
X293852D02*
X294002D01*
X267802Y419466D02*
X281752D01*
X291352D02*
X291902D01*
X292502D02*
X292652D01*
X292902D02*
X293052D01*
X293302D02*
X293502D01*
X293802D02*
X294002D01*
X267752Y419416D02*
X281702D01*
X291402D02*
X291952D01*
X292502D02*
X292702D01*
X292902D02*
X293052D01*
X293352D02*
X293552D01*
X293802D02*
X294002D01*
X267702Y419366D02*
X281652D01*
X291452D02*
X292002D01*
X292552D02*
X292702D01*
X292902D02*
X293052D01*
X293352D02*
X293602D01*
X293752D02*
X293952D01*
X267652Y419316D02*
X281602D01*
X291502D02*
X292052D01*
X292552D02*
X292752D01*
X292902D02*
X293052D01*
X293402D02*
X293602D01*
X293752D02*
X293952D01*
X267602Y419266D02*
X281552D01*
X291552D02*
X292102D01*
X292602D02*
X292802D01*
X293702D02*
X293902D01*
X267552Y419216D02*
X281502D01*
X291602D02*
X292102D01*
X292602D02*
X292852D01*
X293602D02*
X293852D01*
X267552Y419166D02*
X281452D01*
X291652D02*
X292152D01*
X292652D02*
X292952D01*
X293552D02*
X293802D01*
X267502Y419116D02*
X281452D01*
X291702D02*
X292202D01*
X292702D02*
X293052D01*
X293452D02*
X293752D01*
X267452Y419066D02*
X281402D01*
X291752D02*
X292252D01*
X292802D02*
X293702D01*
X267402Y419016D02*
X281352D01*
X291752D02*
X292302D01*
X292852D02*
X293652D01*
X267402Y418966D02*
X281302D01*
X291802D02*
X292302D01*
X293002D02*
X293502D01*
X267352Y418916D02*
X281252D01*
X291852D02*
X292352D01*
X267302Y418866D02*
X281202D01*
X291902D02*
X292402D01*
X267252Y418816D02*
X281202D01*
X291952D02*
X292402D01*
X267252Y418766D02*
X281152D01*
X291952D02*
X292452D01*
X267202Y418716D02*
X281102D01*
X292002D02*
X292502D01*
X267202Y418666D02*
X281102D01*
X292052D02*
X292502D01*
X267152Y418616D02*
X281052D01*
X292052D02*
X292552D01*
X267102Y418566D02*
X281002D01*
X292102D02*
X292552D01*
X267102Y418516D02*
X281002D01*
X292152D02*
X292602D01*
X267052Y418466D02*
X280952D01*
X292152D02*
X292652D01*
X267052Y418416D02*
X280952D01*
X292202D02*
X292652D01*
X267002Y418366D02*
X280902D01*
X292202D02*
X292702D01*
X267002Y418316D02*
X280902D01*
X292252D02*
X292702D01*
X266952Y418266D02*
X280852D01*
X292302D02*
X292752D01*
X266952Y418216D02*
X277902D01*
X278152D02*
X280852D01*
X288502D02*
X288702D01*
X292302D02*
X292752D01*
X266902Y418166D02*
X277702D01*
X278302D02*
X280802D01*
X288302D02*
X288902D01*
X292352D02*
X292752D01*
X266902Y418116D02*
X277602D01*
X278402D02*
X280802D01*
X288202D02*
X289002D01*
X292352D02*
X292802D01*
X266902Y418066D02*
X268902D01*
X268952D02*
X269002D01*
X269902D02*
X270002D01*
X270052D02*
X272202D01*
X273102D02*
X273152D01*
X273202D02*
X273302D01*
X273352D02*
X275452D01*
X276552D02*
X276602D01*
X276652D02*
X277552D01*
X278502D02*
X280752D01*
X288152D02*
X289102D01*
X292352D02*
X292802D01*
X266852Y418016D02*
X268852D01*
X270202D02*
X272202D01*
X273352D02*
X275402D01*
X276652D02*
X277502D01*
X278552D02*
X280752D01*
X282502D02*
X287052D01*
X288102D02*
X289152D01*
X292402D02*
X292852D01*
X266852Y417966D02*
X268852D01*
X270202D02*
X272202D01*
X273402D02*
X275402D01*
X276652D02*
X277452D01*
X278602D02*
X280752D01*
X282502D02*
X287102D01*
X288052D02*
X289202D01*
X292402D02*
X292852D01*
X266802Y417916D02*
X268902D01*
X270202D02*
X272152D01*
X273402D02*
X275402D01*
X276602D02*
X277402D01*
X278652D02*
X280702D01*
X282502D02*
X287052D01*
X288002D02*
X289202D01*
X292452D02*
X292852D01*
X266802Y417866D02*
X268902D01*
X270202D02*
X272152D01*
X273402D02*
X275352D01*
X276602D02*
X277352D01*
X278652D02*
X280702D01*
X282502D02*
X287052D01*
X287952D02*
X289252D01*
X292452D02*
X292902D01*
X266802Y417816D02*
X268902D01*
X270252D02*
X272152D01*
X273402D02*
X275352D01*
X276602D02*
X277352D01*
X278702D02*
X280652D01*
X282502D02*
X287052D01*
X287952D02*
X289302D01*
X292452D02*
X292902D01*
X266752Y417766D02*
X268902D01*
X270252D02*
X272102D01*
X273452D02*
X275352D01*
X276602D02*
X277302D01*
X278702D02*
X280652D01*
X282502D02*
X287052D01*
X287902D02*
X289302D01*
X292502D02*
X292952D01*
X266752Y417716D02*
X268952D01*
X270252D02*
X272102D01*
X273452D02*
X275352D01*
X276552D02*
X277302D01*
X278752D02*
X280652D01*
X282502D02*
X287052D01*
X287902D02*
X289352D01*
X292502D02*
X292952D01*
X266752Y417666D02*
X268952D01*
X270252D02*
X272102D01*
X273452D02*
X275352D01*
X276552D02*
X277302D01*
X278752D02*
X280602D01*
X282502D02*
X287052D01*
X287902D02*
X289352D01*
X292552D02*
X292952D01*
X266702Y417616D02*
X268952D01*
X270302D02*
X272052D01*
X273502D02*
X275302D01*
X276552D02*
X277252D01*
X278752D02*
X280602D01*
X282502D02*
X287052D01*
X287852D02*
X289352D01*
X292552D02*
X292952D01*
X266702Y417566D02*
X268952D01*
X270302D02*
X272052D01*
X273502D02*
X275302D01*
X276552D02*
X277252D01*
X278752D02*
X280602D01*
X282502D02*
X287052D01*
X287852D02*
X289352D01*
X292552D02*
X293002D01*
X266702Y417516D02*
X269002D01*
X270302D02*
X272052D01*
X273502D02*
X275302D01*
X276502D02*
X277252D01*
X278752D02*
X280602D01*
X282502D02*
X287052D01*
X287852D02*
X289352D01*
X292552D02*
X293002D01*
X266702Y417466D02*
X269002D01*
X270302D02*
X272052D01*
X273502D02*
X275302D01*
X276502D02*
X277252D01*
X278802D02*
X280552D01*
X282502D02*
X287052D01*
X287852D02*
X289352D01*
X292602D02*
X293002D01*
X266652Y417416D02*
X269002D01*
X270302D02*
X272002D01*
X273552D02*
X275252D01*
X276502D02*
X277252D01*
X278752D02*
X280552D01*
X282502D02*
X287052D01*
X287852D02*
X289352D01*
X292602D02*
X293052D01*
X266652Y417366D02*
X269002D01*
X270352D02*
X272002D01*
X273552D02*
X275252D01*
X276502D02*
X277252D01*
X278752D02*
X280552D01*
X282502D02*
X287052D01*
X287852D02*
X289352D01*
X292602D02*
X293052D01*
X266652Y417316D02*
X269052D01*
X270352D02*
X272002D01*
X273552D02*
X275252D01*
X276452D02*
X277302D01*
X278752D02*
X280552D01*
X282502D02*
X287052D01*
X287852D02*
X289352D01*
X292602D02*
X293052D01*
X266652Y417266D02*
X269052D01*
X270352D02*
X271952D01*
X273602D02*
X275252D01*
X276452D02*
X277302D01*
X278752D02*
X280502D01*
X282502D02*
X287052D01*
X287902D02*
X289352D01*
X292652D02*
X293052D01*
X266652Y417216D02*
X269052D01*
X270352D02*
X271952D01*
X273602D02*
X275202D01*
X276452D02*
X277302D01*
X278752D02*
X280502D01*
X282502D02*
X287052D01*
X287902D02*
X289302D01*
X292652D02*
X293052D01*
X266602Y417166D02*
X269102D01*
X270402D02*
X271952D01*
X273602D02*
X275202D01*
X276452D02*
X277302D01*
X278702D02*
X280502D01*
X282502D02*
X287052D01*
X287902D02*
X289302D01*
X292652D02*
X293102D01*
X266602Y417116D02*
X269102D01*
X270402D02*
X271952D01*
X273602D02*
X275202D01*
X276402D02*
X277352D01*
X278702D02*
X280502D01*
X282502D02*
X287052D01*
X287952D02*
X289302D01*
X292652D02*
X293102D01*
X266602Y417066D02*
X269102D01*
X270402D02*
X271902D01*
X273652D02*
X275202D01*
X276402D02*
X277352D01*
X278652D02*
X280502D01*
X282502D02*
X287052D01*
X287952D02*
X289252D01*
X292652D02*
X293102D01*
X266602Y417016D02*
X269102D01*
X270402D02*
X271902D01*
X273652D02*
X275152D01*
X276402D02*
X277402D01*
X278602D02*
X280502D01*
X282502D02*
X287052D01*
X288002D02*
X289202D01*
X292702D02*
X293102D01*
X266602Y416966D02*
X269152D01*
X270402D02*
X271902D01*
X273652D02*
X275152D01*
X276352D02*
X277452D01*
X278602D02*
X280502D01*
X282502D02*
X287052D01*
X288052D02*
X289202D01*
X292702D02*
X293102D01*
X266602Y416916D02*
X269152D01*
X270452D02*
X271852D01*
X273702D02*
X275152D01*
X276352D02*
X277502D01*
X278552D02*
X280452D01*
X282502D02*
X287102D01*
X288102D02*
X289152D01*
X292702D02*
X293102D01*
X266602Y416866D02*
X269152D01*
X270452D02*
X271852D01*
X273702D02*
X275152D01*
X276352D02*
X277552D01*
X278502D02*
X280452D01*
X282502D02*
X287052D01*
X288152D02*
X289052D01*
X292702D02*
X293102D01*
X266552Y416816D02*
X269152D01*
X270452D02*
X271852D01*
X273702D02*
X275152D01*
X276352D02*
X277652D01*
X278402D02*
X280452D01*
X282502D02*
X283852D01*
X288202D02*
X289002D01*
X292702D02*
X293152D01*
X266552Y416766D02*
X269202D01*
X270452D02*
X271802D01*
X273702D02*
X275102D01*
X276302D02*
X277752D01*
X278302D02*
X280452D01*
X282502D02*
X283852D01*
X288352D02*
X288902D01*
X292702D02*
X293152D01*
X266552Y416716D02*
X269202D01*
X270502D02*
X271802D01*
X273752D02*
X275102D01*
X276302D02*
X277952D01*
X278002D02*
X280452D01*
X282502D02*
X283852D01*
X288552D02*
X288602D01*
X292702D02*
X293152D01*
X266552Y416666D02*
X269202D01*
X270502D02*
X271802D01*
X273752D02*
X275102D01*
X276302D02*
X280452D01*
X282502D02*
X283852D01*
X292702D02*
X293152D01*
X266552Y416616D02*
X269202D01*
X270502D02*
X271802D01*
X273752D02*
X275102D01*
X276302D02*
X280452D01*
X282502D02*
X283852D01*
X292702D02*
X293152D01*
X266552Y416566D02*
X269252D01*
X270502D02*
X271752D01*
X273802D02*
X275102D01*
X276252D02*
X280452D01*
X282502D02*
X283852D01*
X292702D02*
X293152D01*
X266552Y416516D02*
X269252D01*
X270502D02*
X271752D01*
X273802D02*
X275052D01*
X276252D02*
X280452D01*
X282502D02*
X283852D01*
X292702D02*
X293152D01*
X266552Y416466D02*
X269252D01*
X270552D02*
X271752D01*
X273802D02*
X275052D01*
X276252D02*
X280452D01*
X282502D02*
X283852D01*
X292702D02*
X293152D01*
X266552Y416416D02*
X269302D01*
X270552D02*
X271702D01*
X273802D02*
X275052D01*
X276252D02*
X280452D01*
X282502D02*
X283852D01*
X292702D02*
X293152D01*
X266552Y416366D02*
X269302D01*
X270552D02*
X271702D01*
X273852D02*
X275052D01*
X276202D02*
X280452D01*
X282502D02*
X283852D01*
X292702D02*
X293152D01*
X266552Y416316D02*
X269302D01*
X270552D02*
X271702D01*
X273852D02*
X275002D01*
X276202D02*
X280452D01*
X282502D02*
X283852D01*
X292702D02*
X293152D01*
X266552Y416266D02*
X269302D01*
X270602D02*
X271702D01*
X273852D02*
X275002D01*
X276202D02*
X280452D01*
X282502D02*
X283852D01*
X292702D02*
X293152D01*
X266552Y416216D02*
X269352D01*
X270602D02*
X271652D01*
X273902D02*
X275002D01*
X276202D02*
X280452D01*
X282502D02*
X283852D01*
X292702D02*
X293152D01*
X266552Y416166D02*
X269352D01*
X270602D02*
X271652D01*
X273902D02*
X275002D01*
X276152D02*
X280452D01*
X282502D02*
X283852D01*
X292702D02*
X293152D01*
X266552Y416116D02*
X269352D01*
X270602D02*
X271652D01*
X272702D02*
X272752D01*
X273902D02*
X274952D01*
X276152D02*
X277352D01*
X278652D02*
X280452D01*
X282502D02*
X283852D01*
X287952D02*
X289252D01*
X292702D02*
X293152D01*
X266552Y416066D02*
X269352D01*
X270652D02*
X271602D01*
X272702D02*
X272802D01*
X273902D02*
X274952D01*
X276152D02*
X277352D01*
X278652D02*
X280452D01*
X282502D02*
X283852D01*
X287952D02*
X289252D01*
X292702D02*
X293152D01*
X266552Y416016D02*
X269402D01*
X270652D02*
X271602D01*
X272702D02*
X272802D01*
X273952D02*
X274952D01*
X276102D02*
X277352D01*
X278652D02*
X280452D01*
X282502D02*
X283852D01*
X287952D02*
X289252D01*
X292702D02*
X293152D01*
X266552Y415966D02*
X269402D01*
X270652D02*
X271602D01*
X272702D02*
X272802D01*
X273952D02*
X274952D01*
X276102D02*
X277352D01*
X278652D02*
X280452D01*
X282502D02*
X283852D01*
X287952D02*
X289252D01*
X292702D02*
X293152D01*
X266552Y415916D02*
X269402D01*
X270652D02*
X271552D01*
X272652D02*
X272802D01*
X273952D02*
X274902D01*
X276102D02*
X277352D01*
X278652D02*
X280452D01*
X282502D02*
X283852D01*
X287952D02*
X289252D01*
X292702D02*
X293152D01*
X266552Y415866D02*
X269402D01*
X270652D02*
X271552D01*
X272652D02*
X272852D01*
X273952D02*
X274902D01*
X276102D02*
X277402D01*
X278652D02*
X280452D01*
X282502D02*
X283852D01*
X287952D02*
X289252D01*
X292702D02*
X293152D01*
X266552Y415816D02*
X269452D01*
X270702D02*
X271552D01*
X272652D02*
X272852D01*
X274002D02*
X274902D01*
X276052D02*
X277352D01*
X278652D02*
X280452D01*
X282502D02*
X283852D01*
X287952D02*
X289252D01*
X292702D02*
X293152D01*
X266552Y415766D02*
X269452D01*
X270702D02*
X271552D01*
X272602D02*
X272852D01*
X274002D02*
X274902D01*
X276052D02*
X277352D01*
X278652D02*
X280452D01*
X282502D02*
X283852D01*
X287952D02*
X289252D01*
X292702D02*
X293152D01*
X266552Y415716D02*
X269452D01*
X270702D02*
X271502D01*
X272602D02*
X272902D01*
X274002D02*
X274902D01*
X276052D02*
X277352D01*
X278652D02*
X280452D01*
X282502D02*
X283852D01*
X287952D02*
X289252D01*
X292702D02*
X293152D01*
X266552Y415666D02*
X269502D01*
X270702D02*
X271502D01*
X272602D02*
X272902D01*
X274052D02*
X274852D01*
X276052D02*
X277352D01*
X278652D02*
X280452D01*
X282502D02*
X283852D01*
X287952D02*
X289252D01*
X292702D02*
X293152D01*
X266552Y415616D02*
X269502D01*
X270752D02*
X271502D01*
X272602D02*
X272902D01*
X274052D02*
X274852D01*
X276002D02*
X277352D01*
X278652D02*
X280452D01*
X282502D02*
X283852D01*
X287952D02*
X289252D01*
X292702D02*
X293152D01*
X266552Y415566D02*
X269502D01*
X270752D02*
X271452D01*
X272552D02*
X272902D01*
X274052D02*
X274852D01*
X276002D02*
X277352D01*
X278652D02*
X280452D01*
X282502D02*
X286852D01*
X287952D02*
X289252D01*
X292702D02*
X293152D01*
X266552Y415516D02*
X269502D01*
X270752D02*
X271452D01*
X272552D02*
X272952D01*
X274052D02*
X274852D01*
X276002D02*
X277352D01*
X278652D02*
X280452D01*
X282502D02*
X286852D01*
X287952D02*
X289252D01*
X292702D02*
X293152D01*
X266552Y415466D02*
X269552D01*
X270752D02*
X271452D01*
X272552D02*
X272952D01*
X274102D02*
X274802D01*
X276002D02*
X277352D01*
X278652D02*
X280452D01*
X282502D02*
X286852D01*
X287952D02*
X289252D01*
X292702D02*
X293152D01*
X266552Y415416D02*
X269552D01*
X270752D02*
X271402D01*
X272502D02*
X272952D01*
X274102D02*
X274802D01*
X275952D02*
X277352D01*
X278652D02*
X280452D01*
X282502D02*
X286852D01*
X287952D02*
X289252D01*
X292702D02*
X293152D01*
X266552Y415366D02*
X269552D01*
X270802D02*
X271402D01*
X272502D02*
X273002D01*
X274102D02*
X274802D01*
X275952D02*
X277352D01*
X278652D02*
X280452D01*
X282502D02*
X286852D01*
X287952D02*
X289252D01*
X292702D02*
X293152D01*
X266552Y415316D02*
X269552D01*
X270802D02*
X271402D01*
X272502D02*
X273002D01*
X274152D02*
X274802D01*
X275952D02*
X277352D01*
X278652D02*
X280452D01*
X282502D02*
X286852D01*
X287952D02*
X289252D01*
X292702D02*
X293152D01*
X266552Y415266D02*
X269602D01*
X270802D02*
X271402D01*
X272502D02*
X273002D01*
X274152D02*
X274752D01*
X275902D02*
X277352D01*
X278652D02*
X280452D01*
X282502D02*
X286852D01*
X287952D02*
X289252D01*
X292702D02*
X293152D01*
X266552Y415216D02*
X269602D01*
X270802D02*
X271352D01*
X272452D02*
X273002D01*
X274152D02*
X274752D01*
X275902D02*
X277352D01*
X278652D02*
X280452D01*
X282502D02*
X286852D01*
X287952D02*
X289252D01*
X292702D02*
X293152D01*
X266552Y415166D02*
X269602D01*
X270852D02*
X271352D01*
X272452D02*
X273052D01*
X274152D02*
X274752D01*
X275902D02*
X277352D01*
X278652D02*
X280452D01*
X282502D02*
X286852D01*
X287952D02*
X289252D01*
X292702D02*
X293152D01*
X266552Y415116D02*
X269652D01*
X270852D02*
X271352D01*
X272452D02*
X273052D01*
X274202D02*
X274752D01*
X275902D02*
X277352D01*
X278652D02*
X280452D01*
X282502D02*
X286852D01*
X287952D02*
X289252D01*
X292702D02*
X293152D01*
X266552Y415066D02*
X269652D01*
X270852D02*
X271302D01*
X272402D02*
X273052D01*
X274202D02*
X274752D01*
X275852D02*
X277352D01*
X278652D02*
X280452D01*
X282502D02*
X286852D01*
X287952D02*
X289252D01*
X292702D02*
X293152D01*
X266552Y415016D02*
X269652D01*
X270852D02*
X271302D01*
X272402D02*
X273102D01*
X274202D02*
X274702D01*
X275852D02*
X277352D01*
X278652D02*
X280452D01*
X282502D02*
X286852D01*
X287952D02*
X289252D01*
X292702D02*
X293152D01*
X266552Y414966D02*
X269652D01*
X270852D02*
X271302D01*
X272402D02*
X273102D01*
X274252D02*
X274702D01*
X275852D02*
X277352D01*
X278652D02*
X280452D01*
X282502D02*
X286852D01*
X287952D02*
X289252D01*
X292702D02*
X293152D01*
X266552Y414916D02*
X269702D01*
X270902D02*
X271302D01*
X272402D02*
X273102D01*
X274252D02*
X274702D01*
X275852D02*
X277352D01*
X278652D02*
X280452D01*
X282502D02*
X286852D01*
X287952D02*
X289252D01*
X292702D02*
X293152D01*
X266552Y414866D02*
X269702D01*
X270902D02*
X271252D01*
X272352D02*
X273102D01*
X274252D02*
X274702D01*
X275802D02*
X277352D01*
X278652D02*
X280452D01*
X282502D02*
X286852D01*
X287952D02*
X289252D01*
X292702D02*
X293152D01*
X266552Y414816D02*
X269702D01*
X270902D02*
X271252D01*
X272352D02*
X273152D01*
X274302D02*
X274652D01*
X275802D02*
X277352D01*
X278652D02*
X280452D01*
X282502D02*
X286852D01*
X287952D02*
X289252D01*
X292702D02*
X293152D01*
X266552Y414766D02*
X269702D01*
X270902D02*
X271252D01*
X272352D02*
X273152D01*
X274302D02*
X274652D01*
X275802D02*
X277352D01*
X278652D02*
X280452D01*
X282502D02*
X286852D01*
X287952D02*
X289252D01*
X292702D02*
X293152D01*
X266552Y414716D02*
X269752D01*
X270952D02*
X271202D01*
X272302D02*
X273152D01*
X274302D02*
X274652D01*
X275802D02*
X277352D01*
X278652D02*
X280452D01*
X282502D02*
X286852D01*
X287952D02*
X289252D01*
X292702D02*
X293152D01*
X266552Y414666D02*
X269752D01*
X270952D02*
X271202D01*
X272302D02*
X273202D01*
X274302D02*
X274652D01*
X275752D02*
X277352D01*
X278652D02*
X280452D01*
X282502D02*
X286852D01*
X287952D02*
X289252D01*
X292702D02*
X293152D01*
X266552Y414616D02*
X269752D01*
X270952D02*
X271202D01*
X272302D02*
X273202D01*
X274352D02*
X274602D01*
X275752D02*
X277352D01*
X278652D02*
X280452D01*
X282502D02*
X286852D01*
X287952D02*
X289252D01*
X292702D02*
X293152D01*
X266552Y414566D02*
X269752D01*
X270952D02*
X271152D01*
X272302D02*
X273202D01*
X274352D02*
X274602D01*
X275752D02*
X277352D01*
X278652D02*
X280452D01*
X282502D02*
X286852D01*
X287952D02*
X289252D01*
X292702D02*
X293152D01*
X266552Y414516D02*
X269802D01*
X270952D02*
X271152D01*
X272252D02*
X273202D01*
X274352D02*
X274602D01*
X275752D02*
X277352D01*
X278652D02*
X280452D01*
X282502D02*
X286852D01*
X287952D02*
X289252D01*
X292702D02*
X293152D01*
X266552Y414466D02*
X269802D01*
X271002D02*
X271152D01*
X272252D02*
X273252D01*
X274352D02*
X274602D01*
X275702D02*
X277352D01*
X278652D02*
X280452D01*
X282502D02*
X286852D01*
X287952D02*
X289252D01*
X292702D02*
X293152D01*
X266552Y414416D02*
X269802D01*
X271002D02*
X271152D01*
X272252D02*
X273252D01*
X274402D02*
X274602D01*
X275702D02*
X277352D01*
X278652D02*
X280452D01*
X282502D02*
X286852D01*
X287952D02*
X289252D01*
X292702D02*
X293152D01*
X266552Y414366D02*
X269852D01*
X271002D02*
X271102D01*
X272202D02*
X273252D01*
X274402D02*
X274552D01*
X275702D02*
X277352D01*
X278652D02*
X280452D01*
X282502D02*
X286852D01*
X287952D02*
X289252D01*
X292702D02*
X293152D01*
X266552Y414316D02*
X269852D01*
X271002D02*
X271102D01*
X272202D02*
X273302D01*
X274402D02*
X274552D01*
X275652D02*
X277352D01*
X278652D02*
X280452D01*
X282502D02*
X283852D01*
X287952D02*
X289252D01*
X292702D02*
X293152D01*
X266552Y414266D02*
X269852D01*
X271052D02*
X271102D01*
X272202D02*
X273302D01*
X274452D02*
X274552D01*
X275652D02*
X277352D01*
X278652D02*
X280452D01*
X282502D02*
X283852D01*
X287952D02*
X289252D01*
X292702D02*
X293152D01*
X266552Y414216D02*
X269852D01*
X272202D02*
X273302D01*
X274452D02*
X274552D01*
X275652D02*
X277352D01*
X278652D02*
X280452D01*
X282502D02*
X283852D01*
X287952D02*
X289252D01*
X292702D02*
X293152D01*
X266552Y414166D02*
X269902D01*
X272152D02*
X273302D01*
X274452D02*
X274502D01*
X275652D02*
X277352D01*
X278652D02*
X280452D01*
X282502D02*
X283852D01*
X287952D02*
X289252D01*
X292702D02*
X293152D01*
X266552Y414116D02*
X269902D01*
X272152D02*
X273352D01*
X274452D02*
X274502D01*
X275602D02*
X277352D01*
X278652D02*
X280452D01*
X282502D02*
X283852D01*
X287952D02*
X289252D01*
X292702D02*
X293152D01*
X266552Y414066D02*
X269902D01*
X272152D02*
X273352D01*
X275602D02*
X277352D01*
X278652D02*
X280452D01*
X282502D02*
X283852D01*
X287952D02*
X289252D01*
X292702D02*
X293152D01*
X266552Y414016D02*
X269902D01*
X272102D02*
X273352D01*
X275602D02*
X277352D01*
X278652D02*
X280452D01*
X282502D02*
X283852D01*
X287952D02*
X289252D01*
X292702D02*
X293152D01*
X266552Y413966D02*
X269952D01*
X272102D02*
X273402D01*
X275602D02*
X277352D01*
X278652D02*
X280452D01*
X282502D02*
X283852D01*
X287952D02*
X289252D01*
X292702D02*
X293152D01*
X266552Y413916D02*
X269952D01*
X272102D02*
X273402D01*
X275552D02*
X277352D01*
X278652D02*
X280452D01*
X282502D02*
X283852D01*
X287952D02*
X289252D01*
X292702D02*
X293152D01*
X266552Y413866D02*
X269952D01*
X272052D02*
X273402D01*
X275552D02*
X277352D01*
X278652D02*
X280452D01*
X282502D02*
X283852D01*
X287952D02*
X289252D01*
X292702D02*
X293152D01*
X266552Y413816D02*
X270002D01*
X272052D02*
X273452D01*
X275552D02*
X277352D01*
X278652D02*
X280452D01*
X282502D02*
X283852D01*
X287952D02*
X289252D01*
X292702D02*
X293152D01*
X266552Y413766D02*
X270002D01*
X272052D02*
X273452D01*
X275552D02*
X277352D01*
X278652D02*
X280452D01*
X282502D02*
X283852D01*
X287952D02*
X289252D01*
X292702D02*
X293152D01*
X266552Y413716D02*
X270002D01*
X272052D02*
X273452D01*
X275502D02*
X277352D01*
X278652D02*
X280452D01*
X282502D02*
X283852D01*
X287952D02*
X289252D01*
X292702D02*
X293152D01*
X266552Y413666D02*
X270002D01*
X272002D02*
X273452D01*
X275502D02*
X277352D01*
X278652D02*
X280452D01*
X282502D02*
X283852D01*
X287952D02*
X289252D01*
X292702D02*
X293152D01*
X266552Y413616D02*
X270052D01*
X272002D02*
X273502D01*
X275502D02*
X277352D01*
X278652D02*
X280452D01*
X282502D02*
X283852D01*
X287952D02*
X289252D01*
X292702D02*
X293152D01*
X266552Y413566D02*
X270052D01*
X272002D02*
X273502D01*
X275502D02*
X277352D01*
X278652D02*
X280452D01*
X282502D02*
X283852D01*
X287952D02*
X289252D01*
X292702D02*
X293152D01*
X266552Y413516D02*
X270052D01*
X271952D02*
X273502D01*
X275452D02*
X277352D01*
X278652D02*
X280452D01*
X282502D02*
X283852D01*
X287952D02*
X289252D01*
X292702D02*
X293152D01*
X266552Y413466D02*
X270052D01*
X271952D02*
X273502D01*
X275452D02*
X277352D01*
X278652D02*
X280452D01*
X282502D02*
X283852D01*
X287952D02*
X289252D01*
X292702D02*
X293152D01*
X266552Y413416D02*
X270102D01*
X271952D02*
X273552D01*
X275452D02*
X277352D01*
X278652D02*
X280452D01*
X282502D02*
X283852D01*
X287952D02*
X289252D01*
X292702D02*
X293152D01*
X266552Y413366D02*
X270102D01*
X271952D02*
X273552D01*
X275402D02*
X277352D01*
X278652D02*
X280452D01*
X282502D02*
X283852D01*
X287952D02*
X289252D01*
X292702D02*
X293152D01*
X266552Y413316D02*
X270102D01*
X271902D02*
X273552D01*
X275402D02*
X277352D01*
X278652D02*
X280452D01*
X282502D02*
X283852D01*
X287952D02*
X289252D01*
X292702D02*
X293152D01*
X266552Y413266D02*
X270102D01*
X271902D02*
X273602D01*
X275402D02*
X277352D01*
X278652D02*
X280452D01*
X282502D02*
X283852D01*
X287952D02*
X289252D01*
X292702D02*
X293152D01*
X266552Y413216D02*
X270152D01*
X271902D02*
X273602D01*
X275402D02*
X277352D01*
X278652D02*
X280452D01*
X282502D02*
X283852D01*
X287952D02*
X289252D01*
X292702D02*
X293152D01*
X266552Y413166D02*
X270152D01*
X271852D02*
X273602D01*
X275352D02*
X277352D01*
X278652D02*
X280452D01*
X282502D02*
X283852D01*
X287952D02*
X289252D01*
X292702D02*
X293152D01*
X266602Y413116D02*
X270152D01*
X271852D02*
X273602D01*
X275352D02*
X277352D01*
X278652D02*
X280452D01*
X282502D02*
X283852D01*
X287952D02*
X289252D01*
X292702D02*
X293102D01*
X266602Y413066D02*
X270202D01*
X271852D02*
X273652D01*
X275352D02*
X277352D01*
X278652D02*
X280402D01*
X282502D02*
X283852D01*
X287952D02*
X289252D01*
X292702D02*
X293102D01*
X266602Y413016D02*
X270202D01*
X271852D02*
X273652D01*
X275352D02*
X277352D01*
X278652D02*
X280402D01*
X282502D02*
X283852D01*
X287952D02*
X289252D01*
X292702D02*
X293102D01*
X266602Y412966D02*
X270202D01*
X271802D02*
X273652D01*
X275302D02*
X277352D01*
X278652D02*
X280402D01*
X282502D02*
X283852D01*
X287952D02*
X289252D01*
X292702D02*
X293102D01*
X266602Y412916D02*
X270202D01*
X271802D02*
X273702D01*
X275302D02*
X277352D01*
X278652D02*
X280402D01*
X282502D02*
X283852D01*
X287952D02*
X289252D01*
X292652D02*
X293102D01*
X266602Y412866D02*
X270252D01*
X271802D02*
X273702D01*
X275302D02*
X277352D01*
X278652D02*
X280402D01*
X282502D02*
X283852D01*
X287952D02*
X289252D01*
X292652D02*
X293102D01*
X266602Y412816D02*
X270252D01*
X271752D02*
X273702D01*
X275302D02*
X277352D01*
X278652D02*
X280402D01*
X282502D02*
X283852D01*
X287952D02*
X289252D01*
X292652D02*
X293052D01*
X266652Y412766D02*
X270252D01*
X271752D02*
X273752D01*
X275252D02*
X277352D01*
X278652D02*
X280402D01*
X282502D02*
X283852D01*
X287952D02*
X289252D01*
X292652D02*
X293052D01*
X266652Y412716D02*
X270252D01*
X271752D02*
X273752D01*
X275252D02*
X277352D01*
X278652D02*
X280402D01*
X282502D02*
X283852D01*
X287952D02*
X289252D01*
X292652D02*
X293052D01*
X266652Y412666D02*
X270302D01*
X271752D02*
X273752D01*
X275252D02*
X277352D01*
X278652D02*
X280352D01*
X282502D02*
X283852D01*
X287952D02*
X289252D01*
X292602D02*
X293052D01*
X266652Y412616D02*
X270302D01*
X271702D02*
X273752D01*
X275252D02*
X277352D01*
X278652D02*
X280352D01*
X282502D02*
X283852D01*
X287952D02*
X289252D01*
X292602D02*
X293052D01*
X266652Y412566D02*
X270302D01*
X271702D02*
X273802D01*
X275202D02*
X277352D01*
X278652D02*
X280352D01*
X282502D02*
X283852D01*
X287952D02*
X289252D01*
X292602D02*
X293002D01*
X266702Y412516D02*
X270302D01*
X271702D02*
X273802D01*
X275202D02*
X277352D01*
X278652D02*
X280352D01*
X282502D02*
X283852D01*
X287952D02*
X289252D01*
X292602D02*
X293002D01*
X266702Y412466D02*
X270352D01*
X271652D02*
X273802D01*
X275202D02*
X277352D01*
X278652D02*
X280352D01*
X282502D02*
X283852D01*
X287952D02*
X289252D01*
X292552D02*
X293002D01*
X266702Y412416D02*
X270352D01*
X271652D02*
X273852D01*
X275152D02*
X277352D01*
X278652D02*
X280302D01*
X282502D02*
X283852D01*
X287952D02*
X289252D01*
X292552D02*
X293002D01*
X266752Y412366D02*
X270352D01*
X271652D02*
X273852D01*
X275152D02*
X277352D01*
X278652D02*
X280302D01*
X282502D02*
X283852D01*
X287952D02*
X289252D01*
X292552D02*
X292952D01*
X266752Y412316D02*
X270402D01*
X271652D02*
X273852D01*
X275152D02*
X277352D01*
X278652D02*
X280302D01*
X282502D02*
X283852D01*
X287952D02*
X289252D01*
X292502D02*
X292952D01*
X266752Y412266D02*
X270402D01*
X271602D02*
X273852D01*
X275152D02*
X277352D01*
X278652D02*
X280302D01*
X282502D02*
X283852D01*
X287952D02*
X289252D01*
X292502D02*
X292952D01*
X266752Y412216D02*
X270402D01*
X271602D02*
X273902D01*
X275102D02*
X277402D01*
X278652D02*
X280252D01*
X282502D02*
X283852D01*
X287952D02*
X289252D01*
X292502D02*
X292902D01*
X266802Y412166D02*
X270402D01*
X271602D02*
X273902D01*
X275102D02*
X277402D01*
X278652D02*
X280252D01*
X282502D02*
X283852D01*
X287952D02*
X289252D01*
X292452D02*
X292902D01*
X266802Y412116D02*
X270452D01*
X271552D02*
X273902D01*
X275102D02*
X277352D01*
X278652D02*
X280252D01*
X282502D02*
X283852D01*
X287952D02*
X289252D01*
X292452D02*
X292902D01*
X266852Y412066D02*
X270452D01*
X271552D02*
X273952D01*
X275102D02*
X277352D01*
X278652D02*
X280252D01*
X282502D02*
X283852D01*
X287952D02*
X289252D01*
X292452D02*
X292852D01*
X266852Y412016D02*
X270452D01*
X271552D02*
X273952D01*
X275052D02*
X277352D01*
X278652D02*
X280202D01*
X282502D02*
X283852D01*
X287952D02*
X289252D01*
X292402D02*
X292852D01*
X266852Y411966D02*
X270502D01*
X270602D02*
X270652D01*
X271452D02*
X273952D01*
X274052D02*
X274102D01*
X274152D02*
X274252D01*
X275052D02*
X277402D01*
X278652D02*
X280202D01*
X282602D02*
X283852D01*
X288052D02*
X288152D01*
X288252D02*
X289052D01*
X289202D02*
X289252D01*
X292402D02*
X292852D01*
X266902Y411916D02*
X280202D01*
X292352D02*
X292802D01*
X266902Y411866D02*
X280152D01*
X292352D02*
X292802D01*
X266952Y411816D02*
X280152D01*
X292302D02*
X292752D01*
X266952Y411766D02*
X280152D01*
X292302D02*
X292752D01*
X266952Y411716D02*
X280102D01*
X292252D02*
X292702D01*
X267002Y411666D02*
X280102D01*
X292252D02*
X292702D01*
X267002Y411616D02*
X280052D01*
X292202D02*
X292652D01*
X267052Y411566D02*
X280052D01*
X292202D02*
X292652D01*
X267052Y411516D02*
X280052D01*
X292152D02*
X292602D01*
X267102Y411466D02*
X280002D01*
X292152D02*
X292602D01*
X267152Y411416D02*
X280002D01*
X292102D02*
X292552D01*
X267152Y411366D02*
X279952D01*
X292052D02*
X292552D01*
X267202Y411316D02*
X279952D01*
X292052D02*
X292502D01*
X267202Y411266D02*
X279902D01*
X292002D02*
X292502D01*
X267252Y411216D02*
X279902D01*
X291952D02*
X292452D01*
X267302Y411166D02*
X279852D01*
X291902D02*
X292402D01*
X267302Y411116D02*
X279852D01*
X291902D02*
X292402D01*
X267352Y411066D02*
X279802D01*
X291852D02*
X292352D01*
X267402Y411016D02*
X279802D01*
X291802D02*
X292302D01*
X267452Y410966D02*
X279752D01*
X291752D02*
X292252D01*
X267452Y410916D02*
X279702D01*
X291702D02*
X292252D01*
X267502Y410866D02*
X279702D01*
X291652D02*
X292202D01*
X267552Y410816D02*
X279652D01*
X291652D02*
X292152D01*
X267602Y410766D02*
X279602D01*
X291602D02*
X292102D01*
X267602Y410716D02*
X279602D01*
X291552D02*
X292052D01*
X267652Y410666D02*
X279552D01*
X291502D02*
X292052D01*
X267702Y410616D02*
X279502D01*
X291402D02*
X292002D01*
X267752Y410566D02*
X279502D01*
X291352D02*
X291952D01*
X267802Y410516D02*
X279452D01*
X291302D02*
X291902D01*
X267852Y410466D02*
X279402D01*
X291252D02*
X291852D01*
X267902Y410416D02*
X279352D01*
X291202D02*
X291802D01*
X267952Y410366D02*
X279302D01*
X291102D02*
X291752D01*
X268002Y410316D02*
X279302D01*
X291052D02*
X291702D01*
X268052Y410266D02*
X279252D01*
X291002D02*
X291652D01*
X268152Y410216D02*
X279202D01*
X290902D02*
X291552D01*
X268202Y410166D02*
X279152D01*
X290852D02*
X291502D01*
X268252Y410116D02*
X279102D01*
X290752D02*
X291452D01*
X268302Y410066D02*
X279052D01*
X290652D02*
X291402D01*
X268352Y410016D02*
X279002D01*
X290552D02*
X291302D01*
X268452Y409966D02*
X278952D01*
X290452D02*
X291252D01*
X268502Y409916D02*
X278902D01*
X290352D02*
X291202D01*
X268602Y409866D02*
X278852D01*
X290252D02*
X291102D01*
X268652Y409816D02*
X278802D01*
X290102D02*
X291052D01*
X268752Y409766D02*
X278752D01*
X289952D02*
X290952D01*
X268852Y409716D02*
X278702D01*
X289802D02*
X290852D01*
X268952Y409666D02*
X278602D01*
X289552D02*
X290752D01*
X269052Y409616D02*
X278552D01*
X289202D02*
X290652D01*
X269152Y409566D02*
X290552D01*
X269252Y409516D02*
X290452D01*
X269352Y409466D02*
X290352D01*
X269502Y409416D02*
X290202D01*
X269652Y409366D02*
X290052D01*
X269802Y409316D02*
X289902D01*
X270002Y409266D02*
X289702D01*
X270252Y409216D02*
X289502D01*
X270602Y409166D02*
X289102D01*
M02*
