G04 Layer_Color=8388736*
%FSLAX25Y25*%
%MOIN*%
G70*
G01*
G75*
G04:AMPARAMS|DCode=43|XSize=49.34mil|YSize=74.93mil|CornerRadius=14.34mil|HoleSize=0mil|Usage=FLASHONLY|Rotation=0.000|XOffset=0mil|YOffset=0mil|HoleType=Round|Shape=RoundedRectangle|*
%AMROUNDEDRECTD43*
21,1,0.04934,0.04626,0,0,0.0*
21,1,0.02067,0.07493,0,0,0.0*
1,1,0.02867,0.01034,-0.02313*
1,1,0.02867,-0.01034,-0.02313*
1,1,0.02867,-0.01034,0.02313*
1,1,0.02867,0.01034,0.02313*
%
%ADD43ROUNDEDRECTD43*%
%ADD44R,0.04934X0.07493*%
%ADD45O,0.03162X0.07296*%
%ADD46O,0.07296X0.03162*%
G04:AMPARAMS|DCode=47|XSize=31.62mil|YSize=72.96mil|CornerRadius=9.91mil|HoleSize=0mil|Usage=FLASHONLY|Rotation=180.000|XOffset=0mil|YOffset=0mil|HoleType=Round|Shape=RoundedRectangle|*
%AMROUNDEDRECTD47*
21,1,0.03162,0.05315,0,0,180.0*
21,1,0.01181,0.07296,0,0,180.0*
1,1,0.01981,-0.00591,0.02658*
1,1,0.01981,0.00591,0.02658*
1,1,0.01981,0.00591,-0.02658*
1,1,0.01981,-0.00591,-0.02658*
%
%ADD47ROUNDEDRECTD47*%
%ADD48R,0.06706X0.22453*%
%ADD49O,0.06312X0.02375*%
G04:AMPARAMS|DCode=50|XSize=23.75mil|YSize=63.12mil|CornerRadius=7.94mil|HoleSize=0mil|Usage=FLASHONLY|Rotation=90.000|XOffset=0mil|YOffset=0mil|HoleType=Round|Shape=RoundedRectangle|*
%AMROUNDEDRECTD50*
21,1,0.02375,0.04724,0,0,90.0*
21,1,0.00787,0.06312,0,0,90.0*
1,1,0.01587,0.02362,0.00394*
1,1,0.01587,0.02362,-0.00394*
1,1,0.01587,-0.02362,-0.00394*
1,1,0.01587,-0.02362,0.00394*
%
%ADD50ROUNDEDRECTD50*%
%ADD51R,0.01784X0.06902*%
G04:AMPARAMS|DCode=52|XSize=17.84mil|YSize=69.02mil|CornerRadius=6.46mil|HoleSize=0mil|Usage=FLASHONLY|Rotation=180.000|XOffset=0mil|YOffset=0mil|HoleType=Round|Shape=RoundedRectangle|*
%AMROUNDEDRECTD52*
21,1,0.01784,0.05610,0,0,180.0*
21,1,0.00492,0.06902,0,0,180.0*
1,1,0.01292,-0.00246,0.02805*
1,1,0.01292,0.00246,0.02805*
1,1,0.01292,0.00246,-0.02805*
1,1,0.01292,-0.00246,-0.02805*
%
%ADD52ROUNDEDRECTD52*%
%ADD53R,0.05131X0.06312*%
%ADD54R,0.06312X0.05131*%
%ADD55C,0.06800*%
%ADD56R,0.06800X0.06800*%
%ADD57O,0.10642X0.06800*%
%ADD58O,0.10642X0.06706*%
%ADD59O,0.06800X0.10642*%
%ADD60R,0.06800X0.10642*%
%ADD61R,0.10642X0.06800*%
%ADD62R,0.12217X0.08280*%
%ADD63O,0.12217X0.08280*%
%ADD64C,0.03300*%
%ADD65C,0.05800*%
D43*
X67913Y342520D02*
D03*
X130512Y343504D02*
D03*
D44*
X76181Y342520D02*
D03*
X138779Y343504D02*
D03*
D45*
X230315Y50886D02*
D03*
X233465D02*
D03*
X236614D02*
D03*
X239764D02*
D03*
X242913D02*
D03*
X246063D02*
D03*
X249213D02*
D03*
X252362D02*
D03*
X255512D02*
D03*
X258661D02*
D03*
Y96752D02*
D03*
X255512D02*
D03*
X252362D02*
D03*
X249213D02*
D03*
X246063D02*
D03*
X242913D02*
D03*
X239764D02*
D03*
X236614D02*
D03*
X233465D02*
D03*
X230315D02*
D03*
X227165D02*
D03*
X417323Y199311D02*
D03*
X420472D02*
D03*
X423622D02*
D03*
X426772D02*
D03*
X429921D02*
D03*
X433071D02*
D03*
X436221D02*
D03*
X439370D02*
D03*
X442520D02*
D03*
X445669D02*
D03*
Y245177D02*
D03*
X442520D02*
D03*
X439370D02*
D03*
X436221D02*
D03*
X433071D02*
D03*
X429921D02*
D03*
X426772D02*
D03*
X423622D02*
D03*
X420472D02*
D03*
X417323D02*
D03*
X414173D02*
D03*
D46*
X265846Y58071D02*
D03*
Y61221D02*
D03*
Y64370D02*
D03*
Y67520D02*
D03*
Y70669D02*
D03*
Y73819D02*
D03*
Y76968D02*
D03*
Y80118D02*
D03*
Y83268D02*
D03*
Y86417D02*
D03*
Y89567D02*
D03*
X219980D02*
D03*
Y86417D02*
D03*
Y83268D02*
D03*
Y80118D02*
D03*
Y76968D02*
D03*
Y73819D02*
D03*
Y70669D02*
D03*
Y67520D02*
D03*
Y64370D02*
D03*
Y61221D02*
D03*
Y58071D02*
D03*
X452854Y206496D02*
D03*
Y209646D02*
D03*
Y212795D02*
D03*
Y215945D02*
D03*
Y219094D02*
D03*
Y222244D02*
D03*
Y225394D02*
D03*
Y228543D02*
D03*
Y231693D02*
D03*
Y234842D02*
D03*
Y237992D02*
D03*
X406988D02*
D03*
Y234842D02*
D03*
Y231693D02*
D03*
Y228543D02*
D03*
Y225394D02*
D03*
Y222244D02*
D03*
Y219094D02*
D03*
Y215945D02*
D03*
Y212795D02*
D03*
Y209646D02*
D03*
Y206496D02*
D03*
D47*
X227165Y50886D02*
D03*
X414173Y199311D02*
D03*
D48*
X482283Y226969D02*
D03*
Y191535D02*
D03*
X314173Y68701D02*
D03*
Y33268D02*
D03*
D49*
X152559Y142028D02*
D03*
Y144587D02*
D03*
Y147146D02*
D03*
Y149705D02*
D03*
Y152264D02*
D03*
Y154823D02*
D03*
Y157382D02*
D03*
Y159941D02*
D03*
Y162500D02*
D03*
Y165059D02*
D03*
Y167618D02*
D03*
Y170177D02*
D03*
X124213Y142028D02*
D03*
Y144587D02*
D03*
Y147146D02*
D03*
Y149705D02*
D03*
Y152264D02*
D03*
Y154823D02*
D03*
Y157382D02*
D03*
Y159941D02*
D03*
Y162500D02*
D03*
Y165059D02*
D03*
Y167618D02*
D03*
D50*
Y170177D02*
D03*
D51*
X275787Y254921D02*
D03*
X278346D02*
D03*
X280906D02*
D03*
X283465D02*
D03*
X286024D02*
D03*
X288583D02*
D03*
X291142D02*
D03*
X293701D02*
D03*
X296260D02*
D03*
X298819D02*
D03*
X275787Y276969D02*
D03*
X278346D02*
D03*
X280906D02*
D03*
X283465D02*
D03*
X286024D02*
D03*
X288583D02*
D03*
X291142D02*
D03*
X293701D02*
D03*
X296260D02*
D03*
D52*
X298819D02*
D03*
D53*
X175787Y319488D02*
D03*
X169882D02*
D03*
X176181Y328150D02*
D03*
X170276D02*
D03*
X499409Y191535D02*
D03*
X505315D02*
D03*
X499606Y227362D02*
D03*
X505512D02*
D03*
X478740Y267126D02*
D03*
X484646D02*
D03*
X391339Y286024D02*
D03*
X385433D02*
D03*
X391732Y343504D02*
D03*
X385827D02*
D03*
X390354Y370472D02*
D03*
X384449D02*
D03*
X478150Y257283D02*
D03*
X484055D02*
D03*
X391535Y295079D02*
D03*
X385630D02*
D03*
X391732Y351969D02*
D03*
X385827D02*
D03*
X390748Y378346D02*
D03*
X384842D02*
D03*
X147835Y178937D02*
D03*
X141929D02*
D03*
X147441Y188386D02*
D03*
X141535D02*
D03*
X329331Y33268D02*
D03*
X335236D02*
D03*
X330118Y69095D02*
D03*
X336024D02*
D03*
X156890Y319094D02*
D03*
X162795D02*
D03*
X156890Y328150D02*
D03*
X162795D02*
D03*
X98425Y318307D02*
D03*
X104331D02*
D03*
X98425Y327756D02*
D03*
X104331D02*
D03*
X120669Y317913D02*
D03*
X114764D02*
D03*
X120472Y327658D02*
D03*
X114567D02*
D03*
X297835Y245079D02*
D03*
X303740D02*
D03*
X298228Y236417D02*
D03*
X304134D02*
D03*
X297835Y287205D02*
D03*
X303740D02*
D03*
X298228Y295472D02*
D03*
X304134D02*
D03*
X297047Y370669D02*
D03*
X291142D02*
D03*
X296654Y356496D02*
D03*
X290748D02*
D03*
D54*
X647441Y222441D02*
D03*
Y216535D02*
D03*
X655315Y222441D02*
D03*
Y216535D02*
D03*
X363779Y229331D02*
D03*
Y223425D02*
D03*
X394488Y228543D02*
D03*
Y222638D02*
D03*
X374803Y229331D02*
D03*
Y223425D02*
D03*
X384646Y229528D02*
D03*
Y223622D02*
D03*
X340158Y103150D02*
D03*
Y97244D02*
D03*
X350787Y103150D02*
D03*
Y97244D02*
D03*
X359842Y103740D02*
D03*
Y97835D02*
D03*
X331102Y103150D02*
D03*
Y97244D02*
D03*
X166929Y161024D02*
D03*
Y155118D02*
D03*
X176772Y161221D02*
D03*
Y155315D02*
D03*
X170472Y75394D02*
D03*
Y69488D02*
D03*
X179134Y75394D02*
D03*
Y69488D02*
D03*
X189370Y75590D02*
D03*
Y69685D02*
D03*
X198031Y75590D02*
D03*
Y69685D02*
D03*
D55*
X455315Y373031D02*
D03*
X440748D02*
D03*
X426575D02*
D03*
X423071Y164528D02*
D03*
X413071D02*
D03*
X433071Y154528D02*
D03*
X423071D02*
D03*
X413071D02*
D03*
X97441Y342520D02*
D03*
X117717D02*
D03*
X107579D02*
D03*
X295748Y336457D02*
D03*
X285648D02*
D03*
Y346457D02*
D03*
X275448Y336557D02*
D03*
X275748Y346457D02*
D03*
X265748Y336557D02*
D03*
Y346457D02*
D03*
X223268Y24606D02*
D03*
X233268D02*
D03*
X243268D02*
D03*
X223268Y34606D02*
D03*
X233268D02*
D03*
X426575Y343504D02*
D03*
X440748D02*
D03*
X455315D02*
D03*
Y313976D02*
D03*
X440748D02*
D03*
X426575D02*
D03*
Y284449D02*
D03*
X440748D02*
D03*
X455315D02*
D03*
X682087Y398622D02*
D03*
X680118Y9843D02*
D03*
X8661Y13189D02*
D03*
X12795Y392717D02*
D03*
X153937Y347441D02*
D03*
X174213D02*
D03*
X164075D02*
D03*
D56*
X412402Y373031D02*
D03*
X433071Y164528D02*
D03*
X295648Y346557D02*
D03*
X243268Y34606D02*
D03*
X412402Y343504D02*
D03*
Y313976D02*
D03*
Y284449D02*
D03*
D57*
X679134Y213740D02*
D03*
Y203740D02*
D03*
Y223740D02*
D03*
X388189Y110039D02*
D03*
Y100039D02*
D03*
X305118Y103110D02*
D03*
Y93110D02*
D03*
D58*
X679134Y193740D02*
D03*
D59*
X90039Y381693D02*
D03*
X114567D02*
D03*
X152874Y382874D02*
D03*
D60*
X80039Y381693D02*
D03*
X124567D02*
D03*
X162874Y382874D02*
D03*
D61*
X388189Y120039D02*
D03*
X305118Y113110D02*
D03*
D62*
X43307Y143110D02*
D03*
X44488Y213976D02*
D03*
X43504Y322835D02*
D03*
D63*
X43307Y162795D02*
D03*
X44488Y233661D02*
D03*
X43504Y342520D02*
D03*
D64*
X316929Y252953D02*
D03*
X223425Y43307D02*
D03*
X215650Y39370D02*
D03*
X623032Y216535D02*
D03*
X358268Y230315D02*
D03*
X407480Y242126D02*
D03*
X440945Y238189D02*
D03*
X421260Y252953D02*
D03*
X437008Y268701D02*
D03*
X400984Y231693D02*
D03*
X397638Y235236D02*
D03*
X426181Y276575D02*
D03*
X386614Y268504D02*
D03*
Y256890D02*
D03*
X409449Y192913D02*
D03*
X423228D02*
D03*
X189764Y156496D02*
D03*
X484252Y251378D02*
D03*
X385433Y279724D02*
D03*
X385630Y337992D02*
D03*
X379724Y378740D02*
D03*
X356693Y223031D02*
D03*
X371260Y211221D02*
D03*
X296850Y259646D02*
D03*
X311024Y267126D02*
D03*
X323228Y207677D02*
D03*
X444095Y192717D02*
D03*
X443307Y227362D02*
D03*
X424409Y234449D02*
D03*
X428739Y208070D02*
D03*
X440945Y205709D02*
D03*
X439370Y183268D02*
D03*
X277165Y124606D02*
D03*
X267717Y104528D02*
D03*
X233858Y63976D02*
D03*
X435433Y187598D02*
D03*
X274410Y126969D02*
D03*
X263779Y104528D02*
D03*
X229921Y67126D02*
D03*
X294881Y236023D02*
D03*
X294488Y230906D02*
D03*
X433071Y191535D02*
D03*
X445276Y206496D02*
D03*
X300394Y272244D02*
D03*
X275984Y260433D02*
D03*
X445276Y210039D02*
D03*
X425196Y205708D02*
D03*
X510630Y227362D02*
D03*
X457874Y219094D02*
D03*
X429921Y250590D02*
D03*
X239370Y109252D02*
D03*
X164961Y69095D02*
D03*
X242913Y102165D02*
D03*
X233071Y109251D02*
D03*
X174015Y168307D02*
D03*
X172146Y165059D02*
D03*
X197638Y119095D02*
D03*
X181594Y120669D02*
D03*
X159350Y157382D02*
D03*
X198917Y128150D02*
D03*
X211811Y108071D02*
D03*
X157382Y162500D02*
D03*
X208760Y93504D02*
D03*
X141535Y193307D02*
D03*
X181496Y155315D02*
D03*
X117815Y149705D02*
D03*
X304134Y300000D02*
D03*
X233071Y342717D02*
D03*
X162598Y309646D02*
D03*
D65*
X176772Y236024D02*
D03*
X286221Y74213D02*
D03*
M02*
