M48
;Layer_Color=9474304
;FILE_FORMAT=4:4
METRIC,LZ
;TYPE=PLATED
T1F00S00C0.3048
T2F00S00C0.7112
T3F00S00C0.7620
T4F00S00C0.8000
T5F00S00C0.9900
T6F00S00C1.0000
T7F00S00C2.5000
T8F00S00C3.0000
%
T01
X01116Y004655
X00703998Y00316499
X00697Y003225
X0068Y002655
X0067
X00617Y002595
X00608Y002775
X00592Y00277497
X00538Y002745
X0053025Y002375
X00502Y003025
X0050525Y003255
X0046125Y003065
X00461Y003945
X00482Y003975
X0043725Y0041925
X00441999Y00427499
X0039975Y0041275
X0040475Y0039975
X0029925Y0038025
X00419Y001755
X00584Y001705
X00594Y001625
X005675Y0011
X0054775Y001
X003595Y00491
X00413Y007865
X007725Y00762
X00763Y006915
X0079Y006785
X00805Y006425
X00754Y006595
X00701Y006615
X00748998Y00599498
X00748Y005865
X00821Y005275
X00906Y005665
X0091Y00585
X00943Y005365
X010185Y005885
X0101Y005975
X01035Y00615
X01078Y005955
X0107Y006425
X00982Y006525
Y00682
X00979Y007105
X009795Y008585
X0104Y0049
X01075
X01079997Y00522499
X01088997Y00528498
X0112Y005225
X01131Y005245
Y005335
X01128Y004895
X011Y004865
X01106Y004765
X01126Y005775
X0112Y00605
X01092Y006365
X0111Y006825
X010825Y007025
X0123Y006385
X01297Y005775
X01163Y005565
X015825Y0055
X009645Y00962
X00592Y008705
T02
X00727Y001885
X00449Y005995
T03
X00775Y002365
Y002619
Y002873
X00986Y002795
Y003049
Y002541
X00675Y00854854
X00699638
X00725546Y008546
X007512
X010475Y007975
Y007225
X010835
X011195
X011565
Y007975
X011195
X010835
X01725Y005683
Y005429
Y005175
Y004921
X011565Y008725
X011195
X010835
Y009475
X011195
X011565
X010475
Y008725
X00750946Y00880254
X00725546Y0088
X007004
X00675
X004137Y009725
X003883
X003164Y009695
X00291
X002287
X002033
T04
X005671Y000625
X005925
X006179
X011Y003925
Y004179
X010746
X010492
Y003925
X010746
X006179Y000879
X005925
X005671
T05
X00299Y0087
X00391Y008825
X0041675
X004425
X0027325Y0087
X002475
T06
X0011Y003635
Y004135
X00113Y005435
Y005935
X00110501Y0082
Y0087
T07
X000325Y009975
T08
X00022Y000335
X017275Y00025
X017325Y010125
M30
