M48
;Layer_Color=9474304
;FILE_FORMAT=2:5
INCH,LZ
;TYPE=PLATED
T1F00S00C0.01200
T2F00S00C0.02520
T3F00S00C0.02800
T4F00S00C0.03000
T5F00S00C0.03898
T6F00S00C0.03937
T7F00S00C0.09843
T8F00S00C0.11811
%
T01
X0340551Y0134252
X047126Y0306299
X0525196Y0300787
X0528739Y0303149
X0540945Y0300787
X0545276Y0301575
Y0305118
X0544095Y0287795
X0533071Y0286614
X0535433Y0282677
X053937Y0278346
X0423228Y0302756
X0377165Y0219685
X037441Y0222047
X0367717Y0199606
X0363779
X0342913Y0197244
X033937Y0204331
X0333071Y020433
X0329921Y0162205
X0333858Y0159055
X030876Y0188583
X0311811Y020315
X0297638Y0214173
X0298917Y0223228
X0281594Y0215748
X0281496Y0250394
X0272146Y0260138
X0274015Y0263385
X0257382Y0257579
X025935Y0252461
X0217815Y0244783
X0241535Y0288386
X0264961Y0164173
X0394488Y0325984
X0394881Y0331102
X039685Y0354724
X0400394Y0367323
X0411024Y0362205
X0404134Y0395079
X0375984Y0355512
X0456693Y031811
X0333071Y0437795
X0589764Y0449213
X0588583Y0417717
X0584252Y0346457
X061063Y0322441
X0557874Y0314173
X0543307Y0322441
X0524409Y0329528
X0529921Y0345669
X0520472Y0348425
X0516929Y0347638
X0541732Y037559
X0569685Y0485039
T02
X0325827Y0115748
X0515354Y0250787
T03
X0386221Y0169291
X0276772Y0331102
X0175591Y0437402
T04
X0335827Y0115748
X0345827
Y0125748
X0335827
X0325827
X0668898Y0284173
Y0294173
Y0304173
X0535354Y0260787
Y0250787
X0525354
Y0260787
X0515354
X0488189Y0215118
Y0205118
Y0195118
X0405118Y0198189
Y0188189
Y0208189
X0397108Y0430945
X0387008
Y0440945
X0377108
X0367108
Y0431045
X0376808
X0397008Y0441045
X0504331Y0434252
X0518504
X0532677
X054685
X0561024
X0560236Y0464961
X0546063
X053189
X0517717
X0503543
X0503937Y0401575
X051811
X0532283
X0546457
X056063
X0559449Y0363779
X0545276
X0531102
X0516929
X0502756
X0668898Y0314173
X0262874Y0477953
X0252874
X0224567Y0476772
X0214567
X0190039
X0180039
T05
X019872Y0438091
X0208858
X0218996
X0254429Y0437795
X0264567
X0274705
T06
X0143307Y0238189
Y0257874
X0144488Y0309055
Y032874
X0143504Y0417913
Y0437598
T07
X010748Y0493307
T08
X0108661Y0108268
X0692126
X069252Y0492126
M30
