G04 Layer_Color=16711935*
%FSLAX25Y25*%
%MOIN*%
G70*
G01*
G75*
%ADD51C,0.06800*%
%ADD52R,0.06800X0.06800*%
%ADD53R,0.10642X0.06800*%
%ADD54O,0.10642X0.06800*%
%ADD55O,0.10642X0.06706*%
%ADD56R,0.12217X0.08280*%
%ADD57O,0.12217X0.08280*%
%ADD58O,0.06800X0.10642*%
%ADD59R,0.06800X0.10642*%
%ADD60C,0.05800*%
%ADD61C,0.03300*%
D51*
X108268Y490551D02*
D03*
X367108Y440945D02*
D03*
Y431045D02*
D03*
X377108Y440945D02*
D03*
X376808Y431045D02*
D03*
X387008Y440945D02*
D03*
Y430945D02*
D03*
X397108D02*
D03*
X264567Y437795D02*
D03*
X274705D02*
D03*
X254429D02*
D03*
X198720Y438091D02*
D03*
X218996D02*
D03*
X208858D02*
D03*
X345827Y125748D02*
D03*
X335827D02*
D03*
X325827D02*
D03*
X345827Y115748D02*
D03*
X335827D02*
D03*
X535354Y260787D02*
D03*
X525354D02*
D03*
X515354D02*
D03*
X535354Y250787D02*
D03*
X525354D02*
D03*
X503543Y464961D02*
D03*
X517717D02*
D03*
X531890D02*
D03*
X546063D02*
D03*
X504331Y434252D02*
D03*
X518504D02*
D03*
X532677D02*
D03*
X546850D02*
D03*
X503937Y401575D02*
D03*
X518110D02*
D03*
X532283D02*
D03*
X546457D02*
D03*
X502756Y363779D02*
D03*
X516929D02*
D03*
X531102D02*
D03*
X545276D02*
D03*
X108661Y108268D02*
D03*
X692126D02*
D03*
X692520Y492126D02*
D03*
D52*
X397008Y441045D02*
D03*
X325827Y115748D02*
D03*
X515354Y250787D02*
D03*
X560236Y464961D02*
D03*
X561024Y434252D02*
D03*
X560630Y401575D02*
D03*
X559449Y363779D02*
D03*
D53*
X405118Y208189D02*
D03*
X488189Y215118D02*
D03*
D54*
X405118Y198189D02*
D03*
Y188189D02*
D03*
X668898Y304173D02*
D03*
Y294173D02*
D03*
Y314173D02*
D03*
X488189Y205118D02*
D03*
Y195118D02*
D03*
D55*
X668898Y284173D02*
D03*
D56*
X143504Y417913D02*
D03*
X143307Y238189D02*
D03*
X144488Y309055D02*
D03*
D57*
X143504Y437598D02*
D03*
X143307Y257874D02*
D03*
X144488Y328740D02*
D03*
D58*
X190039Y476772D02*
D03*
X214567D02*
D03*
X252874Y477953D02*
D03*
D59*
X180039Y476772D02*
D03*
X224567D02*
D03*
X262874Y477953D02*
D03*
D60*
X175591Y437402D02*
D03*
X386221Y169291D02*
D03*
X276772Y331102D02*
D03*
D61*
X333071Y437795D02*
D03*
X404134Y395079D02*
D03*
X217815Y244783D02*
D03*
X281496Y250394D02*
D03*
X241535Y288386D02*
D03*
X308760Y188583D02*
D03*
X257382Y257579D02*
D03*
X311811Y203150D02*
D03*
X298917Y223228D02*
D03*
X259350Y252461D02*
D03*
X281594Y215748D02*
D03*
X297638Y214173D02*
D03*
X272146Y260138D02*
D03*
X274015Y263385D02*
D03*
X333071Y204330D02*
D03*
X340551Y134252D02*
D03*
X342913Y197244D02*
D03*
X264961Y164173D02*
D03*
X339370Y204331D02*
D03*
X529921Y345669D02*
D03*
X557874Y314173D02*
D03*
X610630Y322441D02*
D03*
X525196Y300787D02*
D03*
X545276Y305118D02*
D03*
X375984Y355512D02*
D03*
X400394Y367323D02*
D03*
X545276Y301575D02*
D03*
X533071Y286614D02*
D03*
X394488Y325984D02*
D03*
X394881Y331102D02*
D03*
X329921Y162205D02*
D03*
X363779Y199606D02*
D03*
X374410Y222047D02*
D03*
X535433Y282677D02*
D03*
X333858Y159055D02*
D03*
X367717Y199606D02*
D03*
X377165Y219685D02*
D03*
X539370Y278346D02*
D03*
X540945Y300787D02*
D03*
X528739Y303149D02*
D03*
X524409Y329528D02*
D03*
X543307Y322441D02*
D03*
X544095Y287795D02*
D03*
X423228Y302756D02*
D03*
X541732Y375590D02*
D03*
X520472Y348425D02*
D03*
X516929Y347638D02*
D03*
X411024Y362205D02*
D03*
X396850Y354724D02*
D03*
X471260Y306299D02*
D03*
X456693Y318110D02*
D03*
X569685Y485039D02*
D03*
X589764Y449213D02*
D03*
X588583Y417717D02*
D03*
X584252Y346457D02*
D03*
X289764Y251575D02*
D03*
M02*
