G04 Layer_Physical_Order=1*
G04 Layer_Color=255*
%FSLAX25Y25*%
%MOIN*%
G70*
G01*
G75*
%ADD10R,0.04331X0.05512*%
%ADD11R,0.05512X0.04331*%
%ADD12O,0.05512X0.01575*%
G04:AMPARAMS|DCode=13|XSize=15.75mil|YSize=55.12mil|CornerRadius=3.94mil|HoleSize=0mil|Usage=FLASHONLY|Rotation=90.000|XOffset=0mil|YOffset=0mil|HoleType=Round|Shape=RoundedRectangle|*
%AMROUNDEDRECTD13*
21,1,0.01575,0.04724,0,0,90.0*
21,1,0.00787,0.05512,0,0,90.0*
1,1,0.00787,0.02362,0.00394*
1,1,0.00787,0.02362,-0.00394*
1,1,0.00787,-0.02362,-0.00394*
1,1,0.00787,-0.02362,0.00394*
%
%ADD13ROUNDEDRECTD13*%
%ADD14O,0.02362X0.06496*%
%ADD15O,0.06496X0.02362*%
G04:AMPARAMS|DCode=16|XSize=23.62mil|YSize=64.96mil|CornerRadius=5.91mil|HoleSize=0mil|Usage=FLASHONLY|Rotation=180.000|XOffset=0mil|YOffset=0mil|HoleType=Round|Shape=RoundedRectangle|*
%AMROUNDEDRECTD16*
21,1,0.02362,0.05315,0,0,180.0*
21,1,0.01181,0.06496,0,0,180.0*
1,1,0.01181,-0.00591,0.02658*
1,1,0.01181,0.00591,0.02658*
1,1,0.01181,0.00591,-0.02658*
1,1,0.01181,-0.00591,-0.02658*
%
%ADD16ROUNDEDRECTD16*%
%ADD17R,0.05906X0.21654*%
%ADD18R,0.00984X0.06102*%
G04:AMPARAMS|DCode=19|XSize=9.84mil|YSize=61.02mil|CornerRadius=2.46mil|HoleSize=0mil|Usage=FLASHONLY|Rotation=180.000|XOffset=0mil|YOffset=0mil|HoleType=Round|Shape=RoundedRectangle|*
%AMROUNDEDRECTD19*
21,1,0.00984,0.05610,0,0,180.0*
21,1,0.00492,0.06102,0,0,180.0*
1,1,0.00492,-0.00246,0.02805*
1,1,0.00492,0.00246,0.02805*
1,1,0.00492,0.00246,-0.02805*
1,1,0.00492,-0.00246,-0.02805*
%
%ADD19ROUNDEDRECTD19*%
%ADD20C,0.01969*%
%ADD21C,0.07874*%
%ADD22C,0.11811*%
%ADD23C,0.00984*%
%ADD24C,0.03937*%
%ADD25C,0.00600*%
%ADD26C,0.06000*%
%ADD27R,0.06000X0.06000*%
%ADD28R,0.09843X0.06000*%
%ADD29O,0.09843X0.06000*%
%ADD30O,0.09843X0.05906*%
%ADD31R,0.11417X0.07480*%
%ADD32O,0.11417X0.07480*%
%ADD33O,0.06000X0.09843*%
%ADD34R,0.06000X0.09843*%
%ADD35C,0.05000*%
%ADD36C,0.02500*%
D10*
X599606Y322441D02*
D03*
X605512D02*
D03*
X430118Y164173D02*
D03*
X436024D02*
D03*
X429331Y128347D02*
D03*
X435236D02*
D03*
X199016Y422736D02*
D03*
X204921D02*
D03*
X198425Y413386D02*
D03*
X204331D02*
D03*
X220472Y422736D02*
D03*
X214567D02*
D03*
X220669Y412992D02*
D03*
X214764D02*
D03*
X257283Y423228D02*
D03*
X263189D02*
D03*
X256890Y414173D02*
D03*
X262795D02*
D03*
X276181Y412992D02*
D03*
X270276D02*
D03*
X276181Y423228D02*
D03*
X270276D02*
D03*
X396654Y451575D02*
D03*
X390748D02*
D03*
X397047Y465748D02*
D03*
X391142D02*
D03*
X397835Y340158D02*
D03*
X403740D02*
D03*
X398228Y331496D02*
D03*
X404134D02*
D03*
X397835Y382283D02*
D03*
X403740D02*
D03*
X398228Y390551D02*
D03*
X404134D02*
D03*
X247441Y283465D02*
D03*
X241535D02*
D03*
X247835Y274016D02*
D03*
X241929D02*
D03*
X599409Y286614D02*
D03*
X605315D02*
D03*
X584252Y434646D02*
D03*
X590158D02*
D03*
X578150Y352362D02*
D03*
X584055D02*
D03*
X582480Y402362D02*
D03*
X588386D02*
D03*
X558661Y485433D02*
D03*
X564567D02*
D03*
X559055Y493307D02*
D03*
X564961D02*
D03*
X583661Y443701D02*
D03*
X589567D02*
D03*
X582677Y411417D02*
D03*
X588583D02*
D03*
X578740Y362205D02*
D03*
X584646D02*
D03*
D11*
X276772Y256299D02*
D03*
Y250394D02*
D03*
X266929Y256102D02*
D03*
Y250197D02*
D03*
X431102Y198228D02*
D03*
Y192323D02*
D03*
X440158Y198228D02*
D03*
Y192323D02*
D03*
X450787Y198228D02*
D03*
Y192323D02*
D03*
X459842Y198819D02*
D03*
Y192913D02*
D03*
X289370Y170669D02*
D03*
Y164764D02*
D03*
X298031Y170669D02*
D03*
Y164764D02*
D03*
X279134Y170472D02*
D03*
Y164567D02*
D03*
X270472Y170472D02*
D03*
Y164567D02*
D03*
X642126Y313583D02*
D03*
Y307677D02*
D03*
X634252Y313583D02*
D03*
Y307677D02*
D03*
X494488Y323622D02*
D03*
Y317717D02*
D03*
X484646Y324606D02*
D03*
Y318701D02*
D03*
X474803Y324410D02*
D03*
Y318504D02*
D03*
X463779Y324410D02*
D03*
Y318504D02*
D03*
D12*
X252559Y237106D02*
D03*
Y239665D02*
D03*
Y242224D02*
D03*
Y244783D02*
D03*
Y247342D02*
D03*
Y249902D02*
D03*
Y252461D02*
D03*
Y255020D02*
D03*
Y257579D02*
D03*
Y260138D02*
D03*
Y262697D02*
D03*
Y265256D02*
D03*
X224213Y237106D02*
D03*
Y239665D02*
D03*
Y242224D02*
D03*
Y244783D02*
D03*
Y247342D02*
D03*
Y249902D02*
D03*
Y252461D02*
D03*
Y255020D02*
D03*
Y257579D02*
D03*
Y260138D02*
D03*
Y262697D02*
D03*
D13*
Y265256D02*
D03*
D14*
X330315Y145965D02*
D03*
X333465D02*
D03*
X336614D02*
D03*
X339764D02*
D03*
X342913D02*
D03*
X346063D02*
D03*
X349213D02*
D03*
X352362D02*
D03*
X355512D02*
D03*
X358661D02*
D03*
Y191831D02*
D03*
X355512D02*
D03*
X352362D02*
D03*
X349213D02*
D03*
X346063D02*
D03*
X342913D02*
D03*
X339764D02*
D03*
X336614D02*
D03*
X333465D02*
D03*
X330315D02*
D03*
X327165D02*
D03*
X517323Y294390D02*
D03*
X520472D02*
D03*
X523622D02*
D03*
X526772D02*
D03*
X529921D02*
D03*
X533071D02*
D03*
X536221D02*
D03*
X539370D02*
D03*
X542520D02*
D03*
X545669D02*
D03*
Y340256D02*
D03*
X542520D02*
D03*
X539370D02*
D03*
X536221D02*
D03*
X533071D02*
D03*
X529921D02*
D03*
X526772D02*
D03*
X523622D02*
D03*
X520472D02*
D03*
X517323D02*
D03*
X514173D02*
D03*
D15*
X365846Y153150D02*
D03*
Y156299D02*
D03*
Y159449D02*
D03*
Y162598D02*
D03*
Y165748D02*
D03*
Y168898D02*
D03*
Y172047D02*
D03*
Y175197D02*
D03*
Y178347D02*
D03*
Y181496D02*
D03*
Y184646D02*
D03*
X319980D02*
D03*
Y181496D02*
D03*
Y178347D02*
D03*
Y175197D02*
D03*
Y172047D02*
D03*
Y168898D02*
D03*
Y165748D02*
D03*
Y162598D02*
D03*
Y159449D02*
D03*
Y156299D02*
D03*
Y153150D02*
D03*
X552854Y301575D02*
D03*
Y304724D02*
D03*
Y307874D02*
D03*
Y311024D02*
D03*
Y314173D02*
D03*
Y317323D02*
D03*
Y320472D02*
D03*
Y323622D02*
D03*
Y326772D02*
D03*
Y329921D02*
D03*
Y333071D02*
D03*
X506988D02*
D03*
Y329921D02*
D03*
Y326772D02*
D03*
Y323622D02*
D03*
Y320472D02*
D03*
Y317323D02*
D03*
Y314173D02*
D03*
Y311024D02*
D03*
Y307874D02*
D03*
Y304724D02*
D03*
Y301575D02*
D03*
D16*
X327165Y145965D02*
D03*
X514173Y294390D02*
D03*
D17*
X412598Y163779D02*
D03*
Y128347D02*
D03*
X582283Y322047D02*
D03*
Y286614D02*
D03*
D18*
X375787Y350000D02*
D03*
X378346D02*
D03*
X380906D02*
D03*
X383465D02*
D03*
X386024D02*
D03*
X388583D02*
D03*
X391142D02*
D03*
X393701D02*
D03*
X396260D02*
D03*
X398819D02*
D03*
X375787Y372047D02*
D03*
X378346D02*
D03*
X380906D02*
D03*
X383465D02*
D03*
X386024D02*
D03*
X388583D02*
D03*
X391142D02*
D03*
X393701D02*
D03*
X396260D02*
D03*
D19*
X398819D02*
D03*
D20*
X247539Y239075D02*
Y274311D01*
X198228Y437598D02*
X199016Y436811D01*
X247441Y283465D02*
Y295079D01*
Y274409D02*
Y283465D01*
Y274409D02*
X247539Y274311D01*
X199016Y422736D02*
Y436811D01*
X198425Y413386D02*
Y422146D01*
X199016Y422736D01*
X204921Y413976D02*
Y422736D01*
X204331Y413386D02*
X204921Y413976D01*
X204331Y413386D02*
X214370D01*
X214764Y412992D01*
Y422539D01*
X214567Y422736D02*
X214764Y422539D01*
X214567Y422736D02*
Y432382D01*
X208858Y438091D02*
X214567Y432382D01*
X264567Y424606D02*
Y437795D01*
X263189Y423228D02*
X264567Y424606D01*
X263189Y414567D02*
Y423228D01*
X262795Y414173D02*
X263189Y414567D01*
X262795Y414173D02*
X269094D01*
X270276Y412992D01*
Y423228D01*
X391142Y451968D02*
Y465748D01*
X390748Y451575D02*
X391142Y451968D01*
X252559Y265256D02*
Y269291D01*
X247835Y274016D02*
X252559Y269291D01*
Y237106D02*
Y239665D01*
X247539Y274311D02*
X247835Y274016D01*
X247539Y239075D02*
X249508Y237106D01*
X252559D01*
X367108Y440945D02*
X368504D01*
X389961Y450787D02*
X390748Y451575D01*
X384252Y450787D02*
X389961D01*
X368504Y440945D02*
X376378Y448819D01*
X382283D01*
X384252Y450787D01*
D21*
X164961Y437598D02*
X198228D01*
X143504D02*
X164961D01*
X143307Y257874D02*
X152756D01*
X163287Y247342D01*
X143307Y238189D02*
X147638Y233858D01*
X217520D01*
X163287Y247342D02*
X210531D01*
D22*
X164961Y377559D02*
Y437598D01*
Y377559D02*
X247441Y295079D01*
X144488Y328740D02*
X202362Y270866D01*
X205906D01*
X144488Y309055D02*
X195758Y257785D01*
X207480D01*
D23*
X220669Y412992D02*
Y422539D01*
X220472Y422736D02*
X220669Y422539D01*
X220472Y422736D02*
Y436614D01*
X218996Y438091D02*
X220472Y436614D01*
X256890Y414173D02*
Y422835D01*
X257283Y423228D01*
Y434941D01*
X254134Y438091D02*
X254429Y437795D01*
X257283Y434941D01*
X274705Y424705D02*
Y437795D01*
Y424705D02*
X276181Y423228D01*
Y412992D02*
Y423228D01*
X397108Y430945D02*
X401811D01*
X408268Y437402D01*
Y448819D01*
X405512Y451575D02*
X408268Y448819D01*
X396654Y451575D02*
X405512D01*
X396654D02*
Y465354D01*
X397047Y465748D01*
X274705Y437795D02*
X333071D01*
X396260Y372047D02*
Y380709D01*
X397835Y382283D01*
X397108Y430945D02*
X398228Y429824D01*
X378346Y368504D02*
X379528Y367323D01*
X378346Y368504D02*
Y372047D01*
X375787Y350000D02*
Y354134D01*
X398819Y372047D02*
Y376802D01*
X403740Y381723D01*
Y382283D01*
X404134Y390551D02*
Y395079D01*
X397835Y340158D02*
X398228Y339764D01*
X403740Y340158D02*
X404134Y339764D01*
X210531Y247342D02*
X224213D01*
X213090Y249902D02*
X224213D01*
X221161Y239665D02*
X224213D01*
X219685Y238189D02*
X221161Y239665D01*
X220768Y237106D02*
X224213D01*
X219685Y236024D02*
Y238189D01*
X217520Y233858D02*
X219685Y236024D01*
X220768Y237106D01*
X217323Y254331D02*
X218110D01*
X219980Y252461D01*
X224213D01*
X217323Y254331D02*
X218012Y255020D01*
X224213D01*
X217028Y265256D02*
X224213D01*
X210531Y247342D02*
X213090Y249902D01*
X217815Y244783D02*
X224213D01*
X217815D02*
X220374Y242224D01*
X224213D01*
X252559Y249902D02*
X266634D01*
X266929Y250197D01*
X276575D01*
X276772Y250394D01*
X281496D01*
X217028Y265256D02*
X219587Y262697D01*
X224213D01*
Y242224D02*
X234350D01*
X236614Y244488D01*
Y256693D01*
X224213Y260138D02*
X233169D01*
X224213Y257579D02*
X235728D01*
X236614Y256693D01*
X233169Y260138D02*
X235728Y257579D01*
X241929Y274016D02*
Y283071D01*
X241535Y283465D02*
X241929Y283071D01*
X241535Y283465D02*
Y288386D01*
X367108Y394703D02*
Y431045D01*
Y394703D02*
X380906Y380906D01*
Y372047D02*
Y380906D01*
X371200Y435037D02*
X377108Y440945D01*
X371200Y426953D02*
Y435037D01*
X368692Y424445D02*
X371200Y426953D01*
X368692Y395359D02*
Y424445D01*
Y395359D02*
X383465Y380587D01*
Y372047D02*
Y380587D01*
X386024Y372047D02*
Y380268D01*
X376808Y389484D02*
X386024Y380268D01*
X376808Y389484D02*
Y431045D01*
X381496Y435433D02*
X387008Y440945D01*
X381496Y387036D02*
Y435433D01*
Y387036D02*
X387608Y380925D01*
Y379321D02*
Y380925D01*
Y379321D02*
X388583Y378346D01*
Y372047D02*
Y378346D01*
X391142Y372047D02*
Y379631D01*
X383080Y387692D02*
X391142Y379631D01*
X383080Y387692D02*
Y427017D01*
X387008Y430945D01*
X393016Y437053D02*
X397008Y441045D01*
X393016Y428565D02*
Y437053D01*
Y428565D02*
X393701Y427880D01*
Y372047D02*
Y427880D01*
X236221Y371654D02*
X276772Y331102D01*
X236221Y371654D02*
Y438091D01*
X276575Y256102D02*
X276772Y256299D01*
X266929Y256102D02*
X276575D01*
X276772Y256299D02*
Y331102D01*
X370187Y179537D02*
X398839Y208189D01*
X405118D01*
Y198189D02*
X431063D01*
X431102Y198228D01*
X440158D01*
X450787D01*
X451378Y198819D02*
X459842D01*
X450787Y198228D02*
X451378Y198819D01*
X422153Y215118D02*
X488189D01*
X411131Y204097D02*
X422153Y215118D01*
X402128Y204097D02*
X411131D01*
X365846Y172047D02*
X370079D01*
X405118Y188189D02*
X414961D01*
X419095Y192323D01*
X431102D01*
X440158D02*
X450787D01*
X455709Y192913D02*
X459842D01*
X455118Y192323D02*
X455709Y192913D01*
X450787Y192323D02*
X455118D01*
X365846Y162598D02*
X411417D01*
X412598Y163779D01*
X365846Y159449D02*
X381496D01*
X412598Y128347D01*
X283445Y213406D02*
X293307Y203544D01*
X294891Y199139D02*
Y239361D01*
X308760Y188583D02*
X315846Y181496D01*
X319980D01*
X252559Y257579D02*
X257382D01*
X252559Y255020D02*
X265846D01*
X266929Y256102D01*
X252559Y252461D02*
X259350D01*
X280624Y213406D02*
X283445D01*
X370079Y172047D02*
X402128Y204097D01*
X431102Y192323D02*
X435630D01*
X440158D01*
X293307Y185827D02*
Y203544D01*
Y185827D02*
X303937Y175197D01*
X319980D01*
X294891Y199139D02*
X315684Y178347D01*
X319980D01*
X298917Y223228D02*
X324114Y198031D01*
X327559D01*
X330315Y195276D01*
Y191831D02*
Y195276D01*
X254626Y242224D02*
X254786Y242065D01*
X254786D01*
X254568Y241847D02*
X254786Y242065D01*
X257991Y239351D02*
X281594Y215748D01*
X256407Y237623D02*
X280624Y213406D01*
X398228Y331496D02*
Y339764D01*
X404134Y331496D02*
Y339764D01*
X218996Y438091D02*
X236221D01*
X254134D01*
X459842Y192913D02*
X460630Y193701D01*
X486772D01*
X488189Y195118D01*
X252559Y242224D02*
X254626D01*
X311811Y203150D02*
X316756D01*
X323458Y196447D01*
X325994D01*
X327165Y195276D01*
Y191831D02*
Y195276D01*
X365846Y175197D02*
X368898D01*
X370187Y176486D01*
Y179537D01*
X396623Y367323D02*
X398819Y369518D01*
X379528Y367323D02*
X396623D01*
X398819Y369518D02*
Y372047D01*
X403740Y382283D02*
Y390158D01*
X404134Y390551D01*
X398228Y392126D02*
Y429824D01*
X397835Y391732D02*
X398228Y392126D01*
X397835Y382283D02*
Y391732D01*
X254568Y241847D02*
X255323D01*
X256407Y240762D01*
Y237623D02*
Y240762D01*
X252559Y244783D02*
X256004D01*
X257991Y242796D01*
Y239351D02*
Y242796D01*
X252559Y247342D02*
X260236D01*
X261910Y245669D01*
X288583D01*
X294891Y239361D01*
D24*
X207480Y257785D02*
X213868D01*
X217323Y254331D01*
X207087Y272047D02*
X207480D01*
X205906Y270866D02*
X207087Y272047D01*
X207480D02*
X214272Y265256D01*
X217028D01*
D25*
X297638Y214173D02*
X314173Y197638D01*
X252559Y260138D02*
X272146D01*
X252559Y262697D02*
X273327D01*
X274015Y263385D01*
X274015D01*
X333465Y191831D02*
Y203936D01*
X333071Y204330D02*
X333465Y203936D01*
X330315Y120236D02*
Y145965D01*
X325827Y115748D02*
X330315Y120236D01*
X331927Y124133D02*
X334211Y121848D01*
X331927Y124133D02*
Y128506D01*
X334211Y121848D02*
X339727D01*
X345827Y115748D01*
X340551Y134252D02*
Y137402D01*
X342913Y139764D01*
Y145965D01*
X412598Y163779D02*
X429724D01*
X430118Y164173D01*
X436024D02*
Y191929D01*
X435630Y192323D02*
X436024Y191929D01*
X412598Y128347D02*
X429331D01*
X429331Y128347D01*
X298031Y170669D02*
X309646D01*
X311417Y172441D01*
X319587D01*
X319980Y172047D01*
X302981Y168898D02*
X319980D01*
X298847Y164764D02*
X302981Y168898D01*
X298031Y164764D02*
X298847D01*
X289370Y170669D02*
X298031D01*
X289370Y164764D02*
X298031D01*
X365059Y166535D02*
X365846Y165748D01*
X356421Y168898D02*
X365846D01*
X355222Y170098D02*
X356421Y168898D01*
X327165Y172047D02*
X329115Y170098D01*
X319980Y172047D02*
X327165D01*
X365846Y165748D02*
X382677D01*
X342913Y191831D02*
Y197244D01*
X289173Y164567D02*
X289370Y164764D01*
X342913Y145965D02*
Y170098D01*
X329115D02*
X342913D01*
X355222D01*
X279134Y170472D02*
X289173D01*
X289370Y170669D01*
X279134Y164567D02*
X289173D01*
X270472Y170472D02*
X279134D01*
X270472Y164567D02*
X279134D01*
X265354D02*
X270472D01*
X264961Y164173D02*
X265354Y164567D01*
X375827Y168898D02*
X405118Y198189D01*
X365846Y168898D02*
X375827D01*
X668307Y313583D02*
X668898Y314173D01*
X634252Y313583D02*
X642126D01*
X668307D01*
X634252Y307677D02*
X642126D01*
X686929Y284173D02*
X687601Y284845D01*
X668898Y284173D02*
X686929D01*
X687601Y284845D02*
Y304132D01*
X683659Y308073D02*
X687601Y304132D01*
X642126Y307677D02*
Y308073D01*
X435236Y163386D02*
X436024Y164173D01*
X435236Y128347D02*
Y163386D01*
X654567Y304173D02*
X668898D01*
X481417Y106693D02*
X668898Y294173D01*
X364567Y106693D02*
X481417D01*
X458287Y107893D02*
X654567Y304173D01*
X373702Y107893D02*
X458287D01*
X365846Y115748D02*
Y153150D01*
Y115748D02*
X373702Y107893D01*
X514173Y261968D02*
Y294390D01*
Y261968D02*
X515354Y260787D01*
Y250787D02*
Y255272D01*
X519254Y259172D01*
Y262403D01*
X518110Y263547D02*
X519254Y262403D01*
X518110Y263547D02*
Y280315D01*
X517323Y281102D02*
X518110Y280315D01*
X517323Y281102D02*
Y294390D01*
X517323Y294390D01*
X530870Y250787D02*
X535354D01*
X523622Y262520D02*
Y294390D01*
Y262520D02*
X525354Y260787D01*
X529921Y255354D02*
Y294390D01*
X525354Y250787D02*
X529921Y255354D01*
X579528Y322047D02*
X582283D01*
X568898Y311417D02*
X579528Y322047D01*
X553248Y311417D02*
X568898D01*
X552854Y311024D02*
X553248Y311417D01*
X561024Y307874D02*
X582283Y286614D01*
X552854Y307874D02*
X561024D01*
X546063Y435039D02*
Y464961D01*
Y435039D02*
X546850Y434252D01*
Y401968D02*
Y434252D01*
X546457Y401575D02*
X546850Y401968D01*
X546457Y364961D02*
Y401575D01*
X545276Y363779D02*
X546457Y364961D01*
X539764Y317323D02*
X552854D01*
X536221Y320866D02*
X539764Y317323D01*
X507382Y320866D02*
X536221D01*
X506988Y320472D02*
X507382Y320866D01*
X529921Y314567D02*
X536221Y320866D01*
X545276Y345660D02*
Y363779D01*
Y345660D02*
X547750Y343185D01*
Y332396D02*
Y343185D01*
X529921Y340256D02*
Y345669D01*
X552854Y314173D02*
X557874D01*
X557874Y314173D01*
X634252Y313583D02*
Y341339D01*
X545276Y363779D02*
X552176D01*
X582283Y286614D02*
X599409D01*
X599409Y286614D01*
X605315D02*
Y322244D01*
X605512Y322441D01*
X582677D02*
X599606D01*
X582283Y322047D02*
X582677Y322441D01*
X605512D02*
X610630D01*
X525703Y294390D02*
X526772D01*
X380906Y343504D02*
X381496Y342913D01*
X380906Y343504D02*
Y350000D01*
X524484Y298538D02*
X524778Y298244D01*
X525703D01*
X524147Y299738D02*
X525196Y300787D01*
X545669Y304724D02*
X552854D01*
X545276Y305118D02*
X545669Y304724D01*
X375787Y354134D02*
Y355315D01*
X375984Y355512D01*
X545276Y301575D02*
X552854D01*
X529921Y294390D02*
Y300503D01*
X530890Y301472D01*
X375094Y357662D02*
X390855D01*
X367432Y350000D02*
X375094Y357662D01*
X295669Y350000D02*
X367432D01*
X276772Y331102D02*
X295669Y350000D01*
X533071Y286614D02*
Y294390D01*
X394881Y331102D02*
X397834D01*
X392731Y329710D02*
X394488Y327953D01*
X392731Y329710D02*
Y333961D01*
X388400Y349818D02*
X388583Y350000D01*
X397834Y331102D02*
X398228Y331496D01*
X394488Y325984D02*
Y327953D01*
X391142Y326181D02*
Y350000D01*
X394488Y325984D02*
X395276D01*
X521654Y244882D02*
X524803D01*
X526809Y246887D01*
X526970D01*
X520472Y246063D02*
Y294390D01*
Y246063D02*
X521654Y244882D01*
X526970Y246887D02*
X530870Y250787D01*
X319980Y162598D02*
X329528D01*
X329921Y162205D01*
X363779Y199606D02*
Y211417D01*
X374410Y222047D01*
X536221Y283465D02*
Y294390D01*
X535433Y282677D02*
X536221Y283465D01*
X319980Y159449D02*
X333465D01*
X333858Y159055D01*
X367717Y199606D02*
Y210237D01*
X377165Y219685D01*
X381496Y327695D02*
X412097Y297094D01*
X383465Y327424D02*
X412595Y298294D01*
X388400Y325882D02*
X411920Y302362D01*
X388400Y325882D02*
Y349818D01*
X386024Y326562D02*
Y350000D01*
X383465Y327424D02*
Y350000D01*
X381496Y327695D02*
Y342913D01*
X412097Y297094D02*
X510911D01*
X412595Y298294D02*
X510414D01*
X502615Y300938D02*
X504059Y299494D01*
X509917D01*
X510911Y297094D02*
X512355Y298538D01*
X524484D01*
X510414Y298294D02*
X511858Y299738D01*
X524147D01*
X509917Y299494D02*
X513360Y302937D01*
X529921Y305007D02*
Y314567D01*
Y305007D02*
X530890Y304039D01*
X528527Y302937D02*
X528739Y303149D01*
X513360Y302937D02*
X528527D01*
X530890Y301472D02*
Y304039D01*
X542520Y294390D02*
Y299213D01*
X540945Y300787D02*
X542520Y299213D01*
X375787Y365158D02*
Y372047D01*
Y365158D02*
X382083Y358862D01*
X392731Y333961D02*
X394488Y335718D01*
Y342913D01*
X393701Y343701D02*
X394488Y342913D01*
X393701Y343701D02*
Y350000D01*
X390855Y357662D02*
X396260Y352257D01*
X382083Y358862D02*
X391352D01*
X393521Y356693D01*
X515542Y329528D02*
X524409D01*
X536221Y320866D02*
X547750Y332396D01*
X545276Y320472D02*
X552854D01*
X543307Y322441D02*
X545276Y320472D01*
X539370Y278346D02*
Y294390D01*
X545669Y289370D02*
Y294390D01*
X544095Y287795D02*
X545669Y289370D01*
X424119Y300606D02*
X424451Y300938D01*
X502615D01*
X411979Y300606D02*
X424119D01*
X386024Y326562D02*
X411979Y300606D01*
X411920Y302362D02*
X422835D01*
X423228Y302756D01*
X533071Y340256D02*
Y347638D01*
X536221Y340256D02*
Y358661D01*
X531102Y363779D02*
X536221Y358661D01*
X532283Y401575D02*
X539370Y394488D01*
Y340256D02*
Y394488D01*
X541376Y362164D02*
Y375234D01*
X541732Y375590D01*
X542520Y340256D02*
Y361020D01*
X541376Y362164D02*
X542520Y361020D01*
X523622Y340256D02*
Y351571D01*
X525591Y471260D02*
X531890Y464961D01*
X526772Y340256D02*
Y350119D01*
X520472Y340256D02*
Y348425D01*
X516929Y363779D02*
X533071Y347638D01*
X517011Y359879D02*
X526772Y350119D01*
X515314Y359879D02*
X517011D01*
X513029Y362164D02*
X515314Y359879D01*
X513029Y362164D02*
Y365395D01*
X513393Y365759D01*
Y399079D01*
X513010Y399462D02*
X513393Y399079D01*
X511810Y361686D02*
X514817Y358680D01*
X516514D01*
X523622Y351571D01*
X517323Y340256D02*
Y347244D01*
X516929Y347638D02*
X517323Y347244D01*
X513010Y399462D02*
Y460254D01*
X517717Y464961D01*
X515748Y471260D02*
X525591D01*
X511810Y361686D02*
Y467322D01*
X515748Y471260D01*
X533858Y477165D02*
X546063Y464961D01*
X518110Y477165D02*
X533858D01*
X507443Y466498D02*
X518110Y477165D01*
X507443Y461061D02*
Y466498D01*
X411024Y364641D02*
X507443Y461061D01*
X411024Y362205D02*
Y364641D01*
X393521Y356693D02*
X395778D01*
X395960Y356874D01*
X488195D01*
X515542Y329528D01*
X396260Y354134D02*
X396850Y354724D01*
X396260Y350000D02*
Y352257D01*
Y354134D01*
X607911Y367680D02*
X634252Y341339D01*
X552176Y363779D02*
X556076Y367680D01*
X607911D01*
X411024Y306299D02*
X471260D01*
X391142Y326181D02*
X411024Y306299D01*
X494488Y317717D02*
X494882Y317323D01*
X506988D01*
Y320472D02*
Y320782D01*
X497244Y323622D02*
X500084Y320782D01*
X494488Y323622D02*
X497244D01*
X463779Y324410D02*
X474803D01*
X484449D01*
X484646Y324606D01*
X485630Y323622D01*
X494488D01*
X463779Y318504D02*
X474803D01*
X484449D01*
X484646Y318701D01*
X493504D01*
X494488Y317717D01*
X457087Y318504D02*
X463779D01*
X456693Y318110D02*
X457087Y318504D01*
X546063Y464961D02*
Y472835D01*
X558661Y485433D01*
X546850Y434252D02*
X553751D01*
X557651Y438152D01*
X564396D01*
X568296Y434252D01*
X583858D01*
X584252Y434646D01*
X546457Y401575D02*
X553357D01*
X557257Y405475D01*
X564003D01*
X567903Y401575D01*
X581693D01*
X582480Y402362D01*
X545276Y363779D02*
X555512Y353543D01*
X576968D01*
X578150Y352362D01*
X558661Y485433D02*
Y492913D01*
X559055Y493307D01*
X564961Y485827D02*
Y493307D01*
X564567Y485433D02*
X564961Y485827D01*
X564567Y485433D02*
X569291D01*
X569685Y485039D01*
X583661Y435236D02*
Y443701D01*
Y435236D02*
X584252Y434646D01*
X589567Y435236D02*
Y443701D01*
Y435236D02*
X590158Y434646D01*
X589567Y443701D02*
Y449016D01*
X589764Y449213D01*
X582480Y402362D02*
Y411221D01*
X582677Y411417D01*
X588583D02*
Y417717D01*
X578150Y352362D02*
Y361614D01*
X578740Y362205D01*
X584646Y352953D02*
Y362205D01*
X584055Y352362D02*
X584646Y352953D01*
X584055Y346654D02*
Y352362D01*
Y346654D02*
X584252Y346457D01*
X588386Y402362D02*
Y411221D01*
X588583Y411417D01*
X339370Y204331D02*
Y205009D01*
X288080Y256299D02*
X339370Y205009D01*
X276772Y256299D02*
X288080D01*
X281496Y250394D02*
X288583D01*
X289764Y251575D01*
X314173Y185827D02*
Y197638D01*
Y185827D02*
X315354Y184646D01*
X319980D01*
X325827Y125748D02*
X327165Y127087D01*
Y145965D01*
X331927Y128506D02*
X333465Y130044D01*
Y145965D01*
X335827Y125748D02*
X336614Y126535D01*
Y145965D01*
X358661Y112598D02*
X364567Y106693D01*
X358661Y112598D02*
Y145965D01*
X398819Y367323D02*
X400394D01*
X382677Y165748D02*
X405118Y188189D01*
X642126Y308073D02*
X683659D01*
X500084Y320782D02*
X506988D01*
X525703Y294390D02*
Y298244D01*
D26*
X108268Y490551D02*
D03*
X367108Y440945D02*
D03*
Y431045D02*
D03*
X377108Y440945D02*
D03*
X376808Y431045D02*
D03*
X387008Y440945D02*
D03*
Y430945D02*
D03*
X397108D02*
D03*
X264567Y437795D02*
D03*
X274705D02*
D03*
X254429D02*
D03*
X198720Y438091D02*
D03*
X218996D02*
D03*
X208858D02*
D03*
X345827Y125748D02*
D03*
X335827D02*
D03*
X325827D02*
D03*
X345827Y115748D02*
D03*
X335827D02*
D03*
X535354Y260787D02*
D03*
X525354D02*
D03*
X515354D02*
D03*
X535354Y250787D02*
D03*
X525354D02*
D03*
X503543Y464961D02*
D03*
X517717D02*
D03*
X531890D02*
D03*
X546063D02*
D03*
X504331Y434252D02*
D03*
X518504D02*
D03*
X532677D02*
D03*
X546850D02*
D03*
X503937Y401575D02*
D03*
X518110D02*
D03*
X532283D02*
D03*
X546457D02*
D03*
X502756Y363779D02*
D03*
X516929D02*
D03*
X531102D02*
D03*
X545276D02*
D03*
X108661Y108268D02*
D03*
X692126D02*
D03*
X692520Y492126D02*
D03*
D27*
X397008Y441045D02*
D03*
X325827Y115748D02*
D03*
X515354Y250787D02*
D03*
X560236Y464961D02*
D03*
X561024Y434252D02*
D03*
X560630Y401575D02*
D03*
X559449Y363779D02*
D03*
D28*
X405118Y208189D02*
D03*
X488189Y215118D02*
D03*
D29*
X405118Y198189D02*
D03*
Y188189D02*
D03*
X668898Y304173D02*
D03*
Y294173D02*
D03*
Y314173D02*
D03*
X488189Y205118D02*
D03*
Y195118D02*
D03*
D30*
X668898Y284173D02*
D03*
D31*
X143504Y417913D02*
D03*
X143307Y238189D02*
D03*
X144488Y309055D02*
D03*
D32*
X143504Y437598D02*
D03*
X143307Y257874D02*
D03*
X144488Y328740D02*
D03*
D33*
X190039Y476772D02*
D03*
X214567D02*
D03*
X252874Y477953D02*
D03*
D34*
X180039Y476772D02*
D03*
X224567D02*
D03*
X262874Y477953D02*
D03*
D35*
X175591Y437402D02*
D03*
X386221Y169291D02*
D03*
X276772Y331102D02*
D03*
D36*
X333071Y437795D02*
D03*
X404134Y395079D02*
D03*
X217815Y244783D02*
D03*
X281496Y250394D02*
D03*
X241535Y288386D02*
D03*
X308760Y188583D02*
D03*
X257382Y257579D02*
D03*
X311811Y203150D02*
D03*
X298917Y223228D02*
D03*
X259350Y252461D02*
D03*
X281594Y215748D02*
D03*
X297638Y214173D02*
D03*
X272146Y260138D02*
D03*
X274015Y263385D02*
D03*
X333071Y204330D02*
D03*
X340551Y134252D02*
D03*
X342913Y197244D02*
D03*
X264961Y164173D02*
D03*
X339370Y204331D02*
D03*
X529921Y345669D02*
D03*
X557874Y314173D02*
D03*
X610630Y322441D02*
D03*
X525196Y300787D02*
D03*
X545276Y305118D02*
D03*
X375984Y355512D02*
D03*
X400394Y367323D02*
D03*
X545276Y301575D02*
D03*
X533071Y286614D02*
D03*
X394488Y325984D02*
D03*
X394881Y331102D02*
D03*
X329921Y162205D02*
D03*
X363779Y199606D02*
D03*
X374410Y222047D02*
D03*
X535433Y282677D02*
D03*
X333858Y159055D02*
D03*
X367717Y199606D02*
D03*
X377165Y219685D02*
D03*
X539370Y278346D02*
D03*
X540945Y300787D02*
D03*
X528739Y303149D02*
D03*
X524409Y329528D02*
D03*
X543307Y322441D02*
D03*
X544095Y287795D02*
D03*
X423228Y302756D02*
D03*
X541732Y375590D02*
D03*
X520472Y348425D02*
D03*
X516929Y347638D02*
D03*
X411024Y362205D02*
D03*
X396850Y354724D02*
D03*
X471260Y306299D02*
D03*
X456693Y318110D02*
D03*
X569685Y485039D02*
D03*
X589764Y449213D02*
D03*
X588583Y417717D02*
D03*
X584252Y346457D02*
D03*
X289764Y251575D02*
D03*
M02*
