G04 Layer_Color=65535*
%FSLAX44Y44*%
%MOMM*%
G71*
G01*
G75*
%ADD24C,0.2500*%
%ADD25C,1.0000*%
%ADD39C,0.6000*%
%ADD40C,0.2540*%
%ADD41C,0.2000*%
%ADD42C,0.0127*%
G36*
X637238Y829962D02*
X636392D01*
Y836360D01*
X637238D01*
Y829962D01*
D02*
G37*
G36*
X647824D02*
X647038D01*
Y834964D01*
X647034Y834959D01*
X647024Y834950D01*
X647011Y834936D01*
X646988Y834918D01*
X646960Y834894D01*
X646923Y834862D01*
X646881Y834830D01*
X646840Y834793D01*
X646784Y834756D01*
X646729Y834710D01*
X646668Y834668D01*
X646604Y834617D01*
X646530Y834571D01*
X646456Y834520D01*
X646289Y834418D01*
X646285Y834414D01*
X646271Y834405D01*
X646243Y834391D01*
X646211Y834377D01*
X646174Y834354D01*
X646128Y834326D01*
X646072Y834298D01*
X646017Y834266D01*
X645887Y834201D01*
X645749Y834136D01*
X645605Y834072D01*
X645467Y834016D01*
Y834774D01*
X645476Y834779D01*
X645494Y834788D01*
X645531Y834807D01*
X645577Y834830D01*
X645633Y834857D01*
X645702Y834894D01*
X645776Y834936D01*
X645855Y834982D01*
X645943Y835038D01*
X646035Y835093D01*
X646229Y835223D01*
X646428Y835366D01*
X646618Y835523D01*
X646622Y835528D01*
X646641Y835542D01*
X646664Y835565D01*
X646696Y835597D01*
X646738Y835639D01*
X646784Y835685D01*
X646835Y835741D01*
X646890Y835796D01*
X646946Y835861D01*
X647006Y835930D01*
X647122Y836073D01*
X647228Y836226D01*
X647274Y836304D01*
X647316Y836383D01*
X647824D01*
Y829962D01*
D02*
G37*
G36*
X641597Y836466D02*
X641667Y836462D01*
X641750Y836457D01*
X641842Y836443D01*
X641949Y836429D01*
X642069Y836411D01*
X642194Y836383D01*
X642323Y836351D01*
X642457Y836314D01*
X642591Y836263D01*
X642725Y836207D01*
X642864Y836143D01*
X642993Y836069D01*
X643118Y835981D01*
X643127Y835976D01*
X643146Y835958D01*
X643183Y835930D01*
X643224Y835888D01*
X643280Y835842D01*
X643340Y835778D01*
X643405Y835708D01*
X643479Y835625D01*
X643553Y835533D01*
X643631Y835431D01*
X643705Y835315D01*
X643779Y835195D01*
X643853Y835061D01*
X643918Y834918D01*
X643983Y834765D01*
X644034Y834603D01*
X643201Y834409D01*
X643197Y834418D01*
X643192Y834442D01*
X643178Y834474D01*
X643160Y834525D01*
X643137Y834580D01*
X643109Y834645D01*
X643072Y834719D01*
X643035Y834797D01*
X642993Y834881D01*
X642943Y834964D01*
X642892Y835047D01*
X642832Y835135D01*
X642767Y835213D01*
X642702Y835292D01*
X642628Y835361D01*
X642550Y835426D01*
X642545Y835431D01*
X642531Y835440D01*
X642508Y835454D01*
X642476Y835477D01*
X642434Y835500D01*
X642383Y835528D01*
X642323Y835556D01*
X642258Y835588D01*
X642184Y835616D01*
X642106Y835643D01*
X642018Y835671D01*
X641926Y835694D01*
X641824Y835717D01*
X641718Y835731D01*
X641607Y835741D01*
X641486Y835745D01*
X641417D01*
X641366Y835741D01*
X641301Y835736D01*
X641227Y835727D01*
X641144Y835717D01*
X641056Y835699D01*
X640959Y835680D01*
X640862Y835657D01*
X640760Y835630D01*
X640654Y835597D01*
X640553Y835556D01*
X640451Y835505D01*
X640349Y835454D01*
X640252Y835389D01*
X640247Y835385D01*
X640229Y835375D01*
X640206Y835352D01*
X640173Y835324D01*
X640132Y835287D01*
X640086Y835246D01*
X640035Y835195D01*
X639979Y835139D01*
X639924Y835075D01*
X639864Y835005D01*
X639808Y834927D01*
X639753Y834839D01*
X639697Y834751D01*
X639646Y834654D01*
X639600Y834552D01*
X639559Y834442D01*
Y834437D01*
X639549Y834414D01*
X639540Y834381D01*
X639526Y834340D01*
X639512Y834284D01*
X639494Y834220D01*
X639480Y834146D01*
X639462Y834062D01*
X639443Y833975D01*
X639425Y833877D01*
X639406Y833776D01*
X639392Y833670D01*
X639369Y833448D01*
X639365Y833332D01*
X639360Y833212D01*
Y833203D01*
Y833175D01*
Y833133D01*
X639365Y833073D01*
X639369Y833004D01*
X639374Y832921D01*
X639378Y832828D01*
X639388Y832731D01*
X639401Y832620D01*
X639415Y832505D01*
X639462Y832269D01*
X639485Y832144D01*
X639517Y832024D01*
X639554Y831904D01*
X639596Y831788D01*
X639600Y831783D01*
X639605Y831760D01*
X639619Y831732D01*
X639642Y831691D01*
X639665Y831640D01*
X639697Y831580D01*
X639734Y831515D01*
X639776Y831446D01*
X639827Y831377D01*
X639882Y831303D01*
X639942Y831224D01*
X640007Y831150D01*
X640081Y831076D01*
X640160Y831007D01*
X640243Y830942D01*
X640335Y830882D01*
X640340Y830877D01*
X640358Y830868D01*
X640386Y830854D01*
X640423Y830836D01*
X640469Y830813D01*
X640525Y830785D01*
X640590Y830762D01*
X640659Y830734D01*
X640737Y830702D01*
X640821Y830678D01*
X640913Y830651D01*
X641006Y830628D01*
X641107Y830609D01*
X641209Y830595D01*
X641315Y830586D01*
X641422Y830581D01*
X641454D01*
X641491Y830586D01*
X641542D01*
X641602Y830595D01*
X641671Y830605D01*
X641754Y830614D01*
X641838Y830632D01*
X641930Y830655D01*
X642027Y830683D01*
X642129Y830715D01*
X642231Y830752D01*
X642332Y830799D01*
X642434Y830854D01*
X642531Y830919D01*
X642628Y830988D01*
X642633Y830993D01*
X642651Y831007D01*
X642674Y831030D01*
X642707Y831067D01*
X642748Y831108D01*
X642795Y831159D01*
X642845Y831224D01*
X642896Y831293D01*
X642952Y831377D01*
X643007Y831464D01*
X643067Y831566D01*
X643118Y831677D01*
X643174Y831793D01*
X643220Y831922D01*
X643261Y832056D01*
X643298Y832204D01*
X644144Y831991D01*
Y831987D01*
X644140Y831977D01*
X644135Y831964D01*
X644131Y831945D01*
X644126Y831922D01*
X644117Y831890D01*
X644094Y831820D01*
X644061Y831732D01*
X644024Y831635D01*
X643978Y831525D01*
X643923Y831404D01*
X643862Y831275D01*
X643793Y831145D01*
X643715Y831016D01*
X643627Y830882D01*
X643530Y830752D01*
X643423Y830628D01*
X643308Y830512D01*
X643183Y830401D01*
X643174Y830396D01*
X643150Y830378D01*
X643113Y830350D01*
X643058Y830318D01*
X642993Y830276D01*
X642910Y830230D01*
X642818Y830179D01*
X642711Y830128D01*
X642596Y830078D01*
X642466Y830027D01*
X642328Y829980D01*
X642180Y829939D01*
X642018Y829906D01*
X641852Y829879D01*
X641676Y829860D01*
X641491Y829856D01*
X641422D01*
X641389Y829860D01*
X641320D01*
X641232Y829870D01*
X641130Y829879D01*
X641015Y829893D01*
X640895Y829906D01*
X640760Y829930D01*
X640627Y829957D01*
X640483Y829994D01*
X640344Y830031D01*
X640206Y830082D01*
X640067Y830138D01*
X639933Y830202D01*
X639808Y830276D01*
X639799Y830281D01*
X639781Y830295D01*
X639748Y830323D01*
X639702Y830355D01*
X639646Y830396D01*
X639586Y830452D01*
X639517Y830512D01*
X639443Y830586D01*
X639365Y830669D01*
X639286Y830757D01*
X639203Y830859D01*
X639119Y830965D01*
X639041Y831085D01*
X638962Y831210D01*
X638888Y831349D01*
X638824Y831492D01*
Y831497D01*
X638819Y831501D01*
X638810Y831529D01*
X638791Y831571D01*
X638773Y831631D01*
X638745Y831705D01*
X638717Y831793D01*
X638685Y831894D01*
X638657Y832005D01*
X638625Y832130D01*
X638592Y832264D01*
X638565Y832403D01*
X638537Y832555D01*
X638518Y832708D01*
X638500Y832870D01*
X638491Y833036D01*
X638486Y833207D01*
Y833212D01*
Y833221D01*
Y833235D01*
Y833253D01*
Y833277D01*
X638491Y833304D01*
Y833374D01*
X638500Y833462D01*
X638505Y833563D01*
X638518Y833679D01*
X638532Y833803D01*
X638555Y833933D01*
X638579Y834072D01*
X638611Y834220D01*
X638648Y834368D01*
X638689Y834516D01*
X638740Y834663D01*
X638801Y834807D01*
X638865Y834950D01*
X638870Y834959D01*
X638884Y834982D01*
X638907Y835019D01*
X638935Y835075D01*
X638976Y835135D01*
X639022Y835204D01*
X639082Y835287D01*
X639147Y835371D01*
X639216Y835459D01*
X639300Y835556D01*
X639388Y835648D01*
X639485Y835741D01*
X639591Y835833D01*
X639702Y835921D01*
X639822Y836004D01*
X639952Y836083D01*
X639961Y836087D01*
X639984Y836101D01*
X640021Y836120D01*
X640076Y836143D01*
X640141Y836175D01*
X640220Y836207D01*
X640312Y836240D01*
X640409Y836277D01*
X640520Y836314D01*
X640640Y836346D01*
X640770Y836383D01*
X640904Y836411D01*
X641047Y836434D01*
X641195Y836452D01*
X641348Y836466D01*
X641505Y836471D01*
X641570D01*
X641597Y836466D01*
D02*
G37*
D24*
X569750Y129250D02*
G03*
X569750Y129250I-1250J0D01*
G01*
X316750Y439750D02*
G03*
X316750Y439750I-1250J0D01*
G01*
X1044750Y506250D02*
G03*
X1044750Y506250I-1250J0D01*
G01*
D25*
X1144600Y437500D02*
G03*
X1144600Y437500I-5000J0D01*
G01*
X662500Y107500D02*
G03*
X662500Y107500I-5000J0D01*
G01*
D39*
X580000Y151500D02*
G03*
X580000Y151500I-3000J0D01*
G01*
X339500Y428000D02*
G03*
X339500Y428000I-3000J0D01*
G01*
X1055000Y528500D02*
G03*
X1055000Y528500I-3000J0D01*
G01*
D40*
X1775800Y492100D02*
G03*
X1775800Y568300I-12700J38100D01*
G01*
X772000Y713500D02*
G03*
X772000Y713500I-1000J0D01*
G01*
X764929Y687441D02*
G03*
X765750Y663500I-3022J-12088D01*
G01*
X1125400Y367100D02*
Y392500D01*
X1023800Y367100D02*
X1125400D01*
X1023800D02*
Y443300D01*
X1125400D01*
Y392500D02*
Y443300D01*
X557000Y247500D02*
X562000D01*
X557000Y237500D02*
Y247500D01*
Y127500D02*
Y135500D01*
Y127500D02*
X561000D01*
X677000Y128500D02*
Y136500D01*
X667000Y128500D02*
X677000D01*
X667000Y247500D02*
X677000D01*
Y241500D02*
Y247500D01*
X1225000Y606500D02*
X1255000D01*
Y456500D02*
Y606500D01*
X1195000Y456500D02*
X1255000D01*
X1195000D02*
Y606500D01*
X1225000D01*
X798000Y204500D02*
X828000D01*
Y54500D02*
Y204500D01*
X768000Y54500D02*
X828000D01*
X768000D02*
Y204500D01*
X798000D01*
X1725000Y593700D02*
X1775800D01*
Y466700D02*
Y593700D01*
X1674200Y466700D02*
X1775800D01*
X1674200D02*
Y593700D01*
X1725000D01*
X227500Y856000D02*
X317500D01*
X227500Y890000D02*
X227500D01*
X232500Y895000D01*
X310500D01*
X316500Y889000D01*
X312500Y901000D02*
X317500Y896000D01*
Y856000D02*
Y896000D01*
X231500Y901000D02*
X312500D01*
X227500Y897000D02*
X231500Y901000D01*
X227500Y856000D02*
Y897000D01*
X1032000Y624500D02*
X1037000D01*
X1032000Y614500D02*
Y624500D01*
Y504500D02*
Y512500D01*
Y504500D02*
X1036000D01*
X1152000Y505500D02*
Y513500D01*
X1142000Y505500D02*
X1152000D01*
X1142000Y624500D02*
X1152000D01*
Y618500D02*
Y624500D01*
X694000Y634500D02*
Y719000D01*
Y634500D02*
X765500D01*
Y719000D01*
X694000D02*
X765500D01*
X640202Y839614D02*
X785490D01*
X786252Y840376D01*
Y1088280D01*
X640202D02*
X786252D01*
X640202Y839614D02*
Y1088280D01*
X177900Y944100D02*
Y969500D01*
Y944100D02*
X203300D01*
X254100D01*
Y994900D01*
X177900D02*
X254100D01*
X177900Y969500D02*
Y994900D01*
X341800Y969500D02*
Y994900D01*
X316400D02*
X341800D01*
X265600D02*
X316400D01*
X265600Y944100D02*
Y994900D01*
Y944100D02*
X341800D01*
Y969500D01*
X439100Y972500D02*
Y997900D01*
X413700D02*
X439100D01*
X362900D02*
X413700D01*
X362900Y947100D02*
Y997900D01*
Y947100D02*
X439100D01*
Y972500D01*
X986000Y330300D02*
X1036800D01*
Y228700D02*
Y330300D01*
X960600D02*
X986000D01*
X960600Y228700D02*
X1036800D01*
X935200Y330300D02*
X960600D01*
X935200Y228700D02*
Y330300D01*
Y228700D02*
X960600D01*
X775000Y312700D02*
X825800D01*
Y211100D02*
Y312700D01*
X749600D02*
X775000D01*
X749600Y211100D02*
X825800D01*
X724200Y312700D02*
X749600D01*
X724200Y211100D02*
Y312700D01*
Y211100D02*
X749600D01*
X60000Y313500D02*
Y463500D01*
X160000D01*
Y313500D02*
Y463500D01*
X60000Y313500D02*
X160000D01*
X63000Y493500D02*
Y643500D01*
X163000D01*
Y493500D02*
Y643500D01*
X63000Y493500D02*
X163000D01*
X643300Y62500D02*
Y113300D01*
X541700D02*
X643300D01*
X541700Y37100D02*
Y113300D01*
Y37100D02*
X643300D01*
Y62500D01*
X1524000Y361500D02*
X1773500D01*
X1524000Y638500D02*
X1774000D01*
X352000Y12500D02*
Y19500D01*
Y312500D01*
X1322750Y361500D02*
X1524000D01*
X1322000Y360750D02*
Y638500D01*
X1524000D01*
X508000Y434500D02*
X582750Y359750D01*
X1094000Y316500D02*
X1103000Y325500D01*
X1094000Y212500D02*
Y316500D01*
Y212500D02*
X1095000Y211500D01*
X1252000D01*
X1255000Y214500D01*
Y322500D01*
X1252000Y325500D02*
X1255000Y322500D01*
X1103000Y325500D02*
X1252000D01*
X1464250Y359750D02*
X1465000Y360500D01*
X582750Y359750D02*
X1464250D01*
X509000Y634500D02*
X694000D01*
X832000Y689500D02*
X834000Y691500D01*
Y692500D02*
Y770000D01*
X777000Y634500D02*
X832000Y689500D01*
X765500Y634500D02*
X777000D01*
X51000Y667500D02*
X507000D01*
X509000Y324500D02*
Y669500D01*
X497000Y312500D02*
X509000Y324500D01*
X53000Y312500D02*
X497000D01*
X898000Y770500D02*
Y1028500D01*
Y770500D02*
X898500Y770000D01*
X540500D02*
X898500D01*
X539000Y771500D02*
Y1028500D01*
Y771500D02*
X540500Y770000D01*
X160501D02*
X540500D01*
X60501D02*
Y920000D01*
X160501D01*
Y770000D02*
Y920000D01*
X60501Y770000D02*
X160501D01*
X371000Y868500D02*
X461000D01*
X371000Y902500D02*
X371000D01*
X376000Y907500D01*
X454000D01*
X460000Y901500D01*
X456000Y913500D02*
X461000Y908500D01*
Y868500D02*
Y908500D01*
X375000Y913500D02*
X456000D01*
X371000Y909500D02*
X375000Y913500D01*
X371000Y868500D02*
Y909500D01*
X1115040Y293796D02*
Y309031D01*
X1122657D01*
X1125197Y306492D01*
Y301414D01*
X1122657Y298874D01*
X1115040D01*
X1120118D02*
X1125197Y293796D01*
X1140432Y306492D02*
X1137893Y309031D01*
X1132814D01*
X1130275Y306492D01*
Y296335D01*
X1132814Y293796D01*
X1137893D01*
X1140432Y296335D01*
X1115040Y269418D02*
Y284653D01*
X1122657D01*
X1125197Y282114D01*
Y277036D01*
X1122657Y274496D01*
X1115040D01*
X1120118D02*
X1125197Y269418D01*
X1140432Y284653D02*
X1130275D01*
Y269418D01*
X1140432D01*
X1130275Y277036D02*
X1135353D01*
X1155667Y282114D02*
X1153128Y284653D01*
X1148049D01*
X1145510Y282114D01*
Y271957D01*
X1148049Y269418D01*
X1153128D01*
X1155667Y271957D01*
X1170902Y284653D02*
X1160745D01*
Y269418D01*
X1170902D01*
X1160745Y277036D02*
X1165824D01*
X1175980Y284653D02*
X1181059D01*
X1178520D01*
Y269418D01*
X1175980D01*
X1181059D01*
X1188676Y284653D02*
Y274496D01*
X1193755Y269418D01*
X1198833Y274496D01*
Y284653D01*
X1214068D02*
X1203911D01*
Y269418D01*
X1214068D01*
X1203911Y277036D02*
X1208990D01*
X1219146Y269418D02*
Y284653D01*
X1226764D01*
X1229303Y282114D01*
Y277036D01*
X1226764Y274496D01*
X1219146D01*
X1224225D02*
X1229303Y269418D01*
X1115040Y260275D02*
Y245040D01*
Y252658D01*
X1125197D01*
Y260275D01*
Y245040D01*
X1140432Y260275D02*
X1130275D01*
Y245040D01*
X1140432D01*
X1130275Y252658D02*
X1135353D01*
X1145510Y245040D02*
Y260275D01*
X1153128D01*
X1155667Y257736D01*
Y252658D01*
X1153128Y250118D01*
X1145510D01*
X1150589D02*
X1155667Y245040D01*
X1170902Y260275D02*
X1160745D01*
Y245040D01*
X1170902D01*
X1160745Y252658D02*
X1165824D01*
X1002304Y381057D02*
X999765Y378517D01*
Y373439D01*
X1002304Y370900D01*
X1012461D01*
X1015000Y373439D01*
Y378517D01*
X1012461Y381057D01*
X999765Y393753D02*
Y388674D01*
X1002304Y386135D01*
X1012461D01*
X1015000Y388674D01*
Y393753D01*
X1012461Y396292D01*
X1002304D01*
X999765Y393753D01*
X1015000Y401370D02*
X999765D01*
X1015000Y411527D01*
X999765D01*
X1015000Y416605D02*
Y421684D01*
Y419144D01*
X999765D01*
X1002304Y416605D01*
X178879Y902431D02*
X168722D01*
Y894814D01*
X173800D01*
X168722D01*
Y887196D01*
X194114D02*
X183957D01*
X194114Y897353D01*
Y899892D01*
X191575Y902431D01*
X186496D01*
X183957Y899892D01*
X547848Y282067D02*
Y269371D01*
X550387Y266832D01*
X555466D01*
X558005Y269371D01*
Y282067D01*
X573240D02*
X563083D01*
Y274450D01*
X568161Y276989D01*
X570701D01*
X573240Y274450D01*
Y269371D01*
X570701Y266832D01*
X565622D01*
X563083Y269371D01*
X1183000Y449735D02*
X1193157Y434500D01*
Y449735D02*
X1183000Y434500D01*
X1198235Y449735D02*
X1208392D01*
X1203313D01*
Y434500D01*
X1213470D02*
Y444657D01*
X1218549Y449735D01*
X1223627Y444657D01*
Y434500D01*
Y442118D01*
X1213470D01*
X1228705Y449735D02*
Y434500D01*
X1238862D01*
X1254097D02*
X1243940D01*
X1254097Y444657D01*
Y447196D01*
X1251558Y449735D01*
X1246479D01*
X1243940Y447196D01*
X771000Y46735D02*
X781157Y31500D01*
Y46735D02*
X771000Y31500D01*
X786235Y46735D02*
X796392D01*
X791313D01*
Y31500D01*
X801470D02*
Y41657D01*
X806548Y46735D01*
X811627Y41657D01*
Y31500D01*
Y39118D01*
X801470D01*
X816705Y46735D02*
Y31500D01*
X826862D01*
X831940D02*
X837019D01*
X834480D01*
Y46735D01*
X831940Y44196D01*
X1717500Y615235D02*
Y602539D01*
X1720039Y600000D01*
X1725117D01*
X1727657Y602539D01*
Y615235D01*
X1732735Y600000D02*
X1737813D01*
X1735274D01*
Y615235D01*
X1732735Y612696D01*
X1753049Y600000D02*
Y615235D01*
X1745431Y607617D01*
X1755588D01*
X335000Y350735D02*
Y338039D01*
X337539Y335500D01*
X342617D01*
X345157Y338039D01*
Y350735D01*
X360392D02*
X355313Y348196D01*
X350235Y343117D01*
Y338039D01*
X352774Y335500D01*
X357853D01*
X360392Y338039D01*
Y340578D01*
X357853Y343117D01*
X350235D01*
X225088Y925171D02*
Y912475D01*
X227627Y909936D01*
X232705D01*
X235245Y912475D01*
Y925171D01*
X240323Y922632D02*
X242862Y925171D01*
X247941D01*
X250480Y922632D01*
Y920093D01*
X247941Y917553D01*
X245401D01*
X247941D01*
X250480Y915014D01*
Y912475D01*
X247941Y909936D01*
X242862D01*
X240323Y912475D01*
X1139000Y486735D02*
Y474039D01*
X1141539Y471500D01*
X1146618D01*
X1149157Y474039D01*
Y486735D01*
X1164392Y471500D02*
X1154235D01*
X1164392Y481657D01*
Y484196D01*
X1161853Y486735D01*
X1156774D01*
X1154235Y484196D01*
X695166Y743235D02*
Y730539D01*
X697705Y728000D01*
X702784D01*
X705323Y730539D01*
Y743235D01*
X710401Y728000D02*
X715479D01*
X712940D01*
Y743235D01*
X710401Y740696D01*
X641599Y1112405D02*
X646677D01*
X644138D01*
Y1097170D01*
X641599D01*
X646677D01*
X664452Y1109866D02*
X661912Y1112405D01*
X656834D01*
X654295Y1109866D01*
Y1099709D01*
X656834Y1097170D01*
X661912D01*
X664452Y1099709D01*
X669530Y1097170D02*
X674608D01*
X672069D01*
Y1112405D01*
X669530Y1109866D01*
X187657Y1015196D02*
X185117Y1017735D01*
X180039D01*
X177500Y1015196D01*
Y1005039D01*
X180039Y1002500D01*
X185117D01*
X187657Y1005039D01*
X200353Y1017735D02*
X195274D01*
X192735Y1015196D01*
Y1005039D01*
X195274Y1002500D01*
X200353D01*
X202892Y1005039D01*
Y1015196D01*
X200353Y1017735D01*
X207970Y1002500D02*
Y1017735D01*
X218127Y1002500D01*
Y1017735D01*
X223205Y1002500D02*
X228284D01*
X225744D01*
Y1017735D01*
X223205Y1015196D01*
X246058Y1017735D02*
X240979Y1015196D01*
X235901Y1010117D01*
Y1005039D01*
X238440Y1002500D01*
X243519D01*
X246058Y1005039D01*
Y1007578D01*
X243519Y1010117D01*
X235901D01*
X275157Y1015196D02*
X272617Y1017735D01*
X267539D01*
X265000Y1015196D01*
Y1005039D01*
X267539Y1002500D01*
X272617D01*
X275157Y1005039D01*
X287853Y1017735D02*
X282774D01*
X280235Y1015196D01*
Y1005039D01*
X282774Y1002500D01*
X287853D01*
X290392Y1005039D01*
Y1015196D01*
X287853Y1017735D01*
X295470Y1002500D02*
Y1017735D01*
X305627Y1002500D01*
Y1017735D01*
X310705Y1002500D02*
X315784D01*
X313244D01*
Y1017735D01*
X310705Y1015196D01*
X333558Y1017735D02*
X323401D01*
Y1010117D01*
X328479Y1012657D01*
X331019D01*
X333558Y1010117D01*
Y1005039D01*
X331019Y1002500D01*
X325940D01*
X323401Y1005039D01*
X372657Y1017696D02*
X370117Y1020235D01*
X365039D01*
X362500Y1017696D01*
Y1007539D01*
X365039Y1005000D01*
X370117D01*
X372657Y1007539D01*
X385353Y1020235D02*
X380274D01*
X377735Y1017696D01*
Y1007539D01*
X380274Y1005000D01*
X385353D01*
X387892Y1007539D01*
Y1017696D01*
X385353Y1020235D01*
X392970Y1005000D02*
Y1020235D01*
X403127Y1005000D01*
Y1020235D01*
X408205Y1005000D02*
X413284D01*
X410744D01*
Y1020235D01*
X408205Y1017696D01*
X428519Y1005000D02*
Y1020235D01*
X420901Y1012617D01*
X431058D01*
X82657Y757696D02*
X80118Y760235D01*
X75039D01*
X72500Y757696D01*
Y747539D01*
X75039Y745000D01*
X80118D01*
X82657Y747539D01*
X95353Y760235D02*
X90274D01*
X87735Y757696D01*
Y747539D01*
X90274Y745000D01*
X95353D01*
X97892Y747539D01*
Y757696D01*
X95353Y760235D01*
X102970Y745000D02*
Y760235D01*
X113127Y745000D01*
Y760235D01*
X118205Y745000D02*
X123284D01*
X120744D01*
Y760235D01*
X118205Y757696D01*
X130901D02*
X133440Y760235D01*
X138519D01*
X141058Y757696D01*
Y755157D01*
X138519Y752617D01*
X135979D01*
X138519D01*
X141058Y750078D01*
Y747539D01*
X138519Y745000D01*
X133440D01*
X130901Y747539D01*
X955157Y222196D02*
X952617Y224735D01*
X947539D01*
X945000Y222196D01*
Y212039D01*
X947539Y209500D01*
X952617D01*
X955157Y212039D01*
X967853Y224735D02*
X962774D01*
X960235Y222196D01*
Y212039D01*
X962774Y209500D01*
X967853D01*
X970392Y212039D01*
Y222196D01*
X967853Y224735D01*
X975470Y209500D02*
Y224735D01*
X985627Y209500D01*
Y224735D01*
X990705Y209500D02*
X995784D01*
X993244D01*
Y224735D01*
X990705Y222196D01*
X1013558Y209500D02*
X1003401D01*
X1013558Y219657D01*
Y222196D01*
X1011019Y224735D01*
X1005940D01*
X1003401Y222196D01*
X735739Y334190D02*
X733199Y336729D01*
X728121D01*
X725582Y334190D01*
Y324033D01*
X728121Y321494D01*
X733199D01*
X735739Y324033D01*
X748435Y336729D02*
X743356D01*
X740817Y334190D01*
Y324033D01*
X743356Y321494D01*
X748435D01*
X750974Y324033D01*
Y334190D01*
X748435Y336729D01*
X756052Y321494D02*
Y336729D01*
X766209Y321494D01*
Y336729D01*
X771287Y321494D02*
X776366D01*
X773826D01*
Y336729D01*
X771287Y334190D01*
X783983Y321494D02*
X789061D01*
X786522D01*
Y336729D01*
X783983Y334190D01*
X168304Y375657D02*
X165765Y373117D01*
Y368039D01*
X168304Y365500D01*
X178461D01*
X181000Y368039D01*
Y373117D01*
X178461Y375657D01*
X165765Y388353D02*
Y383274D01*
X168304Y380735D01*
X178461D01*
X181000Y383274D01*
Y388353D01*
X178461Y390892D01*
X168304D01*
X165765Y388353D01*
X181000Y395970D02*
X165765D01*
X181000Y406127D01*
X165765D01*
X181000Y418823D02*
X165765D01*
X173382Y411205D01*
Y421362D01*
X175304Y536657D02*
X172765Y534118D01*
Y529039D01*
X175304Y526500D01*
X185461D01*
X188000Y529039D01*
Y534118D01*
X185461Y536657D01*
X172765Y549353D02*
Y544274D01*
X175304Y541735D01*
X185461D01*
X188000Y544274D01*
Y549353D01*
X185461Y551892D01*
X175304D01*
X172765Y549353D01*
X188000Y556970D02*
X172765D01*
X188000Y567127D01*
X172765D01*
X175304Y572205D02*
X172765Y574744D01*
Y579823D01*
X175304Y582362D01*
X177843D01*
X180382Y579823D01*
Y577284D01*
Y579823D01*
X182922Y582362D01*
X185461D01*
X188000Y579823D01*
Y574744D01*
X185461Y572205D01*
X527196Y88743D02*
X529735Y91283D01*
Y96361D01*
X527196Y98900D01*
X517039D01*
X514500Y96361D01*
Y91283D01*
X517039Y88743D01*
X529735Y76047D02*
Y81126D01*
X527196Y83665D01*
X517039D01*
X514500Y81126D01*
Y76047D01*
X517039Y73508D01*
X527196D01*
X529735Y76047D01*
X514500Y68430D02*
X529735D01*
X514500Y58273D01*
X529735D01*
X514500Y43038D02*
Y53195D01*
X524657Y43038D01*
X527196D01*
X529735Y45577D01*
Y50656D01*
X527196Y53195D01*
X471157Y816196D02*
X468618Y818735D01*
X463539D01*
X461000Y816196D01*
Y806039D01*
X463539Y803500D01*
X468618D01*
X471157Y806039D01*
X486392Y818735D02*
X481313Y816196D01*
X476235Y811118D01*
Y806039D01*
X478774Y803500D01*
X483853D01*
X486392Y806039D01*
Y808578D01*
X483853Y811118D01*
X476235D01*
X491470Y816196D02*
X494009Y818735D01*
X499088D01*
X501627Y816196D01*
Y813657D01*
X499088Y811118D01*
X496549D01*
X499088D01*
X501627Y808578D01*
Y806039D01*
X499088Y803500D01*
X494009D01*
X491470Y806039D01*
X472157Y840196D02*
X469618Y842735D01*
X464539D01*
X462000Y840196D01*
Y830039D01*
X464539Y827500D01*
X469618D01*
X472157Y830039D01*
X487392Y842735D02*
X482313Y840196D01*
X477235Y835117D01*
Y830039D01*
X479774Y827500D01*
X484853D01*
X487392Y830039D01*
Y832578D01*
X484853Y835117D01*
X477235D01*
X502627Y827500D02*
X492470D01*
X502627Y837657D01*
Y840196D01*
X500088Y842735D01*
X495009D01*
X492470Y840196D01*
X1631804Y590657D02*
X1629265Y588118D01*
Y583039D01*
X1631804Y580500D01*
X1641961D01*
X1644500Y583039D01*
Y588118D01*
X1641961Y590657D01*
X1629265Y605892D02*
X1631804Y600813D01*
X1636882Y595735D01*
X1641961D01*
X1644500Y598274D01*
Y603353D01*
X1641961Y605892D01*
X1639422D01*
X1636882Y603353D01*
Y595735D01*
X1644500Y610970D02*
Y616049D01*
Y613509D01*
X1629265D01*
X1631804Y610970D01*
X1656804Y588657D02*
X1654265Y586118D01*
Y581039D01*
X1656804Y578500D01*
X1666961D01*
X1669500Y581039D01*
Y586118D01*
X1666961Y588657D01*
X1654265Y603892D02*
X1656804Y598814D01*
X1661882Y593735D01*
X1666961D01*
X1669500Y596274D01*
Y601353D01*
X1666961Y603892D01*
X1664422D01*
X1661882Y601353D01*
Y593735D01*
X1656804Y608970D02*
X1654265Y611509D01*
Y616588D01*
X1656804Y619127D01*
X1666961D01*
X1669500Y616588D01*
Y611509D01*
X1666961Y608970D01*
X1656804D01*
X917304Y604657D02*
X914765Y602118D01*
Y597039D01*
X917304Y594500D01*
X927461D01*
X930000Y597039D01*
Y602118D01*
X927461Y604657D01*
X930000Y617353D02*
X914765D01*
X922383Y609735D01*
Y619892D01*
X930000Y632588D02*
X914765D01*
X922383Y624970D01*
Y635127D01*
X995304Y606657D02*
X992765Y604118D01*
Y599039D01*
X995304Y596500D01*
X1005461D01*
X1008000Y599039D01*
Y604118D01*
X1005461Y606657D01*
X1008000Y619353D02*
X992765D01*
X1000383Y611735D01*
Y621892D01*
X995304Y626970D02*
X992765Y629509D01*
Y634588D01*
X995304Y637127D01*
X997843D01*
X1000383Y634588D01*
Y632048D01*
Y634588D01*
X1002922Y637127D01*
X1005461D01*
X1008000Y634588D01*
Y629509D01*
X1005461Y626970D01*
X942304Y605157D02*
X939765Y602617D01*
Y597539D01*
X942304Y595000D01*
X952461D01*
X955000Y597539D01*
Y602617D01*
X952461Y605157D01*
X955000Y617853D02*
X939765D01*
X947382Y610235D01*
Y620392D01*
X955000Y635627D02*
Y625470D01*
X944843Y635627D01*
X942304D01*
X939765Y633088D01*
Y628009D01*
X942304Y625470D01*
X968304Y606657D02*
X965765Y604118D01*
Y599039D01*
X968304Y596500D01*
X978461D01*
X981000Y599039D01*
Y604118D01*
X978461Y606657D01*
X981000Y619353D02*
X965765D01*
X973382Y611735D01*
Y621892D01*
X981000Y626970D02*
Y632048D01*
Y629509D01*
X965765D01*
X968304Y626970D01*
X1271157Y512196D02*
X1268617Y514735D01*
X1263539D01*
X1261000Y512196D01*
Y502039D01*
X1263539Y499500D01*
X1268617D01*
X1271157Y502039D01*
X1283853Y499500D02*
Y514735D01*
X1276235Y507118D01*
X1286392D01*
X1291470Y512196D02*
X1294009Y514735D01*
X1299088D01*
X1301627Y512196D01*
Y502039D01*
X1299088Y499500D01*
X1294009D01*
X1291470Y502039D01*
Y512196D01*
X1274823Y606302D02*
X1272283Y608841D01*
X1267205D01*
X1264666Y606302D01*
Y596145D01*
X1267205Y593606D01*
X1272283D01*
X1274823Y596145D01*
X1279901Y606302D02*
X1282440Y608841D01*
X1287519D01*
X1290058Y606302D01*
Y603763D01*
X1287519Y601223D01*
X1284979D01*
X1287519D01*
X1290058Y598684D01*
Y596145D01*
X1287519Y593606D01*
X1282440D01*
X1279901Y596145D01*
X1295136D02*
X1297675Y593606D01*
X1302754D01*
X1305293Y596145D01*
Y606302D01*
X1302754Y608841D01*
X1297675D01*
X1295136Y606302D01*
Y603763D01*
X1297675Y601223D01*
X1305293D01*
X861304Y288657D02*
X858765Y286117D01*
Y281039D01*
X861304Y278500D01*
X871461D01*
X874000Y281039D01*
Y286117D01*
X871461Y288657D01*
X861304Y293735D02*
X858765Y296274D01*
Y301353D01*
X861304Y303892D01*
X863843D01*
X866382Y301353D01*
Y298813D01*
Y301353D01*
X868922Y303892D01*
X871461D01*
X874000Y301353D01*
Y296274D01*
X871461Y293735D01*
X861304Y308970D02*
X858765Y311509D01*
Y316588D01*
X861304Y319127D01*
X863843D01*
X866382Y316588D01*
X868922Y319127D01*
X871461D01*
X874000Y316588D01*
Y311509D01*
X871461Y308970D01*
X868922D01*
X866382Y311509D01*
X863843Y308970D01*
X861304D01*
X866382Y311509D02*
Y316588D01*
X886304Y285157D02*
X883765Y282617D01*
Y277539D01*
X886304Y275000D01*
X896461D01*
X899000Y277539D01*
Y282617D01*
X896461Y285157D01*
X886304Y290235D02*
X883765Y292774D01*
Y297853D01*
X886304Y300392D01*
X888843D01*
X891383Y297853D01*
Y295313D01*
Y297853D01*
X893922Y300392D01*
X896461D01*
X899000Y297853D01*
Y292774D01*
X896461Y290235D01*
X883765Y305470D02*
Y315627D01*
X886304D01*
X896461Y305470D01*
X899000D01*
X908304Y285657D02*
X905765Y283118D01*
Y278039D01*
X908304Y275500D01*
X918461D01*
X921000Y278039D01*
Y283118D01*
X918461Y285657D01*
X908304Y290735D02*
X905765Y293274D01*
Y298353D01*
X908304Y300892D01*
X910843D01*
X913382Y298353D01*
Y295813D01*
Y298353D01*
X915922Y300892D01*
X918461D01*
X921000Y298353D01*
Y293274D01*
X918461Y290735D01*
X905765Y316127D02*
X908304Y311049D01*
X913382Y305970D01*
X918461D01*
X921000Y308509D01*
Y313588D01*
X918461Y316127D01*
X915922D01*
X913382Y313588D01*
Y305970D01*
X834304Y287657D02*
X831765Y285117D01*
Y280039D01*
X834304Y277500D01*
X844461D01*
X847000Y280039D01*
Y285117D01*
X844461Y287657D01*
X834304Y292735D02*
X831765Y295274D01*
Y300353D01*
X834304Y302892D01*
X836843D01*
X839382Y300353D01*
Y297813D01*
Y300353D01*
X841922Y302892D01*
X844461D01*
X847000Y300353D01*
Y295274D01*
X844461Y292735D01*
X831765Y318127D02*
Y307970D01*
X839382D01*
X836843Y313048D01*
Y315588D01*
X839382Y318127D01*
X844461D01*
X847000Y315588D01*
Y310509D01*
X844461Y307970D01*
X1253657Y680196D02*
X1251117Y682735D01*
X1246039D01*
X1243500Y680196D01*
Y670039D01*
X1246039Y667500D01*
X1251117D01*
X1253657Y670039D01*
X1258735Y680196D02*
X1261274Y682735D01*
X1266353D01*
X1268892Y680196D01*
Y677657D01*
X1266353Y675117D01*
X1263813D01*
X1266353D01*
X1268892Y672578D01*
Y670039D01*
X1266353Y667500D01*
X1261274D01*
X1258735Y670039D01*
X1281588Y667500D02*
Y682735D01*
X1273970Y675117D01*
X1284127D01*
X935157Y732696D02*
X932617Y735235D01*
X927539D01*
X925000Y732696D01*
Y722539D01*
X927539Y720000D01*
X932617D01*
X935157Y722539D01*
X940235Y732696D02*
X942774Y735235D01*
X947853D01*
X950392Y732696D01*
Y730157D01*
X947853Y727617D01*
X945313D01*
X947853D01*
X950392Y725078D01*
Y722539D01*
X947853Y720000D01*
X942774D01*
X940235Y722539D01*
X955470Y732696D02*
X958009Y735235D01*
X963088D01*
X965627Y732696D01*
Y730157D01*
X963088Y727617D01*
X960548D01*
X963088D01*
X965627Y725078D01*
Y722539D01*
X963088Y720000D01*
X958009D01*
X955470Y722539D01*
X933657Y875696D02*
X931117Y878235D01*
X926039D01*
X923500Y875696D01*
Y865539D01*
X926039Y863000D01*
X931117D01*
X933657Y865539D01*
X938735Y875696D02*
X941274Y878235D01*
X946353D01*
X948892Y875696D01*
Y873157D01*
X946353Y870618D01*
X943813D01*
X946353D01*
X948892Y868078D01*
Y865539D01*
X946353Y863000D01*
X941274D01*
X938735Y865539D01*
X964127Y863000D02*
X953970D01*
X964127Y873157D01*
Y875696D01*
X961588Y878235D01*
X956509D01*
X953970Y875696D01*
X956343Y936304D02*
X958883Y933765D01*
X963961D01*
X966500Y936304D01*
Y946461D01*
X963961Y949000D01*
X958883D01*
X956343Y946461D01*
X951265Y936304D02*
X948726Y933765D01*
X943647D01*
X941108Y936304D01*
Y938843D01*
X943647Y941382D01*
X946187D01*
X943647D01*
X941108Y943922D01*
Y946461D01*
X943647Y949000D01*
X948726D01*
X951265Y946461D01*
X936030Y949000D02*
X930952D01*
X933491D01*
Y933765D01*
X936030Y936304D01*
X1252157Y658196D02*
X1249617Y660735D01*
X1244539D01*
X1242000Y658196D01*
Y648039D01*
X1244539Y645500D01*
X1249617D01*
X1252157Y648039D01*
X1257235Y658196D02*
X1259774Y660735D01*
X1264853D01*
X1267392Y658196D01*
Y655657D01*
X1264853Y653118D01*
X1262313D01*
X1264853D01*
X1267392Y650578D01*
Y648039D01*
X1264853Y645500D01*
X1259774D01*
X1257235Y648039D01*
X1272470Y658196D02*
X1275009Y660735D01*
X1280088D01*
X1282627Y658196D01*
Y648039D01*
X1280088Y645500D01*
X1275009D01*
X1272470Y648039D01*
Y658196D01*
X932657Y757696D02*
X930117Y760235D01*
X925039D01*
X922500Y757696D01*
Y747539D01*
X925039Y745000D01*
X930117D01*
X932657Y747539D01*
X947892Y745000D02*
X937735D01*
X947892Y755157D01*
Y757696D01*
X945353Y760235D01*
X940274D01*
X937735Y757696D01*
X952970Y747539D02*
X955509Y745000D01*
X960588D01*
X963127Y747539D01*
Y757696D01*
X960588Y760235D01*
X955509D01*
X952970Y757696D01*
Y755157D01*
X955509Y752617D01*
X963127D01*
X936157Y898196D02*
X933617Y900735D01*
X928539D01*
X926000Y898196D01*
Y888039D01*
X928539Y885500D01*
X933617D01*
X936157Y888039D01*
X951392Y885500D02*
X941235D01*
X951392Y895657D01*
Y898196D01*
X948853Y900735D01*
X943774D01*
X941235Y898196D01*
X956470D02*
X959009Y900735D01*
X964088D01*
X966627Y898196D01*
Y895657D01*
X964088Y893118D01*
X966627Y890578D01*
Y888039D01*
X964088Y885500D01*
X959009D01*
X956470Y888039D01*
Y890578D01*
X959009Y893118D01*
X956470Y895657D01*
Y898196D01*
X959009Y893118D02*
X964088D01*
X972657Y985196D02*
X970117Y987735D01*
X965039D01*
X962500Y985196D01*
Y975039D01*
X965039Y972500D01*
X970117D01*
X972657Y975039D01*
X987892Y972500D02*
X977735D01*
X987892Y982657D01*
Y985196D01*
X985353Y987735D01*
X980274D01*
X977735Y985196D01*
X992970Y987735D02*
X1003127D01*
Y985196D01*
X992970Y975039D01*
Y972500D01*
X416304Y428657D02*
X413765Y426118D01*
Y421039D01*
X416304Y418500D01*
X426461D01*
X429000Y421039D01*
Y426118D01*
X426461Y428657D01*
X429000Y443892D02*
Y433735D01*
X418843Y443892D01*
X416304D01*
X413765Y441353D01*
Y436274D01*
X416304Y433735D01*
X429000Y459127D02*
Y448970D01*
X418843Y459127D01*
X416304D01*
X413765Y456588D01*
Y451509D01*
X416304Y448970D01*
X445304Y360657D02*
X442765Y358117D01*
Y353039D01*
X445304Y350500D01*
X455461D01*
X458000Y353039D01*
Y358117D01*
X455461Y360657D01*
X458000Y375892D02*
Y365735D01*
X447843Y375892D01*
X445304D01*
X442765Y373353D01*
Y368274D01*
X445304Y365735D01*
X458000Y380970D02*
Y386049D01*
Y383509D01*
X442765D01*
X445304Y380970D01*
X321657Y461196D02*
X319118Y463735D01*
X314039D01*
X311500Y461196D01*
Y451039D01*
X314039Y448500D01*
X319118D01*
X321657Y451039D01*
X336892Y448500D02*
X326735D01*
X336892Y458657D01*
Y461196D01*
X334353Y463735D01*
X329274D01*
X326735Y461196D01*
X341970D02*
X344509Y463735D01*
X349588D01*
X352127Y461196D01*
Y451039D01*
X349588Y448500D01*
X344509D01*
X341970Y451039D01*
Y461196D01*
X322657Y482196D02*
X320117Y484735D01*
X315039D01*
X312500Y482196D01*
Y472039D01*
X315039Y469500D01*
X320117D01*
X322657Y472039D01*
X327735Y469500D02*
X332813D01*
X330274D01*
Y484735D01*
X327735Y482196D01*
X340431Y472039D02*
X342970Y469500D01*
X348049D01*
X350588Y472039D01*
Y482196D01*
X348049Y484735D01*
X342970D01*
X340431Y482196D01*
Y479657D01*
X342970Y477118D01*
X350588D01*
X425304Y217157D02*
X422765Y214618D01*
Y209539D01*
X425304Y207000D01*
X435461D01*
X438000Y209539D01*
Y214618D01*
X435461Y217157D01*
X438000Y222235D02*
Y227313D01*
Y224774D01*
X422765D01*
X425304Y222235D01*
Y234931D02*
X422765Y237470D01*
Y242549D01*
X425304Y245088D01*
X427843D01*
X430382Y242549D01*
X432922Y245088D01*
X435461D01*
X438000Y242549D01*
Y237470D01*
X435461Y234931D01*
X432922D01*
X430382Y237470D01*
X427843Y234931D01*
X425304D01*
X430382Y237470D02*
Y242549D01*
X450304Y213657D02*
X447765Y211117D01*
Y206039D01*
X450304Y203500D01*
X460461D01*
X463000Y206039D01*
Y211117D01*
X460461Y213657D01*
X463000Y218735D02*
Y223813D01*
Y221274D01*
X447765D01*
X450304Y218735D01*
X447765Y231431D02*
Y241588D01*
X450304D01*
X460461Y231431D01*
X463000D01*
X473304Y213157D02*
X470765Y210618D01*
Y205539D01*
X473304Y203000D01*
X483461D01*
X486000Y205539D01*
Y210618D01*
X483461Y213157D01*
X486000Y218235D02*
Y223313D01*
Y220774D01*
X470765D01*
X473304Y218235D01*
X470765Y241088D02*
X473304Y236009D01*
X478382Y230931D01*
X483461D01*
X486000Y233470D01*
Y238549D01*
X483461Y241088D01*
X480922D01*
X478382Y238549D01*
Y230931D01*
X500304Y212657D02*
X497765Y210117D01*
Y205039D01*
X500304Y202500D01*
X510461D01*
X513000Y205039D01*
Y210117D01*
X510461Y212657D01*
X513000Y217735D02*
Y222813D01*
Y220274D01*
X497765D01*
X500304Y217735D01*
X497765Y240588D02*
Y230431D01*
X505382D01*
X502843Y235509D01*
Y238048D01*
X505382Y240588D01*
X510461D01*
X513000Y238048D01*
Y232970D01*
X510461Y230431D01*
X842261Y113236D02*
X839722Y115775D01*
X834643D01*
X832104Y113236D01*
Y103079D01*
X834643Y100540D01*
X839722D01*
X842261Y103079D01*
X847339Y100540D02*
X852417D01*
X849878D01*
Y115775D01*
X847339Y113236D01*
X867653Y100540D02*
Y115775D01*
X860035Y108158D01*
X870192D01*
X844187Y204376D02*
X841647Y206915D01*
X836569D01*
X834030Y204376D01*
Y194219D01*
X836569Y191680D01*
X841647D01*
X844187Y194219D01*
X849265Y191680D02*
X854343D01*
X851804D01*
Y206915D01*
X849265Y204376D01*
X861961D02*
X864500Y206915D01*
X869578D01*
X872118Y204376D01*
Y201837D01*
X869578Y199298D01*
X867039D01*
X869578D01*
X872118Y196758D01*
Y194219D01*
X869578Y191680D01*
X864500D01*
X861961Y194219D01*
X361157Y815196D02*
X358618Y817735D01*
X353539D01*
X351000Y815196D01*
Y805039D01*
X353539Y802500D01*
X358618D01*
X361157Y805039D01*
X366235Y802500D02*
X371313D01*
X368774D01*
Y817735D01*
X366235Y815196D01*
X389088Y802500D02*
X378931D01*
X389088Y812657D01*
Y815196D01*
X386549Y817735D01*
X381470D01*
X378931Y815196D01*
X372657Y787696D02*
X370117Y790235D01*
X365039D01*
X362500Y787696D01*
Y777539D01*
X365039Y775000D01*
X370117D01*
X372657Y777539D01*
X377735Y775000D02*
X382813D01*
X380274D01*
Y790235D01*
X377735Y787696D01*
X390431Y775000D02*
X395509D01*
X392970D01*
Y790235D01*
X390431Y787696D01*
X206157Y811196D02*
X203617Y813735D01*
X198539D01*
X196000Y811196D01*
Y801039D01*
X198539Y798500D01*
X203617D01*
X206157Y801039D01*
X211235Y798500D02*
X216313D01*
X213774D01*
Y813735D01*
X211235Y811196D01*
X223931D02*
X226470Y813735D01*
X231549D01*
X234088Y811196D01*
Y801039D01*
X231549Y798500D01*
X226470D01*
X223931Y801039D01*
Y811196D01*
X217657Y835196D02*
X215117Y837735D01*
X210039D01*
X207500Y835196D01*
Y825039D01*
X210039Y822500D01*
X215117D01*
X217657Y825039D01*
X222735D02*
X225274Y822500D01*
X230353D01*
X232892Y825039D01*
Y835196D01*
X230353Y837735D01*
X225274D01*
X222735Y835196D01*
Y832657D01*
X225274Y830117D01*
X232892D01*
X327157Y814196D02*
X324618Y816735D01*
X319539D01*
X317000Y814196D01*
Y804039D01*
X319539Y801500D01*
X324618D01*
X327157Y804039D01*
X332235Y814196D02*
X334774Y816735D01*
X339853D01*
X342392Y814196D01*
Y811657D01*
X339853Y809118D01*
X342392Y806578D01*
Y804039D01*
X339853Y801500D01*
X334774D01*
X332235Y804039D01*
Y806578D01*
X334774Y809118D01*
X332235Y811657D01*
Y814196D01*
X334774Y809118D02*
X339853D01*
X327156Y838946D02*
X324617Y841485D01*
X319539D01*
X317000Y838946D01*
Y828789D01*
X319539Y826250D01*
X324617D01*
X327156Y828789D01*
X332235Y841485D02*
X342392D01*
Y838946D01*
X332235Y828789D01*
Y826250D01*
X794157Y629196D02*
X791618Y631735D01*
X786539D01*
X784000Y629196D01*
Y619039D01*
X786539Y616500D01*
X791618D01*
X794157Y619039D01*
X809392Y631735D02*
X804313Y629196D01*
X799235Y624118D01*
Y619039D01*
X801774Y616500D01*
X806853D01*
X809392Y619039D01*
Y621578D01*
X806853Y624118D01*
X799235D01*
X792657Y606196D02*
X790117Y608735D01*
X785039D01*
X782500Y606196D01*
Y596039D01*
X785039Y593500D01*
X790117D01*
X792657Y596039D01*
X807892Y608735D02*
X797735D01*
Y601118D01*
X802813Y603657D01*
X805353D01*
X807892Y601118D01*
Y596039D01*
X805353Y593500D01*
X800274D01*
X797735Y596039D01*
X794157Y735196D02*
X791618Y737735D01*
X786539D01*
X784000Y735196D01*
Y725039D01*
X786539Y722500D01*
X791618D01*
X794157Y725039D01*
X806853Y722500D02*
Y737735D01*
X799235Y730117D01*
X809392D01*
X792157Y757196D02*
X789617Y759735D01*
X784539D01*
X782000Y757196D01*
Y747039D01*
X784539Y744500D01*
X789617D01*
X792157Y747039D01*
X797235Y757196D02*
X799774Y759735D01*
X804853D01*
X807392Y757196D01*
Y754657D01*
X804853Y752117D01*
X802313D01*
X804853D01*
X807392Y749578D01*
Y747039D01*
X804853Y744500D01*
X799774D01*
X797235Y747039D01*
X714157Y945196D02*
X711618Y947735D01*
X706539D01*
X704000Y945196D01*
Y935039D01*
X706539Y932500D01*
X711618D01*
X714157Y935039D01*
X729392Y932500D02*
X719235D01*
X729392Y942657D01*
Y945196D01*
X726853Y947735D01*
X721774D01*
X719235Y945196D01*
X716157Y911196D02*
X713617Y913735D01*
X708539D01*
X706000Y911196D01*
Y901039D01*
X708539Y898500D01*
X713617D01*
X716157Y901039D01*
X721235Y898500D02*
X726313D01*
X723774D01*
Y913735D01*
X721235Y911196D01*
X338045Y904797D02*
X327888D01*
Y897179D01*
X332966D01*
X327888D01*
Y889562D01*
X343123D02*
X348201D01*
X345662D01*
Y904797D01*
X343123Y902258D01*
X368414Y937699D02*
Y925003D01*
X370953Y922464D01*
X376031D01*
X378571Y925003D01*
Y937699D01*
X391267Y922464D02*
Y937699D01*
X383649Y930081D01*
X393806D01*
X1330000Y887696D02*
X1332539Y890235D01*
X1337617D01*
X1340157Y887696D01*
Y885157D01*
X1337617Y882617D01*
X1335078D01*
X1337617D01*
X1340157Y880078D01*
Y877539D01*
X1337617Y875000D01*
X1332539D01*
X1330000Y877539D01*
X1345235Y890235D02*
Y875000D01*
X1352853D01*
X1355392Y877539D01*
Y880078D01*
X1352853Y882617D01*
X1345235D01*
X1352853D01*
X1355392Y885157D01*
Y887696D01*
X1352853Y890235D01*
X1345235D01*
X1360470Y875000D02*
Y890235D01*
X1368088D01*
X1370627Y887696D01*
Y882617D01*
X1368088Y880078D01*
X1360470D01*
X1385862Y890235D02*
X1375705D01*
Y875000D01*
X1385862D01*
X1375705Y882617D02*
X1380784D01*
X1390940Y890235D02*
X1396019D01*
X1393479D01*
Y875000D01*
X1390940D01*
X1396019D01*
X1418871D02*
Y885157D01*
X1423950Y890235D01*
X1429028Y885157D01*
Y875000D01*
Y882617D01*
X1418871D01*
X1444263Y890235D02*
Y875000D01*
X1436646D01*
X1434106Y877539D01*
Y882617D01*
X1436646Y885157D01*
X1444263D01*
X1449341D02*
X1454420Y875000D01*
X1459498Y885157D01*
X1467116D02*
X1472194D01*
X1474733Y882617D01*
Y875000D01*
X1467116D01*
X1464577Y877539D01*
X1467116Y880078D01*
X1474733D01*
X1479812Y875000D02*
Y885157D01*
X1487429D01*
X1489968Y882617D01*
Y875000D01*
X1505203Y885157D02*
X1497586D01*
X1495047Y882617D01*
Y877539D01*
X1497586Y875000D01*
X1505203D01*
X1517899D02*
X1512821D01*
X1510282Y877539D01*
Y882617D01*
X1512821Y885157D01*
X1517899D01*
X1520438Y882617D01*
Y880078D01*
X1510282D01*
X1535674Y890235D02*
Y875000D01*
X1528056D01*
X1525517Y877539D01*
Y882617D01*
X1528056Y885157D01*
X1535674D01*
X1555987Y875000D02*
Y890235D01*
X1563604D01*
X1566144Y887696D01*
Y882617D01*
X1563604Y880078D01*
X1555987D01*
X1581379Y885157D02*
X1573761D01*
X1571222Y882617D01*
Y877539D01*
X1573761Y875000D01*
X1581379D01*
X1586457Y890235D02*
Y875000D01*
X1594075D01*
X1596614Y877539D01*
Y880078D01*
Y882617D01*
X1594075Y885157D01*
X1586457D01*
X1337500Y952735D02*
Y937500D01*
X1345117D01*
X1347657Y940039D01*
Y950196D01*
X1345117Y952735D01*
X1337500D01*
X1360353Y937500D02*
X1355274D01*
X1352735Y940039D01*
Y945117D01*
X1355274Y947657D01*
X1360353D01*
X1362892Y945117D01*
Y942578D01*
X1352735D01*
X1367970Y937500D02*
X1375588D01*
X1378127Y940039D01*
X1375588Y942578D01*
X1370509D01*
X1367970Y945117D01*
X1370509Y947657D01*
X1378127D01*
X1383205Y937500D02*
X1388284D01*
X1385744D01*
Y947657D01*
X1383205D01*
X1395901Y937500D02*
Y947657D01*
X1403519D01*
X1406058Y945117D01*
Y937500D01*
X1416214Y932422D02*
X1418754D01*
X1421293Y934961D01*
Y947657D01*
X1413675D01*
X1411136Y945117D01*
Y940039D01*
X1413675Y937500D01*
X1421293D01*
X1433989D02*
X1428910D01*
X1426371Y940039D01*
Y945117D01*
X1428910Y947657D01*
X1433989D01*
X1436528Y945117D01*
Y942578D01*
X1426371D01*
X1451763Y952735D02*
Y937500D01*
X1444146D01*
X1441606Y940039D01*
Y945117D01*
X1444146Y947657D01*
X1451763D01*
X1472077Y952735D02*
Y937500D01*
X1479694D01*
X1482233Y940039D01*
Y942578D01*
Y945117D01*
X1479694Y947657D01*
X1472077D01*
X1487312D02*
Y940039D01*
X1489851Y937500D01*
X1497468D01*
Y934961D01*
X1494929Y932422D01*
X1492390D01*
X1497468Y937500D02*
Y947657D01*
X1517782Y952735D02*
Y937500D01*
X1525399D01*
X1527938Y940039D01*
Y942578D01*
X1525399Y945117D01*
X1517782D01*
X1525399D01*
X1527938Y947657D01*
Y950196D01*
X1525399Y952735D01*
X1517782D01*
X1540634Y937500D02*
X1535556D01*
X1533017Y940039D01*
Y945117D01*
X1535556Y947657D01*
X1540634D01*
X1543174Y945117D01*
Y942578D01*
X1533017D01*
X1548252Y937500D02*
Y947657D01*
X1555869D01*
X1558409Y945117D01*
Y937500D01*
X1578722Y952735D02*
Y937500D01*
X1586340D01*
X1588879Y940039D01*
Y950196D01*
X1586340Y952735D01*
X1578722D01*
X1601575Y937500D02*
X1596496D01*
X1593957Y940039D01*
Y945117D01*
X1596496Y947657D01*
X1601575D01*
X1604114Y945117D01*
Y942578D01*
X1593957D01*
X1624427Y952735D02*
Y937500D01*
X1634584D01*
X1642201Y947657D02*
X1647280D01*
X1649819Y945117D01*
Y937500D01*
X1642201D01*
X1639662Y940039D01*
X1642201Y942578D01*
X1649819D01*
X1657437Y950196D02*
Y947657D01*
X1654897D01*
X1659976D01*
X1657437D01*
Y940039D01*
X1659976Y937500D01*
X1667593Y952735D02*
Y937500D01*
Y945117D01*
X1670132Y947657D01*
X1675211D01*
X1677750Y945117D01*
Y937500D01*
X1685367D02*
X1690446D01*
X1692985Y940039D01*
Y945117D01*
X1690446Y947657D01*
X1685367D01*
X1682828Y945117D01*
Y940039D01*
X1685367Y937500D01*
X1698063Y947657D02*
Y940039D01*
X1700603Y937500D01*
X1708220D01*
Y947657D01*
X1713298D02*
Y940039D01*
X1715838Y937500D01*
X1718377Y940039D01*
X1720916Y937500D01*
X1723455Y940039D01*
Y947657D01*
X1736151Y937500D02*
X1731073D01*
X1728533Y940039D01*
Y945117D01*
X1731073Y947657D01*
X1736151D01*
X1738690Y945117D01*
Y942578D01*
X1728533D01*
X1743769Y947657D02*
Y937500D01*
Y942578D01*
X1746308Y945117D01*
X1748847Y947657D01*
X1751386D01*
X37500Y237500D02*
Y252735D01*
X42578Y247657D01*
X47657Y252735D01*
Y237500D01*
X55274Y247657D02*
X60353D01*
X62892Y245117D01*
Y237500D01*
X55274D01*
X52735Y240039D01*
X55274Y242578D01*
X62892D01*
X67970Y247657D02*
Y237500D01*
Y242578D01*
X70509Y245117D01*
X73049Y247657D01*
X75588D01*
X83205D02*
X88284Y237500D01*
X93362Y247657D01*
X98440Y237500D02*
X103519D01*
X100979D01*
Y247657D01*
X98440D01*
X111136Y237500D02*
Y247657D01*
X118754D01*
X121293Y245117D01*
Y237500D01*
X144145Y250196D02*
Y247657D01*
X141606D01*
X146685D01*
X144145D01*
Y240039D01*
X146685Y237500D01*
X154302Y252735D02*
Y237500D01*
Y245117D01*
X156841Y247657D01*
X161920D01*
X164459Y245117D01*
Y237500D01*
X177155D02*
X172076D01*
X169537Y240039D01*
Y245117D01*
X172076Y247657D01*
X177155D01*
X179694Y245117D01*
Y242578D01*
X169537D01*
X200007Y252735D02*
Y237500D01*
Y245117D01*
X202547Y247657D01*
X207625D01*
X210164Y245117D01*
Y237500D01*
X217782Y247657D02*
X222860D01*
X225399Y245117D01*
Y237500D01*
X217782D01*
X215243Y240039D01*
X217782Y242578D01*
X225399D01*
X240634Y247657D02*
X233017D01*
X230478Y245117D01*
Y240039D01*
X233017Y237500D01*
X240634D01*
X245713D02*
Y252735D01*
Y242578D02*
X253330Y247657D01*
X245713Y242578D02*
X253330Y237500D01*
X260948Y252735D02*
Y237500D01*
X268565D01*
X271104Y240039D01*
Y242578D01*
Y245117D01*
X268565Y247657D01*
X260948D01*
X278722Y237500D02*
X283800D01*
X286339Y240039D01*
Y245117D01*
X283800Y247657D01*
X278722D01*
X276183Y245117D01*
Y240039D01*
X278722Y237500D01*
X293957Y250196D02*
Y247657D01*
X291418D01*
X296496D01*
X293957D01*
Y240039D01*
X296496Y237500D01*
X915000Y120000D02*
Y130157D01*
X920078Y135235D01*
X925157Y130157D01*
Y120000D01*
Y127618D01*
X915000D01*
X930235Y135235D02*
X940392D01*
X935313D01*
Y120000D01*
X945470D02*
Y130157D01*
X948009D01*
X950548Y127618D01*
Y120000D01*
Y127618D01*
X953088Y130157D01*
X955627Y127618D01*
Y120000D01*
X968323D02*
X963244D01*
X960705Y122539D01*
Y127618D01*
X963244Y130157D01*
X968323D01*
X970862Y127618D01*
Y125078D01*
X960705D01*
X981019Y114922D02*
X983558D01*
X986097Y117461D01*
Y130157D01*
X978480D01*
X975940Y127618D01*
Y122539D01*
X978480Y120000D01*
X986097D01*
X993715Y130157D02*
X998793D01*
X1001332Y127618D01*
Y120000D01*
X993715D01*
X991175Y122539D01*
X993715Y125078D01*
X1001332D01*
X1021646Y120000D02*
X1029263D01*
X1031802Y122539D01*
X1029263Y125078D01*
X1024185D01*
X1021646Y127618D01*
X1024185Y130157D01*
X1031802D01*
X1044498Y120000D02*
X1039420D01*
X1036881Y122539D01*
Y127618D01*
X1039420Y130157D01*
X1044498D01*
X1047037Y127618D01*
Y125078D01*
X1036881D01*
X1062272Y130157D02*
X1054655D01*
X1052116Y127618D01*
Y122539D01*
X1054655Y120000D01*
X1062272D01*
X1069890D02*
X1074968D01*
X1077507Y122539D01*
Y127618D01*
X1074968Y130157D01*
X1069890D01*
X1067351Y127618D01*
Y122539D01*
X1069890Y120000D01*
X1082586D02*
Y130157D01*
X1090203D01*
X1092742Y127618D01*
Y120000D01*
X1107978Y135235D02*
Y120000D01*
X1100360D01*
X1097821Y122539D01*
Y127618D01*
X1100360Y130157D01*
X1107978D01*
X1115595D02*
X1120674D01*
X1123213Y127618D01*
Y120000D01*
X1115595D01*
X1113056Y122539D01*
X1115595Y125078D01*
X1123213D01*
X1128291Y130157D02*
Y120000D01*
Y125078D01*
X1130830Y127618D01*
X1133369Y130157D01*
X1135909D01*
X1143526D02*
Y122539D01*
X1146065Y120000D01*
X1153683D01*
Y117461D01*
X1151144Y114922D01*
X1148604D01*
X1153683Y120000D02*
Y130157D01*
X1173996Y127618D02*
X1184153D01*
X1179075Y132696D02*
Y122539D01*
X1204466Y130157D02*
Y120000D01*
Y125078D01*
X1207006Y127618D01*
X1209545Y130157D01*
X1212084D01*
X1229858D02*
X1222241D01*
X1219701Y127618D01*
Y122539D01*
X1222241Y120000D01*
X1229858D01*
X1250172Y130157D02*
Y120000D01*
Y125078D01*
X1252711Y127618D01*
X1255250Y130157D01*
X1257789D01*
X1273024Y120000D02*
X1267946D01*
X1265407Y122539D01*
Y127618D01*
X1267946Y130157D01*
X1273024D01*
X1275563Y127618D01*
Y125078D01*
X1265407D01*
X1290798Y130157D02*
X1283181D01*
X1280642Y127618D01*
Y122539D01*
X1283181Y120000D01*
X1290798D01*
X1303494D02*
X1298416D01*
X1295877Y122539D01*
Y127618D01*
X1298416Y130157D01*
X1303494D01*
X1306033Y127618D01*
Y125078D01*
X1295877D01*
X1311112Y120000D02*
X1316190D01*
X1313651D01*
Y130157D01*
X1311112D01*
X1323808D02*
X1328886Y120000D01*
X1333965Y130157D01*
X1346660Y120000D02*
X1341582D01*
X1339043Y122539D01*
Y127618D01*
X1341582Y130157D01*
X1346660D01*
X1349200Y127618D01*
Y125078D01*
X1339043D01*
X1354278Y130157D02*
Y120000D01*
Y125078D01*
X1356817Y127618D01*
X1359356Y130157D01*
X1361895D01*
X1384748Y127618D02*
X1394905D01*
X1389826Y132696D02*
Y122539D01*
X1415218Y135235D02*
Y120000D01*
Y127618D01*
X1425375D01*
Y135235D01*
Y120000D01*
X1440610Y132696D02*
X1438071Y135235D01*
X1432993D01*
X1430453Y132696D01*
Y122539D01*
X1432993Y120000D01*
X1438071D01*
X1440610Y122539D01*
X1445688Y127618D02*
X1455845D01*
X1471080Y132696D02*
X1468541Y135235D01*
X1463463D01*
X1460923Y132696D01*
Y130157D01*
X1463463Y127618D01*
X1468541D01*
X1471080Y125078D01*
Y122539D01*
X1468541Y120000D01*
X1463463D01*
X1460923Y122539D01*
X1476158Y120000D02*
Y135235D01*
X1483776D01*
X1486315Y132696D01*
Y127618D01*
X1483776Y125078D01*
X1476158D01*
X1481237D02*
X1486315Y120000D01*
X1491394Y132696D02*
X1493933Y135235D01*
X1499011D01*
X1501550Y132696D01*
Y122539D01*
X1499011Y120000D01*
X1493933D01*
X1491394Y122539D01*
Y132696D01*
X1514246Y120000D02*
Y135235D01*
X1506629Y127618D01*
X1516785D01*
X1537099Y114922D02*
Y130157D01*
X1544716D01*
X1547256Y127618D01*
Y122539D01*
X1544716Y120000D01*
X1537099D01*
X1552334Y130157D02*
Y120000D01*
Y125078D01*
X1554873Y127618D01*
X1557412Y130157D01*
X1559951D01*
X1570108Y120000D02*
X1575186D01*
X1577726Y122539D01*
Y127618D01*
X1575186Y130157D01*
X1570108D01*
X1567569Y127618D01*
Y122539D01*
X1570108Y120000D01*
X1592961Y130157D02*
X1585343D01*
X1582804Y127618D01*
Y122539D01*
X1585343Y120000D01*
X1592961D01*
X1605657D02*
X1600578D01*
X1598039Y122539D01*
Y127618D01*
X1600578Y130157D01*
X1605657D01*
X1608196Y127618D01*
Y125078D01*
X1598039D01*
X1613274Y120000D02*
X1620892D01*
X1623431Y122539D01*
X1620892Y125078D01*
X1615813D01*
X1613274Y127618D01*
X1615813Y130157D01*
X1623431D01*
X1628509Y120000D02*
X1636127D01*
X1638666Y122539D01*
X1636127Y125078D01*
X1631048D01*
X1628509Y127618D01*
X1631048Y130157D01*
X1638666D01*
X1643744Y120000D02*
X1648823D01*
X1646284D01*
Y130157D01*
X1643744D01*
X1656440Y120000D02*
Y130157D01*
X1664058D01*
X1666597Y127618D01*
Y120000D01*
X1676754Y114922D02*
X1679293D01*
X1681832Y117461D01*
Y130157D01*
X1674214D01*
X1671675Y127618D01*
Y122539D01*
X1674214Y120000D01*
X1681832D01*
X566000Y467500D02*
Y477657D01*
X571078Y482735D01*
X576157Y477657D01*
Y467500D01*
Y475117D01*
X566000D01*
X581235Y482735D02*
X591392D01*
X586313D01*
Y467500D01*
X596470D02*
Y477657D01*
X599009D01*
X601549Y475117D01*
Y467500D01*
Y475117D01*
X604088Y477657D01*
X606627Y475117D01*
Y467500D01*
X619323D02*
X614244D01*
X611705Y470039D01*
Y475117D01*
X614244Y477657D01*
X619323D01*
X621862Y475117D01*
Y472578D01*
X611705D01*
X632019Y462422D02*
X634558D01*
X637097Y464961D01*
Y477657D01*
X629479D01*
X626940Y475117D01*
Y470039D01*
X629479Y467500D01*
X637097D01*
X644715Y477657D02*
X649793D01*
X652332Y475117D01*
Y467500D01*
X644715D01*
X642175Y470039D01*
X644715Y472578D01*
X652332D01*
X657410Y467500D02*
Y482735D01*
X662489Y477657D01*
X667567Y482735D01*
Y467500D01*
X675185Y477657D02*
X680263D01*
X682802Y475117D01*
Y467500D01*
X675185D01*
X672645Y470039D01*
X675185Y472578D01*
X682802D01*
X687881Y467500D02*
X692959D01*
X690420D01*
Y477657D01*
X687881D01*
X700576Y467500D02*
Y477657D01*
X708194D01*
X710733Y475117D01*
Y467500D01*
X715811Y475117D02*
X725968D01*
X720890Y480196D02*
Y470039D01*
X731047Y477657D02*
Y467500D01*
Y472578D01*
X733586Y475117D01*
X736125Y477657D01*
X738664D01*
X748821Y467500D02*
X753899D01*
X756438Y470039D01*
Y475117D01*
X753899Y477657D01*
X748821D01*
X746282Y475117D01*
Y470039D01*
X748821Y467500D01*
X764056Y480196D02*
Y477657D01*
X761517D01*
X766595D01*
X764056D01*
Y470039D01*
X766595Y467500D01*
X776752Y477657D02*
X781830D01*
X784369Y475117D01*
Y467500D01*
X776752D01*
X774213Y470039D01*
X776752Y472578D01*
X784369D01*
X789448Y477657D02*
Y467500D01*
Y472578D01*
X791987Y475117D01*
X794526Y477657D01*
X797065D01*
X804683D02*
Y470039D01*
X807222Y467500D01*
X814839D01*
Y464961D01*
X812300Y462422D01*
X809761D01*
X814839Y467500D02*
Y477657D01*
X842770Y467500D02*
X837692D01*
X835153Y470039D01*
Y475117D01*
X837692Y477657D01*
X842770D01*
X845310Y475117D01*
Y472578D01*
X835153D01*
X850388Y467500D02*
Y477657D01*
X858006D01*
X860545Y475117D01*
Y467500D01*
X875780Y477657D02*
X868162D01*
X865623Y475117D01*
Y470039D01*
X868162Y467500D01*
X875780D01*
X883397D02*
X888476D01*
X891015Y470039D01*
Y475117D01*
X888476Y477657D01*
X883397D01*
X880858Y475117D01*
Y470039D01*
X883397Y467500D01*
X906250Y482735D02*
Y467500D01*
X898632D01*
X896093Y470039D01*
Y475117D01*
X898632Y477657D01*
X906250D01*
X918946Y467500D02*
X913867D01*
X911328Y470039D01*
Y475117D01*
X913867Y477657D01*
X918946D01*
X921485Y475117D01*
Y472578D01*
X911328D01*
X926563Y477657D02*
Y467500D01*
Y472578D01*
X929103Y475117D01*
X931642Y477657D01*
X934181D01*
X941798Y467500D02*
X949416D01*
X951955Y470039D01*
X949416Y472578D01*
X944338D01*
X941798Y475117D01*
X944338Y477657D01*
X951955D01*
X564000Y1003500D02*
Y1013657D01*
X569078Y1018735D01*
X574157Y1013657D01*
Y1003500D01*
Y1011117D01*
X564000D01*
X579235Y1003500D02*
Y1018735D01*
X589392Y1003500D01*
Y1018735D01*
X594470D02*
X604627D01*
X599548D01*
Y1003500D01*
X609705Y1018735D02*
Y1003500D01*
Y1011117D01*
X619862D01*
Y1018735D01*
Y1003500D01*
X624940D02*
X632558Y1011117D01*
X624940Y1018735D01*
X850765Y853657D02*
Y843500D01*
X866000D01*
Y853657D01*
X858382Y843500D02*
Y848578D01*
X853304Y868892D02*
X850765Y866353D01*
Y861274D01*
X853304Y858735D01*
X855843D01*
X858382Y861274D01*
Y866353D01*
X860922Y868892D01*
X863461D01*
X866000Y866353D01*
Y861274D01*
X863461Y858735D01*
X866000Y873970D02*
X850765D01*
Y881588D01*
X853304Y884127D01*
X858382D01*
X860922Y881588D01*
Y873970D01*
X853304Y889205D02*
X850765Y891744D01*
Y896823D01*
X853304Y899362D01*
X855843D01*
X858382Y896823D01*
X860922Y899362D01*
X863461D01*
X866000Y896823D01*
Y891744D01*
X863461Y889205D01*
X860922D01*
X858382Y891744D01*
X855843Y889205D01*
X853304D01*
X858382Y891744D02*
Y896823D01*
X866000Y914597D02*
Y904440D01*
X855843Y914597D01*
X853304D01*
X850765Y912058D01*
Y906980D01*
X853304Y904440D01*
X850765Y929832D02*
X853304Y924754D01*
X858382Y919675D01*
X863461D01*
X866000Y922215D01*
Y927293D01*
X863461Y929832D01*
X860922D01*
X858382Y927293D01*
Y919675D01*
X850765Y945067D02*
X853304Y939989D01*
X858382Y934910D01*
X863461D01*
X866000Y937450D01*
Y942528D01*
X863461Y945067D01*
X860922D01*
X858382Y942528D01*
Y934910D01*
X1377000Y404735D02*
Y389500D01*
Y397118D01*
X1387157D01*
Y404735D01*
Y389500D01*
X1402392Y402196D02*
X1399853Y404735D01*
X1394774D01*
X1392235Y402196D01*
Y392039D01*
X1394774Y389500D01*
X1399853D01*
X1402392Y392039D01*
X1407470Y397118D02*
X1417627D01*
X1432862Y402196D02*
X1430323Y404735D01*
X1425244D01*
X1422705Y402196D01*
Y399657D01*
X1425244Y397118D01*
X1430323D01*
X1432862Y394578D01*
Y392039D01*
X1430323Y389500D01*
X1425244D01*
X1422705Y392039D01*
X1437940Y389500D02*
Y404735D01*
X1445558D01*
X1448097Y402196D01*
Y397118D01*
X1445558Y394578D01*
X1437940D01*
X1443019D02*
X1448097Y389500D01*
X1453175Y402196D02*
X1455715Y404735D01*
X1460793D01*
X1463332Y402196D01*
Y392039D01*
X1460793Y389500D01*
X1455715D01*
X1453175Y392039D01*
Y402196D01*
X1476028Y389500D02*
Y404735D01*
X1468410Y397118D01*
X1478567D01*
X459000Y724735D02*
Y709500D01*
X469157D01*
X484392Y724735D02*
X474235D01*
Y709500D01*
X484392D01*
X474235Y717117D02*
X479313D01*
X489470Y724735D02*
Y714578D01*
X494548Y709500D01*
X499627Y714578D01*
Y724735D01*
X514862D02*
X504705D01*
Y709500D01*
X514862D01*
X504705Y717117D02*
X509784D01*
X519940Y724735D02*
Y709500D01*
X530097D01*
X560567Y722196D02*
X558028Y724735D01*
X552950D01*
X550410Y722196D01*
Y712039D01*
X552950Y709500D01*
X558028D01*
X560567Y712039D01*
X573263Y724735D02*
X568185D01*
X565645Y722196D01*
Y712039D01*
X568185Y709500D01*
X573263D01*
X575802Y712039D01*
Y722196D01*
X573263Y724735D01*
X580881Y709500D02*
Y724735D01*
X591037Y709500D01*
Y724735D01*
X596116D02*
Y714578D01*
X601194Y709500D01*
X606272Y714578D01*
Y724735D01*
X621507D02*
X611351D01*
Y709500D01*
X621507D01*
X611351Y717117D02*
X616429D01*
X626586Y709500D02*
Y724735D01*
X634203D01*
X636743Y722196D01*
Y717117D01*
X634203Y714578D01*
X626586D01*
X631664D02*
X636743Y709500D01*
X641821Y724735D02*
X651978D01*
X646899D01*
Y709500D01*
X664673Y724735D02*
X659595D01*
X657056Y722196D01*
Y712039D01*
X659595Y709500D01*
X664673D01*
X667213Y712039D01*
Y722196D01*
X664673Y724735D01*
X672291Y709500D02*
Y724735D01*
X679909D01*
X682448Y722196D01*
Y717117D01*
X679909Y714578D01*
X672291D01*
X677369D02*
X682448Y709500D01*
X202000Y601500D02*
Y616735D01*
X207078Y611657D01*
X212157Y616735D01*
Y601500D01*
X224853Y616735D02*
X219774D01*
X217235Y614196D01*
Y604039D01*
X219774Y601500D01*
X224853D01*
X227392Y604039D01*
Y614196D01*
X224853Y616735D01*
X232470D02*
X242627D01*
X237549D01*
Y601500D01*
X255323Y616735D02*
X250244D01*
X247705Y614196D01*
Y604039D01*
X250244Y601500D01*
X255323D01*
X257862Y604039D01*
Y614196D01*
X255323Y616735D01*
X262940Y601500D02*
Y616735D01*
X270558D01*
X273097Y614196D01*
Y609118D01*
X270558Y606578D01*
X262940D01*
X268019D02*
X273097Y601500D01*
X293410Y616735D02*
Y601500D01*
X301028D01*
X303567Y604039D01*
Y614196D01*
X301028Y616735D01*
X293410D01*
X308645Y601500D02*
Y616735D01*
X316263D01*
X318802Y614196D01*
Y609118D01*
X316263Y606578D01*
X308645D01*
X313724D02*
X318802Y601500D01*
X323881Y616735D02*
X328959D01*
X326420D01*
Y601500D01*
X323881D01*
X328959D01*
X336576Y616735D02*
Y606578D01*
X341655Y601500D01*
X346733Y606578D01*
Y616735D01*
X361968D02*
X351811D01*
Y601500D01*
X361968D01*
X351811Y609118D02*
X356890D01*
X367047Y601500D02*
Y616735D01*
X374664D01*
X377203Y614196D01*
Y609118D01*
X374664Y606578D01*
X367047D01*
X372125D02*
X377203Y601500D01*
X1512500Y210000D02*
Y225235D01*
X1520117D01*
X1522657Y222696D01*
Y217617D01*
X1520117Y215078D01*
X1512500D01*
X1517578D02*
X1522657Y210000D01*
X1537892Y225235D02*
X1527735D01*
Y210000D01*
X1537892D01*
X1527735Y217617D02*
X1532813D01*
X1542970Y225235D02*
Y215078D01*
X1548049Y210000D01*
X1553127Y215078D01*
Y225235D01*
X1573440Y222696D02*
X1575979Y225235D01*
X1581058D01*
X1583597Y222696D01*
Y220157D01*
X1581058Y217617D01*
X1578519D01*
X1581058D01*
X1583597Y215078D01*
Y212539D01*
X1581058Y210000D01*
X1575979D01*
X1573440Y212539D01*
X105000Y935117D02*
X115157D01*
X110078Y940196D02*
Y930039D01*
D41*
X326500Y355000D02*
X376500D01*
X326500Y438000D02*
X376500D01*
Y355000D02*
Y438000D01*
X326500Y355000D02*
Y438000D01*
D42*
X686948Y1068872D02*
X734700D01*
X686186Y1068745D02*
X735462D01*
X685678Y1068618D02*
X735970D01*
X685170Y1068491D02*
X736478D01*
X684789Y1068364D02*
X736859D01*
X684408Y1068237D02*
X737240D01*
X684154Y1068110D02*
X737494D01*
X683773Y1067983D02*
X737875D01*
X744225D02*
X745495D01*
X683519Y1067856D02*
X738129D01*
X743844D02*
X745749D01*
X683265Y1067729D02*
X720603D01*
X734954D02*
X738383D01*
X743717D02*
X746003D01*
X683011Y1067602D02*
X719841D01*
X735589D02*
X738637D01*
X743590D02*
X744479D01*
X745241D02*
X746130D01*
X682757Y1067475D02*
X719460D01*
X736097D02*
X738891D01*
X743336D02*
X744098D01*
X745622D02*
X746257D01*
X682630Y1067348D02*
X718952D01*
X736605D02*
X739018D01*
X743336D02*
X743971D01*
X745749D02*
X746384D01*
X682376Y1067221D02*
X718698D01*
X736986D02*
X739272D01*
X743209D02*
X743717D01*
X745876D02*
X746511D01*
X682122Y1067094D02*
X718317D01*
X737240D02*
X739399D01*
X743082D02*
X743590D01*
X743971D02*
X745114D01*
X746003D02*
X746511D01*
X681995Y1066967D02*
X718063D01*
X737621D02*
X739653D01*
X743082D02*
X743590D01*
X743971D02*
X745495D01*
X746130D02*
X746638D01*
X681868Y1066840D02*
X717809D01*
X737875D02*
X739780D01*
X742955D02*
X743463D01*
X743971D02*
X745622D01*
X746257D02*
X746638D01*
X681614Y1066713D02*
X717555D01*
X738129D02*
X740034D01*
X742955D02*
X743463D01*
X743971D02*
X744352D01*
X744987D02*
X745622D01*
X746257D02*
X746765D01*
X681487Y1066586D02*
X717301D01*
X738383D02*
X740161D01*
X742955D02*
X743336D01*
X743971D02*
X744352D01*
X745114D02*
X745622D01*
X746384D02*
X746765D01*
X681360Y1066459D02*
X717047D01*
X738510D02*
X740288D01*
X742828D02*
X743336D01*
X743971D02*
X744352D01*
X745114D02*
X745622D01*
X746384D02*
X746765D01*
X681106Y1066332D02*
X716920D01*
X738764D02*
X740542D01*
X742828D02*
X743336D01*
X743971D02*
X744352D01*
X745114D02*
X745622D01*
X746384D02*
X746765D01*
X680979Y1066205D02*
X716666D01*
X738891D02*
X740669D01*
X742828D02*
X743336D01*
X743971D02*
X745622D01*
X746384D02*
X746892D01*
X680852Y1066078D02*
X716539D01*
X739145D02*
X740796D01*
X742828D02*
X743336D01*
X743971D02*
X745495D01*
X746384D02*
X746892D01*
X680725Y1065951D02*
X716285D01*
X739272D02*
X740923D01*
X742828D02*
X743209D01*
X743971D02*
X745241D01*
X746384D02*
X746892D01*
X680598Y1065824D02*
X716158D01*
X739526D02*
X741050D01*
X742828D02*
X743336D01*
X743971D02*
X744352D01*
X744606D02*
X745241D01*
X746384D02*
X746892D01*
X680471Y1065697D02*
X716031D01*
X739653D02*
X741177D01*
X742828D02*
X743336D01*
X743971D02*
X744352D01*
X744860D02*
X745368D01*
X746384D02*
X746765D01*
X680344Y1065570D02*
X715904D01*
X739780D02*
X741304D01*
X742828D02*
X743336D01*
X743971D02*
X744352D01*
X744860D02*
X745495D01*
X746384D02*
X746765D01*
X680217Y1065443D02*
X715650D01*
X740034D02*
X741431D01*
X742955D02*
X743336D01*
X743971D02*
X744352D01*
X744987D02*
X745495D01*
X746257D02*
X746765D01*
X680090Y1065316D02*
X715523D01*
X740161D02*
X741558D01*
X742955D02*
X743463D01*
X743971D02*
X744352D01*
X745114D02*
X745622D01*
X746257D02*
X746765D01*
X679963Y1065189D02*
X715396D01*
X740288D02*
X741685D01*
X743082D02*
X743463D01*
X743971D02*
X744352D01*
X745114D02*
X745749D01*
X746130D02*
X746638D01*
X679836Y1065062D02*
X715269D01*
X740415D02*
X741812D01*
X743082D02*
X743590D01*
X743971D02*
X744352D01*
X745241D02*
X745749D01*
X746130D02*
X746638D01*
X679709Y1064935D02*
X715142D01*
X740542D02*
X741939D01*
X743209D02*
X743717D01*
X746003D02*
X746511D01*
X679582Y1064808D02*
X715015D01*
X740669D02*
X741939D01*
X743209D02*
X743844D01*
X745749D02*
X746384D01*
X679582Y1064681D02*
X714888D01*
X740796D02*
X742066D01*
X743336D02*
X744098D01*
X745622D02*
X746257D01*
X679455Y1064554D02*
X714888D01*
X740923D02*
X742193D01*
X743463D02*
X744352D01*
X745368D02*
X746130D01*
X679328Y1064427D02*
X714761D01*
X741050D02*
X742320D01*
X743717D02*
X746003D01*
X679201Y1064300D02*
X714634D01*
X741050D02*
X742447D01*
X743844D02*
X745876D01*
X679201Y1064173D02*
X714507D01*
X741177D02*
X742447D01*
X744225D02*
X745495D01*
X679074Y1064046D02*
X714380D01*
X741304D02*
X742574D01*
X678947Y1063919D02*
X714253D01*
X741431D02*
X742701D01*
X678820Y1063792D02*
X714253D01*
X741558D02*
X742701D01*
X678820Y1063665D02*
X714126D01*
X741558D02*
X742828D01*
X678693Y1063538D02*
X713999D01*
X741685D02*
X742955D01*
X678693Y1063411D02*
X713999D01*
X741812D02*
X742955D01*
X678566Y1063284D02*
X713872D01*
X741812D02*
X743082D01*
X678439Y1063157D02*
X713745D01*
X741939D02*
X743082D01*
X678439Y1063030D02*
X713745D01*
X742066D02*
X743209D01*
X678312Y1062903D02*
X713618D01*
X742066D02*
X743336D01*
X678312Y1062776D02*
X713618D01*
X742193D02*
X743336D01*
X678185Y1062649D02*
X713491D01*
X742193D02*
X743463D01*
X678185Y1062522D02*
X713491D01*
X742320D02*
X743463D01*
X678058Y1062395D02*
X713364D01*
X742447D02*
X743590D01*
X678058Y1062268D02*
X705871D01*
X706506D02*
X713364D01*
X732795D02*
X733303D01*
X742447D02*
X743590D01*
X677931Y1062141D02*
X705363D01*
X706887D02*
X713237D01*
X732287D02*
X733811D01*
X742574D02*
X743590D01*
X677931Y1062014D02*
X705109D01*
X707141D02*
X713237D01*
X732033D02*
X734065D01*
X742574D02*
X743717D01*
X677931Y1061887D02*
X683011D01*
X683138D02*
X683265D01*
X685551D02*
X685805D01*
X685932D02*
X691393D01*
X693679D02*
X693806D01*
X693933D02*
X694187D01*
X694314D02*
X699648D01*
X702442D02*
X702569D01*
X702696D02*
X704982D01*
X707395D02*
X713110D01*
X731906D02*
X734319D01*
X742574D02*
X743717D01*
X677804Y1061760D02*
X682884D01*
X686313D02*
X691393D01*
X694314D02*
X699521D01*
X702696D02*
X704855D01*
X707522D02*
X713110D01*
X717555D02*
X729112D01*
X731779D02*
X734446D01*
X742701D02*
X743844D01*
X677804Y1061633D02*
X682884D01*
X686313D02*
X691393D01*
X694441D02*
X699521D01*
X702696D02*
X704728D01*
X707649D02*
X713110D01*
X717555D02*
X729239D01*
X731652D02*
X734573D01*
X742701D02*
X743844D01*
X677677Y1061506D02*
X683011D01*
X686313D02*
X691266D01*
X694441D02*
X699521D01*
X702569D02*
X704601D01*
X707776D02*
X712983D01*
X717555D02*
X729112D01*
X731525D02*
X734573D01*
X742828D02*
X743844D01*
X677677Y1061379D02*
X683011D01*
X686313D02*
X691266D01*
X694441D02*
X699394D01*
X702569D02*
X704474D01*
X707776D02*
X712983D01*
X717555D02*
X729112D01*
X731398D02*
X734700D01*
X742828D02*
X743971D01*
X677677Y1061252D02*
X683011D01*
X686440D02*
X691266D01*
X694441D02*
X699394D01*
X702569D02*
X704474D01*
X707903D02*
X712856D01*
X717555D02*
X729112D01*
X731398D02*
X734827D01*
X742828D02*
X743971D01*
X677550Y1061125D02*
X683011D01*
X686440D02*
X691139D01*
X694568D02*
X699394D01*
X702569D02*
X704347D01*
X707903D02*
X712856D01*
X717555D02*
X729112D01*
X731271D02*
X734827D01*
X742955D02*
X744098D01*
X677550Y1060998D02*
X683138D01*
X686440D02*
X691139D01*
X694568D02*
X699394D01*
X702442D02*
X704347D01*
X708030D02*
X712856D01*
X717555D02*
X729112D01*
X731271D02*
X734954D01*
X742955D02*
X744098D01*
X677550Y1060871D02*
X683138D01*
X686440D02*
X691139D01*
X694568D02*
X699394D01*
X702442D02*
X704347D01*
X708030D02*
X712729D01*
X717555D02*
X729112D01*
X731271D02*
X734954D01*
X743082D02*
X744098D01*
X677423Y1060744D02*
X683138D01*
X686567D02*
X691012D01*
X694695D02*
X699267D01*
X702442D02*
X704220D01*
X708030D02*
X712729D01*
X717555D02*
X729112D01*
X731144D02*
X734954D01*
X743082D02*
X744098D01*
X677423Y1060617D02*
X683138D01*
X686567D02*
X691012D01*
X694695D02*
X699267D01*
X702442D02*
X704220D01*
X708030D02*
X712729D01*
X717555D02*
X729112D01*
X731144D02*
X734954D01*
X743082D02*
X744225D01*
X677423Y1060490D02*
X683265D01*
X686567D02*
X691012D01*
X694695D02*
X699267D01*
X702315D02*
X704220D01*
X708030D02*
X712729D01*
X717555D02*
X729112D01*
X731144D02*
X734954D01*
X743082D02*
X744225D01*
X677423Y1060363D02*
X683265D01*
X686567D02*
X691012D01*
X694695D02*
X699267D01*
X702315D02*
X704220D01*
X708157D02*
X712602D01*
X717555D02*
X729112D01*
X731144D02*
X734954D01*
X743209D02*
X744225D01*
X677296Y1060236D02*
X683265D01*
X686567D02*
X690885D01*
X694822D02*
X699140D01*
X702315D02*
X704220D01*
X708030D02*
X712602D01*
X717555D02*
X729112D01*
X731144D02*
X734954D01*
X743209D02*
X744352D01*
X677296Y1060109D02*
X683265D01*
X686694D02*
X690885D01*
X694822D02*
X699140D01*
X702315D02*
X704220D01*
X708030D02*
X712602D01*
X717555D02*
X729112D01*
X731144D02*
X734954D01*
X743209D02*
X744352D01*
X677296Y1059982D02*
X683392D01*
X686694D02*
X690885D01*
X694822D02*
X699140D01*
X702188D02*
X704347D01*
X708030D02*
X712602D01*
X717555D02*
X729112D01*
X731144D02*
X734954D01*
X743209D02*
X744352D01*
X677296Y1059855D02*
X683392D01*
X686694D02*
X690758D01*
X694949D02*
X699140D01*
X702188D02*
X704347D01*
X708030D02*
X712475D01*
X717555D02*
X729112D01*
X731271D02*
X734954D01*
X743336D02*
X744352D01*
X677296Y1059728D02*
X683392D01*
X686694D02*
X690758D01*
X694949D02*
X699013D01*
X702188D02*
X704347D01*
X708030D02*
X712475D01*
X717555D02*
X729112D01*
X731271D02*
X734827D01*
X743336D02*
X744352D01*
X677169Y1059601D02*
X683519D01*
X686821D02*
X690758D01*
X694949D02*
X699013D01*
X702188D02*
X704347D01*
X707903D02*
X712475D01*
X717555D02*
X729112D01*
X731271D02*
X734827D01*
X743336D02*
X744479D01*
X677169Y1059474D02*
X683519D01*
X686821D02*
X690758D01*
X694949D02*
X699013D01*
X702061D02*
X704474D01*
X707903D02*
X712475D01*
X717555D02*
X729112D01*
X731398D02*
X734827D01*
X743336D02*
X744479D01*
X677169Y1059347D02*
X683519D01*
X686821D02*
X690631D01*
X695076D02*
X699013D01*
X702061D02*
X704474D01*
X707776D02*
X712475D01*
X717555D02*
X729112D01*
X731398D02*
X734700D01*
X743336D02*
X744479D01*
X677169Y1059220D02*
X683519D01*
X686821D02*
X690631D01*
X695076D02*
X698886D01*
X702061D02*
X704601D01*
X707649D02*
X712475D01*
X717555D02*
X729112D01*
X731525D02*
X734573D01*
X743463D02*
X744479D01*
X677169Y1059093D02*
X683646D01*
X686821D02*
X690631D01*
X695076D02*
X698886D01*
X701934D02*
X704728D01*
X707649D02*
X712475D01*
X717555D02*
X729112D01*
X731652D02*
X734573D01*
X743463D02*
X744479D01*
X677169Y1058966D02*
X683646D01*
X686948D02*
X690504D01*
X695203D02*
X698886D01*
X701934D02*
X704855D01*
X707522D02*
X712348D01*
X717555D02*
X729239D01*
X731779D02*
X734446D01*
X743463D02*
X744479D01*
X677169Y1058839D02*
X683646D01*
X686948D02*
X690504D01*
X695203D02*
X698886D01*
X701934D02*
X704982D01*
X707395D02*
X712348D01*
X717555D02*
X729112D01*
X731906D02*
X734192D01*
X743463D02*
X744479D01*
X677042Y1058712D02*
X683646D01*
X686948D02*
X690504D01*
X695203D02*
X698886D01*
X701934D02*
X705236D01*
X707141D02*
X712348D01*
X717555D02*
X720984D01*
X732033D02*
X734065D01*
X743463D02*
X744606D01*
X677042Y1058585D02*
X683773D01*
X686948D02*
X690377D01*
X695203D02*
X698759D01*
X701807D02*
X705490D01*
X706887D02*
X712348D01*
X717555D02*
X720984D01*
X732414D02*
X733811D01*
X743463D02*
X744606D01*
X677042Y1058458D02*
X683773D01*
X687075D02*
X690377D01*
X695330D02*
X698759D01*
X701807D02*
X705998D01*
X706125D02*
X712348D01*
X717555D02*
X720984D01*
X732922D02*
X733049D01*
X743463D02*
X744606D01*
X677042Y1058331D02*
X683773D01*
X687075D02*
X690377D01*
X695330D02*
X698759D01*
X701807D02*
X712348D01*
X717555D02*
X720984D01*
X743463D02*
X744606D01*
X677042Y1058204D02*
X683773D01*
X687075D02*
X690377D01*
X695330D02*
X698759D01*
X701807D02*
X712348D01*
X717555D02*
X720984D01*
X743463D02*
X744606D01*
X677042Y1058077D02*
X683900D01*
X687075D02*
X690250D01*
X695457D02*
X698759D01*
X701680D02*
X712348D01*
X717555D02*
X720984D01*
X743463D02*
X744606D01*
X677042Y1057950D02*
X683900D01*
X687075D02*
X690250D01*
X695457D02*
X698632D01*
X701680D02*
X712348D01*
X717555D02*
X720984D01*
X743463D02*
X744606D01*
X677042Y1057823D02*
X683900D01*
X687202D02*
X690250D01*
X695457D02*
X698632D01*
X701680D02*
X712348D01*
X717555D02*
X720984D01*
X743463D02*
X744606D01*
X677042Y1057696D02*
X684027D01*
X687202D02*
X690123D01*
X695457D02*
X698632D01*
X701680D02*
X712348D01*
X717555D02*
X720984D01*
X743463D02*
X744606D01*
X677042Y1057569D02*
X684027D01*
X687202D02*
X690123D01*
X695584D02*
X698632D01*
X701553D02*
X712348D01*
X717555D02*
X720984D01*
X743463D02*
X744606D01*
X677042Y1057442D02*
X684027D01*
X687202D02*
X690123D01*
X695584D02*
X698505D01*
X701553D02*
X712348D01*
X717555D02*
X720984D01*
X743463D02*
X744606D01*
X677042Y1057315D02*
X684027D01*
X687329D02*
X690123D01*
X695584D02*
X698505D01*
X701553D02*
X712348D01*
X717555D02*
X720984D01*
X743463D02*
X744606D01*
X677042Y1057188D02*
X684154D01*
X687329D02*
X689996D01*
X695711D02*
X698505D01*
X701553D02*
X712348D01*
X717555D02*
X720984D01*
X743463D02*
X744606D01*
X677042Y1057061D02*
X684154D01*
X687329D02*
X689996D01*
X695711D02*
X698505D01*
X701426D02*
X712348D01*
X717555D02*
X720984D01*
X743463D02*
X744606D01*
X677042Y1056934D02*
X684154D01*
X687329D02*
X689996D01*
X692663D02*
X692790D01*
X695711D02*
X698378D01*
X701426D02*
X704474D01*
X707776D02*
X712348D01*
X717555D02*
X720984D01*
X731398D02*
X734700D01*
X743463D02*
X744606D01*
X677042Y1056807D02*
X684154D01*
X687456D02*
X689869D01*
X692663D02*
X692917D01*
X695711D02*
X698378D01*
X701426D02*
X704474D01*
X707776D02*
X712348D01*
X717555D02*
X720984D01*
X731398D02*
X734700D01*
X743463D02*
X744606D01*
X677042Y1056680D02*
X684281D01*
X687456D02*
X689869D01*
X692663D02*
X692917D01*
X695838D02*
X698378D01*
X701299D02*
X704474D01*
X707776D02*
X712348D01*
X717555D02*
X720984D01*
X731398D02*
X734700D01*
X743463D02*
X744606D01*
X677042Y1056553D02*
X684281D01*
X687456D02*
X689869D01*
X692663D02*
X692917D01*
X695838D02*
X698378D01*
X701299D02*
X704474D01*
X707776D02*
X712348D01*
X717555D02*
X720984D01*
X731398D02*
X734700D01*
X743463D02*
X744606D01*
X677042Y1056426D02*
X684281D01*
X687456D02*
X689742D01*
X692536D02*
X692917D01*
X695838D02*
X698251D01*
X701299D02*
X704474D01*
X707776D02*
X712348D01*
X717555D02*
X720984D01*
X731398D02*
X734700D01*
X743463D02*
X744606D01*
X677042Y1056299D02*
X684281D01*
X687456D02*
X689742D01*
X692536D02*
X693044D01*
X695838D02*
X698251D01*
X701299D02*
X704601D01*
X707776D02*
X712348D01*
X717555D02*
X720984D01*
X731398D02*
X734700D01*
X743463D02*
X744606D01*
X677042Y1056172D02*
X684408D01*
X687583D02*
X689742D01*
X692536D02*
X693044D01*
X695965D02*
X698251D01*
X701172D02*
X704474D01*
X707776D02*
X712348D01*
X717555D02*
X720984D01*
X731398D02*
X734700D01*
X743463D02*
X744606D01*
X677042Y1056045D02*
X684408D01*
X687583D02*
X689742D01*
X692409D02*
X693044D01*
X695965D02*
X698251D01*
X701172D02*
X704474D01*
X707776D02*
X712348D01*
X717555D02*
X720984D01*
X731398D02*
X734700D01*
X743463D02*
X744606D01*
X677042Y1055918D02*
X684408D01*
X687583D02*
X689615D01*
X692409D02*
X693171D01*
X695965D02*
X698251D01*
X701172D02*
X704474D01*
X707776D02*
X712348D01*
X717555D02*
X720984D01*
X731398D02*
X734700D01*
X743463D02*
X744606D01*
X677042Y1055791D02*
X684535D01*
X687583D02*
X689615D01*
X692409D02*
X693171D01*
X696092D02*
X698124D01*
X701172D02*
X704474D01*
X707776D02*
X712348D01*
X717555D02*
X720984D01*
X731398D02*
X734700D01*
X743463D02*
X744606D01*
X677042Y1055664D02*
X684535D01*
X687710D02*
X689615D01*
X692409D02*
X693171D01*
X696092D02*
X698124D01*
X701045D02*
X704474D01*
X707776D02*
X712348D01*
X717555D02*
X720984D01*
X731398D02*
X734700D01*
X743463D02*
X744606D01*
X677042Y1055537D02*
X684535D01*
X687710D02*
X689488D01*
X692282D02*
X693171D01*
X696092D02*
X698124D01*
X701045D02*
X704474D01*
X707776D02*
X712348D01*
X717555D02*
X728604D01*
X731398D02*
X734700D01*
X743463D02*
X744606D01*
X677042Y1055410D02*
X684535D01*
X687710D02*
X689488D01*
X692282D02*
X693298D01*
X696092D02*
X698124D01*
X701045D02*
X704474D01*
X707776D02*
X712348D01*
X717555D02*
X728604D01*
X731398D02*
X734700D01*
X743463D02*
X744606D01*
X677042Y1055283D02*
X684662D01*
X687710D02*
X689488D01*
X692282D02*
X693298D01*
X696219D02*
X697997D01*
X701045D02*
X704474D01*
X707776D02*
X712348D01*
X717555D02*
X728604D01*
X731398D02*
X734700D01*
X743463D02*
X744606D01*
X677042Y1055156D02*
X684662D01*
X687710D02*
X689361D01*
X692155D02*
X693298D01*
X696219D02*
X697997D01*
X700918D02*
X704474D01*
X707776D02*
X712348D01*
X717555D02*
X728604D01*
X731398D02*
X734700D01*
X743463D02*
X744606D01*
X677042Y1055029D02*
X684662D01*
X687837D02*
X689361D01*
X692155D02*
X693425D01*
X696219D02*
X697997D01*
X700918D02*
X704474D01*
X707776D02*
X712348D01*
X717555D02*
X728604D01*
X731398D02*
X734700D01*
X743463D02*
X744606D01*
X677042Y1054902D02*
X684662D01*
X687837D02*
X689361D01*
X692155D02*
X693425D01*
X696346D02*
X697997D01*
X700918D02*
X704474D01*
X707776D02*
X712348D01*
X717555D02*
X728604D01*
X731398D02*
X734700D01*
X743463D02*
X744606D01*
X677042Y1054775D02*
X684789D01*
X687837D02*
X689361D01*
X692155D02*
X693425D01*
X696346D02*
X697870D01*
X700791D02*
X704474D01*
X707776D02*
X712348D01*
X717555D02*
X728604D01*
X731398D02*
X734700D01*
X743463D02*
X744606D01*
X677042Y1054648D02*
X684789D01*
X687837D02*
X689234D01*
X692028D02*
X693425D01*
X696346D02*
X697870D01*
X700791D02*
X704474D01*
X707776D02*
X712348D01*
X717555D02*
X728604D01*
X731398D02*
X734700D01*
X743463D02*
X744606D01*
X677042Y1054521D02*
X684789D01*
X687964D02*
X689234D01*
X692028D02*
X693552D01*
X696346D02*
X697870D01*
X700791D02*
X704474D01*
X707776D02*
X712348D01*
X717555D02*
X728604D01*
X731398D02*
X734700D01*
X743463D02*
X744606D01*
X677042Y1054394D02*
X684916D01*
X687964D02*
X689234D01*
X692028D02*
X693552D01*
X696473D02*
X697870D01*
X700791D02*
X704474D01*
X707776D02*
X712348D01*
X717555D02*
X728604D01*
X731398D02*
X734700D01*
X743463D02*
X744606D01*
X677042Y1054267D02*
X684916D01*
X687964D02*
X689107D01*
X691901D02*
X693552D01*
X696473D02*
X697870D01*
X700664D02*
X704474D01*
X707776D02*
X712348D01*
X717555D02*
X728604D01*
X731398D02*
X734700D01*
X743463D02*
X744606D01*
X677042Y1054140D02*
X684916D01*
X687964D02*
X689107D01*
X691901D02*
X693679D01*
X696473D02*
X697743D01*
X700664D02*
X704474D01*
X707776D02*
X712348D01*
X717555D02*
X728604D01*
X731398D02*
X734700D01*
X743463D02*
X744606D01*
X677042Y1054013D02*
X684916D01*
X687964D02*
X689107D01*
X691901D02*
X693679D01*
X696600D02*
X697743D01*
X700664D02*
X704474D01*
X707776D02*
X712348D01*
X717555D02*
X728604D01*
X731398D02*
X734700D01*
X743463D02*
X744606D01*
X677042Y1053886D02*
X685043D01*
X688091D02*
X689107D01*
X691901D02*
X693679D01*
X696600D02*
X697743D01*
X700664D02*
X704474D01*
X707776D02*
X712348D01*
X717555D02*
X728604D01*
X731398D02*
X734700D01*
X743463D02*
X744606D01*
X677042Y1053759D02*
X685043D01*
X688091D02*
X688980D01*
X691774D02*
X693679D01*
X696600D02*
X697743D01*
X700537D02*
X704474D01*
X707776D02*
X712348D01*
X717555D02*
X728604D01*
X731398D02*
X734700D01*
X743463D02*
X744606D01*
X677042Y1053632D02*
X685043D01*
X688091D02*
X688980D01*
X691774D02*
X693806D01*
X696727D02*
X697616D01*
X700537D02*
X704474D01*
X707776D02*
X712348D01*
X717555D02*
X728604D01*
X731398D02*
X734700D01*
X743463D02*
X744606D01*
X677042Y1053505D02*
X685043D01*
X688091D02*
X688980D01*
X691774D02*
X693806D01*
X696727D02*
X697616D01*
X700537D02*
X704474D01*
X707776D02*
X712348D01*
X717555D02*
X728604D01*
X731398D02*
X734700D01*
X743463D02*
X744606D01*
X677042Y1053378D02*
X685170D01*
X688218D02*
X688853D01*
X691647D02*
X693806D01*
X696727D02*
X697616D01*
X700537D02*
X704474D01*
X707776D02*
X712348D01*
X717555D02*
X728604D01*
X731398D02*
X734700D01*
X743463D02*
X744606D01*
X677042Y1053251D02*
X685170D01*
X688218D02*
X688853D01*
X691647D02*
X693933D01*
X696727D02*
X697616D01*
X700410D02*
X704474D01*
X707776D02*
X712348D01*
X717555D02*
X728604D01*
X731398D02*
X734700D01*
X743463D02*
X744606D01*
X677042Y1053124D02*
X685170D01*
X688218D02*
X688853D01*
X691647D02*
X693933D01*
X696854D02*
X697489D01*
X700410D02*
X704474D01*
X707776D02*
X712348D01*
X717555D02*
X728604D01*
X731398D02*
X734700D01*
X743463D02*
X744606D01*
X677042Y1052997D02*
X685170D01*
X688218D02*
X688726D01*
X691647D02*
X693933D01*
X696854D02*
X697489D01*
X700410D02*
X704474D01*
X707776D02*
X712348D01*
X717555D02*
X728604D01*
X731398D02*
X734700D01*
X743463D02*
X744606D01*
X677042Y1052870D02*
X685297D01*
X688218D02*
X688726D01*
X691520D02*
X693933D01*
X696854D02*
X697489D01*
X700410D02*
X704474D01*
X707776D02*
X712348D01*
X717555D02*
X728604D01*
X731398D02*
X734700D01*
X743463D02*
X744606D01*
X677042Y1052743D02*
X685297D01*
X688345D02*
X688726D01*
X691520D02*
X694060D01*
X696854D02*
X697489D01*
X700283D02*
X704474D01*
X707776D02*
X712348D01*
X717555D02*
X728604D01*
X731398D02*
X734700D01*
X743463D02*
X744606D01*
X677042Y1052616D02*
X685297D01*
X688345D02*
X688726D01*
X691520D02*
X694060D01*
X696981D02*
X697489D01*
X700283D02*
X704474D01*
X707776D02*
X712348D01*
X717555D02*
X728604D01*
X731398D02*
X734700D01*
X743463D02*
X744606D01*
X677042Y1052489D02*
X685424D01*
X688345D02*
X688599D01*
X691393D02*
X694060D01*
X696981D02*
X697362D01*
X700283D02*
X704474D01*
X707776D02*
X712348D01*
X717555D02*
X728604D01*
X731398D02*
X734700D01*
X743463D02*
X744606D01*
X677042Y1052362D02*
X685424D01*
X688345D02*
X688599D01*
X691393D02*
X694187D01*
X696981D02*
X697362D01*
X700156D02*
X704474D01*
X707776D02*
X712348D01*
X717555D02*
X720984D01*
X731398D02*
X734700D01*
X743463D02*
X744606D01*
X677042Y1052235D02*
X685424D01*
X688472D02*
X688599D01*
X691393D02*
X694187D01*
X697108D02*
X697362D01*
X700156D02*
X704474D01*
X707776D02*
X712348D01*
X717555D02*
X720984D01*
X731398D02*
X734700D01*
X743463D02*
X744606D01*
X677042Y1052108D02*
X685424D01*
X691393D02*
X694187D01*
X697108D02*
X697362D01*
X700156D02*
X704474D01*
X707776D02*
X712348D01*
X717555D02*
X720984D01*
X731398D02*
X734700D01*
X743463D02*
X744606D01*
X677042Y1051981D02*
X685551D01*
X691266D02*
X694187D01*
X697108D02*
X697235D01*
X700156D02*
X704474D01*
X707776D02*
X712348D01*
X717555D02*
X720984D01*
X731398D02*
X734700D01*
X743463D02*
X744606D01*
X677042Y1051854D02*
X685551D01*
X691266D02*
X694314D01*
X697108D02*
X697235D01*
X700029D02*
X704474D01*
X707776D02*
X712348D01*
X717555D02*
X720984D01*
X731398D02*
X734700D01*
X743463D02*
X744606D01*
X677042Y1051727D02*
X685551D01*
X691266D02*
X694314D01*
X700029D02*
X704474D01*
X707776D02*
X712348D01*
X717555D02*
X720984D01*
X731398D02*
X734700D01*
X743463D02*
X744606D01*
X677042Y1051600D02*
X685551D01*
X691139D02*
X694314D01*
X700029D02*
X704474D01*
X707776D02*
X712348D01*
X717555D02*
X720984D01*
X731398D02*
X734700D01*
X743463D02*
X744606D01*
X677042Y1051473D02*
X685678D01*
X691139D02*
X694441D01*
X700029D02*
X704474D01*
X707776D02*
X712348D01*
X717555D02*
X720984D01*
X731398D02*
X734700D01*
X743463D02*
X744606D01*
X677042Y1051346D02*
X685678D01*
X691139D02*
X694441D01*
X699902D02*
X704474D01*
X707776D02*
X712348D01*
X717555D02*
X720984D01*
X731398D02*
X734700D01*
X743463D02*
X744606D01*
X677042Y1051219D02*
X685678D01*
X691012D02*
X694441D01*
X699902D02*
X704474D01*
X707776D02*
X712348D01*
X717555D02*
X720984D01*
X731398D02*
X734700D01*
X743463D02*
X744606D01*
X677042Y1051092D02*
X685805D01*
X691012D02*
X694568D01*
X699902D02*
X704474D01*
X707776D02*
X712348D01*
X717555D02*
X720984D01*
X731398D02*
X734700D01*
X743463D02*
X744606D01*
X677042Y1050965D02*
X685805D01*
X691012D02*
X694568D01*
X699902D02*
X704474D01*
X707776D02*
X712348D01*
X717555D02*
X720984D01*
X731398D02*
X734700D01*
X743463D02*
X744606D01*
X677042Y1050838D02*
X685805D01*
X691012D02*
X694568D01*
X699775D02*
X704474D01*
X707776D02*
X712348D01*
X717555D02*
X720984D01*
X731398D02*
X734700D01*
X743463D02*
X744606D01*
X677042Y1050711D02*
X685805D01*
X690885D02*
X694568D01*
X699775D02*
X704474D01*
X707776D02*
X712348D01*
X717555D02*
X720984D01*
X731398D02*
X734700D01*
X743463D02*
X744606D01*
X677042Y1050584D02*
X685932D01*
X690885D02*
X694695D01*
X699775D02*
X704474D01*
X707776D02*
X712348D01*
X717555D02*
X720984D01*
X731398D02*
X734700D01*
X743463D02*
X744606D01*
X677042Y1050457D02*
X685932D01*
X690885D02*
X694695D01*
X699775D02*
X704474D01*
X707776D02*
X712348D01*
X717555D02*
X720984D01*
X731398D02*
X734700D01*
X743463D02*
X744606D01*
X677042Y1050330D02*
X685932D01*
X690758D02*
X694695D01*
X699648D02*
X704474D01*
X707776D02*
X712348D01*
X717555D02*
X720984D01*
X731398D02*
X734700D01*
X743463D02*
X744606D01*
X677042Y1050203D02*
X685932D01*
X690758D02*
X694695D01*
X699648D02*
X704474D01*
X707776D02*
X712348D01*
X717555D02*
X720984D01*
X731398D02*
X734700D01*
X743463D02*
X744606D01*
X677042Y1050076D02*
X686059D01*
X690758D02*
X694822D01*
X699648D02*
X704474D01*
X707776D02*
X712348D01*
X717555D02*
X720984D01*
X731398D02*
X734700D01*
X743463D02*
X744606D01*
X677042Y1049949D02*
X686059D01*
X690758D02*
X694822D01*
X699521D02*
X704474D01*
X707776D02*
X712348D01*
X717555D02*
X720984D01*
X731398D02*
X734700D01*
X743463D02*
X744606D01*
X677042Y1049822D02*
X686059D01*
X690631D02*
X694822D01*
X699521D02*
X704474D01*
X707776D02*
X712348D01*
X717555D02*
X720984D01*
X731398D02*
X734700D01*
X743463D02*
X744606D01*
X677042Y1049695D02*
X686059D01*
X690631D02*
X694949D01*
X699521D02*
X704474D01*
X707776D02*
X712348D01*
X717555D02*
X720984D01*
X731398D02*
X734700D01*
X743463D02*
X744606D01*
X677042Y1049568D02*
X686186D01*
X690631D02*
X694949D01*
X699521D02*
X704474D01*
X707776D02*
X712348D01*
X717555D02*
X720984D01*
X731398D02*
X734700D01*
X743463D02*
X744606D01*
X677042Y1049441D02*
X686186D01*
X690504D02*
X694949D01*
X699394D02*
X704474D01*
X707776D02*
X712348D01*
X717555D02*
X720984D01*
X731398D02*
X734700D01*
X743463D02*
X744606D01*
X677169Y1049314D02*
X686186D01*
X690504D02*
X694949D01*
X699394D02*
X704474D01*
X707776D02*
X712348D01*
X717555D02*
X720984D01*
X731398D02*
X734700D01*
X743463D02*
X744479D01*
X677169Y1049187D02*
X686313D01*
X690504D02*
X695076D01*
X699394D02*
X704474D01*
X707776D02*
X712221D01*
X717555D02*
X720984D01*
X731398D02*
X734700D01*
X743463D02*
X744479D01*
X677169Y1049060D02*
X686313D01*
X690504D02*
X695076D01*
X699394D02*
X704474D01*
X707776D02*
X712221D01*
X717555D02*
X720984D01*
X731398D02*
X734700D01*
X743463D02*
X744479D01*
X677169Y1048933D02*
X686313D01*
X690377D02*
X695076D01*
X699267D02*
X704474D01*
X707776D02*
X712221D01*
X717555D02*
X720984D01*
X731398D02*
X734700D01*
X743463D02*
X744479D01*
X677169Y1048806D02*
X686313D01*
X690377D02*
X695203D01*
X699267D02*
X704474D01*
X707776D02*
X712221D01*
X717555D02*
X720984D01*
X731398D02*
X734700D01*
X743336D02*
X744479D01*
X677169Y1048679D02*
X686440D01*
X690377D02*
X695203D01*
X699267D02*
X704474D01*
X707776D02*
X712221D01*
X717555D02*
X720984D01*
X731398D02*
X734700D01*
X743336D02*
X744479D01*
X677169Y1048552D02*
X686440D01*
X690250D02*
X695203D01*
X699267D02*
X704474D01*
X707776D02*
X712221D01*
X717555D02*
X720984D01*
X731398D02*
X734700D01*
X743336D02*
X744352D01*
X677296Y1048425D02*
X686440D01*
X690250D02*
X695330D01*
X699140D02*
X704474D01*
X707776D02*
X712221D01*
X717555D02*
X720984D01*
X731398D02*
X734700D01*
X743336D02*
X744352D01*
X677296Y1048298D02*
X686440D01*
X690250D02*
X695330D01*
X699140D02*
X704474D01*
X707776D02*
X712221D01*
X717555D02*
X720984D01*
X731398D02*
X734700D01*
X743336D02*
X744352D01*
X677296Y1048171D02*
X686567D01*
X690250D02*
X695330D01*
X699140D02*
X704474D01*
X707776D02*
X712094D01*
X717555D02*
X720984D01*
X731398D02*
X734700D01*
X743209D02*
X744352D01*
X677296Y1048044D02*
X686567D01*
X690123D02*
X695330D01*
X699140D02*
X704474D01*
X707776D02*
X712094D01*
X717555D02*
X720984D01*
X731398D02*
X734700D01*
X743209D02*
X744352D01*
X677296Y1047917D02*
X686567D01*
X690123D02*
X695457D01*
X699013D02*
X704474D01*
X707776D02*
X712094D01*
X717555D02*
X720984D01*
X731398D02*
X734700D01*
X743209D02*
X744225D01*
X677423Y1047790D02*
X686567D01*
X690123D02*
X695457D01*
X699013D02*
X704474D01*
X707776D02*
X712094D01*
X717555D02*
X720984D01*
X731398D02*
X734700D01*
X743209D02*
X744225D01*
X677423Y1047663D02*
X686694D01*
X689996D02*
X695457D01*
X699013D02*
X704474D01*
X707776D02*
X712094D01*
X717555D02*
X720984D01*
X731398D02*
X734700D01*
X743082D02*
X744225D01*
X677423Y1047536D02*
X686694D01*
X689996D02*
X695584D01*
X698886D02*
X704474D01*
X707776D02*
X711967D01*
X717555D02*
X720984D01*
X731398D02*
X734700D01*
X743082D02*
X744225D01*
X677550Y1047409D02*
X686694D01*
X689996D02*
X695584D01*
X698886D02*
X704474D01*
X707776D02*
X711967D01*
X717555D02*
X720984D01*
X731398D02*
X734700D01*
X743082D02*
X744098D01*
X677550Y1047282D02*
X686821D01*
X689996D02*
X695584D01*
X698886D02*
X704474D01*
X707776D02*
X711967D01*
X717555D02*
X720984D01*
X731398D02*
X734700D01*
X742955D02*
X744098D01*
X677550Y1047155D02*
X686821D01*
X689869D02*
X695584D01*
X698886D02*
X704474D01*
X707776D02*
X711967D01*
X717555D02*
X720984D01*
X731398D02*
X734700D01*
X742955D02*
X744098D01*
X677550Y1047028D02*
X686821D01*
X689869D02*
X695711D01*
X698759D02*
X704601D01*
X707776D02*
X711840D01*
X717555D02*
X720984D01*
X731398D02*
X734700D01*
X742955D02*
X743971D01*
X677677Y1046901D02*
X686821D01*
X689869D02*
X695711D01*
X698759D02*
X704601D01*
X707776D02*
X711840D01*
X717555D02*
X720984D01*
X731398D02*
X734700D01*
X742828D02*
X743971D01*
X677677Y1046774D02*
X686948D01*
X689742D02*
X695711D01*
X698759D02*
X704474D01*
X707776D02*
X711840D01*
X717555D02*
X720984D01*
X731398D02*
X734700D01*
X742828D02*
X743971D01*
X677804Y1046647D02*
X686948D01*
X689742D02*
X695838D01*
X698759D02*
X704474D01*
X707776D02*
X711840D01*
X717555D02*
X720984D01*
X731398D02*
X734700D01*
X742828D02*
X743844D01*
X677804Y1046520D02*
X686948D01*
X689742D02*
X695838D01*
X698632D02*
X704474D01*
X707776D02*
X711713D01*
X717555D02*
X720984D01*
X731398D02*
X734700D01*
X742701D02*
X743844D01*
X677804Y1046393D02*
X687075D01*
X687329D02*
X687456D01*
X689488D02*
X695838D01*
X696092D02*
X696219D01*
X696346D02*
X696600D01*
X698632D02*
X704601D01*
X707776D02*
X711713D01*
X717809D02*
X720984D01*
X731652D02*
X731906D01*
X732160D02*
X734192D01*
X734573D02*
X734700D01*
X742701D02*
X743844D01*
X677931Y1046266D02*
X711713D01*
X742574D02*
X743717D01*
X677931Y1046139D02*
X711586D01*
X742574D02*
X743717D01*
X678058Y1046012D02*
X711586D01*
X742447D02*
X743590D01*
X678058Y1045885D02*
X711586D01*
X742447D02*
X743590D01*
X678058Y1045758D02*
X711459D01*
X742320D02*
X743463D01*
X678185Y1045631D02*
X711459D01*
X742320D02*
X743463D01*
X678185Y1045504D02*
X711332D01*
X742193D02*
X743336D01*
X678312Y1045377D02*
X711332D01*
X742193D02*
X743336D01*
X678312Y1045250D02*
X711332D01*
X742066D02*
X743209D01*
X678439Y1045123D02*
X711205D01*
X742066D02*
X743209D01*
X678566Y1044996D02*
X711205D01*
X741939D02*
X743082D01*
X678566Y1044869D02*
X711078D01*
X741812D02*
X743082D01*
X678693Y1044742D02*
X711078D01*
X741812D02*
X742955D01*
X678693Y1044615D02*
X710951D01*
X741685D02*
X742955D01*
X678820Y1044488D02*
X710951D01*
X741558D02*
X742828D01*
X678947Y1044361D02*
X710824D01*
X741431D02*
X742701D01*
X678947Y1044234D02*
X710824D01*
X741431D02*
X742701D01*
X679074Y1044107D02*
X710697D01*
X741304D02*
X742574D01*
X679201Y1043980D02*
X710697D01*
X741177D02*
X742447D01*
X679328Y1043853D02*
X710570D01*
X741050D02*
X742320D01*
X679328Y1043726D02*
X710443D01*
X740923D02*
X742320D01*
X679455Y1043599D02*
X710443D01*
X740796D02*
X742193D01*
X679582Y1043472D02*
X710316D01*
X740796D02*
X742066D01*
X679709Y1043345D02*
X710189D01*
X740669D02*
X741939D01*
X679709Y1043218D02*
X710189D01*
X740542D02*
X741812D01*
X679836Y1043091D02*
X710062D01*
X740415D02*
X741812D01*
X679963Y1042964D02*
X709935D01*
X740161D02*
X741685D01*
X680090Y1042837D02*
X709935D01*
X740034D02*
X741558D01*
X680217Y1042710D02*
X709808D01*
X739907D02*
X741431D01*
X680344Y1042583D02*
X709681D01*
X739780D02*
X741304D01*
X680471Y1042456D02*
X709554D01*
X739653D02*
X741177D01*
X680598Y1042329D02*
X709427D01*
X739399D02*
X741050D01*
X680725Y1042202D02*
X709427D01*
X739272D02*
X740923D01*
X680852Y1042075D02*
X709300D01*
X739145D02*
X740796D01*
X681106Y1041948D02*
X709173D01*
X738891D02*
X740542D01*
X681233Y1041821D02*
X709046D01*
X738764D02*
X740415D01*
X681360Y1041694D02*
X708919D01*
X738510D02*
X740288D01*
X681487Y1041567D02*
X708792D01*
X738256D02*
X740161D01*
X681614Y1041440D02*
X708665D01*
X738002D02*
X739907D01*
X681868Y1041313D02*
X708538D01*
X737748D02*
X739780D01*
X681995Y1041186D02*
X708411D01*
X737494D02*
X739653D01*
X682249Y1041059D02*
X708284D01*
X737240D02*
X739399D01*
X682376Y1040932D02*
X708157D01*
X736859D02*
X739272D01*
X682630Y1040805D02*
X708030D01*
X736478D02*
X739018D01*
X682884Y1040678D02*
X707903D01*
X736097D02*
X738764D01*
X683138Y1040551D02*
X707649D01*
X735462D02*
X738510D01*
X683392Y1040424D02*
X707522D01*
X734573D02*
X738256D01*
X683646Y1040297D02*
X738002D01*
X683900Y1040170D02*
X737748D01*
X684154Y1040043D02*
X737494D01*
X684535Y1039916D02*
X737113D01*
X684916Y1039789D02*
X736732D01*
X685297Y1039662D02*
X736351D01*
X685805Y1039535D02*
X735843D01*
X686440Y1039408D02*
X735335D01*
X687329Y1039281D02*
X734319D01*
M02*
