G04 Layer_Color=16711935*
%FSLAX25Y25*%
%MOIN*%
G70*
G01*
G75*
%ADD62C,0.00394*%
%ADD63C,0.00200*%
D62*
X598228Y319587D02*
Y325295D01*
X606890Y319587D02*
Y325295D01*
X598228D02*
X606890D01*
X598228Y319587D02*
X606890D01*
X428740Y161319D02*
Y167028D01*
X437402Y161319D02*
Y167028D01*
X428740D02*
X437402D01*
X428740Y161319D02*
X437402D01*
X427953Y125492D02*
Y131201D01*
X436614Y125492D02*
Y131201D01*
X427953D02*
X436614D01*
X427953Y125492D02*
X436614D01*
X197638Y419882D02*
Y425591D01*
X206299Y419882D02*
Y425591D01*
X197638D02*
X206299D01*
X197638Y419882D02*
X206299D01*
X197047Y410532D02*
Y416240D01*
X205709Y410532D02*
Y416240D01*
X197047D02*
X205709D01*
X197047Y410532D02*
X205709D01*
X221850Y419882D02*
Y425591D01*
X213189Y419882D02*
Y425591D01*
Y419882D02*
X221850D01*
X213189Y425591D02*
X221850D01*
X222047Y410138D02*
Y415846D01*
X213386Y410138D02*
Y415846D01*
Y410138D02*
X222047D01*
X213386Y415846D02*
X222047D01*
X255906Y420374D02*
Y426083D01*
X264567Y420374D02*
Y426083D01*
X255906D02*
X264567D01*
X255906Y420374D02*
X264567D01*
X255512Y411319D02*
Y417028D01*
X264173Y411319D02*
Y417028D01*
X255512D02*
X264173D01*
X255512Y411319D02*
X264173D01*
X277559Y410138D02*
Y415846D01*
X268898Y410138D02*
Y415846D01*
Y410138D02*
X277559D01*
X268898Y415846D02*
X277559D01*
Y420374D02*
Y426083D01*
X268898Y420374D02*
Y426083D01*
Y420374D02*
X277559D01*
X268898Y426083D02*
X277559D01*
X398031Y448720D02*
Y454429D01*
X389370Y448720D02*
Y454429D01*
Y448720D02*
X398031D01*
X389370Y454429D02*
X398031D01*
X398425Y462894D02*
Y468602D01*
X389764Y462894D02*
Y468602D01*
Y462894D02*
X398425D01*
X389764Y468602D02*
X398425D01*
X396457Y337303D02*
Y343012D01*
X405118Y337303D02*
Y343012D01*
X396457D02*
X405118D01*
X396457Y337303D02*
X405118D01*
X396850Y328642D02*
Y334350D01*
X405512Y328642D02*
Y334350D01*
X396850D02*
X405512D01*
X396850Y328642D02*
X405512D01*
X396457Y379429D02*
Y385138D01*
X405118Y379429D02*
Y385138D01*
X396457D02*
X405118D01*
X396457Y379429D02*
X405118D01*
X396850Y387697D02*
Y393406D01*
X405512Y387697D02*
Y393406D01*
X396850D02*
X405512D01*
X396850Y387697D02*
X405512D01*
X273917Y257677D02*
X279626D01*
X273917Y249016D02*
X279626D01*
Y257677D01*
X273917Y249016D02*
Y257677D01*
X264075Y257480D02*
X269783D01*
X264075Y248819D02*
X269783D01*
Y257480D01*
X264075Y248819D02*
Y257480D01*
X248819Y280610D02*
Y286319D01*
X240158Y280610D02*
Y286319D01*
Y280610D02*
X248819D01*
X240158Y286319D02*
X248819D01*
X249213Y271161D02*
Y276870D01*
X240551Y271161D02*
Y276870D01*
Y271161D02*
X249213D01*
X240551Y276870D02*
X249213D01*
X428248Y199606D02*
X433957D01*
X428248Y190945D02*
X433957D01*
Y199606D01*
X428248Y190945D02*
Y199606D01*
X437303D02*
X443012D01*
X437303Y190945D02*
X443012D01*
Y199606D01*
X437303Y190945D02*
Y199606D01*
X447933D02*
X453642D01*
X447933Y190945D02*
X453642D01*
Y199606D01*
X447933Y190945D02*
Y199606D01*
X456988Y200197D02*
X462697D01*
X456988Y191535D02*
X462697D01*
Y200197D01*
X456988Y191535D02*
Y200197D01*
X286516Y172047D02*
X292224D01*
X286516Y163386D02*
X292224D01*
Y172047D01*
X286516Y163386D02*
Y172047D01*
X295177D02*
X300886D01*
X295177Y163386D02*
X300886D01*
Y172047D01*
X295177Y163386D02*
Y172047D01*
X276279Y171850D02*
X281988D01*
X276279Y163189D02*
X281988D01*
Y171850D01*
X276279Y163189D02*
Y171850D01*
X267618D02*
X273327D01*
X267618Y163189D02*
X273327D01*
Y171850D01*
X267618Y163189D02*
Y171850D01*
X639272Y314961D02*
X644980D01*
X639272Y306299D02*
X644980D01*
Y314961D01*
X639272Y306299D02*
Y314961D01*
X631398D02*
X637106D01*
X631398Y306299D02*
X637106D01*
Y314961D01*
X631398Y306299D02*
Y314961D01*
X598032Y283760D02*
Y289469D01*
X606693Y283760D02*
Y289469D01*
X598032D02*
X606693D01*
X598032Y283760D02*
X606693D01*
X491634Y325000D02*
X497342D01*
X491634Y316339D02*
X497342D01*
Y325000D01*
X491634Y316339D02*
Y325000D01*
X481791Y325984D02*
X487500D01*
X481791Y317323D02*
X487500D01*
Y325984D01*
X481791Y317323D02*
Y325984D01*
X471949Y325787D02*
X477658D01*
X471949Y317126D02*
X477658D01*
Y325787D01*
X471949Y317126D02*
Y325787D01*
X460925D02*
X466634D01*
X460925Y317126D02*
X466634D01*
Y325787D01*
X460925Y317126D02*
Y325787D01*
X582874Y431791D02*
Y437500D01*
X591535Y431791D02*
Y437500D01*
X582874D02*
X591535D01*
X582874Y431791D02*
X591535D01*
X576772Y349508D02*
Y355217D01*
X585433Y349508D02*
Y355217D01*
X576772D02*
X585433D01*
X576772Y349508D02*
X585433D01*
X581102Y399508D02*
Y405217D01*
X589764Y399508D02*
Y405217D01*
X581102D02*
X589764D01*
X581102Y399508D02*
X589764D01*
X557283Y482579D02*
Y488287D01*
X565945Y482579D02*
Y488287D01*
X557283D02*
X565945D01*
X557283Y482579D02*
X565945D01*
X557677Y490453D02*
Y496161D01*
X566339Y490453D02*
Y496161D01*
X557677D02*
X566339D01*
X557677Y490453D02*
X566339D01*
X582283Y440846D02*
Y446555D01*
X590945Y440846D02*
Y446555D01*
X582283D02*
X590945D01*
X582283Y440846D02*
X590945D01*
X581299Y408563D02*
Y414272D01*
X589961Y408563D02*
Y414272D01*
X581299D02*
X589961D01*
X581299Y408563D02*
X589961D01*
X577362Y359350D02*
Y365059D01*
X586024Y359350D02*
Y365059D01*
X577362D02*
X586024D01*
X577362Y359350D02*
X586024D01*
D63*
X353412Y500541D02*
X410908D01*
X355078Y519637D02*
X354912Y519804D01*
X354578D01*
X354412Y519637D01*
Y518971D01*
X354578Y518804D01*
X354912D01*
X355078Y518971D01*
X355412Y519804D02*
Y518971D01*
X355578Y518804D01*
X355911D01*
X356078Y518971D01*
Y519804D01*
X356411D02*
X357078D01*
X356744D01*
Y518804D01*
X357911Y519804D02*
X357577D01*
X357411Y519637D01*
Y518971D01*
X357577Y518804D01*
X357911D01*
X358077Y518971D01*
Y519637D01*
X357911Y519804D01*
X358411D02*
Y518971D01*
X358577Y518804D01*
X358910D01*
X359077Y518971D01*
Y519804D01*
X359410D02*
X360077D01*
X359743D01*
Y518804D01*
X361410D02*
Y519804D01*
X361909D01*
X362076Y519637D01*
Y519304D01*
X361909Y519137D01*
X361410D01*
X362909Y519804D02*
X362576D01*
X362409Y519637D01*
Y518971D01*
X362576Y518804D01*
X362909D01*
X363076Y518971D01*
Y519637D01*
X362909Y519804D01*
X363409D02*
Y518804D01*
X364075D01*
X364409Y519804D02*
Y519637D01*
X364742Y519304D01*
X365075Y519637D01*
Y519804D01*
X364742Y519304D02*
Y518804D01*
X366075Y519637D02*
X365908Y519804D01*
X365575D01*
X365408Y519637D01*
Y518971D01*
X365575Y518804D01*
X365908D01*
X366075Y518971D01*
Y519304D01*
X365741D01*
X366908Y519804D02*
X366575D01*
X366408Y519637D01*
Y518971D01*
X366575Y518804D01*
X366908D01*
X367074Y518971D01*
Y519637D01*
X366908Y519804D01*
X367408Y518804D02*
Y519804D01*
X368074Y518804D01*
Y519804D01*
X354412Y520804D02*
Y521470D01*
X354745Y521804D01*
X355078Y521470D01*
Y520804D01*
Y521304D01*
X354412D01*
X355412Y520804D02*
Y521804D01*
X356078Y520804D01*
Y521804D01*
X356411D02*
X357078D01*
X356744D01*
Y520804D01*
X358077Y521804D02*
X357411D01*
Y520804D01*
X358077D01*
X357411Y521304D02*
X357744D01*
X358411Y520804D02*
Y521804D01*
X359077Y520804D01*
Y521804D01*
X359410Y520804D02*
Y521804D01*
X360077Y520804D01*
Y521804D01*
X360410Y520804D02*
Y521470D01*
X360743Y521804D01*
X361076Y521470D01*
Y520804D01*
Y521304D01*
X360410D01*
X362409Y520804D02*
Y521470D01*
X362742Y521804D01*
X363076Y521470D01*
Y520804D01*
Y521304D01*
X362409D01*
X363409Y520804D02*
Y521804D01*
X363909D01*
X364075Y521637D01*
Y521304D01*
X363909Y521137D01*
X363409D01*
X363742D02*
X364075Y520804D01*
X365075Y521804D02*
X364409D01*
Y520804D01*
X365075D01*
X364409Y521304D02*
X364742D01*
X365408Y520804D02*
Y521470D01*
X365741Y521804D01*
X366075Y521470D01*
Y520804D01*
Y521304D01*
X365408D01*
M02*
