G04 Layer_Color=16711935*
%FSLAX44Y44*%
%MOMM*%
G71*
G01*
G75*
%ADD55C,1.7272*%
%ADD56R,1.7272X1.7272*%
%ADD57O,2.7032X1.7272*%
%ADD58O,2.7032X1.7032*%
%ADD59O,1.7272X2.7032*%
%ADD60R,1.7272X2.7032*%
%ADD61R,2.7032X1.7272*%
%ADD62R,3.1032X2.1032*%
%ADD63O,3.1032X2.1032*%
%ADD64C,0.8382*%
%ADD65C,1.4732*%
D55*
X1156500Y947500D02*
D03*
X1119500D02*
D03*
X1083500D02*
D03*
X1074600Y417900D02*
D03*
X1049200D02*
D03*
X1100000Y392500D02*
D03*
X1074600D02*
D03*
X1049200D02*
D03*
X247500Y870000D02*
D03*
X299000D02*
D03*
X273250D02*
D03*
X751200Y854600D02*
D03*
X725546D02*
D03*
Y880000D02*
D03*
X699638Y854854D02*
D03*
X700400Y880000D02*
D03*
X675000Y854854D02*
D03*
Y880000D02*
D03*
X567100Y62500D02*
D03*
X592500D02*
D03*
X617900D02*
D03*
X567100Y87900D02*
D03*
X592500D02*
D03*
X1083500Y872500D02*
D03*
X1119500D02*
D03*
X1156500D02*
D03*
Y797500D02*
D03*
X1119500D02*
D03*
X1083500D02*
D03*
Y722500D02*
D03*
X1119500D02*
D03*
X1156500D02*
D03*
X1732500Y1012500D02*
D03*
X1727500Y25000D02*
D03*
X22000Y33500D02*
D03*
X32500Y997500D02*
D03*
X391000Y882500D02*
D03*
X442500D02*
D03*
X416750D02*
D03*
D56*
X1047500Y947500D02*
D03*
X1100000Y417900D02*
D03*
X750946Y880254D02*
D03*
X617900Y87900D02*
D03*
X1047500Y872500D02*
D03*
Y797500D02*
D03*
Y722500D02*
D03*
D57*
X1725000Y542900D02*
D03*
Y517500D02*
D03*
Y568300D02*
D03*
X986000Y279500D02*
D03*
Y254100D02*
D03*
X775000Y261900D02*
D03*
Y236500D02*
D03*
D58*
X1725000Y492100D02*
D03*
D59*
X228700Y969500D02*
D03*
X291000D02*
D03*
X388300Y972500D02*
D03*
D60*
X203300Y969500D02*
D03*
X316400D02*
D03*
X413700Y972500D02*
D03*
D61*
X986000Y304900D02*
D03*
X775000Y287300D02*
D03*
D62*
X110000Y363500D02*
D03*
X113000Y543500D02*
D03*
X110501Y820000D02*
D03*
D63*
X110000Y413500D02*
D03*
X113000Y593500D02*
D03*
X110501Y870000D02*
D03*
D64*
X805000Y642500D02*
D03*
X567500Y110000D02*
D03*
X547750Y100000D02*
D03*
X1582500Y550000D02*
D03*
X910000Y585000D02*
D03*
X1035000Y615000D02*
D03*
X1120000Y605000D02*
D03*
X1070000Y642500D02*
D03*
X1110000Y682500D02*
D03*
X1018500Y588500D02*
D03*
X1010000Y597500D02*
D03*
X1082500Y702500D02*
D03*
X982000Y682000D02*
D03*
Y652500D02*
D03*
X1040000Y490000D02*
D03*
X1075000D02*
D03*
X482000Y397500D02*
D03*
X1230000Y638500D02*
D03*
X979000Y710500D02*
D03*
X979500Y858500D02*
D03*
X964500Y962000D02*
D03*
X906000Y566500D02*
D03*
X943000Y536500D02*
D03*
X754000Y659500D02*
D03*
X790000Y678500D02*
D03*
X821000Y527500D02*
D03*
X1128000Y489500D02*
D03*
X1126000Y577500D02*
D03*
X1078000Y595500D02*
D03*
X1088997Y528498D02*
D03*
X1120000Y522500D02*
D03*
X1116000Y465500D02*
D03*
X703998Y316499D02*
D03*
X680000Y265500D02*
D03*
X594000Y162500D02*
D03*
X1106000Y476500D02*
D03*
X697000Y322500D02*
D03*
X670000Y265500D02*
D03*
X584000Y170500D02*
D03*
X748998Y599498D02*
D03*
X748000Y586500D02*
D03*
X1100000Y486500D02*
D03*
X1131000Y524500D02*
D03*
X763000Y691500D02*
D03*
X701000Y661500D02*
D03*
X1131000Y533500D02*
D03*
X1079997Y522499D02*
D03*
X1297000Y577500D02*
D03*
X1163000Y556500D02*
D03*
X1092000Y636500D02*
D03*
X608000Y277500D02*
D03*
X419000Y175500D02*
D03*
X617000Y259500D02*
D03*
X592000Y277497D02*
D03*
X441999Y427499D02*
D03*
X437250Y419250D02*
D03*
X502000Y302500D02*
D03*
X461250Y306500D02*
D03*
X404750Y399750D02*
D03*
X505250Y325500D02*
D03*
X538000Y274500D02*
D03*
X399750Y412750D02*
D03*
X530250Y237500D02*
D03*
X359500Y491000D02*
D03*
X461000Y394500D02*
D03*
X299250Y380250D02*
D03*
X772500Y762000D02*
D03*
X592000Y870500D02*
D03*
X413000Y786500D02*
D03*
D65*
X449000Y599500D02*
D03*
X727000Y188500D02*
D03*
M02*
