G04 Layer_Physical_Order=1*
G04 Layer_Color=255*
%FSLAX44Y44*%
%MOMM*%
G71*
G01*
G75*
G04:AMPARAMS|DCode=10|XSize=1.05mm|YSize=1.7mm|CornerRadius=0.2625mm|HoleSize=0mm|Usage=FLASHONLY|Rotation=0.000|XOffset=0mm|YOffset=0mm|HoleType=Round|Shape=RoundedRectangle|*
%AMROUNDEDRECTD10*
21,1,1.0500,1.1750,0,0,0.0*
21,1,0.5250,1.7000,0,0,0.0*
1,1,0.5250,0.2625,-0.5875*
1,1,0.5250,-0.2625,-0.5875*
1,1,0.5250,-0.2625,0.5875*
1,1,0.5250,0.2625,0.5875*
%
%ADD10ROUNDEDRECTD10*%
%ADD11R,1.0500X1.7000*%
%ADD12O,0.6000X1.6500*%
%ADD13O,1.6500X0.6000*%
G04:AMPARAMS|DCode=14|XSize=0.6mm|YSize=1.65mm|CornerRadius=0.15mm|HoleSize=0mm|Usage=FLASHONLY|Rotation=180.000|XOffset=0mm|YOffset=0mm|HoleType=Round|Shape=RoundedRectangle|*
%AMROUNDEDRECTD14*
21,1,0.6000,1.3500,0,0,180.0*
21,1,0.3000,1.6500,0,0,180.0*
1,1,0.3000,-0.1500,0.6750*
1,1,0.3000,0.1500,0.6750*
1,1,0.3000,0.1500,-0.6750*
1,1,0.3000,-0.1500,-0.6750*
%
%ADD14ROUNDEDRECTD14*%
%ADD15R,1.5000X5.5000*%
%ADD16O,1.4000X0.4000*%
G04:AMPARAMS|DCode=17|XSize=0.4mm|YSize=1.4mm|CornerRadius=0.1mm|HoleSize=0mm|Usage=FLASHONLY|Rotation=90.000|XOffset=0mm|YOffset=0mm|HoleType=Round|Shape=RoundedRectangle|*
%AMROUNDEDRECTD17*
21,1,0.4000,1.2000,0,0,90.0*
21,1,0.2000,1.4000,0,0,90.0*
1,1,0.2000,0.6000,0.1000*
1,1,0.2000,0.6000,-0.1000*
1,1,0.2000,-0.6000,-0.1000*
1,1,0.2000,-0.6000,0.1000*
%
%ADD17ROUNDEDRECTD17*%
%ADD18R,0.2500X1.5500*%
G04:AMPARAMS|DCode=19|XSize=0.25mm|YSize=1.55mm|CornerRadius=0.0625mm|HoleSize=0mm|Usage=FLASHONLY|Rotation=180.000|XOffset=0mm|YOffset=0mm|HoleType=Round|Shape=RoundedRectangle|*
%AMROUNDEDRECTD19*
21,1,0.2500,1.4250,0,0,180.0*
21,1,0.1250,1.5500,0,0,180.0*
1,1,0.1250,-0.0625,0.7125*
1,1,0.1250,0.0625,0.7125*
1,1,0.1250,0.0625,-0.7125*
1,1,0.1250,-0.0625,-0.7125*
%
%ADD19ROUNDEDRECTD19*%
%ADD20R,1.1000X1.4000*%
%ADD21R,1.4000X1.1000*%
%ADD22C,0.1524*%
%ADD23C,0.5000*%
%ADD24C,0.2500*%
%ADD25C,1.0000*%
%ADD26C,3.0000*%
%ADD27C,2.0000*%
%ADD28C,1.5240*%
%ADD29R,1.5240X1.5240*%
%ADD30O,2.5000X1.5240*%
%ADD31O,2.5000X1.5000*%
%ADD32O,1.5240X2.5000*%
%ADD33R,1.5240X2.5000*%
%ADD34R,2.5000X1.5240*%
%ADD35R,2.9000X1.9000*%
%ADD36O,2.9000X1.9000*%
%ADD37C,0.6350*%
%ADD38C,1.2700*%
D10*
X172500Y870000D02*
D03*
X331500Y872500D02*
D03*
D11*
X193500Y870000D02*
D03*
X352500Y872500D02*
D03*
D12*
X585000Y129250D02*
D03*
X593000D02*
D03*
X601000D02*
D03*
X609000D02*
D03*
X617000D02*
D03*
X625000D02*
D03*
X633000D02*
D03*
X641000D02*
D03*
X649000D02*
D03*
X657000D02*
D03*
Y245750D02*
D03*
X649000D02*
D03*
X641000D02*
D03*
X633000D02*
D03*
X625000D02*
D03*
X617000D02*
D03*
X609000D02*
D03*
X601000D02*
D03*
X593000D02*
D03*
X585000D02*
D03*
X577000D02*
D03*
X1060000Y506250D02*
D03*
X1068000D02*
D03*
X1076000D02*
D03*
X1084000D02*
D03*
X1092000D02*
D03*
X1100000D02*
D03*
X1108000D02*
D03*
X1116000D02*
D03*
X1124000D02*
D03*
X1132000D02*
D03*
Y622750D02*
D03*
X1124000D02*
D03*
X1116000D02*
D03*
X1108000D02*
D03*
X1100000D02*
D03*
X1092000D02*
D03*
X1084000D02*
D03*
X1076000D02*
D03*
X1068000D02*
D03*
X1060000D02*
D03*
X1052000D02*
D03*
D13*
X675250Y147500D02*
D03*
Y155500D02*
D03*
Y163500D02*
D03*
Y171500D02*
D03*
Y179500D02*
D03*
Y187500D02*
D03*
Y195500D02*
D03*
Y203500D02*
D03*
Y211500D02*
D03*
Y219500D02*
D03*
Y227500D02*
D03*
X558750D02*
D03*
Y219500D02*
D03*
Y211500D02*
D03*
Y203500D02*
D03*
Y195500D02*
D03*
Y187500D02*
D03*
Y179500D02*
D03*
Y171500D02*
D03*
Y163500D02*
D03*
Y155500D02*
D03*
Y147500D02*
D03*
X1150250Y524500D02*
D03*
Y532500D02*
D03*
Y540500D02*
D03*
Y548500D02*
D03*
Y556500D02*
D03*
Y564500D02*
D03*
Y572500D02*
D03*
Y580500D02*
D03*
Y588500D02*
D03*
Y596500D02*
D03*
Y604500D02*
D03*
X1033750D02*
D03*
Y596500D02*
D03*
Y588500D02*
D03*
Y580500D02*
D03*
Y572500D02*
D03*
Y564500D02*
D03*
Y556500D02*
D03*
Y548500D02*
D03*
Y540500D02*
D03*
Y532500D02*
D03*
Y524500D02*
D03*
D14*
X577000Y129250D02*
D03*
X1052000Y506250D02*
D03*
D15*
X1225000Y576500D02*
D03*
Y486500D02*
D03*
X798000Y174500D02*
D03*
Y84500D02*
D03*
D16*
X387500Y360750D02*
D03*
Y367250D02*
D03*
Y373750D02*
D03*
Y380250D02*
D03*
Y386750D02*
D03*
Y393250D02*
D03*
Y399750D02*
D03*
Y406250D02*
D03*
Y412750D02*
D03*
Y419250D02*
D03*
Y425750D02*
D03*
Y432250D02*
D03*
X315500Y360750D02*
D03*
Y367250D02*
D03*
Y373750D02*
D03*
Y380250D02*
D03*
Y386750D02*
D03*
Y393250D02*
D03*
Y399750D02*
D03*
Y406250D02*
D03*
Y412750D02*
D03*
Y419250D02*
D03*
Y425750D02*
D03*
D17*
Y432250D02*
D03*
D18*
X700500Y647500D02*
D03*
X707000D02*
D03*
X713500D02*
D03*
X720000D02*
D03*
X726500D02*
D03*
X733000D02*
D03*
X739500D02*
D03*
X746000D02*
D03*
X752500D02*
D03*
X759000D02*
D03*
X700500Y703500D02*
D03*
X707000D02*
D03*
X713500D02*
D03*
X720000D02*
D03*
X726500D02*
D03*
X733000D02*
D03*
X739500D02*
D03*
X746000D02*
D03*
X752500D02*
D03*
D19*
X759000D02*
D03*
D20*
X446500Y811500D02*
D03*
X431500D02*
D03*
X447500Y833500D02*
D03*
X432500D02*
D03*
X1268500Y486500D02*
D03*
X1283500D02*
D03*
X1269000Y577500D02*
D03*
X1284000D02*
D03*
X1216000Y678500D02*
D03*
X1231000D02*
D03*
X994000Y726500D02*
D03*
X979000D02*
D03*
X995000Y872500D02*
D03*
X980000D02*
D03*
X991500Y941000D02*
D03*
X976500D02*
D03*
X1214500Y653500D02*
D03*
X1229500D02*
D03*
X994500Y749500D02*
D03*
X979500D02*
D03*
X995000Y894000D02*
D03*
X980000D02*
D03*
X992500Y961000D02*
D03*
X977500D02*
D03*
X375500Y454500D02*
D03*
X360500D02*
D03*
X374500Y478500D02*
D03*
X359500D02*
D03*
X836500Y84500D02*
D03*
X851500D02*
D03*
X838500Y175500D02*
D03*
X853500D02*
D03*
X398500Y810500D02*
D03*
X413500D02*
D03*
X398500Y833500D02*
D03*
X413500D02*
D03*
X250000Y808500D02*
D03*
X265000D02*
D03*
X250000Y832500D02*
D03*
X265000D02*
D03*
X306500Y807500D02*
D03*
X291500D02*
D03*
X306000Y832250D02*
D03*
X291000D02*
D03*
X756500Y622500D02*
D03*
X771500D02*
D03*
X757500Y600500D02*
D03*
X772500D02*
D03*
X756500Y729500D02*
D03*
X771500D02*
D03*
X757500Y750500D02*
D03*
X772500D02*
D03*
X754500Y941500D02*
D03*
X739500D02*
D03*
X753500Y905500D02*
D03*
X738500D02*
D03*
D21*
X1644500Y565000D02*
D03*
Y550000D02*
D03*
X1664500Y565000D02*
D03*
Y550000D02*
D03*
X924000Y582500D02*
D03*
Y567500D02*
D03*
X1002000Y580500D02*
D03*
Y565500D02*
D03*
X952000Y582500D02*
D03*
Y567500D02*
D03*
X977000Y583000D02*
D03*
Y568000D02*
D03*
X864000Y262000D02*
D03*
Y247000D02*
D03*
X891000Y262000D02*
D03*
Y247000D02*
D03*
X914000Y263500D02*
D03*
Y248500D02*
D03*
X841000Y262000D02*
D03*
Y247000D02*
D03*
X424000Y409000D02*
D03*
Y394000D02*
D03*
X449000Y409500D02*
D03*
Y394500D02*
D03*
X433000Y191500D02*
D03*
Y176500D02*
D03*
X455000Y191500D02*
D03*
Y176500D02*
D03*
X481000Y192000D02*
D03*
Y177000D02*
D03*
X503000Y192000D02*
D03*
Y177000D02*
D03*
D22*
X785000Y622500D02*
X805000Y642500D01*
X771500Y622500D02*
X785000D01*
X794000Y84500D02*
X836500D01*
X794000Y174500D02*
X837500D01*
X1081286Y506250D02*
Y516039D01*
X585000Y116587D02*
Y129250D01*
X583413Y115000D02*
X585000Y116587D01*
X572500Y115000D02*
X583413D01*
X567500Y110000D02*
X572500Y115000D01*
X560711Y112961D02*
X577000Y129250D01*
X557738Y112961D02*
X560711D01*
X554539Y109762D02*
X557738Y112961D01*
X552500Y87309D02*
X569730Y104539D01*
X577262D01*
X590286Y117563D01*
X557500Y75000D02*
X579600D01*
X554539Y106789D02*
Y109762D01*
X547750Y100000D02*
X554539Y106789D01*
X567100Y87900D02*
X601000Y121800D01*
X590286Y117563D02*
Y126536D01*
X601000Y121800D02*
Y129250D01*
X552500Y80000D02*
Y87309D01*
X590286Y126536D02*
X593000Y129250D01*
X617000Y124524D02*
Y129250D01*
X607500Y115024D02*
X617000Y124524D01*
X607500Y72900D02*
Y115024D01*
Y72900D02*
X617900Y62500D01*
X552500Y80000D02*
X557500Y75000D01*
X579600D02*
X592500Y87900D01*
X1582500Y550000D02*
X1644500D01*
X1720400Y512900D02*
X1725000Y517500D01*
X1720400Y538300D02*
X1725000Y542900D01*
X1664500Y565000D02*
X1710000D01*
X1713300Y568300D01*
X1725000D01*
X1721700Y565000D02*
X1725000Y568300D01*
X1642000Y562500D02*
X1644500Y565000D01*
X1530000Y562500D02*
X1642000D01*
X1578300Y538300D02*
X1720400D01*
X1536100Y496100D02*
X1578300Y538300D01*
X1565400Y512900D02*
X1720400D01*
X1357000Y555000D02*
X1522500D01*
X1530000Y562500D01*
X306000Y832250D02*
X306500Y831750D01*
X912500Y582500D02*
X924000D01*
X910000Y585000D02*
X912500Y582500D01*
X1143048Y30548D02*
X1410000Y297500D01*
X739452Y30548D02*
X1143048D01*
X656952Y113048D02*
X739452Y30548D01*
X644452Y113048D02*
X656952D01*
X641000Y116500D02*
X644452Y113048D01*
X633000Y114500D02*
Y129250D01*
Y114500D02*
X637500Y110000D01*
X641000Y116500D02*
Y129250D01*
X637500Y110000D02*
X652250D01*
X734750Y27500D01*
X1147500D02*
X1420000Y300000D01*
X734750Y27500D02*
X1147500D01*
X1033750Y580500D02*
X1080500D01*
X1112214Y612214D01*
X1134190D01*
X1137286Y615311D01*
Y630190D01*
X1134190Y633286D02*
X1137286Y630190D01*
X1125568Y633286D02*
X1134190D01*
X1116452Y642402D02*
X1125568Y633286D01*
X1116452Y642402D02*
Y705736D01*
X1109594Y712594D02*
X1116452Y705736D01*
X1109594Y712594D02*
Y726603D01*
X1119500Y736509D01*
X1124166Y609166D02*
X1135452D01*
X1126831Y636334D02*
X1135452D01*
X1119500Y643665D02*
X1126831Y636334D01*
X1136680Y639416D02*
X1143382Y632715D01*
X1128059Y639416D02*
X1136680D01*
X1137286Y602786D02*
Y606689D01*
X1143382Y612785D01*
Y632715D01*
X1125000Y642476D02*
X1128059Y639416D01*
X1135452Y609166D02*
X1140334Y614048D01*
Y631452D01*
X1135452Y636334D02*
X1140334Y631452D01*
X1120000Y605000D02*
X1124166Y609166D01*
X1084000Y622750D02*
Y688094D01*
X1093406Y697500D01*
Y828406D01*
X1119500Y854500D01*
Y872500D01*
X1033750Y604500D02*
X1035000Y605750D01*
Y615000D01*
X1044539Y602738D02*
Y613184D01*
X751738Y664961D02*
X992762D01*
X1044539Y613184D01*
Y602738D02*
X1051777Y595500D01*
X1078000D01*
X1068000Y640500D02*
X1070000Y642500D01*
X1068000Y622750D02*
Y640500D01*
X1018500Y588500D02*
X1033750D01*
X1010000Y597500D02*
X1011000Y596500D01*
X1033750D01*
X1082500Y702500D02*
X1083500Y703500D01*
X1060000Y622750D02*
Y924000D01*
X1083500Y947500D01*
X1047500Y872500D02*
Y947500D01*
X1041000Y941000D02*
X1047500Y947500D01*
X991500Y941000D02*
X1041000D01*
X995000Y872500D02*
Y894000D01*
X980000Y872500D02*
Y894000D01*
X979000Y726500D02*
X979500Y727000D01*
Y749500D01*
X994000Y749000D02*
X994500Y749500D01*
X994000Y726500D02*
Y749000D01*
Y701500D02*
Y726500D01*
X982000Y689500D02*
X994000Y701500D01*
X982000Y682000D02*
Y689500D01*
Y652500D02*
X984000D01*
X1002000Y634500D01*
Y580500D02*
Y634500D01*
X994000Y726500D02*
X1043500D01*
X995000Y872500D02*
X1044000D01*
X1060310Y484078D02*
Y489224D01*
X1060000Y489534D02*
Y506250D01*
Y489534D02*
X1060310Y489224D01*
X1055000Y435000D02*
X1060000Y430000D01*
Y402500D02*
Y430000D01*
X1070000Y392500D02*
X1074600D01*
X1060000Y402500D02*
X1070000Y392500D01*
X1055000Y435000D02*
Y485699D01*
X1057262Y487961D01*
X1067500Y482500D02*
X1085000Y465000D01*
Y428300D02*
Y465000D01*
X1074600Y417900D02*
X1085000Y428300D01*
X1075000Y505250D02*
X1076000Y506250D01*
X1075000Y490000D02*
Y505250D01*
X1040000Y485900D02*
Y490000D01*
Y485900D02*
X1049200Y476700D01*
X1052000Y493000D02*
X1057039Y487961D01*
X1052000Y493000D02*
Y506250D01*
X1057039Y487961D02*
X1057262D01*
X1067500Y482500D02*
Y505750D01*
X1049200Y417900D02*
Y476700D01*
X1067500Y505750D02*
X1068000Y506250D01*
X1047500Y417500D02*
X1047900Y417900D01*
X1049200D01*
X1092000Y478000D02*
Y506250D01*
Y478000D02*
X1117500Y452500D01*
Y405000D02*
Y452500D01*
X1105000Y392500D02*
X1117500Y405000D01*
X1100000Y392500D02*
X1105000D01*
X759000Y691500D02*
X763000D01*
X547000Y227500D02*
X558750D01*
X544000Y230500D02*
X547000Y227500D01*
X544000Y230500D02*
Y260500D01*
X479000Y394500D02*
X482000Y397500D01*
X461000Y394500D02*
X479000D01*
X449000Y409500D02*
X477723D01*
X608000Y279223D01*
Y277500D02*
Y279223D01*
X1229500Y639000D02*
X1230000Y638500D01*
X1229500Y639000D02*
Y653500D01*
X1231000Y655000D01*
Y678500D01*
X1214500Y677000D02*
X1216000Y678500D01*
X1214500Y653500D02*
Y677000D01*
X979000Y710500D02*
Y726500D01*
X979500Y858500D02*
X980000Y859000D01*
Y872500D01*
X978500Y895500D02*
X980000Y894000D01*
X993500Y895500D02*
X995000Y894000D01*
X964500Y962000D02*
X965500Y961000D01*
X977500D01*
X976500Y960000D02*
X977500Y961000D01*
X976500Y941000D02*
Y960000D01*
X991500Y941000D02*
X992500Y942000D01*
Y961000D01*
X1211500Y656500D02*
X1214500Y653500D01*
X1125000Y656500D02*
X1211500D01*
X994500Y749500D02*
X996500Y751500D01*
X906000Y566500D02*
X907000Y567500D01*
X924000D01*
X999500Y568000D02*
X1002000Y565500D01*
X977000Y568000D02*
X999500D01*
X976500Y567500D02*
X977000Y568000D01*
X952000Y567500D02*
X976500D01*
X924000D02*
X952000D01*
X979500Y580500D02*
X1002000D01*
X977000Y583000D02*
X979500Y580500D01*
X976500Y582500D02*
X977000Y583000D01*
X952000Y582500D02*
X976500D01*
X924000D02*
X952000D01*
X1002000Y580500D02*
X1009000D01*
X1016214Y573286D01*
X1033750Y572500D02*
Y573286D01*
X1003000Y564500D02*
X1033750D01*
X1002000Y565500D02*
X1003000Y564500D01*
X739500Y587000D02*
X790000Y536500D01*
X943000D01*
X1158433Y692406D02*
X1290094D01*
X1158433D02*
X1158527Y692500D01*
X1290094Y692406D02*
X1357000Y625500D01*
X752500Y653233D02*
Y658000D01*
Y647500D02*
Y653233D01*
Y658000D02*
X754000Y659500D01*
X751277Y664500D02*
X751738Y664961D01*
X745543Y664500D02*
X751277D01*
X820000Y526500D02*
X821000Y527500D01*
X792277Y526500D02*
X820000D01*
X726500Y587966D02*
X792428Y522039D01*
X823262D01*
X824105Y522882D02*
X1022643D01*
X823262Y522039D02*
X824105Y522882D01*
X1128000Y489500D02*
X1132000Y493500D01*
Y506250D01*
X1116000Y465500D02*
Y506250D01*
X1126000Y577500D02*
X1131000Y572500D01*
X1150250D01*
X1108000Y573500D02*
X1137286Y602786D01*
X740034Y670009D02*
X745543Y664500D01*
X716491Y670009D02*
X740034D01*
X738772Y666961D02*
X752500Y653233D01*
X746000Y631500D02*
Y647500D01*
Y631500D02*
X748000Y629500D01*
Y611223D02*
Y629500D01*
X743537Y606760D02*
X748000Y611223D01*
X700500Y686000D02*
X716491Y670009D01*
X700500Y686000D02*
Y703500D01*
X1120000Y522500D02*
X1124000Y518500D01*
Y506250D02*
Y518500D01*
X1094461Y524238D02*
Y530758D01*
X1049935Y527960D02*
X1088458D01*
X1088997Y528498D01*
X1092000Y533219D02*
X1094461Y530758D01*
X1041189Y519214D02*
X1049935Y527960D01*
X1046120Y519834D02*
X1077333D01*
X1042452Y516166D02*
X1046120Y519834D01*
X1047383Y516786D02*
X1078189D01*
X1043715Y513118D02*
X1047383Y516786D01*
X1026311Y519214D02*
X1041189D01*
X1022643Y522882D02*
X1026311Y519214D01*
X793990Y516166D02*
X1042452D01*
X792728Y513118D02*
X1043715D01*
X715000Y590845D02*
Y629500D01*
X720000Y590156D02*
Y647500D01*
X726500Y587966D02*
Y647500D01*
X732537Y586240D02*
Y647037D01*
Y586240D02*
X792277Y526500D01*
X720000Y590156D02*
X793990Y516166D01*
X715000Y590845D02*
X792728Y513118D01*
X680000Y292501D02*
X703998Y316499D01*
X680000Y265500D02*
Y292501D01*
X593000Y163500D02*
X594000Y162500D01*
X558750Y163500D02*
X593000D01*
X1106000Y476500D02*
X1108000Y478500D01*
Y506250D01*
X670000Y295500D02*
X697000Y322500D01*
X670000Y265500D02*
Y295500D01*
X583000Y171500D02*
X584000Y170500D01*
X558750Y171500D02*
X583000D01*
X748000Y586500D02*
X750000D01*
X739500Y587000D02*
Y647500D01*
X748000Y586500D02*
Y591500D01*
X756498Y599498D02*
X757500Y600500D01*
X732537Y647037D02*
X733000Y647500D01*
X743537Y595963D02*
Y606760D01*
Y595963D02*
X748000Y591500D01*
X748998Y599498D02*
X756498D01*
X1100000Y486500D02*
Y506250D01*
X449000Y599500D02*
X497000Y647500D01*
X679277D01*
X698738Y666961D01*
X738772D01*
X1092000Y521777D02*
X1094461Y524238D01*
X1092000Y506250D02*
Y521777D01*
X1131000Y524500D02*
X1150250D01*
X700500Y661000D02*
X701000Y661500D01*
X700500Y658000D02*
Y661000D01*
X1131000Y533500D02*
X1132000Y532500D01*
X1150250D01*
X1077333Y519834D02*
X1079997Y522499D01*
X1078936Y516039D02*
X1081286D01*
X1078189Y516786D02*
X1078936Y516039D01*
X713500Y631000D02*
Y647500D01*
Y631000D02*
X715000Y629500D01*
X1081286Y506250D02*
X1084000D01*
X1284000Y577500D02*
X1297000D01*
X1225000Y576500D02*
X1226000Y577500D01*
X1269000D01*
X1283500Y577000D02*
X1284000Y577500D01*
X1283500Y486500D02*
Y577000D01*
X1268500Y486500D02*
X1268500Y486500D01*
X1225000Y486500D02*
X1268500D01*
X1357000Y555000D02*
Y625500D01*
X1163000Y556500D02*
X1163000Y556500D01*
X1150250Y556500D02*
X1163000D01*
X1092000Y622750D02*
Y636500D01*
X1033750Y572500D02*
X1034750Y573500D01*
X1150250Y540500D02*
X1171000D01*
X1225000Y486500D01*
X1150250Y548500D02*
X1151250Y549500D01*
X1191000D01*
X1218000Y576500D01*
X1225000D01*
X1060000Y506250D02*
X1060000Y506250D01*
X851500Y84500D02*
Y173500D01*
X853500Y175500D01*
X1664500Y550000D02*
Y551006D01*
X1644500Y550000D02*
X1664500D01*
X1644500Y565000D02*
X1664500D01*
X675250Y187500D02*
X700600D01*
X775000Y261900D01*
X419000Y175500D02*
X420000Y176500D01*
X433000D01*
X455000D01*
X433000Y191500D02*
X455000D01*
Y176500D02*
X480500D01*
Y191500D02*
X481000Y192000D01*
X455000Y191500D02*
X480500D01*
X617000Y190548D02*
X648262D01*
X581952D02*
X617000D01*
Y129250D02*
Y190548D01*
X480500Y176500D02*
X481000Y177000D01*
X617000Y245750D02*
Y259500D01*
X675250Y179500D02*
X718000D01*
X558750Y195500D02*
X577000D01*
X581952Y190548D01*
X648262D02*
X651311Y187500D01*
X675250D01*
X673250Y181500D02*
X675250Y179500D01*
X481000Y177000D02*
X503000D01*
X481000Y192000D02*
X503000D01*
Y177000D02*
X505072D01*
X515572Y187500D01*
X558750D01*
X557750Y196500D02*
X558750Y195500D01*
X537000Y196500D02*
X557750D01*
X532500Y192000D02*
X537000Y196500D01*
X503000Y192000D02*
X532500D01*
X836500Y84500D02*
X836500Y84500D01*
X852500Y247000D02*
X853500Y246000D01*
Y175500D02*
Y246000D01*
X837500Y174500D02*
X838500Y175500D01*
X592000Y277497D02*
X593000Y276497D01*
Y245750D02*
Y276497D01*
X441999Y427499D02*
X441999D01*
X440250Y425750D02*
X441999Y427499D01*
X387500Y425750D02*
X440250D01*
X387500Y419250D02*
X437250D01*
X502000Y302500D02*
X544000Y260500D01*
X432500Y833500D02*
X432500Y833500D01*
X430500Y810500D02*
X431500Y811500D01*
X446500D02*
X447500Y812500D01*
X413000Y786500D02*
X413500Y787000D01*
X1092000Y564500D02*
X1150250D01*
X1099000Y573500D02*
X1099000Y573500D01*
X1034750D02*
X1099000D01*
X1108000D01*
X1125000Y642476D02*
Y656500D01*
X1092000Y573500D02*
X1099000D01*
X1092000Y533219D02*
Y564500D01*
Y573500D01*
X1125000Y656500D02*
Y672500D01*
X1145000Y692500D02*
X1158527D01*
X1125000Y672500D02*
X1145000Y692500D01*
X299000Y870000D02*
X329000D01*
X331500Y872500D01*
X147500Y870000D02*
X172500D01*
X247500D02*
X250000Y867500D01*
X1071250Y405000D02*
X1087100D01*
X1100000Y417900D01*
X1067500Y856500D02*
X1083500Y872500D01*
X1047500Y797500D02*
Y872500D01*
X1119500Y736509D02*
Y797500D01*
X1067500Y692500D02*
Y856500D01*
X1047500Y722500D02*
Y797500D01*
X1043500Y726500D02*
X1047500Y722500D01*
X1119500Y643665D02*
Y722500D01*
X1083500Y703500D02*
Y722500D01*
X1076000Y622750D02*
Y640777D01*
X1080000Y644777D01*
X1067500Y692500D02*
X1080000Y680000D01*
Y644777D02*
Y680000D01*
X1423600Y496100D02*
X1536100D01*
X1410000Y482500D02*
X1423600Y496100D01*
X1410000Y297500D02*
Y482500D01*
X1533200Y480700D02*
X1565400Y512900D01*
X1438200Y480700D02*
X1533200D01*
X1420000Y462500D02*
X1438200Y480700D01*
X1420000Y300000D02*
Y462500D01*
X1060310Y484078D02*
X1063048Y481340D01*
Y413202D02*
Y481340D01*
Y413202D02*
X1071250Y405000D01*
X746000Y703500D02*
Y836500D01*
X737500Y845000D02*
X746000Y836500D01*
X737500Y845000D02*
Y866808D01*
X750946Y880254D01*
X718000Y179500D02*
X775000Y236500D01*
X346000Y835000D02*
X396000D01*
X447500Y833500D02*
Y842500D01*
X416750Y873250D02*
X447500Y842500D01*
X416750Y873250D02*
Y882500D01*
X398500Y833500D02*
Y846000D01*
X425000Y900000D02*
X442500Y882500D01*
X410000Y900000D02*
X425000D01*
X405000Y895000D02*
X410000Y900000D01*
X398500Y846000D02*
X405000Y852500D01*
Y895000D01*
X396000Y835000D02*
X398500Y832500D01*
X1016214Y573286D02*
X1033750D01*
X1646300Y562500D02*
X1647500Y563700D01*
X993500Y895500D02*
X994500Y896500D01*
X447500Y833500D02*
X555000D01*
X592000Y870500D01*
X193500Y841000D02*
Y870000D01*
X165000Y812500D02*
X180000Y797500D01*
X207500D02*
X218500Y808500D01*
D23*
X299000Y870000D02*
X306000Y863000D01*
Y832250D02*
Y863000D01*
X306500Y807500D02*
Y831750D01*
X374500Y478500D02*
Y508000D01*
X717000Y898500D02*
X722000Y903500D01*
X702000Y898500D02*
X717000D01*
X682000Y878500D02*
X702000Y898500D01*
X722000Y903500D02*
X736500D01*
X738500Y905500D01*
X678454Y878500D02*
X682000D01*
X379750Y360750D02*
X387500D01*
X374750Y365750D02*
X379750Y360750D01*
X374750Y455250D02*
X375500Y454500D01*
X387500Y360750D02*
Y367250D01*
X375500Y454500D02*
X387500Y442500D01*
Y432250D02*
Y442500D01*
X738500Y905500D02*
X739500Y906500D01*
Y941500D01*
X291000Y832250D02*
X291500Y831750D01*
Y807500D02*
Y831750D01*
X290500Y808500D02*
X291500Y807500D01*
X265000Y808500D02*
X290500D01*
X265000D02*
X266500Y810000D01*
Y832250D01*
X374500Y455500D02*
X374750Y455250D01*
X374500Y455500D02*
Y478500D01*
X250000Y808500D02*
Y832500D01*
X218500Y808500D02*
X250000D01*
X291000Y832250D02*
Y856750D01*
X276500Y871250D02*
X291000Y856750D01*
X250000Y832500D02*
Y867500D01*
X374750Y365750D02*
Y455250D01*
D24*
X818268Y304900D02*
X986000D01*
X479000Y382500D02*
X495024Y366476D01*
X411250Y382500D02*
X479000D01*
X407000Y386750D02*
X411250Y382500D01*
X387500Y386750D02*
X407000D01*
X401298Y366452D02*
Y375202D01*
X396250Y380250D02*
X401298Y375202D01*
X387500Y380250D02*
X396250D01*
X397274Y362063D02*
Y370037D01*
X394519Y372791D02*
X397274Y370037D01*
X392602Y372791D02*
X394519D01*
X756500Y753500D02*
X757500Y754500D01*
X771500Y749500D02*
X772500Y750500D01*
X771500Y729500D02*
Y749500D01*
X759000Y697077D02*
Y703500D01*
X710000Y691500D02*
X753423D01*
X759000Y697077D01*
X686274Y206774D02*
Y214524D01*
X683000Y203500D02*
X686274Y206774D01*
X675250Y203500D02*
X683000D01*
X577000Y245750D02*
Y254500D01*
X574024Y257476D02*
X577000Y254500D01*
X567583Y257476D02*
X574024D01*
X550559Y274500D02*
X567583Y257476D01*
X538000Y274500D02*
X550559D01*
X387500Y373750D02*
X392751D01*
X982400Y250500D02*
X986000Y254100D01*
X916000Y250500D02*
X982400D01*
X914000Y248500D02*
X916000Y250500D01*
X772500Y600500D02*
Y621500D01*
X757500Y600500D02*
Y621500D01*
X397274Y362063D02*
X458786Y300551D01*
X401298Y366452D02*
X461250Y306500D01*
X392602Y372791D02*
X393156Y373345D01*
X393156D02*
X393156D01*
X392751Y373750D02*
X393156Y373345D01*
X585000Y245750D02*
Y254500D01*
X578000Y261500D02*
X585000Y254500D01*
X569250Y261500D02*
X578000D01*
X505250Y325500D02*
X569250Y261500D01*
X547837Y211500D02*
X558750D01*
X495024Y264313D02*
X547837Y211500D01*
X518000Y203500D02*
X558750D01*
X491000Y230500D02*
X518000Y203500D01*
X491000Y230500D02*
Y275501D01*
X852500Y247000D02*
X864000D01*
X841000D02*
X852500D01*
X458786Y300551D02*
X465950D01*
X387500Y399750D02*
X404750D01*
X421250Y406250D02*
X424000Y409000D01*
X387500Y406250D02*
X421250D01*
X387500Y412750D02*
X399750D01*
X548250Y219500D02*
X558750D01*
X530250Y237500D02*
X548250Y219500D01*
X495024Y264313D02*
Y366476D01*
X465950Y300551D02*
X491000Y275501D01*
X715000Y163500D02*
X794000Y84500D01*
X675250Y163500D02*
X715000D01*
X791000Y171500D02*
X794000Y174500D01*
X675250Y171500D02*
X791000D01*
X891000Y247000D02*
X902000D01*
X903500Y248500D01*
X914000D01*
X864000Y247000D02*
X891000D01*
X810500D02*
X841000D01*
X800000Y236500D02*
X810500Y247000D01*
X775000Y236500D02*
X800000D01*
X675250Y195500D02*
X686000D01*
X891000Y262000D02*
X892500Y263500D01*
X914000D01*
X864000Y262000D02*
X891000D01*
X841000D02*
X864000D01*
X840900Y261900D02*
X841000Y262000D01*
X775000Y261900D02*
X840900D01*
X759050Y287300D02*
X775000D01*
X686274Y214524D02*
X759050Y287300D01*
X449000Y409500D02*
Y599500D01*
X424000Y409000D02*
X448500D01*
X449000Y409500D01*
X346000Y702500D02*
X449000Y599500D01*
X719024Y743239D02*
Y843124D01*
Y743239D02*
X739500Y722763D01*
Y703500D02*
Y722763D01*
X733000Y703500D02*
Y719500D01*
X730524Y721976D02*
X733000Y719500D01*
X730524Y721976D02*
Y726048D01*
X715000Y741572D02*
X730524Y726048D01*
X715000Y741572D02*
Y864500D01*
X703092Y747790D02*
Y853354D01*
Y747790D02*
X726500Y724381D01*
Y703500D02*
Y724381D01*
X720000Y703500D02*
Y725191D01*
X682478Y762713D02*
X720000Y725191D01*
X682478Y762713D02*
Y836590D01*
X688848Y842960D01*
Y863494D01*
X713500Y703500D02*
Y726000D01*
X359500Y478500D02*
Y491000D01*
Y478500D02*
X360500Y477500D01*
Y454500D02*
Y477500D01*
X338250Y419250D02*
X344750Y412750D01*
X347000Y410500D01*
X315500Y412750D02*
X344750D01*
X315500Y419250D02*
X338250D01*
X347000Y379500D02*
Y410500D01*
X341250Y373750D02*
X347000Y379500D01*
X315500Y373750D02*
X341250D01*
X303750Y425750D02*
X315500D01*
X297250Y432250D02*
X303750Y425750D01*
X449000Y394500D02*
X461000D01*
X448500Y394000D02*
X449000Y394500D01*
X424000Y394000D02*
X448500D01*
X423250Y393250D02*
X424000Y394000D01*
X387500Y393250D02*
X423250D01*
X305750Y373750D02*
X315500D01*
X299250Y380250D02*
X305750Y373750D01*
X299250Y380250D02*
X315500D01*
X280750Y386750D02*
X287250Y393250D01*
X297250Y432250D02*
X315500D01*
X299750Y406250D02*
X315500D01*
X298000Y404500D02*
X299750Y406250D01*
X304750Y399750D02*
X315500D01*
X300000Y404500D02*
X304750Y399750D01*
X298000Y404500D02*
X300000D01*
X304000Y358000D02*
X306750Y360750D01*
X298500Y352500D02*
X304000Y358000D01*
Y363500D01*
X306750Y360750D02*
X315500D01*
X304000Y363500D02*
X307750Y367250D01*
X315500D01*
X287250Y393250D02*
X315500D01*
X280750Y386750D02*
X315500D01*
X771500Y622500D02*
X772500Y621500D01*
X756500Y622500D02*
X757500Y621500D01*
X772500Y750500D02*
Y762000D01*
X771500Y728077D02*
Y729500D01*
X759000Y715577D02*
X771500Y728077D01*
X759000Y703500D02*
Y715577D01*
X700500Y647500D02*
Y658000D01*
X707000Y694500D02*
Y703500D01*
Y694500D02*
X710000Y691500D01*
X752500Y725500D02*
X756500Y729500D01*
X752500Y703500D02*
Y725500D01*
X753500Y940500D02*
X754500Y941500D01*
X753500Y905500D02*
Y940500D01*
Y905500D02*
X776000D01*
X783000Y898500D01*
Y869500D02*
Y898500D01*
X766600Y853100D02*
X783000Y869500D01*
X398500Y810500D02*
Y832500D01*
X413500Y833500D02*
X432500D01*
X413500Y810500D02*
Y833500D01*
Y810500D02*
X430500D01*
X447500Y812500D02*
Y833500D01*
X413500Y787000D02*
Y810500D01*
X686000Y195500D02*
X765500Y275000D01*
X788368D01*
X818268Y304900D01*
X715000Y864500D02*
X725546Y875046D01*
X719024Y843124D02*
X729000Y853100D01*
X688848Y863494D02*
X700400Y875046D01*
X675000Y764500D02*
X713500Y726000D01*
X675000Y764500D02*
Y849900D01*
X678454Y853354D01*
X700400Y875046D02*
Y880000D01*
X725546Y875046D02*
Y880000D01*
X754654Y853100D02*
X766600D01*
X757500Y754500D02*
Y850254D01*
X754654Y853100D02*
X757500Y850254D01*
X346000Y851000D02*
X352500Y857500D01*
Y872500D01*
X346000Y702500D02*
Y835000D01*
Y851000D01*
X756500Y729500D02*
Y753500D01*
D25*
X290250Y432250D02*
X297250D01*
X273000Y449500D02*
X290250Y432250D01*
X269000Y446500D02*
X272000Y449500D01*
X273000D01*
X289226Y413274D02*
X298000Y404500D01*
X273000Y413274D02*
X289226D01*
D26*
X243226D02*
X273000D01*
X113000Y543500D02*
X243226Y413274D01*
X260000Y446500D02*
X269000D01*
X113000Y593500D02*
X260000Y446500D01*
X108001Y870000D02*
X110501D01*
X147500D01*
X180000Y797500D02*
X207500D01*
X165000Y717500D02*
X374500Y508000D01*
X165000Y717500D02*
Y812500D01*
X193500Y841000D01*
D27*
X160750Y386750D02*
X280750D01*
X121000Y352500D02*
X298500D01*
X110000Y363500D02*
X121000Y352500D01*
X134000Y413500D02*
X160750Y386750D01*
X110000Y413500D02*
X134000D01*
D28*
X1156500Y947500D02*
D03*
X1119500D02*
D03*
X1083500D02*
D03*
X1074600Y417900D02*
D03*
X1049200D02*
D03*
X1100000Y392500D02*
D03*
X1074600D02*
D03*
X1049200D02*
D03*
X247500Y870000D02*
D03*
X299000D02*
D03*
X273250D02*
D03*
X751200Y854600D02*
D03*
X725546D02*
D03*
Y880000D02*
D03*
X699638Y854854D02*
D03*
X700400Y880000D02*
D03*
X675000Y854854D02*
D03*
Y880000D02*
D03*
X567100Y62500D02*
D03*
X592500D02*
D03*
X617900D02*
D03*
X567100Y87900D02*
D03*
X592500D02*
D03*
X1083500Y872500D02*
D03*
X1119500D02*
D03*
X1156500D02*
D03*
Y797500D02*
D03*
X1119500D02*
D03*
X1083500D02*
D03*
Y722500D02*
D03*
X1119500D02*
D03*
X1156500D02*
D03*
X1732500Y1012500D02*
D03*
X1727500Y25000D02*
D03*
X22000Y33500D02*
D03*
X32500Y997500D02*
D03*
X391000Y882500D02*
D03*
X442500D02*
D03*
X416750D02*
D03*
D29*
X1047500Y947500D02*
D03*
X1100000Y417900D02*
D03*
X750946Y880254D02*
D03*
X617900Y87900D02*
D03*
X1047500Y872500D02*
D03*
Y797500D02*
D03*
Y722500D02*
D03*
D30*
X1725000Y542900D02*
D03*
Y517500D02*
D03*
Y568300D02*
D03*
X986000Y279500D02*
D03*
Y254100D02*
D03*
X775000Y261900D02*
D03*
Y236500D02*
D03*
D31*
X1725000Y492100D02*
D03*
D32*
X228700Y969500D02*
D03*
X291000D02*
D03*
X388300Y972500D02*
D03*
D33*
X203300Y969500D02*
D03*
X316400D02*
D03*
X413700Y972500D02*
D03*
D34*
X986000Y304900D02*
D03*
X775000Y287300D02*
D03*
D35*
X110000Y363500D02*
D03*
X113000Y543500D02*
D03*
X110501Y820000D02*
D03*
D36*
X110000Y413500D02*
D03*
X113000Y593500D02*
D03*
X110501Y870000D02*
D03*
D37*
X805000Y642500D02*
D03*
X567500Y110000D02*
D03*
X547750Y100000D02*
D03*
X1582500Y550000D02*
D03*
X910000Y585000D02*
D03*
X1035000Y615000D02*
D03*
X1120000Y605000D02*
D03*
X1070000Y642500D02*
D03*
X1110000Y682500D02*
D03*
X1018500Y588500D02*
D03*
X1010000Y597500D02*
D03*
X1082500Y702500D02*
D03*
X982000Y682000D02*
D03*
Y652500D02*
D03*
X1040000Y490000D02*
D03*
X1075000D02*
D03*
X482000Y397500D02*
D03*
X1230000Y638500D02*
D03*
X979000Y710500D02*
D03*
X979500Y858500D02*
D03*
X964500Y962000D02*
D03*
X906000Y566500D02*
D03*
X943000Y536500D02*
D03*
X754000Y659500D02*
D03*
X790000Y678500D02*
D03*
X821000Y527500D02*
D03*
X1128000Y489500D02*
D03*
X1126000Y577500D02*
D03*
X1078000Y595500D02*
D03*
X1088997Y528498D02*
D03*
X1120000Y522500D02*
D03*
X1116000Y465500D02*
D03*
X703998Y316499D02*
D03*
X680000Y265500D02*
D03*
X594000Y162500D02*
D03*
X1106000Y476500D02*
D03*
X697000Y322500D02*
D03*
X670000Y265500D02*
D03*
X584000Y170500D02*
D03*
X748998Y599498D02*
D03*
X748000Y586500D02*
D03*
X1100000Y486500D02*
D03*
X1131000Y524500D02*
D03*
X763000Y691500D02*
D03*
X701000Y661500D02*
D03*
X1131000Y533500D02*
D03*
X1079997Y522499D02*
D03*
X1297000Y577500D02*
D03*
X1163000Y556500D02*
D03*
X1092000Y636500D02*
D03*
X608000Y277500D02*
D03*
X419000Y175500D02*
D03*
X617000Y259500D02*
D03*
X592000Y277497D02*
D03*
X441999Y427499D02*
D03*
X437250Y419250D02*
D03*
X502000Y302500D02*
D03*
X461250Y306500D02*
D03*
X404750Y399750D02*
D03*
X505250Y325500D02*
D03*
X538000Y274500D02*
D03*
X399750Y412750D02*
D03*
X530250Y237500D02*
D03*
X359500Y491000D02*
D03*
X461000Y394500D02*
D03*
X299250Y380250D02*
D03*
X772500Y762000D02*
D03*
X592000Y870500D02*
D03*
X413000Y786500D02*
D03*
D38*
X449000Y599500D02*
D03*
X727000Y188500D02*
D03*
M02*
