G04 Layer_Color=65535*
%FSLAX25Y25*%
%MOIN*%
G70*
G01*
G75*
%ADD23C,0.00984*%
%ADD37C,0.01000*%
%ADD38C,0.02362*%
%ADD39C,0.00050*%
%ADD40C,0.00787*%
G36*
X352241Y421245D02*
X351908D01*
Y423764D01*
X352241D01*
Y421245D01*
D02*
G37*
G36*
X356409D02*
X356099D01*
Y423214D01*
X356098Y423212D01*
X356094Y423209D01*
X356088Y423203D01*
X356079Y423196D01*
X356068Y423187D01*
X356054Y423174D01*
X356037Y423161D01*
X356021Y423147D01*
X355999Y423132D01*
X355977Y423114D01*
X355954Y423098D01*
X355928Y423078D01*
X355899Y423059D01*
X355870Y423039D01*
X355804Y422999D01*
X355803Y422998D01*
X355797Y422994D01*
X355786Y422988D01*
X355773Y422983D01*
X355759Y422974D01*
X355741Y422963D01*
X355719Y422952D01*
X355697Y422939D01*
X355646Y422914D01*
X355592Y422888D01*
X355535Y422863D01*
X355481Y422841D01*
Y423139D01*
X355484Y423141D01*
X355491Y423145D01*
X355506Y423152D01*
X355524Y423161D01*
X355546Y423172D01*
X355573Y423187D01*
X355603Y423203D01*
X355633Y423221D01*
X355668Y423243D01*
X355704Y423265D01*
X355781Y423316D01*
X355859Y423373D01*
X355934Y423434D01*
X355936Y423436D01*
X355943Y423442D01*
X355952Y423451D01*
X355965Y423463D01*
X355981Y423480D01*
X355999Y423498D01*
X356019Y423520D01*
X356041Y423542D01*
X356063Y423567D01*
X356087Y423595D01*
X356132Y423651D01*
X356174Y423711D01*
X356192Y423742D01*
X356208Y423773D01*
X356409D01*
Y421245D01*
D02*
G37*
G36*
X353957Y423806D02*
X353984Y423804D01*
X354017Y423802D01*
X354054Y423797D01*
X354096Y423791D01*
X354143Y423784D01*
X354192Y423773D01*
X354243Y423760D01*
X354296Y423746D01*
X354348Y423726D01*
X354401Y423704D01*
X354456Y423678D01*
X354507Y423649D01*
X354556Y423615D01*
X354560Y423613D01*
X354567Y423605D01*
X354581Y423595D01*
X354598Y423578D01*
X354620Y423560D01*
X354643Y423534D01*
X354669Y423507D01*
X354698Y423474D01*
X354727Y423438D01*
X354758Y423398D01*
X354787Y423352D01*
X354816Y423305D01*
X354845Y423252D01*
X354871Y423196D01*
X354896Y423136D01*
X354916Y423072D01*
X354589Y422996D01*
X354587Y422999D01*
X354585Y423008D01*
X354580Y423021D01*
X354572Y423041D01*
X354563Y423063D01*
X354552Y423089D01*
X354538Y423118D01*
X354523Y423149D01*
X354507Y423181D01*
X354487Y423214D01*
X354467Y423247D01*
X354443Y423281D01*
X354418Y423312D01*
X354392Y423343D01*
X354363Y423371D01*
X354332Y423396D01*
X354330Y423398D01*
X354325Y423402D01*
X354316Y423407D01*
X354303Y423416D01*
X354287Y423425D01*
X354267Y423436D01*
X354243Y423447D01*
X354218Y423460D01*
X354188Y423471D01*
X354157Y423482D01*
X354123Y423493D01*
X354086Y423502D01*
X354046Y423511D01*
X354005Y423516D01*
X353961Y423520D01*
X353913Y423522D01*
X353886D01*
X353866Y423520D01*
X353841Y423518D01*
X353812Y423514D01*
X353779Y423511D01*
X353744Y423503D01*
X353706Y423496D01*
X353668Y423487D01*
X353628Y423476D01*
X353586Y423463D01*
X353546Y423447D01*
X353506Y423427D01*
X353466Y423407D01*
X353428Y423382D01*
X353426Y423380D01*
X353418Y423376D01*
X353409Y423367D01*
X353397Y423356D01*
X353380Y423342D01*
X353362Y423325D01*
X353342Y423305D01*
X353320Y423283D01*
X353298Y423258D01*
X353275Y423231D01*
X353253Y423200D01*
X353231Y423165D01*
X353209Y423130D01*
X353189Y423092D01*
X353171Y423052D01*
X353155Y423008D01*
Y423007D01*
X353151Y422998D01*
X353147Y422985D01*
X353142Y422968D01*
X353136Y422947D01*
X353129Y422921D01*
X353124Y422892D01*
X353116Y422859D01*
X353109Y422825D01*
X353102Y422786D01*
X353095Y422746D01*
X353089Y422705D01*
X353080Y422617D01*
X353078Y422572D01*
X353076Y422524D01*
Y422521D01*
Y422510D01*
Y422493D01*
X353078Y422470D01*
X353080Y422442D01*
X353082Y422410D01*
X353084Y422373D01*
X353087Y422335D01*
X353093Y422291D01*
X353098Y422246D01*
X353116Y422153D01*
X353126Y422104D01*
X353138Y422057D01*
X353153Y422009D01*
X353169Y421964D01*
X353171Y421962D01*
X353173Y421953D01*
X353178Y421942D01*
X353187Y421926D01*
X353196Y421906D01*
X353209Y421882D01*
X353224Y421856D01*
X353240Y421829D01*
X353260Y421802D01*
X353282Y421773D01*
X353306Y421742D01*
X353331Y421713D01*
X353360Y421684D01*
X353391Y421656D01*
X353424Y421631D01*
X353460Y421607D01*
X353462Y421605D01*
X353469Y421602D01*
X353480Y421596D01*
X353495Y421589D01*
X353513Y421580D01*
X353535Y421569D01*
X353560Y421560D01*
X353588Y421549D01*
X353619Y421536D01*
X353651Y421527D01*
X353688Y421516D01*
X353724Y421507D01*
X353764Y421500D01*
X353804Y421494D01*
X353846Y421491D01*
X353888Y421489D01*
X353901D01*
X353915Y421491D01*
X353935D01*
X353959Y421494D01*
X353986Y421498D01*
X354019Y421501D01*
X354052Y421509D01*
X354088Y421518D01*
X354127Y421529D01*
X354167Y421542D01*
X354206Y421556D01*
X354247Y421574D01*
X354287Y421596D01*
X354325Y421622D01*
X354363Y421649D01*
X354365Y421651D01*
X354372Y421656D01*
X354381Y421665D01*
X354394Y421680D01*
X354410Y421696D01*
X354429Y421716D01*
X354449Y421742D01*
X354469Y421769D01*
X354490Y421802D01*
X354512Y421836D01*
X354536Y421876D01*
X354556Y421920D01*
X354578Y421966D01*
X354596Y422017D01*
X354612Y422069D01*
X354627Y422128D01*
X354960Y422044D01*
Y422042D01*
X354958Y422038D01*
X354956Y422033D01*
X354955Y422026D01*
X354953Y422017D01*
X354949Y422004D01*
X354940Y421977D01*
X354927Y421942D01*
X354913Y421904D01*
X354894Y421860D01*
X354873Y421813D01*
X354849Y421762D01*
X354822Y421711D01*
X354791Y421660D01*
X354756Y421607D01*
X354718Y421556D01*
X354676Y421507D01*
X354631Y421461D01*
X354581Y421418D01*
X354578Y421416D01*
X354569Y421409D01*
X354554Y421398D01*
X354532Y421385D01*
X354507Y421369D01*
X354474Y421350D01*
X354438Y421330D01*
X354396Y421310D01*
X354350Y421290D01*
X354299Y421270D01*
X354245Y421252D01*
X354187Y421236D01*
X354123Y421223D01*
X354057Y421212D01*
X353988Y421205D01*
X353915Y421203D01*
X353888D01*
X353875Y421205D01*
X353848D01*
X353813Y421208D01*
X353773Y421212D01*
X353728Y421218D01*
X353680Y421223D01*
X353628Y421232D01*
X353575Y421243D01*
X353519Y421258D01*
X353464Y421272D01*
X353409Y421292D01*
X353355Y421314D01*
X353302Y421340D01*
X353253Y421369D01*
X353249Y421371D01*
X353242Y421376D01*
X353229Y421387D01*
X353211Y421400D01*
X353189Y421416D01*
X353166Y421438D01*
X353138Y421461D01*
X353109Y421491D01*
X353078Y421523D01*
X353047Y421558D01*
X353014Y421598D01*
X352982Y421640D01*
X352951Y421687D01*
X352920Y421736D01*
X352891Y421791D01*
X352865Y421847D01*
Y421849D01*
X352863Y421851D01*
X352860Y421862D01*
X352852Y421878D01*
X352845Y421902D01*
X352834Y421931D01*
X352823Y421966D01*
X352811Y422006D01*
X352800Y422049D01*
X352787Y422098D01*
X352774Y422151D01*
X352763Y422206D01*
X352752Y422266D01*
X352745Y422326D01*
X352738Y422390D01*
X352734Y422455D01*
X352732Y422522D01*
Y422524D01*
Y422528D01*
Y422533D01*
Y422541D01*
Y422550D01*
X352734Y422561D01*
Y422588D01*
X352738Y422623D01*
X352740Y422663D01*
X352745Y422708D01*
X352750Y422757D01*
X352760Y422808D01*
X352769Y422863D01*
X352782Y422921D01*
X352796Y422979D01*
X352812Y423038D01*
X352832Y423096D01*
X352856Y423152D01*
X352882Y423209D01*
X352883Y423212D01*
X352889Y423221D01*
X352898Y423236D01*
X352909Y423258D01*
X352925Y423281D01*
X352943Y423309D01*
X352967Y423342D01*
X352993Y423374D01*
X353020Y423409D01*
X353053Y423447D01*
X353087Y423484D01*
X353126Y423520D01*
X353167Y423556D01*
X353211Y423591D01*
X353258Y423624D01*
X353309Y423655D01*
X353313Y423656D01*
X353322Y423662D01*
X353337Y423669D01*
X353358Y423678D01*
X353384Y423691D01*
X353415Y423704D01*
X353451Y423716D01*
X353489Y423731D01*
X353533Y423746D01*
X353580Y423758D01*
X353631Y423773D01*
X353684Y423784D01*
X353741Y423793D01*
X353799Y423800D01*
X353859Y423806D01*
X353921Y423807D01*
X353946D01*
X353957Y423806D01*
D02*
G37*
D23*
X224705Y268209D02*
G03*
X224705Y268209I-492J0D01*
G01*
X324311Y145965D02*
G03*
X324311Y145965I-492J0D01*
G01*
X511319Y294390D02*
G03*
X511319Y294390I-492J0D01*
G01*
D37*
X688898Y284173D02*
G03*
X688898Y314173I-5000J15000D01*
G01*
X403937Y375984D02*
G03*
X403937Y375984I-394J0D01*
G01*
X401153Y365725D02*
G03*
X401476Y356299I-1190J-4759D01*
G01*
X353408Y425045D02*
Y522945D01*
X410908D01*
Y425345D02*
Y522945D01*
X410608Y425045D02*
X410908Y425345D01*
X353408Y425045D02*
X410608D01*
X405118Y218189D02*
X425118D01*
Y178189D02*
Y218189D01*
X395118D02*
X405118D01*
X395118Y178189D02*
X425118D01*
X385118Y218189D02*
X395118D01*
X385118Y178189D02*
Y218189D01*
Y178189D02*
X395118D01*
X668898Y324173D02*
X688898D01*
Y274173D02*
Y324173D01*
X648898Y274173D02*
X688898D01*
X648898D02*
Y324173D01*
X668898D01*
X123819Y398228D02*
Y457283D01*
X163189D01*
Y398228D02*
Y457283D01*
X123819Y398228D02*
X163189D01*
X246555Y432283D02*
Y448425D01*
X248130Y450000D01*
X280020D01*
X281988Y432283D02*
Y448032D01*
X280020Y450000D02*
X281988Y448032D01*
X279232Y447638D02*
X281594Y445276D01*
X248524Y447638D02*
X279232D01*
X246555Y445669D02*
X248524Y447638D01*
X246555Y445669D02*
X246555D01*
X246555Y432283D02*
X281988D01*
X190846Y432579D02*
X226279D01*
X190846Y445965D02*
X190846D01*
X192815Y447933D01*
X223523D01*
X225886Y445571D01*
X224311Y450295D02*
X226279Y448327D01*
Y432579D02*
Y448327D01*
X192421Y450295D02*
X224311D01*
X190846Y448721D02*
X192421Y450295D01*
X190846Y432579D02*
Y448721D01*
X163189Y398228D02*
X312795D01*
X312205Y398819D02*
X312795Y398228D01*
X312205Y398819D02*
Y500000D01*
X170039Y466772D02*
Y476772D01*
Y466772D02*
X180039D01*
X200039D01*
Y486772D01*
X170039D02*
X200039D01*
X170039Y476772D02*
Y486772D01*
X234567Y476772D02*
Y486772D01*
X224567D02*
X234567D01*
X204567D02*
X224567D01*
X204567Y466772D02*
Y486772D01*
Y466772D02*
X234567D01*
Y476772D01*
X272874Y477953D02*
Y487953D01*
X262874D02*
X272874D01*
X242874D02*
X262874D01*
X242874Y467953D02*
Y487953D01*
Y467953D02*
X272874D01*
Y477953D01*
X312795Y398228D02*
X453740D01*
X453543Y398425D02*
X453740Y398228D01*
X453543Y398425D02*
Y500000D01*
X123622Y218504D02*
Y277559D01*
X162992D01*
Y218504D02*
Y277559D01*
X123622Y218504D02*
X162992D01*
X124803Y289370D02*
Y348425D01*
X164173D01*
Y289370D02*
Y348425D01*
X124803Y289370D02*
X164173D01*
X120866Y218110D02*
X295669D01*
X300394Y222835D01*
Y358661D01*
X299606Y357874D02*
X300394Y358661D01*
X120079Y357874D02*
X299606D01*
X401378Y344882D02*
X405905D01*
X427559Y366535D01*
X428346Y367717D02*
Y398228D01*
X427559Y366535D02*
X428346Y367323D01*
X300394Y344882D02*
X373228D01*
X319291Y192520D02*
X321260D01*
X319291Y188583D02*
Y192520D01*
Y145276D02*
Y148425D01*
Y145276D02*
X320866D01*
X366535Y145669D02*
Y148819D01*
X362598Y145669D02*
X366535D01*
X362598Y192520D02*
X366535D01*
Y190157D02*
Y192520D01*
X412598Y175591D02*
X424409D01*
Y116535D02*
Y175591D01*
X400787Y116535D02*
X424409D01*
X400787D02*
Y175591D01*
X412598D01*
X315827Y105748D02*
Y125748D01*
Y105748D02*
X355827D01*
Y135748D01*
X315827D02*
X355827D01*
X315827Y125748D02*
Y135748D01*
X329429Y236713D02*
X676476D01*
X676772Y237008D01*
Y100000D02*
Y237008D01*
X534252Y223228D02*
X592913D01*
X594095Y222047D01*
Y179528D02*
Y222047D01*
X592913Y178347D02*
X594095Y179528D01*
X531102Y178347D02*
X592913D01*
X530709Y178740D02*
X531102Y178347D01*
X530709Y178740D02*
Y219685D01*
X534252Y223228D01*
X300000Y266142D02*
X329429Y236713D01*
X488189Y225118D02*
X508189D01*
Y185118D02*
Y225118D01*
X478189D02*
X488189D01*
X478189Y185118D02*
X508189D01*
X468189Y225118D02*
X478189D01*
X468189Y185118D02*
Y225118D01*
Y185118D02*
X478189D01*
X505354Y240787D02*
Y260787D01*
Y240787D02*
X545354D01*
Y270787D01*
X505354D02*
X545354D01*
X505354Y260787D02*
Y270787D01*
X574409Y464961D02*
Y479134D01*
X489370D02*
X574409D01*
X489370Y450787D02*
Y479134D01*
Y450787D02*
X574409D01*
Y464961D01*
X575197Y434252D02*
Y448425D01*
X490158D02*
X575197D01*
X490158Y420079D02*
Y448425D01*
Y420079D02*
X575197D01*
Y434252D01*
X574803Y401575D02*
Y415748D01*
X489764D02*
X574803D01*
X489764Y387402D02*
Y415748D01*
Y387402D02*
X574803D01*
Y401575D01*
X573622Y363779D02*
Y377953D01*
X488583D02*
X573622D01*
X488583Y349606D02*
Y377953D01*
Y349606D02*
X573622D01*
Y363779D01*
X506299Y340945D02*
X508268D01*
X506299Y337008D02*
Y340945D01*
Y293701D02*
Y296850D01*
Y293701D02*
X507874D01*
X553543Y294094D02*
Y297244D01*
X549606Y294094D02*
X553543D01*
X549606Y340945D02*
X553543D01*
Y338583D02*
Y340945D01*
X582283Y333858D02*
X594095D01*
Y274803D02*
Y333858D01*
X570472Y274803D02*
X594095D01*
X570472D02*
Y333858D01*
X582283D01*
X620472Y346457D02*
X700000D01*
X620472Y237106D02*
Y346457D01*
Y237106D02*
X620768Y237402D01*
X700000D01*
X696063Y333465D02*
Y485433D01*
X238583Y102756D02*
Y218110D01*
Y100000D02*
Y102756D01*
X373228Y344882D02*
Y378150D01*
Y344882D02*
X401378D01*
Y378150D01*
X373228D02*
X401378D01*
X538795Y211140D02*
Y217138D01*
X541794D01*
X542794Y216139D01*
Y214139D01*
X541794Y213140D01*
X538795D01*
X540795D02*
X542794Y211140D01*
X548792Y216139D02*
X547792Y217138D01*
X545793D01*
X544793Y216139D01*
Y212140D01*
X545793Y211140D01*
X547792D01*
X548792Y212140D01*
X538795Y201543D02*
Y207541D01*
X541794D01*
X542794Y206541D01*
Y204542D01*
X541794Y203542D01*
X538795D01*
X540795D02*
X542794Y201543D01*
X548792Y207541D02*
X544793D01*
Y201543D01*
X548792D01*
X544793Y204542D02*
X546793D01*
X554790Y206541D02*
X553790Y207541D01*
X551791D01*
X550791Y206541D01*
Y202542D01*
X551791Y201543D01*
X553790D01*
X554790Y202542D01*
X556789Y207541D02*
X558789D01*
X557789D01*
Y201543D01*
X556789D01*
X558789D01*
X565787Y207541D02*
X561788D01*
Y201543D01*
X565787D01*
X561788Y204542D02*
X563787D01*
X567786Y207541D02*
Y203542D01*
X569785Y201543D01*
X571785Y203542D01*
Y207541D01*
X577783D02*
X573784D01*
Y201543D01*
X577783D01*
X573784Y204542D02*
X575783D01*
X579782Y201543D02*
Y207541D01*
X582781D01*
X583781Y206541D01*
Y204542D01*
X582781Y203542D01*
X579782D01*
X581781D02*
X583781Y201543D01*
X538795Y197943D02*
Y191945D01*
Y194944D01*
X542794D01*
Y197943D01*
Y191945D01*
X548792Y197943D02*
X544793D01*
Y191945D01*
X548792D01*
X544793Y194944D02*
X546793D01*
X550791Y191945D02*
Y197943D01*
X553790D01*
X554790Y196943D01*
Y194944D01*
X553790Y193944D01*
X550791D01*
X552791D02*
X554790Y191945D01*
X560788Y197943D02*
X556789D01*
Y191945D01*
X560788D01*
X556789Y194944D02*
X558789D01*
X381951Y453817D02*
X380952Y454817D01*
X378952D01*
X377953Y453817D01*
Y449819D01*
X378952Y448819D01*
X380952D01*
X381951Y449819D01*
X383951Y448819D02*
X385950D01*
X384950D01*
Y454817D01*
X383951Y453817D01*
X381164Y467203D02*
X380164Y468203D01*
X378165D01*
X377165Y467203D01*
Y463204D01*
X378165Y462205D01*
X380164D01*
X381164Y463204D01*
X387162Y462205D02*
X383163D01*
X387162Y466203D01*
Y467203D01*
X386162Y468203D01*
X384163D01*
X383163Y467203D01*
X411873Y393187D02*
X410873Y394187D01*
X408874D01*
X407874Y393187D01*
Y389189D01*
X408874Y388189D01*
X410873D01*
X411873Y389189D01*
X413872Y393187D02*
X414872Y394187D01*
X416871D01*
X417871Y393187D01*
Y392188D01*
X416871Y391188D01*
X415871D01*
X416871D01*
X417871Y390188D01*
Y389189D01*
X416871Y388189D01*
X414872D01*
X413872Y389189D01*
X412660Y384526D02*
X411660Y385526D01*
X409661D01*
X408661Y384526D01*
Y380527D01*
X409661Y379528D01*
X411660D01*
X412660Y380527D01*
X417659Y379528D02*
Y385526D01*
X414660Y382527D01*
X418658D01*
X412070Y333738D02*
X411070Y334738D01*
X409071D01*
X408071Y333738D01*
Y329740D01*
X409071Y328740D01*
X411070D01*
X412070Y329740D01*
X418068Y334738D02*
X414069D01*
Y331739D01*
X416068Y332739D01*
X417068D01*
X418068Y331739D01*
Y329740D01*
X417068Y328740D01*
X415069D01*
X414069Y329740D01*
X412660Y342794D02*
X411660Y343793D01*
X409661D01*
X408661Y342794D01*
Y338795D01*
X409661Y337795D01*
X411660D01*
X412660Y338795D01*
X418658Y343793D02*
X416659Y342794D01*
X414660Y340794D01*
Y338795D01*
X415659Y337795D01*
X417659D01*
X418658Y338795D01*
Y339795D01*
X417659Y340794D01*
X414660D01*
X228802Y425372D02*
X227802Y426372D01*
X225803D01*
X224803Y425372D01*
Y421374D01*
X225803Y420374D01*
X227802D01*
X228802Y421374D01*
X230801Y426372D02*
X234800D01*
Y425372D01*
X230801Y421374D01*
Y420374D01*
X228802Y415628D02*
X227802Y416628D01*
X225803D01*
X224803Y415628D01*
Y411630D01*
X225803Y410630D01*
X227802D01*
X228802Y411630D01*
X230801Y415628D02*
X231801Y416628D01*
X233800D01*
X234800Y415628D01*
Y414629D01*
X233800Y413629D01*
X234800Y412629D01*
Y411630D01*
X233800Y410630D01*
X231801D01*
X230801Y411630D01*
Y412629D01*
X231801Y413629D01*
X230801Y414629D01*
Y415628D01*
X231801Y413629D02*
X233800D01*
X186282Y423798D02*
X185282Y424797D01*
X183283D01*
X182283Y423798D01*
Y419799D01*
X183283Y418799D01*
X185282D01*
X186282Y419799D01*
X188281D02*
X189281Y418799D01*
X191280D01*
X192280Y419799D01*
Y423798D01*
X191280Y424797D01*
X189281D01*
X188281Y423798D01*
Y422798D01*
X189281Y421798D01*
X192280D01*
X181164Y414447D02*
X180164Y415447D01*
X178165D01*
X177165Y414447D01*
Y410449D01*
X178165Y409449D01*
X180164D01*
X181164Y410449D01*
X183163Y409449D02*
X185163D01*
X184163D01*
Y415447D01*
X183163Y414447D01*
X188162D02*
X189162Y415447D01*
X191161D01*
X192160Y414447D01*
Y410449D01*
X191161Y409449D01*
X189162D01*
X188162Y410449D01*
Y414447D01*
X244156Y425077D02*
X243157Y426077D01*
X241157D01*
X240158Y425077D01*
Y421078D01*
X241157Y420079D01*
X243157D01*
X244156Y421078D01*
X246156Y420079D02*
X248155D01*
X247155D01*
Y426077D01*
X246156Y425077D01*
X251154Y420079D02*
X253153D01*
X252154D01*
Y426077D01*
X251154Y425077D01*
X242188Y416022D02*
X241188Y417022D01*
X239189D01*
X238189Y416022D01*
Y412023D01*
X239189Y411024D01*
X241188D01*
X242188Y412023D01*
X244187Y411024D02*
X246186D01*
X245187D01*
Y417022D01*
X244187Y416022D01*
X253184Y411024D02*
X249185D01*
X253184Y415022D01*
Y416022D01*
X252184Y417022D01*
X250185D01*
X249185Y416022D01*
X432357Y175542D02*
X431357Y176541D01*
X429358D01*
X428358Y175542D01*
Y171543D01*
X429358Y170543D01*
X431357D01*
X432357Y171543D01*
X434356Y170543D02*
X436356D01*
X435356D01*
Y176541D01*
X434356Y175542D01*
X439355D02*
X440354Y176541D01*
X442354D01*
X443353Y175542D01*
Y174542D01*
X442354Y173542D01*
X441354D01*
X442354D01*
X443353Y172543D01*
Y171543D01*
X442354Y170543D01*
X440354D01*
X439355Y171543D01*
X431599Y139660D02*
X430599Y140659D01*
X428600D01*
X427600Y139660D01*
Y135661D01*
X428600Y134661D01*
X430599D01*
X431599Y135661D01*
X433598Y134661D02*
X435597D01*
X434598D01*
Y140659D01*
X433598Y139660D01*
X441596Y134661D02*
Y140659D01*
X438596Y137660D01*
X442595D01*
X296970Y178802D02*
X295970Y177802D01*
Y175803D01*
X296970Y174803D01*
X300969D01*
X301969Y175803D01*
Y177802D01*
X300969Y178802D01*
X301969Y180801D02*
Y182801D01*
Y181801D01*
X295970D01*
X296970Y180801D01*
X295970Y189798D02*
Y185800D01*
X298970D01*
X297970Y187799D01*
Y188799D01*
X298970Y189798D01*
X300969D01*
X301969Y188799D01*
Y186799D01*
X300969Y185800D01*
X286340Y178999D02*
X285340Y177999D01*
Y176000D01*
X286340Y175000D01*
X290339D01*
X291339Y176000D01*
Y177999D01*
X290339Y178999D01*
X291339Y180998D02*
Y182997D01*
Y181998D01*
X285340D01*
X286340Y180998D01*
X285340Y189995D02*
X286340Y187996D01*
X288340Y185996D01*
X290339D01*
X291339Y186996D01*
Y188996D01*
X290339Y189995D01*
X289339D01*
X288340Y188996D01*
Y185996D01*
X277285Y179196D02*
X276285Y178196D01*
Y176197D01*
X277285Y175197D01*
X281284D01*
X282283Y176197D01*
Y178196D01*
X281284Y179196D01*
X282283Y181195D02*
Y183194D01*
Y182195D01*
X276285D01*
X277285Y181195D01*
X276285Y186193D02*
Y190192D01*
X277285D01*
X281284Y186193D01*
X282283D01*
X267442Y180573D02*
X266443Y179574D01*
Y177575D01*
X267442Y176575D01*
X271441D01*
X272441Y177575D01*
Y179574D01*
X271441Y180573D01*
X272441Y182573D02*
Y184572D01*
Y183573D01*
X266443D01*
X267442Y182573D01*
Y187571D02*
X266443Y188571D01*
Y190570D01*
X267442Y191570D01*
X268442D01*
X269442Y190570D01*
X270442Y191570D01*
X271441D01*
X272441Y190570D01*
Y188571D01*
X271441Y187571D01*
X270442D01*
X269442Y188571D01*
X268442Y187571D01*
X267442D01*
X269442Y188571D02*
Y190570D01*
X227030Y284920D02*
X226030Y285919D01*
X224031D01*
X223031Y284920D01*
Y280921D01*
X224031Y279921D01*
X226030D01*
X227030Y280921D01*
X229030Y279921D02*
X231029D01*
X230029D01*
Y285919D01*
X229030Y284920D01*
X234028Y280921D02*
X235028Y279921D01*
X237027D01*
X238027Y280921D01*
Y284920D01*
X237027Y285919D01*
X235028D01*
X234028Y284920D01*
Y283920D01*
X235028Y282920D01*
X238027D01*
X226637Y276652D02*
X225637Y277652D01*
X223638D01*
X222638Y276652D01*
Y272653D01*
X223638Y271654D01*
X225637D01*
X226637Y272653D01*
X232635Y271654D02*
X228636D01*
X232635Y275652D01*
Y276652D01*
X231635Y277652D01*
X229636D01*
X228636Y276652D01*
X234634D02*
X235634Y277652D01*
X237633D01*
X238633Y276652D01*
Y272653D01*
X237633Y271654D01*
X235634D01*
X234634Y272653D01*
Y276652D01*
X275317Y237070D02*
X274317Y236070D01*
Y234070D01*
X275317Y233071D01*
X279315D01*
X280315Y234070D01*
Y236070D01*
X279315Y237070D01*
X280315Y243068D02*
Y239069D01*
X276316Y243068D01*
X275317D01*
X274317Y242068D01*
Y240069D01*
X275317Y239069D01*
X280315Y245067D02*
Y247066D01*
Y246067D01*
X274317D01*
X275317Y245067D01*
X263899Y263841D02*
X262900Y262842D01*
Y260842D01*
X263899Y259842D01*
X267898D01*
X268898Y260842D01*
Y262842D01*
X267898Y263841D01*
X268898Y269839D02*
Y265841D01*
X264899Y269839D01*
X263899D01*
X262900Y268840D01*
Y266840D01*
X263899Y265841D01*
X268898Y275837D02*
Y271839D01*
X264899Y275837D01*
X263899D01*
X262900Y274838D01*
Y272838D01*
X263899Y271839D01*
X542975Y486888D02*
X541975Y487888D01*
X539976D01*
X538976Y486888D01*
Y482889D01*
X539976Y481890D01*
X541975D01*
X542975Y482889D01*
X548973Y481890D02*
X544974D01*
X548973Y485888D01*
Y486888D01*
X547973Y487888D01*
X545974D01*
X544974Y486888D01*
X550973Y487888D02*
X554971D01*
Y486888D01*
X550973Y482889D01*
Y481890D01*
X598093Y437676D02*
X597093Y438675D01*
X595094D01*
X594095Y437676D01*
Y433677D01*
X595094Y432677D01*
X597093D01*
X598093Y433677D01*
X604091Y432677D02*
X600093D01*
X604091Y436676D01*
Y437676D01*
X603092Y438675D01*
X601092D01*
X600093Y437676D01*
X606091D02*
X607090Y438675D01*
X609090D01*
X610089Y437676D01*
Y436676D01*
X609090Y435676D01*
X610089Y434677D01*
Y433677D01*
X609090Y432677D01*
X607090D01*
X606091Y433677D01*
Y434677D01*
X607090Y435676D01*
X606091Y436676D01*
Y437676D01*
X607090Y435676D02*
X609090D01*
X597699Y404605D02*
X596700Y405604D01*
X594700D01*
X593701Y404605D01*
Y400606D01*
X594700Y399606D01*
X596700D01*
X597699Y400606D01*
X603698Y399606D02*
X599699D01*
X603698Y403605D01*
Y404605D01*
X602698Y405604D01*
X600699D01*
X599699Y404605D01*
X605697Y400606D02*
X606697Y399606D01*
X608696D01*
X609696Y400606D01*
Y404605D01*
X608696Y405604D01*
X606697D01*
X605697Y404605D01*
Y403605D01*
X606697Y402605D01*
X609696D01*
X592975Y354211D02*
X591975Y355211D01*
X589976D01*
X588976Y354211D01*
Y350212D01*
X589976Y349213D01*
X591975D01*
X592975Y350212D01*
X594974Y354211D02*
X595974Y355211D01*
X597973D01*
X598973Y354211D01*
Y353211D01*
X597973Y352212D01*
X596974D01*
X597973D01*
X598973Y351212D01*
Y350212D01*
X597973Y349213D01*
X595974D01*
X594974Y350212D01*
X600973Y354211D02*
X601972Y355211D01*
X603971D01*
X604971Y354211D01*
Y350212D01*
X603971Y349213D01*
X601972D01*
X600973Y350212D01*
Y354211D01*
X572896Y495156D02*
X571897Y496156D01*
X569897D01*
X568898Y495156D01*
Y491157D01*
X569897Y490158D01*
X571897D01*
X572896Y491157D01*
X574896Y495156D02*
X575895Y496156D01*
X577895D01*
X578894Y495156D01*
Y494156D01*
X577895Y493156D01*
X576895D01*
X577895D01*
X578894Y492157D01*
Y491157D01*
X577895Y490158D01*
X575895D01*
X574896Y491157D01*
X580894Y490158D02*
X582893D01*
X581893D01*
Y496156D01*
X580894Y495156D01*
X599668Y447518D02*
X598668Y448518D01*
X596669D01*
X595669Y447518D01*
Y443519D01*
X596669Y442520D01*
X598668D01*
X599668Y443519D01*
X601667Y447518D02*
X602667Y448518D01*
X604666D01*
X605666Y447518D01*
Y446518D01*
X604666Y445519D01*
X603667D01*
X604666D01*
X605666Y444519D01*
Y443519D01*
X604666Y442520D01*
X602667D01*
X601667Y443519D01*
X611664Y442520D02*
X607665D01*
X611664Y446518D01*
Y447518D01*
X610664Y448518D01*
X608665D01*
X607665Y447518D01*
X598881Y413660D02*
X597881Y414660D01*
X595882D01*
X594882Y413660D01*
Y409661D01*
X595882Y408661D01*
X597881D01*
X598881Y409661D01*
X600880Y413660D02*
X601880Y414660D01*
X603879D01*
X604879Y413660D01*
Y412660D01*
X603879Y411660D01*
X602879D01*
X603879D01*
X604879Y410661D01*
Y409661D01*
X603879Y408661D01*
X601880D01*
X600880Y409661D01*
X606878Y413660D02*
X607878Y414660D01*
X609877D01*
X610877Y413660D01*
Y412660D01*
X609877Y411660D01*
X608877D01*
X609877D01*
X610877Y410661D01*
Y409661D01*
X609877Y408661D01*
X607878D01*
X606878Y409661D01*
X593566Y362872D02*
X592566Y363872D01*
X590567D01*
X589567Y362872D01*
Y358874D01*
X590567Y357874D01*
X592566D01*
X593566Y358874D01*
X595565Y362872D02*
X596565Y363872D01*
X598564D01*
X599564Y362872D01*
Y361873D01*
X598564Y360873D01*
X597564D01*
X598564D01*
X599564Y359873D01*
Y358874D01*
X598564Y357874D01*
X596565D01*
X595565Y358874D01*
X604562Y357874D02*
Y363872D01*
X601563Y360873D01*
X605562D01*
X428466Y208329D02*
X427466Y207330D01*
Y205330D01*
X428466Y204331D01*
X432465D01*
X433465Y205330D01*
Y207330D01*
X432465Y208329D01*
X428466Y210329D02*
X427466Y211329D01*
Y213328D01*
X428466Y214328D01*
X429466D01*
X430466Y213328D01*
Y212328D01*
Y213328D01*
X431465Y214328D01*
X432465D01*
X433465Y213328D01*
Y211329D01*
X432465Y210329D01*
X427466Y220325D02*
Y216327D01*
X430466D01*
X429466Y218326D01*
Y219326D01*
X430466Y220325D01*
X432465D01*
X433465Y219326D01*
Y217326D01*
X432465Y216327D01*
X457600Y207542D02*
X456600Y206542D01*
Y204543D01*
X457600Y203543D01*
X461599D01*
X462598Y204543D01*
Y206542D01*
X461599Y207542D01*
X457600Y209541D02*
X456600Y210541D01*
Y212540D01*
X457600Y213540D01*
X458600D01*
X459599Y212540D01*
Y211541D01*
Y212540D01*
X460599Y213540D01*
X461599D01*
X462598Y212540D01*
Y210541D01*
X461599Y209541D01*
X456600Y219538D02*
X457600Y217539D01*
X459599Y215539D01*
X461599D01*
X462598Y216539D01*
Y218538D01*
X461599Y219538D01*
X460599D01*
X459599Y218538D01*
Y215539D01*
X448939Y207345D02*
X447939Y206346D01*
Y204346D01*
X448939Y203346D01*
X452937D01*
X453937Y204346D01*
Y206346D01*
X452937Y207345D01*
X448939Y209345D02*
X447939Y210344D01*
Y212344D01*
X448939Y213343D01*
X449938D01*
X450938Y212344D01*
Y211344D01*
Y212344D01*
X451938Y213343D01*
X452937D01*
X453937Y212344D01*
Y210344D01*
X452937Y209345D01*
X447939Y215343D02*
Y219341D01*
X448939D01*
X452937Y215343D01*
X453937D01*
X439096Y208723D02*
X438096Y207723D01*
Y205724D01*
X439096Y204724D01*
X443095D01*
X444095Y205724D01*
Y207723D01*
X443095Y208723D01*
X439096Y210722D02*
X438096Y211722D01*
Y213721D01*
X439096Y214721D01*
X440096D01*
X441095Y213721D01*
Y212722D01*
Y213721D01*
X442095Y214721D01*
X443095D01*
X444095Y213721D01*
Y211722D01*
X443095Y210722D01*
X439096Y216721D02*
X438096Y217720D01*
Y219720D01*
X439096Y220719D01*
X440096D01*
X441095Y219720D01*
X442095Y220719D01*
X443095D01*
X444095Y219720D01*
Y217720D01*
X443095Y216721D01*
X442095D01*
X441095Y217720D01*
X440096Y216721D01*
X439096D01*
X441095Y217720D02*
Y219720D01*
X601899Y333780D02*
X600899Y334780D01*
X598900D01*
X597900Y333780D01*
Y329782D01*
X598900Y328782D01*
X600899D01*
X601899Y329782D01*
X603898Y333780D02*
X604898Y334780D01*
X606897D01*
X607897Y333780D01*
Y332781D01*
X606897Y331781D01*
X605897D01*
X606897D01*
X607897Y330781D01*
Y329782D01*
X606897Y328782D01*
X604898D01*
X603898Y329782D01*
X609896D02*
X610896Y328782D01*
X612895D01*
X613895Y329782D01*
Y333780D01*
X612895Y334780D01*
X610896D01*
X609896Y333780D01*
Y332781D01*
X610896Y331781D01*
X613895D01*
X600455Y296731D02*
X599456Y297730D01*
X597456D01*
X596457Y296731D01*
Y292732D01*
X597456Y291732D01*
X599456D01*
X600455Y292732D01*
X605454Y291732D02*
Y297730D01*
X602455Y294731D01*
X606454D01*
X608453Y296731D02*
X609452Y297730D01*
X611452D01*
X612452Y296731D01*
Y292732D01*
X611452Y291732D01*
X609452D01*
X608453Y292732D01*
Y296731D01*
X481222Y333920D02*
X480222Y332920D01*
Y330921D01*
X481222Y329921D01*
X485221D01*
X486221Y330921D01*
Y332920D01*
X485221Y333920D01*
X486221Y338918D02*
X480222D01*
X483221Y335919D01*
Y339918D01*
X486221Y341917D02*
Y343917D01*
Y342917D01*
X480222D01*
X481222Y341917D01*
X470986Y333329D02*
X469986Y332330D01*
Y330330D01*
X470986Y329331D01*
X474985D01*
X475984Y330330D01*
Y332330D01*
X474985Y333329D01*
X475984Y338328D02*
X469986D01*
X472985Y335329D01*
Y339328D01*
X475984Y345325D02*
Y341327D01*
X471985Y345325D01*
X470986D01*
X469986Y344326D01*
Y342326D01*
X470986Y341327D01*
X491852Y333920D02*
X490852Y332920D01*
Y330921D01*
X491852Y329921D01*
X495851D01*
X496850Y330921D01*
Y332920D01*
X495851Y333920D01*
X496850Y338918D02*
X490852D01*
X493851Y335919D01*
Y339918D01*
X491852Y341917D02*
X490852Y342917D01*
Y344916D01*
X491852Y345916D01*
X492852D01*
X493851Y344916D01*
Y343917D01*
Y344916D01*
X494851Y345916D01*
X495851D01*
X496850Y344916D01*
Y342917D01*
X495851Y341917D01*
X461143Y333133D02*
X460144Y332133D01*
Y330134D01*
X461143Y329134D01*
X465142D01*
X466142Y330134D01*
Y332133D01*
X465142Y333133D01*
X466142Y338131D02*
X460144D01*
X463143Y335132D01*
Y339131D01*
X466142Y344129D02*
X460144D01*
X463143Y341130D01*
Y345129D01*
X639096Y322896D02*
X638096Y321897D01*
Y319897D01*
X639096Y318898D01*
X643095D01*
X644095Y319897D01*
Y321897D01*
X643095Y322896D01*
X638096Y328894D02*
X639096Y326895D01*
X641095Y324896D01*
X643095D01*
X644095Y325895D01*
Y327895D01*
X643095Y328894D01*
X642095D01*
X641095Y327895D01*
Y324896D01*
X639096Y330894D02*
X638096Y331893D01*
Y333893D01*
X639096Y334893D01*
X643095D01*
X644095Y333893D01*
Y331893D01*
X643095Y330894D01*
X639096D01*
X629254Y323684D02*
X628254Y322684D01*
Y320685D01*
X629254Y319685D01*
X633252D01*
X634252Y320685D01*
Y322684D01*
X633252Y323684D01*
X628254Y329682D02*
X629254Y327682D01*
X631253Y325683D01*
X633252D01*
X634252Y326683D01*
Y328682D01*
X633252Y329682D01*
X632253D01*
X631253Y328682D01*
Y325683D01*
X634252Y331681D02*
Y333681D01*
Y332681D01*
X628254D01*
X629254Y331681D01*
X285889Y425865D02*
X284889Y426864D01*
X282889D01*
X281890Y425865D01*
Y421866D01*
X282889Y420866D01*
X284889D01*
X285889Y421866D01*
X291886Y426864D02*
X289887Y425865D01*
X287888Y423865D01*
Y421866D01*
X288888Y420866D01*
X290887D01*
X291886Y421866D01*
Y422865D01*
X290887Y423865D01*
X287888D01*
X297885Y420866D02*
X293886D01*
X297885Y424865D01*
Y425865D01*
X296885Y426864D01*
X294886D01*
X293886Y425865D01*
X285889Y414841D02*
X284889Y415841D01*
X282889D01*
X281890Y414841D01*
Y410842D01*
X282889Y409842D01*
X284889D01*
X285889Y410842D01*
X291886Y415841D02*
X289887Y414841D01*
X287888Y412842D01*
Y410842D01*
X288888Y409842D01*
X290887D01*
X291886Y410842D01*
Y411842D01*
X290887Y412842D01*
X287888D01*
X293886Y414841D02*
X294886Y415841D01*
X296885D01*
X297885Y414841D01*
Y413841D01*
X296885Y412842D01*
X295885D01*
X296885D01*
X297885Y411842D01*
Y410842D01*
X296885Y409842D01*
X294886D01*
X293886Y410842D01*
X553817Y265293D02*
X554817Y266292D01*
Y268292D01*
X553817Y269291D01*
X549819D01*
X548819Y268292D01*
Y266292D01*
X549819Y265293D01*
X554817Y260294D02*
Y262294D01*
X553817Y263293D01*
X549819D01*
X548819Y262294D01*
Y260294D01*
X549819Y259295D01*
X553817D01*
X554817Y260294D01*
X548819Y257295D02*
X554817D01*
X548819Y253296D01*
X554817D01*
X548819Y251297D02*
Y249298D01*
Y250297D01*
X554817D01*
X553817Y251297D01*
X361537Y115416D02*
X360537Y114416D01*
Y112417D01*
X361537Y111417D01*
X365536D01*
X366535Y112417D01*
Y114416D01*
X365536Y115416D01*
X360537Y120414D02*
Y118415D01*
X361537Y117415D01*
X365536D01*
X366535Y118415D01*
Y120414D01*
X365536Y121414D01*
X361537D01*
X360537Y120414D01*
X366535Y123413D02*
X360537D01*
X366535Y127412D01*
X360537D01*
X366535Y133410D02*
Y129411D01*
X362537Y133410D01*
X361537D01*
X360537Y132411D01*
Y130411D01*
X361537Y129411D01*
X169017Y306361D02*
X168018Y305361D01*
Y303362D01*
X169017Y302362D01*
X173016D01*
X174016Y303362D01*
Y305361D01*
X173016Y306361D01*
X168018Y311359D02*
Y309360D01*
X169017Y308360D01*
X173016D01*
X174016Y309360D01*
Y311359D01*
X173016Y312359D01*
X169017D01*
X168018Y311359D01*
X174016Y314358D02*
X168018D01*
X174016Y318357D01*
X168018D01*
X169017Y320356D02*
X168018Y321356D01*
Y323355D01*
X169017Y324355D01*
X170017D01*
X171017Y323355D01*
Y322356D01*
Y323355D01*
X172016Y324355D01*
X173016D01*
X174016Y323355D01*
Y321356D01*
X173016Y320356D01*
X166261Y242975D02*
X165262Y241975D01*
Y239976D01*
X166261Y238976D01*
X170260D01*
X171260Y239976D01*
Y241975D01*
X170260Y242975D01*
X165262Y247973D02*
Y245974D01*
X166261Y244974D01*
X170260D01*
X171260Y245974D01*
Y247973D01*
X170260Y248973D01*
X166261D01*
X165262Y247973D01*
X171260Y250973D02*
X165262D01*
X171260Y254971D01*
X165262D01*
X171260Y259970D02*
X165262D01*
X168261Y256971D01*
Y260969D01*
X470534Y432164D02*
X469534Y433163D01*
X467535D01*
X466535Y432164D01*
Y428165D01*
X467535Y427165D01*
X469534D01*
X470534Y428165D01*
X475532Y433163D02*
X473533D01*
X472534Y432164D01*
Y428165D01*
X473533Y427165D01*
X475532D01*
X476532Y428165D01*
Y432164D01*
X475532Y433163D01*
X478532Y427165D02*
Y433163D01*
X482530Y427165D01*
Y433163D01*
X484530D02*
X488528D01*
Y432164D01*
X484530Y428165D01*
Y427165D01*
X468172Y478227D02*
X467172Y479226D01*
X465173D01*
X464173Y478227D01*
Y474228D01*
X465173Y473228D01*
X467172D01*
X468172Y474228D01*
X473170Y479226D02*
X471171D01*
X470171Y478227D01*
Y474228D01*
X471171Y473228D01*
X473170D01*
X474170Y474228D01*
Y478227D01*
X473170Y479226D01*
X476169Y473228D02*
Y479226D01*
X480168Y473228D01*
Y479226D01*
X482167Y478227D02*
X483167Y479226D01*
X485166D01*
X486166Y478227D01*
Y477227D01*
X485166Y476227D01*
X486166Y475228D01*
Y474228D01*
X485166Y473228D01*
X483167D01*
X482167Y474228D01*
Y475228D01*
X483167Y476227D01*
X482167Y477227D01*
Y478227D01*
X483167Y476227D02*
X485166D01*
X466597Y371140D02*
X465597Y372140D01*
X463598D01*
X462598Y371140D01*
Y367141D01*
X463598Y366142D01*
X465597D01*
X466597Y367141D01*
X471595Y372140D02*
X469596D01*
X468597Y371140D01*
Y367141D01*
X469596Y366142D01*
X471595D01*
X472595Y367141D01*
Y371140D01*
X471595Y372140D01*
X474594Y366142D02*
Y372140D01*
X478593Y366142D01*
Y372140D01*
X480593Y367141D02*
X481592Y366142D01*
X483592D01*
X484591Y367141D01*
Y371140D01*
X483592Y372140D01*
X481592D01*
X480593Y371140D01*
Y370140D01*
X481592Y369141D01*
X484591D01*
X463054Y397518D02*
X462054Y398518D01*
X460055D01*
X459055Y397518D01*
Y393519D01*
X460055Y392520D01*
X462054D01*
X463054Y393519D01*
X468052Y398518D02*
X466053D01*
X465053Y397518D01*
Y393519D01*
X466053Y392520D01*
X468052D01*
X469052Y393519D01*
Y397518D01*
X468052Y398518D01*
X471051Y392520D02*
Y398518D01*
X475050Y392520D01*
Y398518D01*
X477049Y392520D02*
X479049D01*
X478049D01*
Y398518D01*
X477049Y397518D01*
X482048D02*
X483047Y398518D01*
X485047D01*
X486046Y397518D01*
Y393519D01*
X485047Y392520D01*
X483047D01*
X482048Y393519D01*
Y397518D01*
X389661Y226649D02*
X388661Y227649D01*
X386662D01*
X385662Y226649D01*
Y222651D01*
X386662Y221651D01*
X388661D01*
X389661Y222651D01*
X394659Y227649D02*
X392660D01*
X391660Y226649D01*
Y222651D01*
X392660Y221651D01*
X394659D01*
X395659Y222651D01*
Y226649D01*
X394659Y227649D01*
X397658Y221651D02*
Y227649D01*
X401657Y221651D01*
Y227649D01*
X403656Y221651D02*
X405656D01*
X404656D01*
Y227649D01*
X403656Y226649D01*
X408655Y221651D02*
X410654D01*
X409654D01*
Y227649D01*
X408655Y226649D01*
X476046Y182557D02*
X475046Y183557D01*
X473047D01*
X472047Y182557D01*
Y178559D01*
X473047Y177559D01*
X475046D01*
X476046Y178559D01*
X481044Y183557D02*
X479045D01*
X478045Y182557D01*
Y178559D01*
X479045Y177559D01*
X481044D01*
X482044Y178559D01*
Y182557D01*
X481044Y183557D01*
X484043Y177559D02*
Y183557D01*
X488042Y177559D01*
Y183557D01*
X490041Y177559D02*
X492041D01*
X491041D01*
Y183557D01*
X490041Y182557D01*
X499039Y177559D02*
X495040D01*
X499039Y181558D01*
Y182557D01*
X498039Y183557D01*
X496039D01*
X495040Y182557D01*
X128353Y465804D02*
X127353Y466804D01*
X125354D01*
X124354Y465804D01*
Y461806D01*
X125354Y460806D01*
X127353D01*
X128353Y461806D01*
X133351Y466804D02*
X131352D01*
X130352Y465804D01*
Y461806D01*
X131352Y460806D01*
X133351D01*
X134351Y461806D01*
Y465804D01*
X133351Y466804D01*
X136351Y460806D02*
Y466804D01*
X140349Y460806D01*
Y466804D01*
X142349Y460806D02*
X144348D01*
X143348D01*
Y466804D01*
X142349Y465804D01*
X147347D02*
X148347Y466804D01*
X150346D01*
X151346Y465804D01*
Y464805D01*
X150346Y463805D01*
X149346D01*
X150346D01*
X151346Y462805D01*
Y461806D01*
X150346Y460806D01*
X148347D01*
X147347Y461806D01*
X250849Y496140D02*
X249849Y497140D01*
X247850D01*
X246850Y496140D01*
Y492142D01*
X247850Y491142D01*
X249849D01*
X250849Y492142D01*
X255848Y497140D02*
X253848D01*
X252849Y496140D01*
Y492142D01*
X253848Y491142D01*
X255848D01*
X256847Y492142D01*
Y496140D01*
X255848Y497140D01*
X258846Y491142D02*
Y497140D01*
X262845Y491142D01*
Y497140D01*
X264845Y491142D02*
X266844D01*
X265844D01*
Y497140D01*
X264845Y496140D01*
X272842Y491142D02*
Y497140D01*
X269843Y494141D01*
X273842D01*
X216085Y494565D02*
X215086Y495565D01*
X213086D01*
X212087Y494565D01*
Y490567D01*
X213086Y489567D01*
X215086D01*
X216085Y490567D01*
X221084Y495565D02*
X219084D01*
X218085Y494565D01*
Y490567D01*
X219084Y489567D01*
X221084D01*
X222083Y490567D01*
Y494565D01*
X221084Y495565D01*
X224083Y489567D02*
Y495565D01*
X228081Y489567D01*
Y495565D01*
X230081Y489567D02*
X232080D01*
X231081D01*
Y495565D01*
X230081Y494565D01*
X239078Y495565D02*
X235079D01*
Y492566D01*
X237078Y493566D01*
X238078D01*
X239078Y492566D01*
Y490567D01*
X238078Y489567D01*
X236079D01*
X235079Y490567D01*
X175259Y497321D02*
X174259Y498321D01*
X172259D01*
X171260Y497321D01*
Y493323D01*
X172259Y492323D01*
X174259D01*
X175259Y493323D01*
X180257Y498321D02*
X178258D01*
X177258Y497321D01*
Y493323D01*
X178258Y492323D01*
X180257D01*
X181257Y493323D01*
Y497321D01*
X180257Y498321D01*
X183256Y492323D02*
Y498321D01*
X187255Y492323D01*
Y498321D01*
X189254Y492323D02*
X191253D01*
X190254D01*
Y498321D01*
X189254Y497321D01*
X198251Y498321D02*
X196252Y497321D01*
X194252Y495322D01*
Y493323D01*
X195252Y492323D01*
X197251D01*
X198251Y493323D01*
Y494322D01*
X197251Y495322D01*
X194252D01*
X353958Y532443D02*
X355957D01*
X354958D01*
Y526445D01*
X353958D01*
X355957D01*
X362955Y531443D02*
X361955Y532443D01*
X359956D01*
X358956Y531443D01*
Y527445D01*
X359956Y526445D01*
X361955D01*
X362955Y527445D01*
X364954Y526445D02*
X366954D01*
X365954D01*
Y532443D01*
X364954Y531443D01*
X373687Y387691D02*
Y382693D01*
X374687Y381693D01*
X376686D01*
X377686Y382693D01*
Y387691D01*
X379685Y381693D02*
X381685D01*
X380685D01*
Y387691D01*
X379685Y386691D01*
X548425Y286707D02*
Y281708D01*
X549425Y280709D01*
X551424D01*
X552424Y281708D01*
Y286707D01*
X558422Y280709D02*
X554423D01*
X558422Y284707D01*
Y285707D01*
X557422Y286707D01*
X555423D01*
X554423Y285707D01*
X189897Y459811D02*
Y454813D01*
X190896Y453813D01*
X192896D01*
X193895Y454813D01*
Y459811D01*
X195895Y458812D02*
X196895Y459811D01*
X198894D01*
X199893Y458812D01*
Y457812D01*
X198894Y456812D01*
X197894D01*
X198894D01*
X199893Y455813D01*
Y454813D01*
X198894Y453813D01*
X196895D01*
X195895Y454813D01*
X245576Y459479D02*
Y454481D01*
X246576Y453481D01*
X248575D01*
X249575Y454481D01*
Y459479D01*
X254573Y453481D02*
Y459479D01*
X251574Y456480D01*
X255573D01*
X231890Y233163D02*
Y228165D01*
X232889Y227165D01*
X234889D01*
X235889Y228165D01*
Y233163D01*
X241886D02*
X239887Y232164D01*
X237888Y230164D01*
Y228165D01*
X238888Y227165D01*
X240887D01*
X241886Y228165D01*
Y229165D01*
X240887Y230164D01*
X237888D01*
X649405Y333648D02*
Y328650D01*
X650405Y327650D01*
X652404D01*
X653404Y328650D01*
Y333648D01*
X655404Y327650D02*
X657403D01*
X656403D01*
Y333648D01*
X655404Y332649D01*
X663401Y327650D02*
Y333648D01*
X660402Y330649D01*
X664401D01*
X401968Y113478D02*
X405967Y107480D01*
Y113478D02*
X401968Y107480D01*
X407967Y113478D02*
X411965D01*
X409966D01*
Y107480D01*
X413965D02*
Y111479D01*
X415964Y113478D01*
X417963Y111479D01*
Y107480D01*
Y110479D01*
X413965D01*
X419963Y113478D02*
Y107480D01*
X423961D01*
X425961D02*
X427960D01*
X426960D01*
Y113478D01*
X425961Y112479D01*
X565748Y272140D02*
X569747Y266142D01*
Y272140D02*
X565748Y266142D01*
X571746Y272140D02*
X575745D01*
X573745D01*
Y266142D01*
X577744D02*
Y270140D01*
X579743Y272140D01*
X581743Y270140D01*
Y266142D01*
Y269141D01*
X577744D01*
X583742Y272140D02*
Y266142D01*
X587741D01*
X593739D02*
X589740D01*
X593739Y270140D01*
Y271140D01*
X592739Y272140D01*
X590740D01*
X589740Y271140D01*
X315688Y206129D02*
Y201130D01*
X316688Y200131D01*
X318687D01*
X319687Y201130D01*
Y206129D01*
X325685D02*
X321686D01*
Y203130D01*
X323686Y204129D01*
X324685D01*
X325685Y203130D01*
Y201130D01*
X324685Y200131D01*
X322686D01*
X321686Y201130D01*
X299213Y113779D02*
X301212D01*
X300212D01*
Y119778D01*
X299213Y118778D01*
X304211Y115779D02*
X308210D01*
X304211Y117778D02*
X308210D01*
X310209Y113779D02*
X313208Y116779D01*
X310209Y119778D01*
X487008Y246063D02*
X489007D01*
X488007D01*
Y252061D01*
X487008Y251061D01*
X492006Y248062D02*
X496005D01*
X492006Y250062D02*
X496005D01*
X498004Y246063D02*
X501003Y249062D01*
X498004Y252061D01*
X179528Y331890D02*
Y337888D01*
X181527Y335889D01*
X183526Y337888D01*
Y331890D01*
X188525Y337888D02*
X186525D01*
X185526Y336888D01*
Y332889D01*
X186525Y331890D01*
X188525D01*
X189524Y332889D01*
Y336888D01*
X188525Y337888D01*
X191524D02*
X195522D01*
X193523D01*
Y331890D01*
X200521Y337888D02*
X198521D01*
X197522Y336888D01*
Y332889D01*
X198521Y331890D01*
X200521D01*
X201520Y332889D01*
Y336888D01*
X200521Y337888D01*
X203520Y331890D02*
Y337888D01*
X206519D01*
X207519Y336888D01*
Y334889D01*
X206519Y333889D01*
X203520D01*
X205519D02*
X207519Y331890D01*
X215516Y337888D02*
Y331890D01*
X218515D01*
X219515Y332889D01*
Y336888D01*
X218515Y337888D01*
X215516D01*
X221514Y331890D02*
Y337888D01*
X224513D01*
X225513Y336888D01*
Y334889D01*
X224513Y333889D01*
X221514D01*
X223513D02*
X225513Y331890D01*
X227512Y337888D02*
X229511D01*
X228512D01*
Y331890D01*
X227512D01*
X229511D01*
X232510Y337888D02*
Y333889D01*
X234510Y331890D01*
X236509Y333889D01*
Y337888D01*
X242507D02*
X238509D01*
Y331890D01*
X242507D01*
X238509Y334889D02*
X240508D01*
X244507Y331890D02*
Y337888D01*
X247506D01*
X248505Y336888D01*
Y334889D01*
X247506Y333889D01*
X244507D01*
X246506D02*
X248505Y331890D01*
X280709Y380408D02*
Y374410D01*
X284707D01*
X290705Y380408D02*
X286707D01*
Y374410D01*
X290705D01*
X286707Y377409D02*
X288706D01*
X292705Y380408D02*
Y376409D01*
X294704Y374410D01*
X296704Y376409D01*
Y380408D01*
X302701D02*
X298703D01*
Y374410D01*
X302701D01*
X298703Y377409D02*
X300702D01*
X304701Y380408D02*
Y374410D01*
X308700D01*
X320696Y379408D02*
X319696Y380408D01*
X317697D01*
X316697Y379408D01*
Y375409D01*
X317697Y374410D01*
X319696D01*
X320696Y375409D01*
X325694Y380408D02*
X323695D01*
X322695Y379408D01*
Y375409D01*
X323695Y374410D01*
X325694D01*
X326694Y375409D01*
Y379408D01*
X325694Y380408D01*
X328693Y374410D02*
Y380408D01*
X332692Y374410D01*
Y380408D01*
X334691D02*
Y376409D01*
X336690Y374410D01*
X338690Y376409D01*
Y380408D01*
X344688D02*
X340689D01*
Y374410D01*
X344688D01*
X340689Y377409D02*
X342689D01*
X346687Y374410D02*
Y380408D01*
X349686D01*
X350686Y379408D01*
Y377409D01*
X349686Y376409D01*
X346687D01*
X348687D02*
X350686Y374410D01*
X352685Y380408D02*
X356684D01*
X354685D01*
Y374410D01*
X361683Y380408D02*
X359683D01*
X358683Y379408D01*
Y375409D01*
X359683Y374410D01*
X361683D01*
X362682Y375409D01*
Y379408D01*
X361683Y380408D01*
X364682Y374410D02*
Y380408D01*
X367681D01*
X368680Y379408D01*
Y377409D01*
X367681Y376409D01*
X364682D01*
X366681D02*
X368680Y374410D01*
X642126Y254423D02*
Y248425D01*
Y251424D01*
X646125D01*
Y254423D01*
Y248425D01*
X652123Y253424D02*
X651123Y254423D01*
X649124D01*
X648124Y253424D01*
Y249425D01*
X649124Y248425D01*
X651123D01*
X652123Y249425D01*
X654122Y251424D02*
X658121D01*
X664119Y253424D02*
X663119Y254423D01*
X661120D01*
X660120Y253424D01*
Y252424D01*
X661120Y251424D01*
X663119D01*
X664119Y250425D01*
Y249425D01*
X663119Y248425D01*
X661120D01*
X660120Y249425D01*
X666118Y248425D02*
Y254423D01*
X669117D01*
X670117Y253424D01*
Y251424D01*
X669117Y250425D01*
X666118D01*
X668118D02*
X670117Y248425D01*
X672116Y253424D02*
X673116Y254423D01*
X675115D01*
X676115Y253424D01*
Y249425D01*
X675115Y248425D01*
X673116D01*
X672116Y249425D01*
Y253424D01*
X681113Y248425D02*
Y254423D01*
X678114Y251424D01*
X682113D01*
X434947Y431164D02*
Y427165D01*
X440945D01*
Y431164D01*
X437946Y427165D02*
Y429165D01*
X435947Y437162D02*
X434947Y436162D01*
Y434163D01*
X435947Y433163D01*
X436946D01*
X437946Y434163D01*
Y436162D01*
X438945Y437162D01*
X439945D01*
X440945Y436162D01*
Y434163D01*
X439945Y433163D01*
X440945Y439161D02*
X434947D01*
Y442161D01*
X435947Y443160D01*
X437946D01*
X438945Y442161D01*
Y439161D01*
X435947Y445159D02*
X434947Y446159D01*
Y448159D01*
X435947Y449158D01*
X436946D01*
X437946Y448159D01*
X438945Y449158D01*
X439945D01*
X440945Y448159D01*
Y446159D01*
X439945Y445159D01*
X438945D01*
X437946Y446159D01*
X436946Y445159D01*
X435947D01*
X437946Y446159D02*
Y448159D01*
X440945Y455156D02*
Y451158D01*
X436946Y455156D01*
X435947D01*
X434947Y454157D01*
Y452157D01*
X435947Y451158D01*
X434947Y461154D02*
X435947Y459155D01*
X437946Y457156D01*
X439945D01*
X440945Y458155D01*
Y460155D01*
X439945Y461154D01*
X438945D01*
X437946Y460155D01*
Y457156D01*
X434947Y467152D02*
X435947Y465153D01*
X437946Y463154D01*
X439945D01*
X440945Y464153D01*
Y466153D01*
X439945Y467152D01*
X438945D01*
X437946Y466153D01*
Y463154D01*
X322047Y490158D02*
Y494156D01*
X324047Y496156D01*
X326046Y494156D01*
Y490158D01*
Y493156D01*
X322047D01*
X328045Y490158D02*
Y496156D01*
X332044Y490158D01*
Y496156D01*
X334043D02*
X338042D01*
X336043D01*
Y490158D01*
X340041Y496156D02*
Y490158D01*
Y493156D01*
X344040D01*
Y496156D01*
Y490158D01*
X346040D02*
X349039Y493156D01*
X346040Y496156D01*
X322835Y279134D02*
Y283133D01*
X324834Y285132D01*
X326833Y283133D01*
Y279134D01*
Y282133D01*
X322835D01*
X328833Y285132D02*
X332831D01*
X330832D01*
Y279134D01*
X334831D02*
Y283133D01*
X335830D01*
X336830Y282133D01*
Y279134D01*
Y282133D01*
X337830Y283133D01*
X338829Y282133D01*
Y279134D01*
X343828D02*
X341828D01*
X340829Y280134D01*
Y282133D01*
X341828Y283133D01*
X343828D01*
X344828Y282133D01*
Y281133D01*
X340829D01*
X348826Y277134D02*
X349826D01*
X350826Y278134D01*
Y283133D01*
X347827D01*
X346827Y282133D01*
Y280134D01*
X347827Y279134D01*
X350826D01*
X353825Y283133D02*
X355824D01*
X356824Y282133D01*
Y279134D01*
X353825D01*
X352825Y280134D01*
X353825Y281133D01*
X356824D01*
X358823Y279134D02*
Y285132D01*
X360822Y283133D01*
X362822Y285132D01*
Y279134D01*
X365821Y283133D02*
X367820D01*
X368820Y282133D01*
Y279134D01*
X365821D01*
X364821Y280134D01*
X365821Y281133D01*
X368820D01*
X370819Y279134D02*
X372818D01*
X371819D01*
Y283133D01*
X370819D01*
X375817Y279134D02*
Y283133D01*
X378817D01*
X379816Y282133D01*
Y279134D01*
X381816Y282133D02*
X385814D01*
X383815Y284132D02*
Y280134D01*
X387814Y283133D02*
Y279134D01*
Y281133D01*
X388813Y282133D01*
X389813Y283133D01*
X390813D01*
X394811Y279134D02*
X396811D01*
X397810Y280134D01*
Y282133D01*
X396811Y283133D01*
X394811D01*
X393812Y282133D01*
Y280134D01*
X394811Y279134D01*
X400809Y284132D02*
Y283133D01*
X399810D01*
X401809D01*
X400809D01*
Y280134D01*
X401809Y279134D01*
X405808Y283133D02*
X407807D01*
X408807Y282133D01*
Y279134D01*
X405808D01*
X404808Y280134D01*
X405808Y281133D01*
X408807D01*
X410806Y283133D02*
Y279134D01*
Y281133D01*
X411806Y282133D01*
X412806Y283133D01*
X413805D01*
X416804D02*
Y280134D01*
X417804Y279134D01*
X420803D01*
Y278134D01*
X419803Y277134D01*
X418804D01*
X420803Y279134D02*
Y283133D01*
X431799Y279134D02*
X429800D01*
X428800Y280134D01*
Y282133D01*
X429800Y283133D01*
X431799D01*
X432799Y282133D01*
Y281133D01*
X428800D01*
X434798Y279134D02*
Y283133D01*
X437797D01*
X438797Y282133D01*
Y279134D01*
X444795Y283133D02*
X441796D01*
X440797Y282133D01*
Y280134D01*
X441796Y279134D01*
X444795D01*
X447794D02*
X449794D01*
X450793Y280134D01*
Y282133D01*
X449794Y283133D01*
X447794D01*
X446795Y282133D01*
Y280134D01*
X447794Y279134D01*
X456791Y285132D02*
Y279134D01*
X453792D01*
X452793Y280134D01*
Y282133D01*
X453792Y283133D01*
X456791D01*
X461790Y279134D02*
X459790D01*
X458791Y280134D01*
Y282133D01*
X459790Y283133D01*
X461790D01*
X462789Y282133D01*
Y281133D01*
X458791D01*
X464789Y283133D02*
Y279134D01*
Y281133D01*
X465788Y282133D01*
X466788Y283133D01*
X467788D01*
X470787Y279134D02*
X473786D01*
X474786Y280134D01*
X473786Y281133D01*
X471786D01*
X470787Y282133D01*
X471786Y283133D01*
X474786D01*
X474409Y139370D02*
Y143369D01*
X476409Y145368D01*
X478408Y143369D01*
Y139370D01*
Y142369D01*
X474409D01*
X480407Y145368D02*
X484406D01*
X482407D01*
Y139370D01*
X486406D02*
Y143369D01*
X487405D01*
X488405Y142369D01*
Y139370D01*
Y142369D01*
X489405Y143369D01*
X490404Y142369D01*
Y139370D01*
X495403D02*
X493403D01*
X492404Y140370D01*
Y142369D01*
X493403Y143369D01*
X495403D01*
X496402Y142369D01*
Y141369D01*
X492404D01*
X500401Y137371D02*
X501401D01*
X502400Y138370D01*
Y143369D01*
X499401D01*
X498402Y142369D01*
Y140370D01*
X499401Y139370D01*
X502400D01*
X505399Y143369D02*
X507399D01*
X508398Y142369D01*
Y139370D01*
X505399D01*
X504400Y140370D01*
X505399Y141369D01*
X508398D01*
X516396Y139370D02*
X519395D01*
X520395Y140370D01*
X519395Y141369D01*
X517396D01*
X516396Y142369D01*
X517396Y143369D01*
X520395D01*
X525393Y139370D02*
X523394D01*
X522394Y140370D01*
Y142369D01*
X523394Y143369D01*
X525393D01*
X526393Y142369D01*
Y141369D01*
X522394D01*
X532391Y143369D02*
X529392D01*
X528392Y142369D01*
Y140370D01*
X529392Y139370D01*
X532391D01*
X535390D02*
X537389D01*
X538389Y140370D01*
Y142369D01*
X537389Y143369D01*
X535390D01*
X534390Y142369D01*
Y140370D01*
X535390Y139370D01*
X540388D02*
Y143369D01*
X543387D01*
X544387Y142369D01*
Y139370D01*
X550385Y145368D02*
Y139370D01*
X547386D01*
X546386Y140370D01*
Y142369D01*
X547386Y143369D01*
X550385D01*
X553384D02*
X555383D01*
X556383Y142369D01*
Y139370D01*
X553384D01*
X552384Y140370D01*
X553384Y141369D01*
X556383D01*
X558382Y143369D02*
Y139370D01*
Y141369D01*
X559382Y142369D01*
X560382Y143369D01*
X561381D01*
X564380D02*
Y140370D01*
X565380Y139370D01*
X568379D01*
Y138370D01*
X567379Y137371D01*
X566380D01*
X568379Y139370D02*
Y143369D01*
X576376Y142369D02*
X580375D01*
X578376Y144369D02*
Y140370D01*
X588373Y143369D02*
Y139370D01*
Y141369D01*
X589372Y142369D01*
X590372Y143369D01*
X591372D01*
X598369D02*
X595370D01*
X594371Y142369D01*
Y140370D01*
X595370Y139370D01*
X598369D01*
X606367Y143369D02*
Y139370D01*
Y141369D01*
X607366Y142369D01*
X608366Y143369D01*
X609366D01*
X615364Y139370D02*
X613365D01*
X612365Y140370D01*
Y142369D01*
X613365Y143369D01*
X615364D01*
X616363Y142369D01*
Y141369D01*
X612365D01*
X622362Y143369D02*
X619363D01*
X618363Y142369D01*
Y140370D01*
X619363Y139370D01*
X622362D01*
X624361D02*
X626360D01*
X625361D01*
Y143369D01*
X624361D01*
X632358Y139370D02*
X630359D01*
X629359Y140370D01*
Y142369D01*
X630359Y143369D01*
X632358D01*
X633358Y142369D01*
Y141369D01*
X629359D01*
X635357Y143369D02*
X637357Y139370D01*
X639356Y143369D01*
X644354Y139370D02*
X642355D01*
X641356Y140370D01*
Y142369D01*
X642355Y143369D01*
X644354D01*
X645354Y142369D01*
Y141369D01*
X641356D01*
X647354Y143369D02*
Y139370D01*
Y141369D01*
X648353Y142369D01*
X649353Y143369D01*
X650352D01*
D38*
X233661Y263583D02*
G03*
X233661Y263583I-1181J0D01*
G01*
X328346Y154724D02*
G03*
X328346Y154724I-1181J0D01*
G01*
X515354Y303150D02*
G03*
X515354Y303150I-1181J0D01*
G01*
D39*
X371962Y503654D02*
X390462D01*
X371612Y503704D02*
X390862D01*
X371362Y503754D02*
X391062D01*
X371162Y503804D02*
X391262D01*
X371012Y503854D02*
X391412D01*
X370862Y503904D02*
X391562D01*
X370712Y503954D02*
X391712D01*
X370612Y504004D02*
X391812D01*
X370512Y504054D02*
X391912D01*
X390562Y504104D02*
X392012D01*
X370412D02*
X379912D01*
X390912Y504154D02*
X392112D01*
X370312D02*
X379962D01*
X391162Y504204D02*
X392212D01*
X370212D02*
X380062D01*
X391312Y504254D02*
X392312D01*
X370112D02*
X380112D01*
X391462Y504304D02*
X392412D01*
X370012D02*
X380162D01*
X391612Y504354D02*
X392462D01*
X369962D02*
X380212D01*
X391712Y504404D02*
X392562D01*
X369862D02*
X380262D01*
X391812Y504454D02*
X392612D01*
X369812D02*
X380312D01*
X391912Y504504D02*
X392662D01*
X369712D02*
X380362D01*
X392012Y504554D02*
X392762D01*
X369662D02*
X380412D01*
X392112Y504604D02*
X392812D01*
X369612D02*
X380462D01*
X392212Y504654D02*
X392862D01*
X369562D02*
X380512D01*
X392262Y504704D02*
X392912D01*
X369512D02*
X380562D01*
X392362Y504754D02*
X393012D01*
X369412D02*
X380612D01*
X392412Y504804D02*
X393062D01*
X369362D02*
X380662D01*
X392462Y504854D02*
X393112D01*
X369312D02*
X380662D01*
X392562Y504904D02*
X393162D01*
X369262D02*
X380712D01*
X392612Y504954D02*
X393212D01*
X369212D02*
X380762D01*
X392662Y505004D02*
X393262D01*
X369162D02*
X380812D01*
X392712Y505054D02*
X393312D01*
X369112D02*
X380862D01*
X392762Y505104D02*
X393362D01*
X369062D02*
X380862D01*
X392862Y505154D02*
X393412D01*
X369012D02*
X380912D01*
X392912Y505204D02*
X393412D01*
X368962D02*
X380962D01*
X392962Y505254D02*
X393462D01*
X368962D02*
X380962D01*
X393012Y505304D02*
X393512D01*
X368912D02*
X381012D01*
X393012Y505354D02*
X393562D01*
X368862D02*
X381062D01*
X393062Y505404D02*
X393612D01*
X368812D02*
X381062D01*
X393112Y505454D02*
X393612D01*
X368812D02*
X381112D01*
X393162Y505504D02*
X393662D01*
X368762D02*
X381162D01*
X393212Y505554D02*
X393712D01*
X368712D02*
X381162D01*
X393262Y505604D02*
X393762D01*
X368662D02*
X381212D01*
X393262Y505654D02*
X393762D01*
X368662D02*
X381212D01*
X393312Y505704D02*
X393812D01*
X368612D02*
X381262D01*
X393362Y505754D02*
X393862D01*
X368562D02*
X381262D01*
X393412Y505804D02*
X393862D01*
X368562D02*
X381312D01*
X393412Y505854D02*
X393912D01*
X368512D02*
X381312D01*
X393462Y505904D02*
X393912D01*
X368512D02*
X381362D01*
X393512Y505954D02*
X393962D01*
X368462D02*
X381362D01*
X393512Y506004D02*
X393962D01*
X368412D02*
X381412D01*
X393562Y506054D02*
X394012D01*
X368412D02*
X381412D01*
X393562Y506104D02*
X394012D01*
X368362D02*
X381412D01*
X393612Y506154D02*
X394062D01*
X368362D02*
X381462D01*
X393612Y506204D02*
X394062D01*
X368312D02*
X381462D01*
X393662Y506254D02*
X394112D01*
X368312D02*
X381512D01*
X393662Y506304D02*
X394112D01*
X368312D02*
X381512D01*
X393712Y506354D02*
X394162D01*
X368262D02*
X381512D01*
X393712Y506404D02*
X394162D01*
X368262D02*
X381562D01*
X393762Y506454D02*
X394212D01*
X390562D02*
X390612D01*
X389612D02*
X390412D01*
X389412D02*
X389512D01*
X383962D02*
X385212D01*
X380012D02*
X381562D01*
X376412D02*
X378762D01*
X375512D02*
X375612D01*
X375412D02*
X375462D01*
X372812D02*
X375312D01*
X371962D02*
X372012D01*
X368212D02*
X371862D01*
X393762Y506504D02*
X394212D01*
X389312D02*
X390612D01*
X383862D02*
X385212D01*
X380012D02*
X381562D01*
X376412D02*
X378712D01*
X372912D02*
X375312D01*
X368212D02*
X371812D01*
X393812Y506554D02*
X394212D01*
X389312D02*
X390612D01*
X383862D02*
X385212D01*
X380012D02*
X381612D01*
X376462D02*
X378712D01*
X372912D02*
X375312D01*
X368212D02*
X371812D01*
X393812Y506604D02*
X394262D01*
X389312D02*
X390612D01*
X383862D02*
X385212D01*
X380012D02*
X381612D01*
X376462D02*
X378712D01*
X372912D02*
X375262D01*
X368162D02*
X371812D01*
X393812Y506654D02*
X394262D01*
X389312D02*
X390612D01*
X383862D02*
X385212D01*
X380012D02*
X381612D01*
X376462D02*
X378762D01*
X372962D02*
X375262D01*
X368162D02*
X371762D01*
X393862Y506704D02*
X394262D01*
X389312D02*
X390612D01*
X383862D02*
X385212D01*
X380012D02*
X381612D01*
X376462D02*
X378762D01*
X372962D02*
X375262D01*
X368112D02*
X371762D01*
X393862Y506754D02*
X394312D01*
X389312D02*
X390612D01*
X383862D02*
X385212D01*
X380012D02*
X381662D01*
X376512D02*
X378712D01*
X372962D02*
X375212D01*
X368112D02*
X371762D01*
X393862Y506804D02*
X394312D01*
X389312D02*
X390612D01*
X383862D02*
X385212D01*
X380012D02*
X381662D01*
X376512D02*
X378712D01*
X373012D02*
X375212D01*
X368112D02*
X371762D01*
X393912Y506854D02*
X394312D01*
X389312D02*
X390612D01*
X383862D02*
X385212D01*
X380012D02*
X381662D01*
X376512D02*
X378712D01*
X373012D02*
X375212D01*
X368112D02*
X371712D01*
X393912Y506904D02*
X394362D01*
X389312D02*
X390612D01*
X383862D02*
X385212D01*
X380012D02*
X381662D01*
X376512D02*
X378712D01*
X373012D02*
X375212D01*
X368062D02*
X371712D01*
X393912Y506954D02*
X394362D01*
X389312D02*
X390612D01*
X383862D02*
X385212D01*
X380012D02*
X381712D01*
X376562D02*
X378712D01*
X373012D02*
X375162D01*
X368062D02*
X371712D01*
X393962Y507004D02*
X394362D01*
X389312D02*
X390612D01*
X383862D02*
X385212D01*
X380012D02*
X381712D01*
X376562D02*
X378712D01*
X373062D02*
X375162D01*
X368062D02*
X371662D01*
X393962Y507054D02*
X394362D01*
X389312D02*
X390612D01*
X383862D02*
X385212D01*
X380012D02*
X381712D01*
X376562D02*
X378712D01*
X373062D02*
X375162D01*
X368012D02*
X371662D01*
X393962Y507104D02*
X394412D01*
X389312D02*
X390612D01*
X383862D02*
X385212D01*
X380012D02*
X381712D01*
X376612D02*
X378712D01*
X373062D02*
X375112D01*
X368012D02*
X371662D01*
X393962Y507154D02*
X394412D01*
X389312D02*
X390612D01*
X383862D02*
X385212D01*
X380012D02*
X381712D01*
X376612D02*
X378712D01*
X373112D02*
X375112D01*
X368012D02*
X371662D01*
X394012Y507204D02*
X394412D01*
X389312D02*
X390612D01*
X383862D02*
X385212D01*
X380012D02*
X381762D01*
X376612D02*
X378712D01*
X373112D02*
X375112D01*
X368012D02*
X371612D01*
X394012Y507254D02*
X394412D01*
X389312D02*
X390612D01*
X383862D02*
X385212D01*
X380012D02*
X381762D01*
X376612D02*
X378712D01*
X373112D02*
X375112D01*
X368012D02*
X371612D01*
X394012Y507304D02*
X394412D01*
X389312D02*
X390612D01*
X383862D02*
X385212D01*
X380012D02*
X381762D01*
X376662D02*
X378712D01*
X373112D02*
X375062D01*
X367962D02*
X371612D01*
X394012Y507354D02*
X394462D01*
X389312D02*
X390612D01*
X383862D02*
X385212D01*
X380012D02*
X381762D01*
X376662D02*
X378712D01*
X373162D02*
X375062D01*
X367962D02*
X371612D01*
X394012Y507404D02*
X394462D01*
X389312D02*
X390612D01*
X383862D02*
X385212D01*
X380012D02*
X381762D01*
X376662D02*
X378712D01*
X373162D02*
X375062D01*
X367962D02*
X371562D01*
X394062Y507454D02*
X394462D01*
X389312D02*
X390612D01*
X383862D02*
X385212D01*
X380012D02*
X381762D01*
X376662D02*
X378712D01*
X373162D02*
X375012D01*
X367962D02*
X371562D01*
X394062Y507504D02*
X394462D01*
X389312D02*
X390612D01*
X383862D02*
X385212D01*
X380012D02*
X381762D01*
X376712D02*
X378712D01*
X373212D02*
X375012D01*
X367962D02*
X371562D01*
X394062Y507554D02*
X394462D01*
X389312D02*
X390612D01*
X383862D02*
X385212D01*
X380012D02*
X381762D01*
X376712D02*
X378712D01*
X373212D02*
X375012D01*
X367962D02*
X371562D01*
X394062Y507604D02*
X394462D01*
X389312D02*
X390612D01*
X383862D02*
X385212D01*
X380012D02*
X381812D01*
X376712D02*
X378712D01*
X373212D02*
X374962D01*
X367962D02*
X371512D01*
X394062Y507654D02*
X394512D01*
X389312D02*
X390612D01*
X383862D02*
X385212D01*
X380012D02*
X381812D01*
X376712D02*
X378712D01*
X373212D02*
X374962D01*
X367912D02*
X371512D01*
X394062Y507704D02*
X394512D01*
X389312D02*
X390612D01*
X383862D02*
X385212D01*
X380012D02*
X381812D01*
X376762D02*
X378712D01*
X373262D02*
X374962D01*
X367912D02*
X371512D01*
X394062Y507754D02*
X394512D01*
X389312D02*
X390612D01*
X383862D02*
X385212D01*
X380012D02*
X381812D01*
X376762D02*
X378712D01*
X373262D02*
X374962D01*
X367912D02*
X371462D01*
X394062Y507804D02*
X394512D01*
X389312D02*
X390612D01*
X383862D02*
X385212D01*
X380012D02*
X381812D01*
X376762D02*
X378712D01*
X373262D02*
X374912D01*
X367912D02*
X371462D01*
X394062Y507854D02*
X394512D01*
X389312D02*
X390612D01*
X383862D02*
X385212D01*
X380012D02*
X381812D01*
X376762D02*
X378712D01*
X373312D02*
X374912D01*
X367912D02*
X371462D01*
X394062Y507904D02*
X394512D01*
X389312D02*
X390612D01*
X383862D02*
X385212D01*
X380012D02*
X381812D01*
X376812D02*
X378712D01*
X373312D02*
X374912D01*
X367912D02*
X371462D01*
X394062Y507954D02*
X394512D01*
X389312D02*
X390612D01*
X383862D02*
X385212D01*
X380012D02*
X381812D01*
X376812D02*
X378712D01*
X373312D02*
X374862D01*
X367912D02*
X371412D01*
X394062Y508004D02*
X394512D01*
X389312D02*
X390612D01*
X383862D02*
X385212D01*
X380012D02*
X381812D01*
X376812D02*
X378712D01*
X373312D02*
X374862D01*
X367912D02*
X371412D01*
X394062Y508054D02*
X394512D01*
X389312D02*
X390612D01*
X383862D02*
X385212D01*
X380012D02*
X381812D01*
X376862D02*
X378712D01*
X373362D02*
X374862D01*
X367912D02*
X371412D01*
X394062Y508104D02*
X394512D01*
X389312D02*
X390612D01*
X383862D02*
X385212D01*
X380012D02*
X381812D01*
X376862D02*
X378712D01*
X373362D02*
X374862D01*
X367912D02*
X371412D01*
X394062Y508154D02*
X394512D01*
X389312D02*
X390612D01*
X383862D02*
X385212D01*
X380012D02*
X381812D01*
X376862D02*
X378712D01*
X373362D02*
X374812D01*
X367912D02*
X371362D01*
X394062Y508204D02*
X394512D01*
X389312D02*
X390612D01*
X383862D02*
X385212D01*
X380012D02*
X381812D01*
X376862D02*
X378712D01*
X373412D02*
X374812D01*
X367912D02*
X371362D01*
X394062Y508254D02*
X394512D01*
X389312D02*
X390612D01*
X383862D02*
X385212D01*
X380012D02*
X381812D01*
X376912D02*
X378712D01*
X373412D02*
X374812D01*
X367912D02*
X371362D01*
X394062Y508304D02*
X394512D01*
X389312D02*
X390612D01*
X383862D02*
X385212D01*
X380012D02*
X381812D01*
X376912D02*
X378712D01*
X373412D02*
X374812D01*
X367912D02*
X371362D01*
X394062Y508354D02*
X394512D01*
X389312D02*
X390612D01*
X383862D02*
X385212D01*
X380012D02*
X381812D01*
X376912D02*
X378712D01*
X373412D02*
X374762D01*
X367912D02*
X371312D01*
X394062Y508404D02*
X394512D01*
X389312D02*
X390612D01*
X383862D02*
X385212D01*
X380012D02*
X381812D01*
X376912D02*
X378712D01*
X373462D02*
X374762D01*
X367912D02*
X371312D01*
X394062Y508454D02*
X394512D01*
X389312D02*
X390612D01*
X383862D02*
X385212D01*
X380012D02*
X381812D01*
X376962D02*
X378712D01*
X373462D02*
X374762D01*
X367912D02*
X371312D01*
X394062Y508504D02*
X394512D01*
X389312D02*
X390612D01*
X383862D02*
X385212D01*
X380012D02*
X381812D01*
X376962D02*
X378712D01*
X373462D02*
X374712D01*
X367912D02*
X371262D01*
X394062Y508554D02*
X394512D01*
X389312D02*
X390612D01*
X383862D02*
X385212D01*
X380012D02*
X381812D01*
X376962D02*
X378712D01*
X373512D02*
X374712D01*
X367912D02*
X371262D01*
X394062Y508604D02*
X394512D01*
X389312D02*
X390612D01*
X383862D02*
X385212D01*
X380012D02*
X381812D01*
X376962D02*
X378712D01*
X375812D02*
X375862D01*
X373512D02*
X374712D01*
X367912D02*
X371262D01*
X394062Y508654D02*
X394512D01*
X389312D02*
X390612D01*
X383862D02*
X385212D01*
X380012D02*
X381812D01*
X377012D02*
X378712D01*
X375812D02*
X375862D01*
X373512D02*
X374662D01*
X367912D02*
X371262D01*
X394062Y508704D02*
X394512D01*
X389312D02*
X390612D01*
X383862D02*
X385212D01*
X380012D02*
X381812D01*
X377012D02*
X378712D01*
X375812D02*
X375912D01*
X373562D02*
X374662D01*
X367912D02*
X371212D01*
X394062Y508754D02*
X394512D01*
X389312D02*
X390612D01*
X383862D02*
X385212D01*
X380012D02*
X381812D01*
X377012D02*
X378712D01*
X375812D02*
X375912D01*
X373562D02*
X374662D01*
X372412D02*
X372462D01*
X367912D02*
X371212D01*
X394062Y508804D02*
X394512D01*
X389312D02*
X390612D01*
X383862D02*
X385212D01*
X380012D02*
X381812D01*
X377012D02*
X378712D01*
X375762D02*
X375912D01*
X373562D02*
X374662D01*
X372362D02*
X372462D01*
X367912D02*
X371212D01*
X394062Y508854D02*
X394512D01*
X389312D02*
X390612D01*
X383862D02*
X388212D01*
X380012D02*
X381812D01*
X377062D02*
X378712D01*
X375762D02*
X375912D01*
X373562D02*
X374612D01*
X372362D02*
X372462D01*
X367912D02*
X371212D01*
X394062Y508904D02*
X394512D01*
X389312D02*
X390612D01*
X383862D02*
X388212D01*
X380012D02*
X381812D01*
X377062D02*
X378712D01*
X375762D02*
X375962D01*
X373612D02*
X374612D01*
X372362D02*
X372512D01*
X367912D02*
X371162D01*
X394062Y508954D02*
X394512D01*
X389312D02*
X390612D01*
X383862D02*
X388212D01*
X380012D02*
X381812D01*
X377062D02*
X378712D01*
X375712D02*
X375962D01*
X373612D02*
X374612D01*
X372362D02*
X372512D01*
X367912D02*
X371162D01*
X394062Y509004D02*
X394512D01*
X389312D02*
X390612D01*
X383862D02*
X388212D01*
X380012D02*
X381812D01*
X377112D02*
X378712D01*
X375712D02*
X375962D01*
X373612D02*
X374562D01*
X372312D02*
X372512D01*
X367912D02*
X371162D01*
X394062Y509054D02*
X394512D01*
X389312D02*
X390612D01*
X383862D02*
X388212D01*
X380012D02*
X381812D01*
X377112D02*
X378712D01*
X375712D02*
X375962D01*
X373662D02*
X374562D01*
X372312D02*
X372512D01*
X367912D02*
X371112D01*
X394062Y509104D02*
X394512D01*
X389312D02*
X390612D01*
X383862D02*
X388212D01*
X380012D02*
X381812D01*
X377112D02*
X378712D01*
X375712D02*
X375962D01*
X373662D02*
X374562D01*
X372312D02*
X372562D01*
X367912D02*
X371112D01*
X394062Y509154D02*
X394512D01*
X389312D02*
X390612D01*
X383862D02*
X388212D01*
X380012D02*
X381812D01*
X377112D02*
X378712D01*
X375662D02*
X376012D01*
X373662D02*
X374562D01*
X372312D02*
X372562D01*
X367912D02*
X371112D01*
X394062Y509204D02*
X394512D01*
X389312D02*
X390612D01*
X383862D02*
X388212D01*
X380012D02*
X381812D01*
X377162D02*
X378712D01*
X375662D02*
X376012D01*
X373662D02*
X374512D01*
X372312D02*
X372562D01*
X367912D02*
X371112D01*
X394062Y509254D02*
X394512D01*
X389312D02*
X390612D01*
X383862D02*
X388212D01*
X380012D02*
X381812D01*
X377162D02*
X378712D01*
X375662D02*
X376012D01*
X373712D02*
X374512D01*
X372262D02*
X372612D01*
X367912D02*
X371062D01*
X394062Y509304D02*
X394512D01*
X389312D02*
X390612D01*
X383862D02*
X388212D01*
X380012D02*
X381812D01*
X377162D02*
X378712D01*
X375662D02*
X376012D01*
X373712D02*
X374512D01*
X372262D02*
X372612D01*
X367912D02*
X371062D01*
X394062Y509354D02*
X394512D01*
X389312D02*
X390612D01*
X383862D02*
X388212D01*
X380012D02*
X381812D01*
X377162D02*
X378712D01*
X375612D02*
X376062D01*
X373712D02*
X374462D01*
X372262D02*
X372612D01*
X367912D02*
X371062D01*
X394062Y509404D02*
X394512D01*
X389312D02*
X390612D01*
X383862D02*
X388212D01*
X380012D02*
X381812D01*
X377212D02*
X378712D01*
X375612D02*
X376062D01*
X373762D02*
X374462D01*
X372262D02*
X372662D01*
X367912D02*
X371062D01*
X394062Y509454D02*
X394512D01*
X389312D02*
X390612D01*
X383862D02*
X388212D01*
X380012D02*
X381812D01*
X377212D02*
X378712D01*
X375612D02*
X376062D01*
X373762D02*
X374462D01*
X372212D02*
X372662D01*
X367912D02*
X371012D01*
X394062Y509504D02*
X394512D01*
X389312D02*
X390612D01*
X383862D02*
X388212D01*
X380012D02*
X381812D01*
X377212D02*
X378712D01*
X375562D02*
X376062D01*
X373762D02*
X374462D01*
X372212D02*
X372662D01*
X367912D02*
X371012D01*
X394062Y509554D02*
X394512D01*
X389312D02*
X390612D01*
X383862D02*
X388212D01*
X380012D02*
X381812D01*
X377212D02*
X378712D01*
X375562D02*
X376112D01*
X373762D02*
X374412D01*
X372212D02*
X372662D01*
X367912D02*
X371012D01*
X394062Y509604D02*
X394512D01*
X389312D02*
X390612D01*
X383862D02*
X388212D01*
X380012D02*
X381812D01*
X377262D02*
X378712D01*
X375562D02*
X376112D01*
X373812D02*
X374412D01*
X372212D02*
X372712D01*
X367912D02*
X371012D01*
X394062Y509654D02*
X394512D01*
X389312D02*
X390612D01*
X383862D02*
X388212D01*
X380012D02*
X381812D01*
X377262D02*
X378712D01*
X375512D02*
X376112D01*
X373812D02*
X374412D01*
X372212D02*
X372712D01*
X367912D02*
X370962D01*
X394062Y509704D02*
X394512D01*
X389312D02*
X390612D01*
X383862D02*
X388212D01*
X380012D02*
X381812D01*
X377262D02*
X378712D01*
X375512D02*
X376112D01*
X373812D02*
X374362D01*
X372162D02*
X372712D01*
X367912D02*
X370962D01*
X394062Y509754D02*
X394512D01*
X389312D02*
X390612D01*
X383862D02*
X388212D01*
X380012D02*
X381812D01*
X377262D02*
X378712D01*
X375512D02*
X376112D01*
X373862D02*
X374362D01*
X372162D02*
X372762D01*
X367912D02*
X370962D01*
X394062Y509804D02*
X394512D01*
X389312D02*
X390612D01*
X383862D02*
X388212D01*
X380012D02*
X381812D01*
X377312D02*
X378712D01*
X375512D02*
X376162D01*
X373862D02*
X374362D01*
X372162D02*
X372762D01*
X367912D02*
X370912D01*
X394062Y509854D02*
X394512D01*
X389312D02*
X390612D01*
X383862D02*
X388212D01*
X380012D02*
X381812D01*
X377312D02*
X378712D01*
X375462D02*
X376162D01*
X373862D02*
X374362D01*
X372162D02*
X372762D01*
X367912D02*
X370912D01*
X394062Y509904D02*
X394512D01*
X389312D02*
X390612D01*
X383862D02*
X388212D01*
X380012D02*
X381812D01*
X377312D02*
X378712D01*
X375462D02*
X376162D01*
X373862D02*
X374312D01*
X372112D02*
X372762D01*
X367912D02*
X370912D01*
X394062Y509954D02*
X394512D01*
X389312D02*
X390612D01*
X383862D02*
X388212D01*
X380012D02*
X381812D01*
X377362D02*
X378712D01*
X375462D02*
X376162D01*
X373912D02*
X374312D01*
X372112D02*
X372812D01*
X367912D02*
X370912D01*
X394062Y510004D02*
X394512D01*
X389312D02*
X390612D01*
X383862D02*
X388212D01*
X380012D02*
X381812D01*
X377362D02*
X378712D01*
X375412D02*
X376212D01*
X373912D02*
X374312D01*
X372112D02*
X372812D01*
X367912D02*
X370862D01*
X394062Y510054D02*
X394512D01*
X389312D02*
X390612D01*
X383862D02*
X388212D01*
X380012D02*
X381812D01*
X377362D02*
X378712D01*
X375412D02*
X376212D01*
X373912D02*
X374262D01*
X372112D02*
X372812D01*
X367912D02*
X370862D01*
X394062Y510104D02*
X394512D01*
X389312D02*
X390612D01*
X383862D02*
X385212D01*
X380012D02*
X381812D01*
X377362D02*
X378712D01*
X375412D02*
X376212D01*
X373962D02*
X374262D01*
X372112D02*
X372862D01*
X367912D02*
X370862D01*
X394062Y510154D02*
X394512D01*
X389312D02*
X390612D01*
X383862D02*
X385212D01*
X380012D02*
X381812D01*
X377412D02*
X378712D01*
X375412D02*
X376212D01*
X373962D02*
X374262D01*
X372062D02*
X372862D01*
X367912D02*
X370862D01*
X394062Y510204D02*
X394512D01*
X389312D02*
X390612D01*
X383862D02*
X385212D01*
X380012D02*
X381812D01*
X377412D02*
X378712D01*
X375362D02*
X376262D01*
X373962D02*
X374262D01*
X372062D02*
X372862D01*
X367912D02*
X370812D01*
X394062Y510254D02*
X394512D01*
X389312D02*
X390612D01*
X383862D02*
X385212D01*
X380012D02*
X381812D01*
X377412D02*
X378712D01*
X375362D02*
X376262D01*
X373962D02*
X374212D01*
X372062D02*
X372912D01*
X367912D02*
X370812D01*
X394062Y510304D02*
X394512D01*
X389312D02*
X390612D01*
X383862D02*
X385212D01*
X380012D02*
X381812D01*
X377412D02*
X378712D01*
X375362D02*
X376262D01*
X374012D02*
X374212D01*
X372062D02*
X372912D01*
X367912D02*
X370812D01*
X394062Y510354D02*
X394512D01*
X389312D02*
X390612D01*
X383862D02*
X385212D01*
X380012D02*
X381812D01*
X377462D02*
X378762D01*
X375312D02*
X376262D01*
X374012D02*
X374212D01*
X372012D02*
X372912D01*
X367912D02*
X370762D01*
X394062Y510404D02*
X394512D01*
X389312D02*
X390612D01*
X383862D02*
X385212D01*
X380012D02*
X381812D01*
X377462D02*
X378712D01*
X375312D02*
X376262D01*
X374012D02*
X374162D01*
X372012D02*
X372912D01*
X367912D02*
X370762D01*
X394062Y510454D02*
X394512D01*
X389312D02*
X390612D01*
X383862D02*
X385212D01*
X380012D02*
X381812D01*
X377462D02*
X378712D01*
X375312D02*
X376312D01*
X374062D02*
X374162D01*
X372012D02*
X372962D01*
X367912D02*
X370762D01*
X394062Y510504D02*
X394512D01*
X389312D02*
X390612D01*
X383862D02*
X385212D01*
X380012D02*
X381812D01*
X377462D02*
X378712D01*
X375312D02*
X376312D01*
X374062D02*
X374162D01*
X372012D02*
X372962D01*
X367912D02*
X370762D01*
X394062Y510554D02*
X394512D01*
X389312D02*
X390612D01*
X383862D02*
X385212D01*
X380012D02*
X381812D01*
X377512D02*
X378712D01*
X375262D02*
X376312D01*
X374062D02*
X374162D01*
X372012D02*
X372962D01*
X367912D02*
X370712D01*
X394062Y510604D02*
X394512D01*
X389312D02*
X390612D01*
X383862D02*
X385212D01*
X380012D02*
X381812D01*
X377512D02*
X378712D01*
X375262D02*
X376312D01*
X374062D02*
X374112D01*
X371962D02*
X373012D01*
X367912D02*
X370712D01*
X394062Y510654D02*
X394512D01*
X383862D02*
X385212D01*
X377512D02*
X381812D01*
X375262D02*
X376362D01*
X371962D02*
X373012D01*
X367912D02*
X370712D01*
X394062Y510704D02*
X394512D01*
X383862D02*
X385212D01*
X377562D02*
X381812D01*
X375262D02*
X376362D01*
X371962D02*
X373012D01*
X367912D02*
X370712D01*
X394062Y510754D02*
X394512D01*
X383862D02*
X385212D01*
X377562D02*
X381812D01*
X375212D02*
X376362D01*
X371962D02*
X373062D01*
X367912D02*
X370662D01*
X394062Y510804D02*
X394512D01*
X383862D02*
X385212D01*
X377562D02*
X381812D01*
X375212D02*
X376362D01*
X371912D02*
X373062D01*
X367912D02*
X370662D01*
X394062Y510854D02*
X394512D01*
X383862D02*
X385212D01*
X377562D02*
X381812D01*
X375212D02*
X376412D01*
X371912D02*
X373062D01*
X367912D02*
X370662D01*
X394062Y510904D02*
X394512D01*
X383862D02*
X385212D01*
X377612D02*
X381812D01*
X375162D02*
X376412D01*
X371912D02*
X373062D01*
X367912D02*
X370662D01*
X394062Y510954D02*
X394512D01*
X383862D02*
X385212D01*
X377612D02*
X381812D01*
X375162D02*
X376412D01*
X371912D02*
X373112D01*
X367912D02*
X370612D01*
X394062Y511004D02*
X394512D01*
X383862D02*
X385212D01*
X377612D02*
X381812D01*
X375162D02*
X376412D01*
X371862D02*
X373112D01*
X367912D02*
X370612D01*
X394062Y511054D02*
X394512D01*
X383862D02*
X385212D01*
X377612D02*
X381812D01*
X375162D02*
X376462D01*
X371862D02*
X373112D01*
X367912D02*
X370612D01*
X394062Y511104D02*
X394512D01*
X383862D02*
X385212D01*
X377662D02*
X381812D01*
X375112D02*
X376462D01*
X371862D02*
X373162D01*
X367912D02*
X370562D01*
X394062Y511154D02*
X394512D01*
X383862D02*
X385212D01*
X377662D02*
X381812D01*
X375112D02*
X376462D01*
X371862D02*
X373162D01*
X367912D02*
X370562D01*
X394062Y511204D02*
X394512D01*
X389912D02*
X389962D01*
X383862D02*
X385212D01*
X379362D02*
X381812D01*
X377662D02*
X379312D01*
X375112D02*
X376462D01*
X371862D02*
X373162D01*
X367912D02*
X370562D01*
X394062Y511254D02*
X394512D01*
X389712D02*
X390262D01*
X383862D02*
X385212D01*
X379662D02*
X381812D01*
X377662D02*
X379112D01*
X375062D02*
X376462D01*
X371812D02*
X373162D01*
X367912D02*
X370562D01*
X394062Y511304D02*
X394512D01*
X389562D02*
X390362D01*
X383862D02*
X385212D01*
X379762D02*
X381812D01*
X377712D02*
X379012D01*
X375062D02*
X376512D01*
X371812D02*
X373212D01*
X367912D02*
X370512D01*
X394062Y511354D02*
X394462D01*
X389512D02*
X390412D01*
X383862D02*
X388412D01*
X379862D02*
X381812D01*
X377712D02*
X378912D01*
X375062D02*
X376512D01*
X371812D02*
X373212D01*
X367962D02*
X370512D01*
X394062Y511404D02*
X394462D01*
X389462D02*
X390512D01*
X383862D02*
X388462D01*
X379912D02*
X381812D01*
X377712D02*
X378862D01*
X375062D02*
X376512D01*
X371812D02*
X373212D01*
X367962D02*
X370512D01*
X394062Y511454D02*
X394462D01*
X389412D02*
X390562D01*
X383862D02*
X388412D01*
X379962D02*
X381862D01*
X377712D02*
X378812D01*
X375012D02*
X376512D01*
X371762D02*
X373262D01*
X367962D02*
X370512D01*
X394062Y511504D02*
X394462D01*
X389362D02*
X390562D01*
X383862D02*
X388412D01*
X379962D02*
X381862D01*
X377762D02*
X378762D01*
X375012D02*
X376512D01*
X371762D02*
X373262D01*
X367962D02*
X370462D01*
X394012Y511554D02*
X394462D01*
X389312D02*
X390612D01*
X383862D02*
X388412D01*
X380012D02*
X381862D01*
X377762D02*
X378712D01*
X375012D02*
X376562D01*
X371762D02*
X373262D01*
X367962D02*
X370462D01*
X394012Y511604D02*
X394462D01*
X389312D02*
X390662D01*
X383862D02*
X388412D01*
X380062D02*
X381862D01*
X377762D02*
X378712D01*
X374962D02*
X376562D01*
X371762D02*
X373312D01*
X367962D02*
X370462D01*
X394012Y511654D02*
X394462D01*
X389262D02*
X390662D01*
X383862D02*
X388412D01*
X380062D02*
X381862D01*
X377812D02*
X378662D01*
X374962D02*
X376562D01*
X371762D02*
X373312D01*
X367962D02*
X370462D01*
X394012Y511704D02*
X394412D01*
X389262D02*
X390662D01*
X383862D02*
X388412D01*
X380112D02*
X381862D01*
X377812D02*
X378662D01*
X374962D02*
X376562D01*
X371712D02*
X373312D01*
X368012D02*
X370412D01*
X394012Y511754D02*
X394412D01*
X389262D02*
X390712D01*
X383862D02*
X388412D01*
X380112D02*
X381862D01*
X377812D02*
X378662D01*
X374962D02*
X376612D01*
X371712D02*
X373312D01*
X368012D02*
X370412D01*
X393962Y511804D02*
X394412D01*
X389212D02*
X390712D01*
X383862D02*
X388412D01*
X380112D02*
X381912D01*
X377812D02*
X378662D01*
X374912D02*
X376612D01*
X371712D02*
X373362D01*
X368012D02*
X370412D01*
X393962Y511854D02*
X394412D01*
X389212D02*
X390712D01*
X383862D02*
X388412D01*
X380112D02*
X381912D01*
X377862D02*
X378612D01*
X374912D02*
X376612D01*
X371712D02*
X373362D01*
X368012D02*
X370362D01*
X393962Y511904D02*
X394412D01*
X389212D02*
X390712D01*
X383862D02*
X388412D01*
X380112D02*
X381912D01*
X377862D02*
X378612D01*
X374912D02*
X376612D01*
X371662D02*
X373362D01*
X368012D02*
X370362D01*
X393962Y511954D02*
X394362D01*
X389212D02*
X390712D01*
X383862D02*
X388412D01*
X380162D02*
X381912D01*
X377862D02*
X378612D01*
X374862D02*
X376662D01*
X371662D02*
X373412D01*
X368062D02*
X370362D01*
X393912Y512004D02*
X394362D01*
X389212D02*
X390712D01*
X383862D02*
X388412D01*
X380112D02*
X381962D01*
X377862D02*
X378612D01*
X374862D02*
X376662D01*
X371662D02*
X373412D01*
X368062D02*
X370362D01*
X393912Y512054D02*
X394362D01*
X389212D02*
X390712D01*
X383862D02*
X388412D01*
X380112D02*
X381962D01*
X377912D02*
X378612D01*
X374862D02*
X376662D01*
X371662D02*
X373412D01*
X368062D02*
X370312D01*
X393912Y512104D02*
X394312D01*
X389212D02*
X390712D01*
X383862D02*
X388412D01*
X380112D02*
X381962D01*
X377912D02*
X378612D01*
X374862D02*
X376662D01*
X371662D02*
X373412D01*
X368062D02*
X370312D01*
X393912Y512154D02*
X394312D01*
X389262D02*
X390712D01*
X383862D02*
X388412D01*
X380112D02*
X381962D01*
X377912D02*
X378662D01*
X374812D02*
X376712D01*
X371612D02*
X373462D01*
X368112D02*
X370312D01*
X393862Y512204D02*
X394312D01*
X389262D02*
X390712D01*
X383862D02*
X388412D01*
X380112D02*
X382012D01*
X377912D02*
X378662D01*
X374812D02*
X376712D01*
X371612D02*
X373462D01*
X368112D02*
X370312D01*
X393862Y512254D02*
X394312D01*
X389262D02*
X390662D01*
X383862D02*
X388412D01*
X380062D02*
X382012D01*
X377962D02*
X378662D01*
X374812D02*
X376712D01*
X371612D02*
X373462D01*
X368112D02*
X370262D01*
X393812Y512304D02*
X394262D01*
X389312D02*
X390662D01*
X383862D02*
X388412D01*
X380062D02*
X382012D01*
X377962D02*
X378712D01*
X374762D02*
X376712D01*
X371612D02*
X373512D01*
X368162D02*
X370262D01*
X393812Y512354D02*
X394262D01*
X389312D02*
X390612D01*
X383862D02*
X388412D01*
X380012D02*
X382062D01*
X377962D02*
X378712D01*
X374762D02*
X376712D01*
X371562D02*
X373512D01*
X368162D02*
X370262D01*
X393812Y512404D02*
X394212D01*
X389362D02*
X390562D01*
X383862D02*
X388412D01*
X380012D02*
X382062D01*
X377962D02*
X378762D01*
X374762D02*
X376762D01*
X371562D02*
X373512D01*
X368162D02*
X370262D01*
X393762Y512454D02*
X394212D01*
X389412D02*
X390562D01*
X383862D02*
X388462D01*
X379962D02*
X382112D01*
X378012D02*
X378812D01*
X374762D02*
X376762D01*
X371562D02*
X373562D01*
X368212D02*
X370212D01*
X393762Y512504D02*
X394212D01*
X389462D02*
X390512D01*
X383862D02*
X388412D01*
X379912D02*
X382112D01*
X378012D02*
X378862D01*
X374712D02*
X376762D01*
X371562D02*
X373562D01*
X368212D02*
X370212D01*
X393712Y512554D02*
X394162D01*
X389512D02*
X390462D01*
X379862D02*
X382112D01*
X378012D02*
X378912D01*
X377912D02*
X377962D01*
X374712D02*
X376812D01*
X374562D02*
X374662D01*
X374462D02*
X374512D01*
X371412D02*
X373562D01*
X371262D02*
X371362D01*
X370312D02*
X370362D01*
X368262D02*
X370262D01*
X393712Y512604D02*
X394162D01*
X389562D02*
X390362D01*
X379762D02*
X382162D01*
X368262D02*
X378962D01*
X393712Y512654D02*
X394112D01*
X389662D02*
X390262D01*
X379662D02*
X382162D01*
X368262D02*
X379062D01*
X393662Y512704D02*
X394112D01*
X389862D02*
X390062D01*
X379512D02*
X382212D01*
X368312D02*
X379262D01*
X393662Y512754D02*
X394112D01*
X368312D02*
X382212D01*
X393612Y512804D02*
X394062D01*
X368362D02*
X382262D01*
X393562Y512854D02*
X394062D01*
X368362D02*
X382262D01*
X393562Y512904D02*
X394012D01*
X368412D02*
X382312D01*
X393512Y512954D02*
X394012D01*
X368412D02*
X382312D01*
X393512Y513004D02*
X393962D01*
X368462D02*
X382362D01*
X393462Y513054D02*
X393912D01*
X368462D02*
X382362D01*
X393412Y513104D02*
X393912D01*
X368512D02*
X382412D01*
X393412Y513154D02*
X393862D01*
X368562D02*
X382462D01*
X393362Y513204D02*
X393862D01*
X368562D02*
X382462D01*
X393312Y513254D02*
X393812D01*
X368612D02*
X382512D01*
X393312Y513304D02*
X393762D01*
X368612D02*
X382562D01*
X393262Y513354D02*
X393762D01*
X368662D02*
X382562D01*
X393212Y513404D02*
X393712D01*
X368712D02*
X382612D01*
X394362Y513454D02*
X394862D01*
X393162D02*
X393662D01*
X368762D02*
X382662D01*
X394212Y513504D02*
X395012D01*
X393112D02*
X393662D01*
X368762D02*
X382712D01*
X394162Y513554D02*
X395062D01*
X393112D02*
X393612D01*
X368812D02*
X382762D01*
X394812Y513604D02*
X395112D01*
X394062D02*
X394412D01*
X393062D02*
X393562D01*
X368862D02*
X382812D01*
X394912Y513654D02*
X395162D01*
X394012D02*
X394312D01*
X393012D02*
X393512D01*
X368912D02*
X382812D01*
X394962Y513704D02*
X395212D01*
X393962D02*
X394212D01*
X392962D02*
X393462D01*
X368912D02*
X382862D01*
X395062Y513754D02*
X395262D01*
X393962D02*
X394162D01*
X392912D02*
X393462D01*
X368962D02*
X382912D01*
X395112Y513804D02*
X395312D01*
X394762D02*
X394962D01*
X394262D02*
X394412D01*
X393912D02*
X394112D01*
X392862D02*
X393412D01*
X369012D02*
X382962D01*
X395112Y513854D02*
X395312D01*
X394712D02*
X394962D01*
X394262D02*
X394412D01*
X393912D02*
X394062D01*
X392812D02*
X393362D01*
X369062D02*
X383012D01*
X395162Y513904D02*
X395362D01*
X394712D02*
X394912D01*
X394262D02*
X394412D01*
X393862D02*
X394062D01*
X392762D02*
X393312D01*
X369112D02*
X383062D01*
X395162Y513954D02*
X395362D01*
X394662D02*
X394862D01*
X394262D02*
X394412D01*
X393862D02*
X394012D01*
X392712D02*
X393262D01*
X369162D02*
X383112D01*
X395212Y514004D02*
X395362D01*
X394612D02*
X394862D01*
X394262D02*
X394412D01*
X393812D02*
X394012D01*
X392612D02*
X393212D01*
X369212D02*
X383212D01*
X395212Y514054D02*
X395362D01*
X394612D02*
X394812D01*
X394262D02*
X394412D01*
X393812D02*
X394012D01*
X392562D02*
X393162D01*
X369262D02*
X383262D01*
X395212Y514104D02*
X395412D01*
X394512D02*
X394762D01*
X394262D02*
X394412D01*
X393812D02*
X394012D01*
X392512D02*
X393112D01*
X369312D02*
X383312D01*
X395212Y514154D02*
X395412D01*
X394262D02*
X394762D01*
X393812D02*
X393962D01*
X392412D02*
X393062D01*
X369362D02*
X383362D01*
X395212Y514204D02*
X395412D01*
X394262D02*
X394862D01*
X393812D02*
X394012D01*
X392362D02*
X393012D01*
X369412D02*
X383462D01*
X395212Y514254D02*
X395412D01*
X394262D02*
X394912D01*
X393812D02*
X394012D01*
X392262D02*
X392962D01*
X369462D02*
X383512D01*
X395212Y514304D02*
X395362D01*
X394712D02*
X394912D01*
X394262D02*
X394412D01*
X393812D02*
X394012D01*
X392212D02*
X392912D01*
X369512D02*
X383612D01*
X395212Y514354D02*
X395362D01*
X394712D02*
X394912D01*
X394262D02*
X394412D01*
X393812D02*
X394012D01*
X392112D02*
X392812D01*
X369612D02*
X383662D01*
X395212Y514404D02*
X395362D01*
X394712D02*
X394912D01*
X394262D02*
X394412D01*
X393862D02*
X394012D01*
X392062D02*
X392762D01*
X369662D02*
X383762D01*
X395162Y514454D02*
X395362D01*
X394662D02*
X394912D01*
X394262D02*
X394412D01*
X393862D02*
X394062D01*
X391962D02*
X392712D01*
X369712D02*
X383862D01*
X395162Y514504D02*
X395312D01*
X394262D02*
X394912D01*
X393862D02*
X394062D01*
X391862D02*
X392612D01*
X369812D02*
X383962D01*
X395112Y514554D02*
X395312D01*
X394262D02*
X394862D01*
X393912D02*
X394112D01*
X391762D02*
X392562D01*
X369862D02*
X384062D01*
X395062Y514604D02*
X395262D01*
X394262D02*
X394712D01*
X393912D02*
X394112D01*
X391612D02*
X392462D01*
X369912D02*
X384162D01*
X395012Y514654D02*
X395262D01*
X393962D02*
X394162D01*
X391512D02*
X392412D01*
X370012D02*
X384312D01*
X394962Y514704D02*
X395212D01*
X394012D02*
X394262D01*
X391362D02*
X392312D01*
X370112D02*
X384412D01*
X394912Y514754D02*
X395162D01*
X394012D02*
X394312D01*
X391162D02*
X392262D01*
X370162D02*
X384612D01*
X394762Y514804D02*
X395112D01*
X394112D02*
X394462D01*
X390962D02*
X392162D01*
X370262D02*
X384762D01*
X394162Y514854D02*
X395062D01*
X390712D02*
X392062D01*
X370362D02*
X385062D01*
X394212Y514904D02*
X394962D01*
X370462D02*
X391962D01*
X394362Y514954D02*
X394862D01*
X370562D02*
X391862D01*
X370712Y515004D02*
X391712D01*
X370812Y515054D02*
X391612D01*
X370962Y515104D02*
X391462D01*
X371112Y515154D02*
X391312D01*
X371312Y515204D02*
X391112D01*
X371512Y515254D02*
X390912D01*
X371812Y515304D02*
X390612D01*
D40*
X228543Y234842D02*
X248228D01*
X228543Y267520D02*
X248228D01*
Y234842D02*
Y267520D01*
X228543Y234842D02*
Y267520D01*
M02*
