G04 Layer_Color=32896*
%FSLAX44Y44*%
%MOMM*%
G71*
G01*
G75*
%ADD40C,0.2540*%
D40*
X1170500Y983500D02*
X1172500Y981500D01*
X1011500Y983500D02*
X1170500D01*
X1172500Y912500D02*
Y981500D01*
X1171500Y911500D02*
X1172500Y912500D01*
X1011500Y911500D02*
X1171500D01*
X1011500Y947500D02*
Y983500D01*
Y911500D02*
Y947500D01*
Y836500D02*
Y872500D01*
Y908500D01*
Y836500D02*
X1171500D01*
X1172500Y837500D01*
Y906500D01*
X1011500Y908500D02*
X1170500D01*
X1172500Y906500D01*
X1170500Y833500D02*
X1172500Y831500D01*
X1011500Y833500D02*
X1170500D01*
X1172500Y762500D02*
Y831500D01*
X1171500Y761500D02*
X1172500Y762500D01*
X1011500Y761500D02*
X1171500D01*
X1011500Y797500D02*
Y833500D01*
Y761500D02*
Y797500D01*
Y686500D02*
Y722500D01*
Y758500D01*
Y686500D02*
X1171500D01*
X1172500Y687500D01*
Y756500D01*
X1011500Y758500D02*
X1170500D01*
X1172500Y756500D01*
X1235843Y978196D02*
X1238382Y980735D01*
X1243461D01*
X1246000Y978196D01*
Y968039D01*
X1243461Y965500D01*
X1238382D01*
X1235843Y968039D01*
X1223147Y980735D02*
X1228226D01*
X1230765Y978196D01*
Y968039D01*
X1228226Y965500D01*
X1223147D01*
X1220608Y968039D01*
Y978196D01*
X1223147Y980735D01*
X1215530Y965500D02*
Y980735D01*
X1205373Y965500D01*
Y980735D01*
X1190138D02*
X1200295D01*
Y973118D01*
X1195216Y975657D01*
X1192677D01*
X1190138Y973118D01*
Y968039D01*
X1192677Y965500D01*
X1197756D01*
X1200295Y968039D01*
X1233343Y910196D02*
X1235882Y912735D01*
X1240961D01*
X1243500Y910196D01*
Y900039D01*
X1240961Y897500D01*
X1235882D01*
X1233343Y900039D01*
X1220647Y912735D02*
X1225726D01*
X1228265Y910196D01*
Y900039D01*
X1225726Y897500D01*
X1220647D01*
X1218108Y900039D01*
Y910196D01*
X1220647Y912735D01*
X1213030Y897500D02*
Y912735D01*
X1202873Y897500D01*
Y912735D01*
X1187638D02*
X1192716Y910196D01*
X1197795Y905117D01*
Y900039D01*
X1195256Y897500D01*
X1190177D01*
X1187638Y900039D01*
Y902578D01*
X1190177Y905117D01*
X1197795D01*
X1229343Y830196D02*
X1231882Y832735D01*
X1236961D01*
X1239500Y830196D01*
Y820039D01*
X1236961Y817500D01*
X1231882D01*
X1229343Y820039D01*
X1216647Y832735D02*
X1221726D01*
X1224265Y830196D01*
Y820039D01*
X1221726Y817500D01*
X1216647D01*
X1214108Y820039D01*
Y830196D01*
X1216647Y832735D01*
X1209030Y817500D02*
Y832735D01*
X1198873Y817500D01*
Y832735D01*
X1193795D02*
X1183638D01*
Y830196D01*
X1193795Y820039D01*
Y817500D01*
X1226343Y745196D02*
X1228883Y747735D01*
X1233961D01*
X1236500Y745196D01*
Y735039D01*
X1233961Y732500D01*
X1228883D01*
X1226343Y735039D01*
X1213647Y747735D02*
X1218726D01*
X1221265Y745196D01*
Y735039D01*
X1218726Y732500D01*
X1213647D01*
X1211108Y735039D01*
Y745196D01*
X1213647Y747735D01*
X1206030Y732500D02*
Y747735D01*
X1195873Y732500D01*
Y747735D01*
X1190795Y745196D02*
X1188256Y747735D01*
X1183177D01*
X1180638Y745196D01*
Y742657D01*
X1183177Y740117D01*
X1180638Y737578D01*
Y735039D01*
X1183177Y732500D01*
X1188256D01*
X1190795Y735039D01*
Y737578D01*
X1188256Y740117D01*
X1190795Y742657D01*
Y745196D01*
X1188256Y740117D02*
X1183177D01*
M02*
