G04 Layer_Color=32768*
%FSLAX25Y25*%
%MOIN*%
G70*
G01*
G75*
%ADD37C,0.01000*%
%ADD62C,0.00394*%
%ADD64C,0.00197*%
D37*
X183819Y476772D02*
X186260D01*
X185039Y477165D02*
Y478386D01*
Y474803D02*
Y477165D01*
X218347Y476772D02*
X220787D01*
X219567Y475157D02*
Y476378D01*
Y478740D01*
X256653Y477953D02*
X259095D01*
X257874Y476339D02*
Y477559D01*
Y479921D01*
X383366Y361024D02*
X391240D01*
X387303Y357087D02*
Y364961D01*
Y357087D02*
Y364961D01*
D62*
X597047Y319291D02*
Y325590D01*
X608071Y319291D02*
Y325590D01*
X597047D02*
X608071D01*
X597047Y319291D02*
X608071D01*
X600591Y322441D02*
X604528D01*
X602559Y320472D02*
Y324410D01*
X427559Y161024D02*
Y167323D01*
X438583Y161024D02*
Y167323D01*
X427559D02*
X438583D01*
X427559Y161024D02*
X438583D01*
X431102Y164173D02*
X435039D01*
X433071Y162205D02*
Y166142D01*
X426772Y125197D02*
Y131496D01*
X437795Y125197D02*
Y131496D01*
X426772D02*
X437795D01*
X426772Y125197D02*
X437795D01*
X430315Y128347D02*
X434252D01*
X432283Y126378D02*
Y130315D01*
X379908Y518937D02*
X381908D01*
X380908Y517937D02*
Y519937D01*
X196457Y419587D02*
Y425886D01*
X207480Y419587D02*
Y425886D01*
X196457D02*
X207480D01*
X196457Y419587D02*
X207480D01*
X200000Y422736D02*
X203937D01*
X201968Y420768D02*
Y424705D01*
X195866Y410236D02*
Y416535D01*
X206890Y410236D02*
Y416535D01*
X195866D02*
X206890D01*
X195866Y410236D02*
X206890D01*
X199409Y413386D02*
X203346D01*
X201378Y411417D02*
Y415354D01*
X223031Y419587D02*
Y425886D01*
X212008Y419587D02*
Y425886D01*
Y419587D02*
X223031D01*
X212008Y425886D02*
X223031D01*
X215551Y422736D02*
X219488D01*
X217520Y420768D02*
Y424705D01*
X223228Y409842D02*
Y416142D01*
X212205Y409842D02*
Y416142D01*
Y409842D02*
X223228D01*
X212205Y416142D02*
X223228D01*
X215748Y412992D02*
X219685D01*
X217717Y411024D02*
Y414961D01*
X254724Y420079D02*
Y426378D01*
X265748Y420079D02*
Y426378D01*
X254724D02*
X265748D01*
X254724Y420079D02*
X265748D01*
X258268Y423228D02*
X262205D01*
X260236Y421260D02*
Y425197D01*
X254331Y411024D02*
Y417323D01*
X265354Y411024D02*
Y417323D01*
X254331D02*
X265354D01*
X254331Y411024D02*
X265354D01*
X257874Y414173D02*
X261811D01*
X259842Y412205D02*
Y416142D01*
X278740Y409842D02*
Y416142D01*
X267717Y409842D02*
Y416142D01*
Y409842D02*
X278740D01*
X267717Y416142D02*
X278740D01*
X271260Y412992D02*
X275197D01*
X273228Y411024D02*
Y414961D01*
X278740Y420079D02*
Y426378D01*
X267717Y420079D02*
Y426378D01*
Y420079D02*
X278740D01*
X267717Y426378D02*
X278740D01*
X271260Y423228D02*
X275197D01*
X273228Y421260D02*
Y425197D01*
X399213Y448425D02*
Y454724D01*
X388189Y448425D02*
Y454724D01*
Y448425D02*
X399213D01*
X388189Y454724D02*
X399213D01*
X391732Y451575D02*
X395669D01*
X393701Y449606D02*
Y453543D01*
X399606Y462598D02*
Y468898D01*
X388583Y462598D02*
Y468898D01*
Y462598D02*
X399606D01*
X388583Y468898D02*
X399606D01*
X392126Y465748D02*
X396063D01*
X394094Y463779D02*
Y467717D01*
X395276Y337008D02*
Y343307D01*
X406299Y337008D02*
Y343307D01*
X395276D02*
X406299D01*
X395276Y337008D02*
X406299D01*
X398819Y340158D02*
X402756D01*
X400787Y338189D02*
Y342126D01*
X395669Y328346D02*
Y334646D01*
X406693Y328346D02*
Y334646D01*
X395669D02*
X406693D01*
X395669Y328346D02*
X406693D01*
X399213Y331496D02*
X403150D01*
X401181Y329528D02*
Y333465D01*
X395276Y379134D02*
Y385433D01*
X406299Y379134D02*
Y385433D01*
X395276D02*
X406299D01*
X395276Y379134D02*
X406299D01*
X398819Y382283D02*
X402756D01*
X400787Y380315D02*
Y384252D01*
X395669Y387402D02*
Y393701D01*
X406693Y387402D02*
Y393701D01*
X395669D02*
X406693D01*
X395669Y387402D02*
X406693D01*
X399213Y390551D02*
X403150D01*
X401181Y388583D02*
Y392520D01*
X273622Y258858D02*
X279921D01*
X273622Y247835D02*
X279921D01*
Y258858D01*
X273622Y247835D02*
Y258858D01*
X276772Y251378D02*
Y255315D01*
X274803Y253346D02*
X278740D01*
X263779Y258661D02*
X270079D01*
X263779Y247638D02*
X270079D01*
Y258661D01*
X263779Y247638D02*
Y258661D01*
X266929Y251181D02*
Y255118D01*
X264961Y253150D02*
X268898D01*
X238386Y249213D02*
Y253150D01*
X236417Y251181D02*
X240354D01*
X250000Y280315D02*
Y286614D01*
X238976Y280315D02*
Y286614D01*
Y280315D02*
X250000D01*
X238976Y286614D02*
X250000D01*
X242520Y283465D02*
X246457D01*
X244488Y281496D02*
Y285433D01*
X250394Y270866D02*
Y277165D01*
X239370Y270866D02*
Y277165D01*
Y270866D02*
X250394D01*
X239370Y277165D02*
X250394D01*
X242913Y274016D02*
X246850D01*
X244882Y272047D02*
Y275984D01*
X342913Y166929D02*
Y170866D01*
X340945Y168898D02*
X344882D01*
X427953Y200787D02*
X434252D01*
X427953Y189764D02*
X434252D01*
Y200787D01*
X427953Y189764D02*
Y200787D01*
X431102Y193307D02*
Y197244D01*
X429134Y195276D02*
X433071D01*
X437008Y200787D02*
X443307D01*
X437008Y189764D02*
X443307D01*
Y200787D01*
X437008Y189764D02*
Y200787D01*
X440158Y193307D02*
Y197244D01*
X438189Y195276D02*
X442126D01*
X447638Y200787D02*
X453937D01*
X447638Y189764D02*
X453937D01*
Y200787D01*
X447638Y189764D02*
Y200787D01*
X450787Y193307D02*
Y197244D01*
X448819Y195276D02*
X452756D01*
X456693Y201378D02*
X462992D01*
X456693Y190354D02*
X462992D01*
Y201378D01*
X456693Y190354D02*
Y201378D01*
X459842Y193898D02*
Y197835D01*
X457874Y195866D02*
X461811D01*
X286221Y173228D02*
X292520D01*
X286221Y162205D02*
X292520D01*
Y173228D01*
X286221Y162205D02*
Y173228D01*
X289370Y165748D02*
Y169685D01*
X287402Y167717D02*
X291339D01*
X294882Y173228D02*
X301181D01*
X294882Y162205D02*
X301181D01*
Y173228D01*
X294882Y162205D02*
Y173228D01*
X298031Y165748D02*
Y169685D01*
X296063Y167717D02*
X300000D01*
X275984Y173031D02*
X282283D01*
X275984Y162008D02*
X282283D01*
Y173031D01*
X275984Y162008D02*
Y173031D01*
X279134Y165551D02*
Y169488D01*
X277165Y167520D02*
X281102D01*
X267323Y173031D02*
X273622D01*
X267323Y162008D02*
X273622D01*
Y173031D01*
X267323Y162008D02*
Y173031D01*
X270472Y165551D02*
Y169488D01*
X268504Y167520D02*
X272441D01*
X638976Y316142D02*
X645276D01*
X638976Y305118D02*
X645276D01*
Y316142D01*
X638976Y305118D02*
Y316142D01*
X642126Y308661D02*
Y312598D01*
X640158Y310630D02*
X644095D01*
X631102Y316142D02*
X637402D01*
X631102Y305118D02*
X637402D01*
Y316142D01*
X631102Y305118D02*
Y316142D01*
X634252Y308661D02*
Y312598D01*
X632283Y310630D02*
X636221D01*
X529921Y315354D02*
Y319291D01*
X527953Y317323D02*
X531890D01*
X596850Y283465D02*
Y289764D01*
X607874Y283465D02*
Y289764D01*
X596850D02*
X607874D01*
X596850Y283465D02*
X607874D01*
X600394Y286614D02*
X604331D01*
X602362Y284646D02*
Y288583D01*
X491339Y326181D02*
X497638D01*
X491339Y315158D02*
X497638D01*
Y326181D01*
X491339Y315158D02*
Y326181D01*
X494488Y318701D02*
Y322638D01*
X492520Y320669D02*
X496457D01*
X481496Y327165D02*
X487795D01*
X481496Y316142D02*
X487795D01*
Y327165D01*
X481496Y316142D02*
Y327165D01*
X484646Y319685D02*
Y323622D01*
X482677Y321654D02*
X486614D01*
X471654Y326969D02*
X477953D01*
X471654Y315945D02*
X477953D01*
Y326969D01*
X471654Y315945D02*
Y326969D01*
X474803Y319488D02*
Y323425D01*
X472835Y321457D02*
X476772D01*
X460630Y326969D02*
X466929D01*
X460630Y315945D02*
X466929D01*
Y326969D01*
X460630Y315945D02*
Y326969D01*
X463779Y319488D02*
Y323425D01*
X461811Y321457D02*
X465748D01*
X581693Y431496D02*
Y437795D01*
X592717Y431496D02*
Y437795D01*
X581693D02*
X592717D01*
X581693Y431496D02*
X592717D01*
X585236Y434646D02*
X589173D01*
X587205Y432677D02*
Y436614D01*
X575591Y349213D02*
Y355512D01*
X586614Y349213D02*
Y355512D01*
X575591D02*
X586614D01*
X575591Y349213D02*
X586614D01*
X579134Y352362D02*
X583071D01*
X581102Y350394D02*
Y354331D01*
X579921Y399213D02*
Y405512D01*
X590945Y399213D02*
Y405512D01*
X579921D02*
X590945D01*
X579921Y399213D02*
X590945D01*
X583465Y402362D02*
X587402D01*
X585433Y400394D02*
Y404331D01*
X556102Y482283D02*
Y488583D01*
X567126Y482283D02*
Y488583D01*
X556102D02*
X567126D01*
X556102Y482283D02*
X567126D01*
X559646Y485433D02*
X563583D01*
X561614Y483465D02*
Y487402D01*
X556496Y490158D02*
Y496457D01*
X567520Y490158D02*
Y496457D01*
X556496D02*
X567520D01*
X556496Y490158D02*
X567520D01*
X560039Y493307D02*
X563976D01*
X562008Y491339D02*
Y495276D01*
X581102Y440551D02*
Y446850D01*
X592126Y440551D02*
Y446850D01*
X581102D02*
X592126D01*
X581102Y440551D02*
X592126D01*
X584646Y443701D02*
X588583D01*
X586614Y441732D02*
Y445669D01*
X580118Y408268D02*
Y414567D01*
X591142Y408268D02*
Y414567D01*
X580118D02*
X591142D01*
X580118Y408268D02*
X591142D01*
X583661Y411417D02*
X587598D01*
X585630Y409449D02*
Y413386D01*
X576181Y359055D02*
Y365354D01*
X587205Y359055D02*
Y365354D01*
X576181D02*
X587205D01*
X576181Y359055D02*
X587205D01*
X579724Y362205D02*
X583661D01*
X581693Y360236D02*
Y364173D01*
D64*
X220472Y233858D02*
X256299D01*
X220472Y268504D02*
X256299D01*
Y233858D02*
Y268504D01*
X220472Y233858D02*
Y268504D01*
X314764Y140748D02*
X371063D01*
X314764Y197047D02*
X371063D01*
X314764Y140748D02*
Y197047D01*
X371063Y140748D02*
Y197047D01*
X501772Y289173D02*
X558071D01*
X501772Y345472D02*
X558071D01*
X501772Y289173D02*
Y345472D01*
X558071Y289173D02*
Y345472D01*
M02*
