G04 Layer_Color=32768*
%FSLAX44Y44*%
%MOMM*%
G71*
G01*
G75*
%ADD40C,0.2540*%
%ADD67C,0.1000*%
%ADD68C,0.0500*%
D40*
X719750Y675500D02*
X739750D01*
X729750Y665500D02*
Y685500D01*
Y665500D02*
Y685500D01*
X212900Y969500D02*
X219100D01*
X216000Y970500D02*
Y973600D01*
Y964500D02*
Y970500D01*
X300600Y969500D02*
X306800D01*
X303700Y965400D02*
Y968500D01*
Y974500D01*
X397900Y972500D02*
X404100D01*
X401000Y968400D02*
Y971500D01*
Y977500D01*
D67*
X617000Y182500D02*
Y192500D01*
X612000Y187500D02*
X622000D01*
X351500Y391500D02*
Y401500D01*
X346500Y396500D02*
X356500D01*
X1092000Y559500D02*
Y569500D01*
X1087000Y564500D02*
X1097000D01*
X710052Y1075559D02*
Y1080639D01*
X707512Y1078099D02*
X712592D01*
X453000Y803500D02*
Y819500D01*
X425000Y803500D02*
Y819500D01*
Y803500D02*
X453000D01*
X425000Y819500D02*
X453000D01*
X434000Y811500D02*
X444000D01*
X439000Y806500D02*
Y816500D01*
X454000Y825500D02*
Y841500D01*
X426000Y825500D02*
Y841500D01*
Y825500D02*
X454000D01*
X426000Y841500D02*
X454000D01*
X435000Y833500D02*
X445000D01*
X440000Y828500D02*
Y838500D01*
X1636500Y571500D02*
X1652500D01*
X1636500Y543500D02*
X1652500D01*
Y571500D01*
X1636500Y543500D02*
Y571500D01*
X1644500Y552500D02*
Y562500D01*
X1639500Y557500D02*
X1649500D01*
X1656500Y571500D02*
X1672500D01*
X1656500Y543500D02*
X1672500D01*
Y571500D01*
X1656500Y543500D02*
Y571500D01*
X1664500Y552500D02*
Y562500D01*
X1659500Y557500D02*
X1669500D01*
X916000Y589000D02*
X932000D01*
X916000Y561000D02*
X932000D01*
Y589000D01*
X916000Y561000D02*
Y589000D01*
X924000Y570000D02*
Y580000D01*
X919000Y575000D02*
X929000D01*
X994000Y587000D02*
X1010000D01*
X994000Y559000D02*
X1010000D01*
Y587000D01*
X994000Y559000D02*
Y587000D01*
X1002000Y568000D02*
Y578000D01*
X997000Y573000D02*
X1007000D01*
X944000Y589000D02*
X960000D01*
X944000Y561000D02*
X960000D01*
Y589000D01*
X944000Y561000D02*
Y589000D01*
X952000Y570000D02*
Y580000D01*
X947000Y575000D02*
X957000D01*
X969000Y589500D02*
X985000D01*
X969000Y561500D02*
X985000D01*
Y589500D01*
X969000Y561500D02*
Y589500D01*
X977000Y570500D02*
Y580500D01*
X972000Y575500D02*
X982000D01*
X1262000Y478500D02*
Y494500D01*
X1290000Y478500D02*
Y494500D01*
X1262000D02*
X1290000D01*
X1262000Y478500D02*
X1290000D01*
X1271000Y486500D02*
X1281000D01*
X1276000Y481500D02*
Y491500D01*
X1262500Y569500D02*
Y585500D01*
X1290500Y569500D02*
Y585500D01*
X1262500D02*
X1290500D01*
X1262500Y569500D02*
X1290500D01*
X1271500Y577500D02*
X1281500D01*
X1276500Y572500D02*
Y582500D01*
X856000Y268500D02*
X872000D01*
X856000Y240500D02*
X872000D01*
Y268500D01*
X856000Y240500D02*
Y268500D01*
X864000Y249500D02*
Y259500D01*
X859000Y254500D02*
X869000D01*
X883000Y268500D02*
X899000D01*
X883000Y240500D02*
X899000D01*
Y268500D01*
X883000Y240500D02*
Y268500D01*
X891000Y249500D02*
Y259500D01*
X886000Y254500D02*
X896000D01*
X906000Y270000D02*
X922000D01*
X906000Y242000D02*
X922000D01*
Y270000D01*
X906000Y242000D02*
Y270000D01*
X914000Y251000D02*
Y261000D01*
X909000Y256000D02*
X919000D01*
X833000Y268500D02*
X849000D01*
X833000Y240500D02*
X849000D01*
Y268500D01*
X833000Y240500D02*
Y268500D01*
X841000Y249500D02*
Y259500D01*
X836000Y254500D02*
X846000D01*
X1209500Y670500D02*
Y686500D01*
X1237500Y670500D02*
Y686500D01*
X1209500D02*
X1237500D01*
X1209500Y670500D02*
X1237500D01*
X1218500Y678500D02*
X1228500D01*
X1223500Y673500D02*
Y683500D01*
X1000500Y718500D02*
Y734500D01*
X972500Y718500D02*
Y734500D01*
Y718500D02*
X1000500D01*
X972500Y734500D02*
X1000500D01*
X981500Y726500D02*
X991500D01*
X986500Y721500D02*
Y731500D01*
X1001500Y864500D02*
Y880500D01*
X973500Y864500D02*
Y880500D01*
Y864500D02*
X1001500D01*
X973500Y880500D02*
X1001500D01*
X982500Y872500D02*
X992500D01*
X987500Y867500D02*
Y877500D01*
X998000Y933000D02*
Y949000D01*
X970000Y933000D02*
Y949000D01*
Y933000D02*
X998000D01*
X970000Y949000D02*
X998000D01*
X979000Y941000D02*
X989000D01*
X984000Y936000D02*
Y946000D01*
X1208000Y645500D02*
Y661500D01*
X1236000Y645500D02*
Y661500D01*
X1208000D02*
X1236000D01*
X1208000Y645500D02*
X1236000D01*
X1217000Y653500D02*
X1227000D01*
X1222000Y648500D02*
Y658500D01*
X1001000Y741500D02*
Y757500D01*
X973000Y741500D02*
Y757500D01*
Y741500D02*
X1001000D01*
X973000Y757500D02*
X1001000D01*
X982000Y749500D02*
X992000D01*
X987000Y744500D02*
Y754500D01*
X1001500Y886000D02*
Y902000D01*
X973500Y886000D02*
Y902000D01*
Y886000D02*
X1001500D01*
X973500Y902000D02*
X1001500D01*
X982500Y894000D02*
X992500D01*
X987500Y889000D02*
Y899000D01*
X999000Y953000D02*
Y969000D01*
X971000Y953000D02*
Y969000D01*
Y953000D02*
X999000D01*
X971000Y969000D02*
X999000D01*
X980000Y961000D02*
X990000D01*
X985000Y956000D02*
Y966000D01*
X416000Y415500D02*
X432000D01*
X416000Y387500D02*
X432000D01*
Y415500D01*
X416000Y387500D02*
Y415500D01*
X424000Y396500D02*
Y406500D01*
X419000Y401500D02*
X429000D01*
X441000Y416000D02*
X457000D01*
X441000Y388000D02*
X457000D01*
Y416000D01*
X441000Y388000D02*
Y416000D01*
X449000Y397000D02*
Y407000D01*
X444000Y402000D02*
X454000D01*
X382000Y446500D02*
Y462500D01*
X354000Y446500D02*
Y462500D01*
Y446500D02*
X382000D01*
X354000Y462500D02*
X382000D01*
X363000Y454500D02*
X373000D01*
X368000Y449500D02*
Y459500D01*
X381000Y470500D02*
Y486500D01*
X353000Y470500D02*
Y486500D01*
Y470500D02*
X381000D01*
X353000Y486500D02*
X381000D01*
X362000Y478500D02*
X372000D01*
X367000Y473500D02*
Y483500D01*
X425000Y198000D02*
X441000D01*
X425000Y170000D02*
X441000D01*
Y198000D01*
X425000Y170000D02*
Y198000D01*
X433000Y179000D02*
Y189000D01*
X428000Y184000D02*
X438000D01*
X447000Y198000D02*
X463000D01*
X447000Y170000D02*
X463000D01*
Y198000D01*
X447000Y170000D02*
Y198000D01*
X455000Y179000D02*
Y189000D01*
X450000Y184000D02*
X460000D01*
X473000Y198500D02*
X489000D01*
X473000Y170500D02*
X489000D01*
Y198500D01*
X473000Y170500D02*
Y198500D01*
X481000Y179500D02*
Y189500D01*
X476000Y184500D02*
X486000D01*
X495000Y198500D02*
X511000D01*
X495000Y170500D02*
X511000D01*
Y198500D01*
X495000Y170500D02*
Y198500D01*
X503000Y179500D02*
Y189500D01*
X498000Y184500D02*
X508000D01*
X830000Y76500D02*
Y92500D01*
X858000Y76500D02*
Y92500D01*
X830000D02*
X858000D01*
X830000Y76500D02*
X858000D01*
X839000Y84500D02*
X849000D01*
X844000Y79500D02*
Y89500D01*
X832000Y167500D02*
Y183500D01*
X860000Y167500D02*
Y183500D01*
X832000D02*
X860000D01*
X832000Y167500D02*
X860000D01*
X841000Y175500D02*
X851000D01*
X846000Y170500D02*
Y180500D01*
X392000Y802500D02*
Y818500D01*
X420000Y802500D02*
Y818500D01*
X392000D02*
X420000D01*
X392000Y802500D02*
X420000D01*
X401000Y810500D02*
X411000D01*
X406000Y805500D02*
Y815500D01*
X392000Y825500D02*
Y841500D01*
X420000Y825500D02*
Y841500D01*
X392000D02*
X420000D01*
X392000Y825500D02*
X420000D01*
X401000Y833500D02*
X411000D01*
X406000Y828500D02*
Y838500D01*
X243500Y800500D02*
Y816500D01*
X271500Y800500D02*
Y816500D01*
X243500D02*
X271500D01*
X243500Y800500D02*
X271500D01*
X252500Y808500D02*
X262500D01*
X257500Y803500D02*
Y813500D01*
X243500Y824500D02*
Y840500D01*
X271500Y824500D02*
Y840500D01*
X243500D02*
X271500D01*
X243500Y824500D02*
X271500D01*
X252500Y832500D02*
X262500D01*
X257500Y827500D02*
Y837500D01*
X313000Y799500D02*
Y815500D01*
X285000Y799500D02*
Y815500D01*
Y799500D02*
X313000D01*
X285000Y815500D02*
X313000D01*
X294000Y807500D02*
X304000D01*
X299000Y802500D02*
Y812500D01*
X312500Y824250D02*
Y840250D01*
X284500Y824250D02*
Y840250D01*
Y824250D02*
X312500D01*
X284500Y840250D02*
X312500D01*
X293500Y832250D02*
X303500D01*
X298500Y827250D02*
Y837250D01*
X750000Y614500D02*
Y630500D01*
X778000Y614500D02*
Y630500D01*
X750000D02*
X778000D01*
X750000Y614500D02*
X778000D01*
X759000Y622500D02*
X769000D01*
X764000Y617500D02*
Y627500D01*
X751000Y592500D02*
Y608500D01*
X779000Y592500D02*
Y608500D01*
X751000D02*
X779000D01*
X751000Y592500D02*
X779000D01*
X760000Y600500D02*
X770000D01*
X765000Y595500D02*
Y605500D01*
X750000Y721500D02*
Y737500D01*
X778000Y721500D02*
Y737500D01*
X750000D02*
X778000D01*
X750000Y721500D02*
X778000D01*
X759000Y729500D02*
X769000D01*
X764000Y724500D02*
Y734500D01*
X751000Y742500D02*
Y758500D01*
X779000Y742500D02*
Y758500D01*
X751000D02*
X779000D01*
X751000Y742500D02*
X779000D01*
X760000Y750500D02*
X770000D01*
X765000Y745500D02*
Y755500D01*
X761000Y933500D02*
Y949500D01*
X733000Y933500D02*
Y949500D01*
Y933500D02*
X761000D01*
X733000Y949500D02*
X761000D01*
X742000Y941500D02*
X752000D01*
X747000Y936500D02*
Y946500D01*
X760000Y897500D02*
Y913500D01*
X732000Y897500D02*
Y913500D01*
Y897500D02*
X760000D01*
X732000Y913500D02*
X760000D01*
X741000Y905500D02*
X751000D01*
X746000Y900500D02*
Y910500D01*
D68*
X545500Y116000D02*
X688500D01*
X545500Y259000D02*
X688500D01*
X545500Y116000D02*
Y259000D01*
X688500Y116000D02*
Y259000D01*
X306000Y352500D02*
X397000D01*
X306000Y440500D02*
X397000D01*
Y352500D02*
Y440500D01*
X306000Y352500D02*
Y440500D01*
X1020500Y493000D02*
X1163500D01*
X1020500Y636000D02*
X1163500D01*
X1020500Y493000D02*
Y636000D01*
X1163500Y493000D02*
Y636000D01*
M02*
