G04 Layer_Physical_Order=2*
G04 Layer_Color=16711680*
%FSLAX25Y25*%
%MOIN*%
G70*
G01*
G75*
%ADD22C,0.11811*%
%ADD23C,0.00984*%
%ADD25C,0.00600*%
%ADD26C,0.06000*%
%ADD27R,0.06000X0.06000*%
%ADD28R,0.09843X0.06000*%
%ADD29O,0.09843X0.06000*%
%ADD30O,0.09843X0.05906*%
%ADD31R,0.11417X0.07480*%
%ADD32O,0.11417X0.07480*%
%ADD33O,0.06000X0.09843*%
%ADD34R,0.06000X0.09843*%
%ADD35C,0.05000*%
%ADD36C,0.02500*%
G36*
X301772Y234331D02*
Y222047D01*
X300883D01*
X300680Y222427D01*
X300668Y222547D01*
X300804Y223228D01*
X300660Y223950D01*
X300251Y224562D01*
X299639Y224971D01*
X298917Y225115D01*
X298426Y225017D01*
X273063Y250380D01*
Y258526D01*
X273479Y258804D01*
X273888Y259416D01*
X274032Y260138D01*
X273888Y260860D01*
X273769Y261038D01*
X273927Y261334D01*
X274048Y261495D01*
X274546Y261557D01*
X301772Y234331D01*
D02*
G37*
G36*
X676772Y101122D02*
X238976D01*
Y164173D01*
X237803Y217753D01*
X238153Y218110D01*
X281424D01*
X281474Y217610D01*
X281246Y217565D01*
X280873Y217491D01*
X280261Y217082D01*
X279852Y216470D01*
X279708Y215748D01*
X279852Y215026D01*
X280261Y214414D01*
X280873Y214005D01*
X281594Y213862D01*
X281854Y213913D01*
X306925Y188842D01*
X306873Y188583D01*
X307017Y187861D01*
X307426Y187249D01*
X308038Y186840D01*
X308760Y186696D01*
X309482Y186840D01*
X310093Y187249D01*
X310502Y187861D01*
X310646Y188583D01*
X310502Y189304D01*
X310093Y189917D01*
X309482Y190325D01*
X308760Y190469D01*
X308500Y190417D01*
X283429Y215488D01*
X283481Y215748D01*
X283337Y216470D01*
X282928Y217082D01*
X282316Y217491D01*
X281943Y217565D01*
X281715Y217610D01*
X281765Y218110D01*
X292403D01*
X295849Y214664D01*
X295752Y214173D01*
X295895Y213451D01*
X296304Y212839D01*
X296916Y212431D01*
X297638Y212287D01*
X298360Y212431D01*
X298972Y212839D01*
X299380Y213451D01*
X299396Y213529D01*
X299874Y213674D01*
X310003Y203545D01*
X309925Y203150D01*
X310068Y202428D01*
X310477Y201816D01*
X311089Y201407D01*
X311811Y201263D01*
X312533Y201407D01*
X313145Y201816D01*
X313554Y202428D01*
X313697Y203150D01*
X313554Y203871D01*
X313145Y204483D01*
X312533Y204892D01*
X311811Y205036D01*
X311687Y205011D01*
X299050Y217648D01*
X299241Y218110D01*
X317992D01*
X331282Y204820D01*
X331185Y204330D01*
X331328Y203608D01*
X331737Y202996D01*
X332349Y202587D01*
X333071Y202443D01*
X333793Y202587D01*
X334405Y202996D01*
X334813Y203608D01*
X334957Y204330D01*
X334813Y205051D01*
X334405Y205663D01*
X333793Y206072D01*
X333071Y206216D01*
X332580Y206118D01*
X321050Y217648D01*
X321241Y218110D01*
X376191D01*
X376443Y217942D01*
X377165Y217798D01*
X377886Y217942D01*
X378138Y218110D01*
X482668D01*
Y211518D01*
X493710D01*
Y218110D01*
X676772D01*
Y101122D01*
D02*
G37*
G36*
X689568Y498378D02*
X688665Y497895D01*
X687613Y497032D01*
X686750Y495981D01*
X686109Y494781D01*
X685714Y493480D01*
X685630Y492626D01*
X692520D01*
Y492126D01*
X693020D01*
Y485236D01*
X693873Y485320D01*
X695175Y485715D01*
X696375Y486356D01*
X697426Y487219D01*
X698289Y488271D01*
X698393Y488466D01*
X698878Y488344D01*
Y346457D01*
Y237402D01*
X622047D01*
Y346063D01*
X622441Y346457D01*
X620472D01*
Y237106D01*
X620079Y236713D01*
X396144D01*
X395952Y237175D01*
X436206Y277429D01*
X537758D01*
X538036Y277013D01*
X538648Y276604D01*
X539370Y276460D01*
X540092Y276604D01*
X540704Y277013D01*
X541113Y277625D01*
X541256Y278346D01*
X541113Y279068D01*
X540704Y279680D01*
X540092Y280089D01*
X539370Y280233D01*
X538648Y280089D01*
X538036Y279680D01*
X537758Y279264D01*
X435826D01*
X435475Y279194D01*
X435178Y278995D01*
X392895Y236713D01*
X391026D01*
X390834Y237175D01*
X435420Y281760D01*
X533821D01*
X534099Y281343D01*
X534711Y280935D01*
X535433Y280791D01*
X536155Y280935D01*
X536767Y281343D01*
X537176Y281955D01*
X537319Y282677D01*
X537176Y283399D01*
X536767Y284011D01*
X536155Y284420D01*
X535433Y284563D01*
X534711Y284420D01*
X534099Y284011D01*
X533821Y283595D01*
X435039D01*
X434688Y283525D01*
X434390Y283326D01*
X387777Y236713D01*
X329429D01*
Y237106D01*
X305118Y261417D01*
X305906Y262205D01*
Y330185D01*
X393269D01*
X393547Y329768D01*
X394159Y329359D01*
X394881Y329216D01*
X395603Y329359D01*
X396215Y329768D01*
X396624Y330380D01*
X396767Y331102D01*
X396624Y331823D01*
X396215Y332435D01*
X395603Y332844D01*
X394881Y332988D01*
X394159Y332844D01*
X393547Y332435D01*
X393270Y332020D01*
X305906D01*
Y344882D01*
X315748D01*
Y398031D01*
X314961Y398819D01*
X315350Y498878D01*
X689443D01*
X689568Y498378D01*
D02*
G37*
G36*
X312598Y398425D02*
X123563D01*
Y464567D01*
X123563Y464567D01*
X123477Y464996D01*
X123234Y465360D01*
X123234Y465360D01*
X122441Y466153D01*
Y486614D01*
X113281D01*
X113068Y487066D01*
X113215Y487246D01*
X113765Y488274D01*
X114103Y489390D01*
X114168Y490051D01*
X102367D01*
X102432Y489390D01*
X102771Y488274D01*
X103321Y487246D01*
X103468Y487066D01*
X103254Y486614D01*
X101980D01*
X101122Y487472D01*
Y498878D01*
X312598D01*
Y398425D01*
D02*
G37*
G36*
X301772Y390158D02*
Y332020D01*
X279747D01*
X279480Y332666D01*
X278983Y333313D01*
X278335Y333810D01*
X277581Y334123D01*
X276772Y334229D01*
X275962Y334123D01*
X275208Y333810D01*
X274561Y333313D01*
X274064Y332666D01*
X273751Y331912D01*
X273645Y331102D01*
X273751Y330293D01*
X274064Y329539D01*
X274561Y328891D01*
X275208Y328395D01*
X275962Y328082D01*
X276772Y327976D01*
X277581Y328082D01*
X278335Y328395D01*
X278983Y328891D01*
X279480Y329539D01*
X279747Y330185D01*
X301772D01*
Y237580D01*
X301310Y237388D01*
X289900Y248798D01*
X290065Y249341D01*
X290642Y249455D01*
X291386Y249953D01*
X291883Y250697D01*
X291958Y251075D01*
X289764D01*
Y251575D01*
X289264D01*
Y253769D01*
X288886Y253694D01*
X288142Y253197D01*
X287644Y252453D01*
X287530Y251876D01*
X286987Y251711D01*
X275804Y262894D01*
X275901Y263385D01*
X275758Y264107D01*
X275349Y264719D01*
X274737Y265128D01*
X274015Y265271D01*
X273293Y265128D01*
X272681Y264719D01*
X272272Y264107D01*
X272129Y263385D01*
X272272Y262664D01*
X272392Y262485D01*
X272234Y262189D01*
X272104Y262016D01*
X271424Y261880D01*
X270812Y261472D01*
X270403Y260860D01*
X270259Y260138D01*
X270403Y259416D01*
X270812Y258804D01*
X271228Y258526D01*
Y250000D01*
X271298Y249649D01*
X271497Y249351D01*
X297129Y223719D01*
X297031Y223228D01*
X297175Y222506D01*
X297584Y221895D01*
X297959Y221644D01*
X298078Y221038D01*
X297159Y220048D01*
X296659Y220039D01*
X259243Y257455D01*
X259268Y257579D01*
X259124Y258301D01*
X258716Y258912D01*
X258104Y259321D01*
X257382Y259465D01*
X256660Y259321D01*
X256048Y258912D01*
X255639Y258301D01*
X255496Y257579D01*
X255639Y256857D01*
X256048Y256245D01*
X256660Y255836D01*
X257382Y255693D01*
X257777Y255771D01*
X258851Y254697D01*
X258706Y254219D01*
X258629Y254203D01*
X258017Y253794D01*
X257608Y253183D01*
X257464Y252461D01*
X257608Y251739D01*
X258017Y251127D01*
X258629Y250718D01*
X259350Y250574D01*
X259841Y250672D01*
X290760Y219753D01*
X290569Y219291D01*
X122638D01*
Y380709D01*
X122318Y388696D01*
X122476Y388728D01*
X122840Y388971D01*
X123234Y389364D01*
X123234Y389364D01*
X123477Y389728D01*
X123563Y390158D01*
X123855Y390551D01*
X301378D01*
X301772Y390158D01*
D02*
G37*
%LPC*%
G36*
X283691Y249894D02*
X281996D01*
Y248199D01*
X282374Y248274D01*
X283118Y248772D01*
X283615Y249516D01*
X283691Y249894D01*
D02*
G37*
G36*
X280996Y252588D02*
X280618Y252513D01*
X279874Y252016D01*
X279377Y251272D01*
X279301Y250894D01*
X280996D01*
Y252588D01*
D02*
G37*
G36*
X281996D02*
Y250894D01*
X283691D01*
X283615Y251272D01*
X283118Y252016D01*
X282374Y252513D01*
X281996Y252588D01*
D02*
G37*
G36*
X280996Y249894D02*
X279301D01*
X279377Y249516D01*
X279874Y248772D01*
X280618Y248274D01*
X280996Y248199D01*
Y249894D01*
D02*
G37*
G36*
X386720Y172756D02*
Y169791D01*
X389685D01*
X389630Y170205D01*
X389278Y171056D01*
X388717Y171788D01*
X387986Y172349D01*
X387134Y172701D01*
X386720Y172756D01*
D02*
G37*
G36*
X404618Y187689D02*
X399228D01*
X399300Y187145D01*
X399703Y186172D01*
X400344Y185336D01*
X401180Y184695D01*
X402153Y184292D01*
X403197Y184154D01*
X404618D01*
Y187689D01*
D02*
G37*
G36*
X411008D02*
X405618D01*
Y184154D01*
X407039D01*
X408084Y184292D01*
X409057Y184695D01*
X409892Y185336D01*
X410533Y186172D01*
X410936Y187145D01*
X411008Y187689D01*
D02*
G37*
G36*
X385720Y168791D02*
X382756D01*
X382811Y168378D01*
X383163Y167526D01*
X383724Y166795D01*
X384455Y166234D01*
X385307Y165881D01*
X385720Y165827D01*
Y168791D01*
D02*
G37*
G36*
X389685D02*
X386720D01*
Y165827D01*
X387134Y165881D01*
X387986Y166234D01*
X388717Y166795D01*
X389278Y167526D01*
X389630Y168378D01*
X389685Y168791D01*
D02*
G37*
G36*
X385720Y172756D02*
X385307Y172701D01*
X384455Y172349D01*
X383724Y171788D01*
X383163Y171056D01*
X382811Y170205D01*
X382756Y169791D01*
X385720D01*
Y172756D01*
D02*
G37*
G36*
X494079Y194618D02*
X488689D01*
Y191084D01*
X490110D01*
X491154Y191221D01*
X492128Y191624D01*
X492963Y192265D01*
X493604Y193101D01*
X494007Y194074D01*
X494079Y194618D01*
D02*
G37*
G36*
X342413Y196744D02*
X340719D01*
X340794Y196366D01*
X341291Y195622D01*
X342036Y195125D01*
X342413Y195050D01*
Y196744D01*
D02*
G37*
G36*
X345108D02*
X343413D01*
Y195050D01*
X343791Y195125D01*
X344536Y195622D01*
X345033Y196366D01*
X345108Y196744D01*
D02*
G37*
G36*
X404618Y192224D02*
X403197D01*
X402153Y192086D01*
X401180Y191683D01*
X400344Y191042D01*
X399703Y190206D01*
X399300Y189233D01*
X399228Y188689D01*
X404618D01*
Y192224D01*
D02*
G37*
G36*
X407039D02*
X405618D01*
Y188689D01*
X411008D01*
X410936Y189233D01*
X410533Y190206D01*
X409892Y191042D01*
X409057Y191683D01*
X408084Y192086D01*
X407039Y192224D01*
D02*
G37*
G36*
X487689Y194618D02*
X482299D01*
X482371Y194074D01*
X482774Y193101D01*
X483415Y192265D01*
X484250Y191624D01*
X485223Y191221D01*
X486268Y191084D01*
X487689D01*
Y194618D01*
D02*
G37*
G36*
X349796Y125248D02*
X346327D01*
Y121779D01*
X346871Y121851D01*
X347844Y122254D01*
X348680Y122895D01*
X349321Y123731D01*
X349724Y124704D01*
X349796Y125248D01*
D02*
G37*
G36*
X325827Y129379D02*
X324887Y129255D01*
X324011Y128893D01*
X323259Y128316D01*
X322682Y127564D01*
X322319Y126688D01*
X322196Y125748D01*
X322319Y124808D01*
X322682Y123933D01*
X323259Y123180D01*
X324011Y122603D01*
X324887Y122241D01*
X325827Y122117D01*
X326767Y122241D01*
X327642Y122603D01*
X328394Y123180D01*
X328971Y123933D01*
X329334Y124808D01*
X329458Y125748D01*
X329334Y126688D01*
X328971Y127564D01*
X328394Y128316D01*
X327642Y128893D01*
X326767Y129255D01*
X325827Y129379D01*
D02*
G37*
G36*
X345327Y129717D02*
X344783Y129645D01*
X343810Y129242D01*
X342974Y128601D01*
X342333Y127765D01*
X341930Y126792D01*
X341858Y126248D01*
X345327D01*
Y129717D01*
D02*
G37*
G36*
X345827Y119379D02*
X344887Y119255D01*
X344011Y118893D01*
X343259Y118316D01*
X342682Y117564D01*
X342319Y116688D01*
X342196Y115748D01*
X342319Y114808D01*
X342682Y113933D01*
X343259Y113180D01*
X344011Y112603D01*
X344887Y112241D01*
X345827Y112117D01*
X346767Y112241D01*
X347642Y112603D01*
X348394Y113180D01*
X348971Y113933D01*
X349334Y114808D01*
X349458Y115748D01*
X349334Y116688D01*
X348971Y117564D01*
X348394Y118316D01*
X347642Y118893D01*
X346767Y119255D01*
X345827Y119379D01*
D02*
G37*
G36*
X329427Y119348D02*
X322227D01*
Y112148D01*
X329427D01*
Y119348D01*
D02*
G37*
G36*
X345327Y125248D02*
X341858D01*
X341930Y124704D01*
X342333Y123731D01*
X342974Y122895D01*
X343810Y122254D01*
X344783Y121851D01*
X345327Y121779D01*
Y125248D01*
D02*
G37*
G36*
X267155Y163673D02*
X265461D01*
Y161979D01*
X265839Y162054D01*
X266583Y162551D01*
X267080Y163295D01*
X267155Y163673D01*
D02*
G37*
G36*
X264461Y166368D02*
X264083Y166293D01*
X263338Y165795D01*
X262841Y165051D01*
X262766Y164673D01*
X264461D01*
Y166368D01*
D02*
G37*
G36*
X265461D02*
Y164673D01*
X267155D01*
X267080Y165051D01*
X266583Y165795D01*
X265839Y166293D01*
X265461Y166368D01*
D02*
G37*
G36*
X346327Y129717D02*
Y126248D01*
X349796D01*
X349724Y126792D01*
X349321Y127765D01*
X348680Y128601D01*
X347844Y129242D01*
X346871Y129645D01*
X346327Y129717D01*
D02*
G37*
G36*
X340551Y136138D02*
X339829Y135995D01*
X339217Y135586D01*
X338808Y134974D01*
X338665Y134252D01*
X338808Y133530D01*
X338825Y133506D01*
X338809Y133428D01*
Y128521D01*
X338309Y128381D01*
X337642Y128893D01*
X336767Y129255D01*
X335827Y129379D01*
X334887Y129255D01*
X334011Y128893D01*
X333259Y128316D01*
X332682Y127564D01*
X332319Y126688D01*
X332196Y125748D01*
X332319Y124808D01*
X332682Y123933D01*
X333259Y123180D01*
X334011Y122603D01*
X334887Y122241D01*
X335720Y122131D01*
X335975Y121678D01*
X335178Y120881D01*
X334979Y120584D01*
X334909Y120233D01*
Y119258D01*
X334887Y119255D01*
X334011Y118893D01*
X333259Y118316D01*
X332682Y117564D01*
X332319Y116688D01*
X332196Y115748D01*
X332319Y114808D01*
X332682Y113933D01*
X333259Y113180D01*
X334011Y112603D01*
X334887Y112241D01*
X335827Y112117D01*
X336767Y112241D01*
X337642Y112603D01*
X338394Y113180D01*
X338971Y113933D01*
X339334Y114808D01*
X339458Y115748D01*
X339334Y116688D01*
X338971Y117564D01*
X338394Y118316D01*
X337642Y118893D01*
X336767Y119255D01*
X336744Y119258D01*
Y119852D01*
X340376Y123484D01*
X340575Y123781D01*
X340644Y124133D01*
Y132384D01*
X341273Y132509D01*
X341885Y132918D01*
X342294Y133530D01*
X342437Y134252D01*
X342294Y134974D01*
X341885Y135586D01*
X341273Y135995D01*
X340551Y136138D01*
D02*
G37*
G36*
X264461Y163673D02*
X262766D01*
X262841Y163295D01*
X263338Y162551D01*
X264083Y162054D01*
X264461Y161979D01*
Y163673D01*
D02*
G37*
G36*
X487689Y199153D02*
X486268D01*
X485223Y199015D01*
X484250Y198612D01*
X483415Y197971D01*
X482774Y197135D01*
X482371Y196162D01*
X482299Y195618D01*
X487689D01*
Y199153D01*
D02*
G37*
G36*
X367717Y201493D02*
X366995Y201349D01*
X366383Y200940D01*
X366019Y200395D01*
X365748Y200359D01*
X365477Y200395D01*
X365113Y200940D01*
X364501Y201349D01*
X363779Y201493D01*
X363058Y201349D01*
X362446Y200940D01*
X362037Y200328D01*
X361893Y199606D01*
X362037Y198884D01*
X362446Y198273D01*
X362468Y198258D01*
Y192506D01*
X357494Y187532D01*
X354331D01*
X353980Y187462D01*
X353682Y187263D01*
X330412Y163993D01*
X329921Y164091D01*
X329199Y163947D01*
X328588Y163539D01*
X328179Y162926D01*
X328035Y162205D01*
X328179Y161483D01*
X328588Y160871D01*
X329199Y160462D01*
X329921Y160319D01*
X330643Y160462D01*
X331255Y160871D01*
X331664Y161483D01*
X331807Y162205D01*
X331710Y162696D01*
X354711Y185696D01*
X357874D01*
X358225Y185766D01*
X358523Y185965D01*
X364035Y191477D01*
X364234Y191775D01*
X364303Y192126D01*
Y197824D01*
X364501Y197864D01*
X365113Y198273D01*
X365477Y198818D01*
X365748Y198854D01*
X366019Y198818D01*
X366383Y198273D01*
X366799Y197994D01*
Y193293D01*
X334349Y160844D01*
X333858Y160941D01*
X333136Y160798D01*
X332524Y160389D01*
X332116Y159777D01*
X331972Y159055D01*
X332116Y158333D01*
X332524Y157721D01*
X333136Y157313D01*
X333858Y157169D01*
X334580Y157313D01*
X335192Y157721D01*
X335601Y158333D01*
X335745Y159055D01*
X335647Y159546D01*
X368365Y192264D01*
X368564Y192562D01*
X368634Y192913D01*
Y197994D01*
X369050Y198273D01*
X369459Y198884D01*
X369603Y199606D01*
X369459Y200328D01*
X369050Y200940D01*
X368438Y201349D01*
X367717Y201493D01*
D02*
G37*
G36*
X490110Y208749D02*
X486268D01*
X485328Y208625D01*
X484452Y208263D01*
X483700Y207686D01*
X483123Y206934D01*
X482760Y206058D01*
X482637Y205118D01*
X482760Y204178D01*
X483123Y203303D01*
X483700Y202551D01*
X484452Y201974D01*
X485328Y201611D01*
X486268Y201487D01*
X490110D01*
X491050Y201611D01*
X491926Y201974D01*
X492678Y202551D01*
X493255Y203303D01*
X493618Y204178D01*
X493741Y205118D01*
X493618Y206058D01*
X493255Y206934D01*
X492678Y207686D01*
X491926Y208263D01*
X491050Y208625D01*
X490110Y208749D01*
D02*
G37*
G36*
X410639Y211789D02*
X399597D01*
Y205554D01*
X399097Y205224D01*
X398976Y205248D01*
X340982D01*
X340704Y205664D01*
X340092Y206073D01*
X339370Y206217D01*
X338648Y206073D01*
X338036Y205664D01*
X337627Y205052D01*
X337484Y204331D01*
X337627Y203609D01*
X338036Y202997D01*
X338648Y202588D01*
X339370Y202445D01*
X340092Y202588D01*
X340704Y202997D01*
X340982Y203413D01*
X398596D01*
X400714Y201295D01*
X400681Y200796D01*
X400629Y200757D01*
X400052Y200005D01*
X399690Y199129D01*
X399566Y198189D01*
X399690Y197249D01*
X400052Y196373D01*
X400629Y195621D01*
X401381Y195044D01*
X402257Y194682D01*
X403197Y194558D01*
X407039D01*
X407979Y194682D01*
X408855Y195044D01*
X409607Y195621D01*
X410184Y196373D01*
X410547Y197249D01*
X410670Y198189D01*
X410547Y199129D01*
X410184Y200005D01*
X409607Y200757D01*
X408855Y201334D01*
X407979Y201696D01*
X407039Y201820D01*
X403197D01*
X402833Y201772D01*
X400478Y204127D01*
X400669Y204589D01*
X410639D01*
Y211789D01*
D02*
G37*
G36*
X490110Y199153D02*
X488689D01*
Y195618D01*
X494079D01*
X494007Y196162D01*
X493604Y197135D01*
X492963Y197971D01*
X492128Y198612D01*
X491154Y199015D01*
X490110Y199153D01*
D02*
G37*
G36*
X342413Y199439D02*
X342036Y199364D01*
X341291Y198866D01*
X340794Y198122D01*
X340719Y197744D01*
X342413D01*
Y199439D01*
D02*
G37*
G36*
X343413D02*
Y197744D01*
X345108D01*
X345033Y198122D01*
X344536Y198866D01*
X343791Y199364D01*
X343413Y199439D01*
D02*
G37*
G36*
X670819Y317804D02*
X666976D01*
X666037Y317681D01*
X665161Y317318D01*
X664409Y316741D01*
X663832Y315989D01*
X663469Y315113D01*
X663345Y314173D01*
X663469Y313233D01*
X663832Y312358D01*
X664409Y311606D01*
X665161Y311029D01*
X666037Y310666D01*
X666976Y310542D01*
X670819D01*
X671759Y310666D01*
X672634Y311029D01*
X673386Y311606D01*
X673963Y312358D01*
X674326Y313233D01*
X674450Y314173D01*
X674326Y315113D01*
X673963Y315989D01*
X673386Y316741D01*
X672634Y317318D01*
X671759Y317681D01*
X670819Y317804D01*
D02*
G37*
G36*
X557374Y313673D02*
X555679D01*
X555755Y313295D01*
X556252Y312551D01*
X556996Y312054D01*
X557374Y311979D01*
Y313673D01*
D02*
G37*
G36*
X456193Y317610D02*
X454498D01*
X454573Y317232D01*
X455071Y316488D01*
X455815Y315991D01*
X456193Y315916D01*
Y317610D01*
D02*
G37*
G36*
X458887D02*
X457193D01*
Y315916D01*
X457571Y315991D01*
X458315Y316488D01*
X458812Y317232D01*
X458887Y317610D01*
D02*
G37*
G36*
X558374Y316368D02*
Y314673D01*
X560069D01*
X559994Y315051D01*
X559496Y315795D01*
X558752Y316293D01*
X558374Y316368D01*
D02*
G37*
G36*
X560069Y313673D02*
X558374D01*
Y311979D01*
X558752Y312054D01*
X559496Y312551D01*
X559994Y313295D01*
X560069Y313673D01*
D02*
G37*
G36*
X557374Y316368D02*
X556996Y316293D01*
X556252Y315795D01*
X555755Y315051D01*
X555679Y314673D01*
X557374D01*
Y316368D01*
D02*
G37*
G36*
X670819Y307804D02*
X666976D01*
X666037Y307681D01*
X665161Y307318D01*
X664409Y306741D01*
X663832Y305989D01*
X663469Y305113D01*
X663345Y304173D01*
X663469Y303233D01*
X663832Y302358D01*
X664409Y301606D01*
X665161Y301029D01*
X666037Y300666D01*
X666976Y300542D01*
X670819D01*
X671759Y300666D01*
X672634Y301029D01*
X673386Y301606D01*
X673963Y302358D01*
X674326Y303233D01*
X674450Y304173D01*
X674326Y305113D01*
X673963Y305989D01*
X673386Y306741D01*
X672634Y307318D01*
X671759Y307681D01*
X670819Y307804D01*
D02*
G37*
G36*
X674787Y283673D02*
X669398D01*
Y280186D01*
X670866D01*
X671898Y280322D01*
X672860Y280720D01*
X673685Y281354D01*
X674319Y282180D01*
X674717Y283141D01*
X674787Y283673D01*
D02*
G37*
G36*
X668398Y288160D02*
X666929D01*
X665897Y288024D01*
X664936Y287626D01*
X664110Y286992D01*
X663476Y286167D01*
X663078Y285205D01*
X663008Y284673D01*
X668398D01*
Y288160D01*
D02*
G37*
G36*
X670866D02*
X669398D01*
Y284673D01*
X674787D01*
X674717Y285205D01*
X674319Y286167D01*
X673685Y286992D01*
X672860Y287626D01*
X671898Y288024D01*
X670866Y288160D01*
D02*
G37*
G36*
X534854Y264756D02*
X534310Y264685D01*
X533337Y264281D01*
X532502Y263640D01*
X531860Y262805D01*
X531457Y261832D01*
X531386Y261287D01*
X534854D01*
Y264756D01*
D02*
G37*
G36*
X535854D02*
Y261287D01*
X539323D01*
X539251Y261832D01*
X538848Y262805D01*
X538207Y263640D01*
X537372Y264281D01*
X536399Y264685D01*
X535854Y264756D01*
D02*
G37*
G36*
X668398Y283673D02*
X663008D01*
X663078Y283141D01*
X663476Y282180D01*
X664110Y281354D01*
X664936Y280720D01*
X665897Y280322D01*
X666929Y280186D01*
X668398D01*
Y283673D01*
D02*
G37*
G36*
X394488Y327870D02*
X393766Y327727D01*
X393154Y327318D01*
X392745Y326706D01*
X392602Y325984D01*
X392745Y325262D01*
X393154Y324651D01*
X393766Y324242D01*
X394488Y324098D01*
X394979Y324196D01*
X433209Y285965D01*
X433507Y285766D01*
X433858Y285697D01*
X531459D01*
X531737Y285280D01*
X532349Y284872D01*
X533071Y284728D01*
X533793Y284872D01*
X534405Y285280D01*
X534813Y285892D01*
X534915Y286404D01*
X534957Y286614D01*
X535415Y286878D01*
X542483D01*
X542761Y286461D01*
X543373Y286053D01*
X544095Y285909D01*
X544816Y286053D01*
X545428Y286461D01*
X545837Y287073D01*
X545981Y287795D01*
X545837Y288517D01*
X545428Y289129D01*
X544816Y289538D01*
X544095Y289682D01*
X543373Y289538D01*
X542761Y289129D01*
X542483Y288713D01*
X535310D01*
X534610Y289413D01*
X534313Y289612D01*
X533961Y289682D01*
X532180D01*
X531829Y289612D01*
X531531Y289413D01*
X530850Y288732D01*
X441306D01*
X427027Y303011D01*
X426729Y303210D01*
X426378Y303280D01*
X425010D01*
X424971Y303478D01*
X424562Y304090D01*
X423950Y304499D01*
X423228Y304642D01*
X422507Y304499D01*
X421895Y304090D01*
X421486Y303478D01*
X421342Y302756D01*
X421486Y302034D01*
X421895Y301422D01*
X422507Y301013D01*
X423228Y300870D01*
X423950Y301013D01*
X424562Y301422D01*
X424577Y301445D01*
X425998D01*
X439449Y287994D01*
X439257Y287532D01*
X434238D01*
X396277Y325493D01*
X396374Y325984D01*
X396231Y326706D01*
X395822Y327318D01*
X395210Y327727D01*
X394488Y327870D01*
D02*
G37*
G36*
X670819Y297804D02*
X666976D01*
X666037Y297681D01*
X665161Y297318D01*
X664409Y296741D01*
X663832Y295989D01*
X663469Y295113D01*
X663345Y294173D01*
X663469Y293233D01*
X663832Y292358D01*
X664409Y291606D01*
X665161Y291029D01*
X666037Y290666D01*
X666976Y290542D01*
X670819D01*
X671759Y290666D01*
X672634Y291029D01*
X673386Y291606D01*
X673963Y292358D01*
X674326Y293233D01*
X674450Y294173D01*
X674326Y295113D01*
X673963Y295989D01*
X673386Y296741D01*
X672634Y297318D01*
X671759Y297681D01*
X670819Y297804D01*
D02*
G37*
G36*
X471260Y308185D02*
X470538Y308042D01*
X469926Y307633D01*
X469517Y307021D01*
X469374Y306299D01*
X469517Y305577D01*
X469926Y304965D01*
X470538Y304557D01*
X471260Y304413D01*
X471982Y304557D01*
X472594Y304965D01*
X472872Y305382D01*
X494108D01*
X501502Y297988D01*
X501799Y297789D01*
X502151Y297719D01*
X526086D01*
X526438Y297789D01*
X526735Y297988D01*
X528617Y299870D01*
X539333D01*
X539611Y299454D01*
X540223Y299045D01*
X540945Y298901D01*
X541667Y299045D01*
X542279Y299454D01*
X542688Y300066D01*
X542831Y300787D01*
X542701Y301443D01*
X542731Y301577D01*
X542982Y301969D01*
X543004Y301971D01*
X543389Y301575D01*
X543533Y300853D01*
X543942Y300241D01*
X544554Y299832D01*
X545276Y299689D01*
X545997Y299832D01*
X546609Y300241D01*
X547018Y300853D01*
X547162Y301575D01*
X547018Y302297D01*
X546609Y302909D01*
X546404Y303046D01*
Y303647D01*
X546609Y303784D01*
X547018Y304396D01*
X547162Y305118D01*
X547018Y305840D01*
X546609Y306452D01*
X545997Y306861D01*
X545276Y307004D01*
X544554Y306861D01*
X543942Y306452D01*
X543785Y306217D01*
X527848D01*
X527497Y306147D01*
X527200Y305948D01*
X525940Y304688D01*
X525741Y304391D01*
X525671Y304040D01*
Y302973D01*
X525285Y302655D01*
X525196Y302673D01*
X524474Y302530D01*
X523862Y302121D01*
X523453Y301509D01*
X523310Y300787D01*
X523453Y300065D01*
X523500Y299995D01*
X523264Y299554D01*
X502531D01*
X495137Y306948D01*
X494839Y307147D01*
X494488Y307217D01*
X472872D01*
X472594Y307633D01*
X471982Y308042D01*
X471260Y308185D01*
D02*
G37*
G36*
X584752Y348651D02*
Y346957D01*
X586447D01*
X586371Y347335D01*
X585874Y348079D01*
X585130Y348576D01*
X584752Y348651D01*
D02*
G37*
G36*
X375484Y355012D02*
X373790D01*
X373865Y354634D01*
X374362Y353890D01*
X375106Y353392D01*
X375484Y353317D01*
Y355012D01*
D02*
G37*
G36*
X378179D02*
X376484D01*
Y353317D01*
X376862Y353392D01*
X377606Y353890D01*
X378104Y354634D01*
X378179Y355012D01*
D02*
G37*
G36*
X529421Y347864D02*
X529043Y347789D01*
X528299Y347291D01*
X527802Y346547D01*
X527727Y346169D01*
X529421D01*
Y347864D01*
D02*
G37*
G36*
X530421D02*
Y346169D01*
X532116D01*
X532041Y346547D01*
X531543Y347291D01*
X530799Y347789D01*
X530421Y347864D01*
D02*
G37*
G36*
X583752Y348651D02*
X583374Y348576D01*
X582630Y348079D01*
X582132Y347335D01*
X582057Y346957D01*
X583752D01*
Y348651D01*
D02*
G37*
G36*
X506725Y363280D02*
X503256D01*
Y359811D01*
X503800Y359882D01*
X504773Y360285D01*
X505609Y360927D01*
X506250Y361762D01*
X506653Y362735D01*
X506725Y363280D01*
D02*
G37*
G36*
X531102Y367411D02*
X530163Y367287D01*
X529287Y366924D01*
X528535Y366347D01*
X527958Y365595D01*
X527595Y364719D01*
X527471Y363779D01*
X527595Y362840D01*
X527958Y361964D01*
X528535Y361212D01*
X529287Y360635D01*
X530163Y360272D01*
X531102Y360149D01*
X532042Y360272D01*
X532918Y360635D01*
X533670Y361212D01*
X534247Y361964D01*
X534610Y362840D01*
X534733Y363779D01*
X534610Y364719D01*
X534247Y365595D01*
X533670Y366347D01*
X532918Y366924D01*
X532042Y367287D01*
X531102Y367411D01*
D02*
G37*
G36*
X545276D02*
X544336Y367287D01*
X543460Y366924D01*
X542708Y366347D01*
X542131Y365595D01*
X541768Y364719D01*
X541644Y363779D01*
X541768Y362840D01*
X542131Y361964D01*
X542708Y361212D01*
X543460Y360635D01*
X544336Y360272D01*
X545276Y360149D01*
X546215Y360272D01*
X547091Y360635D01*
X547843Y361212D01*
X548420Y361964D01*
X548783Y362840D01*
X548907Y363779D01*
X548783Y364719D01*
X548420Y365595D01*
X547843Y366347D01*
X547091Y366924D01*
X546215Y367287D01*
X545276Y367411D01*
D02*
G37*
G36*
X375484Y357706D02*
X375106Y357631D01*
X374362Y357134D01*
X373865Y356390D01*
X373790Y356012D01*
X375484D01*
Y357706D01*
D02*
G37*
G36*
X376484D02*
Y356012D01*
X378179D01*
X378104Y356390D01*
X377606Y357134D01*
X376862Y357631D01*
X376484Y357706D01*
D02*
G37*
G36*
X502256Y363280D02*
X498787D01*
X498859Y362735D01*
X499262Y361762D01*
X499903Y360927D01*
X500739Y360285D01*
X501712Y359882D01*
X502256Y359811D01*
Y363280D01*
D02*
G37*
G36*
X438583Y398031D02*
X428346D01*
Y367717D01*
X405512Y344882D01*
X407874D01*
X408268Y344488D01*
X438583Y374803D01*
Y398031D01*
D02*
G37*
G36*
X612824Y321941D02*
X611130D01*
Y320246D01*
X611508Y320321D01*
X612252Y320819D01*
X612749Y321563D01*
X612824Y321941D01*
D02*
G37*
G36*
X524409Y331414D02*
X523688Y331270D01*
X523076Y330861D01*
X522667Y330249D01*
X522523Y329528D01*
X522667Y328806D01*
X523076Y328194D01*
X523688Y327785D01*
X524409Y327641D01*
X525131Y327785D01*
X525743Y328194D01*
X526021Y328610D01*
X535840D01*
X541518Y322932D01*
X541421Y322441D01*
X541564Y321719D01*
X541973Y321107D01*
X542585Y320698D01*
X543307Y320555D01*
X544029Y320698D01*
X544641Y321107D01*
X545050Y321719D01*
X545193Y322441D01*
X545050Y323163D01*
X544641Y323775D01*
X544029Y324184D01*
X543307Y324327D01*
X542816Y324230D01*
X536869Y330176D01*
X536572Y330375D01*
X536221Y330445D01*
X526021D01*
X525743Y330861D01*
X525131Y331270D01*
X524409Y331414D01*
D02*
G37*
G36*
X610130Y324636D02*
X609752Y324560D01*
X609008Y324063D01*
X608510Y323319D01*
X608435Y322941D01*
X610130D01*
Y324636D01*
D02*
G37*
G36*
X456193Y320305D02*
X455815Y320230D01*
X455071Y319732D01*
X454573Y318988D01*
X454498Y318610D01*
X456193D01*
Y320305D01*
D02*
G37*
G36*
X457193D02*
Y318610D01*
X458887D01*
X458812Y318988D01*
X458315Y319732D01*
X457571Y320230D01*
X457193Y320305D01*
D02*
G37*
G36*
X610130Y321941D02*
X608435D01*
X608510Y321563D01*
X609008Y320819D01*
X609752Y320321D01*
X610130Y320246D01*
Y321941D01*
D02*
G37*
G36*
X532116Y345169D02*
X530421D01*
Y343475D01*
X530799Y343550D01*
X531543Y344047D01*
X532041Y344791D01*
X532116Y345169D01*
D02*
G37*
G36*
X583752Y345957D02*
X582057D01*
X582132Y345579D01*
X582630Y344834D01*
X583374Y344337D01*
X583752Y344262D01*
Y345957D01*
D02*
G37*
G36*
X586447D02*
X584752D01*
Y344262D01*
X585130Y344337D01*
X585874Y344834D01*
X586371Y345579D01*
X586447Y345957D01*
D02*
G37*
G36*
X611130Y324636D02*
Y322941D01*
X612824D01*
X612749Y323319D01*
X612252Y324063D01*
X611508Y324560D01*
X611130Y324636D01*
D02*
G37*
G36*
X529421Y345169D02*
X527727D01*
X527802Y344791D01*
X528299Y344047D01*
X529043Y343550D01*
X529421Y343475D01*
Y345169D01*
D02*
G37*
G36*
X535354Y254418D02*
X534414Y254295D01*
X533539Y253932D01*
X532787Y253355D01*
X532210Y252603D01*
X531847Y251727D01*
X531723Y250787D01*
X531847Y249848D01*
X532210Y248972D01*
X532787Y248220D01*
X533539Y247643D01*
X534414Y247280D01*
X535354Y247156D01*
X536294Y247280D01*
X537170Y247643D01*
X537922Y248220D01*
X538499Y248972D01*
X538862Y249848D01*
X538985Y250787D01*
X538862Y251727D01*
X538499Y252603D01*
X537922Y253355D01*
X537170Y253932D01*
X536294Y254295D01*
X535354Y254418D01*
D02*
G37*
G36*
X518954Y254387D02*
X511754D01*
Y247187D01*
X518954D01*
Y254387D01*
D02*
G37*
G36*
X539323Y260287D02*
X535854D01*
Y256819D01*
X536399Y256890D01*
X537372Y257293D01*
X538207Y257935D01*
X538848Y258770D01*
X539251Y259743D01*
X539323Y260287D01*
D02*
G37*
G36*
X515354Y264419D02*
X514415Y264295D01*
X513539Y263932D01*
X512787Y263355D01*
X512210Y262603D01*
X511847Y261727D01*
X511723Y260787D01*
X511847Y259848D01*
X512210Y258972D01*
X512787Y258220D01*
X513539Y257643D01*
X514415Y257280D01*
X515354Y257156D01*
X516294Y257280D01*
X517170Y257643D01*
X517922Y258220D01*
X518499Y258972D01*
X518862Y259848D01*
X518985Y260787D01*
X518862Y261727D01*
X518499Y262603D01*
X517922Y263355D01*
X517170Y263932D01*
X516294Y264295D01*
X515354Y264419D01*
D02*
G37*
G36*
X525354D02*
X524414Y264295D01*
X523539Y263932D01*
X522787Y263355D01*
X522210Y262603D01*
X521847Y261727D01*
X521723Y260787D01*
X521847Y259848D01*
X522210Y258972D01*
X522787Y258220D01*
X523539Y257643D01*
X524414Y257280D01*
X525354Y257156D01*
X526294Y257280D01*
X527170Y257643D01*
X527922Y258220D01*
X528499Y258972D01*
X528862Y259848D01*
X528985Y260787D01*
X528862Y261727D01*
X528499Y262603D01*
X527922Y263355D01*
X527170Y263932D01*
X526294Y264295D01*
X525354Y264419D01*
D02*
G37*
G36*
X534854Y260287D02*
X531386D01*
X531457Y259743D01*
X531860Y258770D01*
X532502Y257935D01*
X533337Y257293D01*
X534310Y256890D01*
X534854Y256819D01*
Y260287D01*
D02*
G37*
G36*
X525354Y254418D02*
X524414Y254295D01*
X523539Y253932D01*
X522787Y253355D01*
X522210Y252603D01*
X521847Y251727D01*
X521723Y250787D01*
X521847Y249848D01*
X522210Y248972D01*
X522787Y248220D01*
X523539Y247643D01*
X524414Y247280D01*
X525354Y247156D01*
X526294Y247280D01*
X527170Y247643D01*
X527922Y248220D01*
X528499Y248972D01*
X528862Y249848D01*
X528985Y250787D01*
X528862Y251727D01*
X528499Y252603D01*
X527922Y253355D01*
X527170Y253932D01*
X526294Y254295D01*
X525354Y254418D01*
D02*
G37*
G36*
X563836Y468561D02*
X556636D01*
Y461361D01*
X563836D01*
Y468561D01*
D02*
G37*
G36*
X503043Y468929D02*
X502499Y468858D01*
X501526Y468455D01*
X500691Y467813D01*
X500049Y466978D01*
X499646Y466005D01*
X499575Y465461D01*
X503043D01*
Y468929D01*
D02*
G37*
G36*
X504043Y468929D02*
Y465461D01*
X507512D01*
X507440Y466005D01*
X507037Y466978D01*
X506396Y467813D01*
X505561Y468455D01*
X504588Y468858D01*
X504043Y468929D01*
D02*
G37*
G36*
X517717Y468592D02*
X516777Y468468D01*
X515901Y468105D01*
X515149Y467528D01*
X514572Y466776D01*
X514209Y465900D01*
X514085Y464961D01*
X514209Y464021D01*
X514572Y463145D01*
X515149Y462393D01*
X515901Y461816D01*
X516777Y461453D01*
X517717Y461330D01*
X518656Y461453D01*
X519532Y461816D01*
X520284Y462393D01*
X520861Y463145D01*
X521224Y464021D01*
X521348Y464961D01*
X521224Y465900D01*
X520861Y466776D01*
X520284Y467528D01*
X519532Y468105D01*
X518656Y468468D01*
X517717Y468592D01*
D02*
G37*
G36*
X531890D02*
X530950Y468468D01*
X530074Y468105D01*
X529322Y467528D01*
X528745Y466776D01*
X528382Y465900D01*
X528259Y464961D01*
X528382Y464021D01*
X528745Y463145D01*
X529322Y462393D01*
X530074Y461816D01*
X530950Y461453D01*
X531890Y461330D01*
X532830Y461453D01*
X533705Y461816D01*
X534457Y462393D01*
X535034Y463145D01*
X535397Y464021D01*
X535521Y464961D01*
X535397Y465900D01*
X535034Y466776D01*
X534457Y467528D01*
X533705Y468105D01*
X532830Y468468D01*
X531890Y468592D01*
D02*
G37*
G36*
X546063D02*
X545123Y468468D01*
X544247Y468105D01*
X543495Y467528D01*
X542918Y466776D01*
X542556Y465900D01*
X542432Y464961D01*
X542556Y464021D01*
X542918Y463145D01*
X543495Y462393D01*
X544247Y461816D01*
X545123Y461453D01*
X546063Y461330D01*
X547003Y461453D01*
X547879Y461816D01*
X548631Y462393D01*
X549208Y463145D01*
X549570Y464021D01*
X549694Y464961D01*
X549570Y465900D01*
X549208Y466776D01*
X548631Y467528D01*
X547879Y468105D01*
X547003Y468468D01*
X546063Y468592D01*
D02*
G37*
G36*
X503043Y464461D02*
X499575D01*
X499646Y463916D01*
X500049Y462943D01*
X500691Y462108D01*
X501526Y461467D01*
X502499Y461064D01*
X503043Y460992D01*
Y464461D01*
D02*
G37*
G36*
X387008Y444576D02*
X386068Y444452D01*
X385192Y444090D01*
X384440Y443512D01*
X383863Y442760D01*
X383501Y441885D01*
X383377Y440945D01*
X383501Y440005D01*
X383748Y439409D01*
X383431Y438909D01*
X380685D01*
X380368Y439409D01*
X380615Y440005D01*
X380739Y440945D01*
X380615Y441885D01*
X380253Y442760D01*
X379675Y443512D01*
X378923Y444090D01*
X378048Y444452D01*
X377108Y444576D01*
X376168Y444452D01*
X375292Y444090D01*
X374540Y443512D01*
X373963Y442760D01*
X373601Y441885D01*
X373477Y440945D01*
X373601Y440005D01*
X373848Y439409D01*
X373531Y438909D01*
X371135D01*
X370801Y439409D01*
X371005Y439901D01*
X371077Y440445D01*
X367108D01*
X363139D01*
X363211Y439901D01*
X363415Y439409D01*
X363081Y438909D01*
X334552D01*
X334405Y439129D01*
X333793Y439538D01*
X333071Y439681D01*
X332349Y439538D01*
X331737Y439129D01*
X331328Y438517D01*
X331185Y437795D01*
X331328Y437073D01*
X331737Y436461D01*
X332349Y436053D01*
X333071Y435909D01*
X333793Y436053D01*
X334405Y436461D01*
X334552Y436682D01*
X364009D01*
X364626Y436065D01*
X364987Y435824D01*
X365413Y435739D01*
X368803D01*
X369229Y435824D01*
X369590Y436065D01*
X370207Y436682D01*
X374009D01*
X374625Y436065D01*
X374987Y435824D01*
X375413Y435739D01*
X378803D01*
X379229Y435824D01*
X379590Y436065D01*
X380207Y436682D01*
X383909D01*
X384525Y436065D01*
X384887Y435824D01*
X385313Y435739D01*
X388703D01*
X389129Y435824D01*
X389490Y436065D01*
X389951Y436527D01*
X393891Y432587D01*
X393601Y431885D01*
X393477Y430945D01*
X393601Y430005D01*
X393963Y429129D01*
X394540Y428377D01*
X395292Y427800D01*
X396168Y427438D01*
X397108Y427314D01*
X398048Y427438D01*
X398923Y427800D01*
X399675Y428377D01*
X400252Y429129D01*
X400615Y430005D01*
X400739Y430945D01*
X400615Y431885D01*
X400252Y432760D01*
X399675Y433512D01*
X398923Y434090D01*
X398048Y434452D01*
X397108Y434576D01*
X396168Y434452D01*
X395466Y434161D01*
X391045Y438583D01*
X390684Y438824D01*
X390556Y438849D01*
X390521Y438874D01*
X390266Y439361D01*
X390267Y439405D01*
X390515Y440005D01*
X390639Y440945D01*
X390515Y441885D01*
X390153Y442760D01*
X389575Y443512D01*
X388823Y444090D01*
X387948Y444452D01*
X387008Y444576D01*
D02*
G37*
G36*
X366608Y444914D02*
X366064Y444842D01*
X365091Y444439D01*
X364255Y443798D01*
X363614Y442962D01*
X363211Y441989D01*
X363139Y441445D01*
X366608D01*
Y444914D01*
D02*
G37*
G36*
X589264Y451407D02*
X588886Y451332D01*
X588142Y450835D01*
X587644Y450091D01*
X587569Y449713D01*
X589264D01*
Y451407D01*
D02*
G37*
G36*
X590264D02*
Y449713D01*
X591958D01*
X591883Y450091D01*
X591386Y450835D01*
X590642Y451332D01*
X590264Y451407D01*
D02*
G37*
G36*
X507512Y464461D02*
X504043D01*
Y460992D01*
X504588Y461064D01*
X505561Y461467D01*
X506396Y462108D01*
X507037Y462943D01*
X507440Y463916D01*
X507512Y464461D01*
D02*
G37*
G36*
X367608Y444914D02*
Y441445D01*
X371077D01*
X371005Y441989D01*
X370602Y442962D01*
X369961Y443798D01*
X369125Y444439D01*
X368152Y444842D01*
X367608Y444914D01*
D02*
G37*
G36*
X589264Y448713D02*
X587569D01*
X587644Y448335D01*
X588142Y447590D01*
X588886Y447093D01*
X589264Y447018D01*
Y448713D01*
D02*
G37*
G36*
X591958D02*
X590264D01*
Y447018D01*
X590642Y447093D01*
X591386Y447590D01*
X591883Y448335D01*
X591958Y448713D01*
D02*
G37*
G36*
X569185Y484539D02*
X567490D01*
X567566Y484162D01*
X568063Y483417D01*
X568807Y482920D01*
X569185Y482845D01*
Y484539D01*
D02*
G37*
G36*
X570185Y487234D02*
Y485539D01*
X571880D01*
X571805Y485917D01*
X571307Y486661D01*
X570563Y487159D01*
X570185Y487234D01*
D02*
G37*
G36*
X571880Y484539D02*
X570185D01*
Y482845D01*
X570563Y482920D01*
X571307Y483417D01*
X571805Y484162D01*
X571880Y484539D01*
D02*
G37*
G36*
X692020Y491626D02*
X685630D01*
X685714Y490772D01*
X686109Y489471D01*
X686750Y488271D01*
X687613Y487219D01*
X688665Y486356D01*
X689864Y485715D01*
X691166Y485320D01*
X692020Y485236D01*
Y491626D01*
D02*
G37*
G36*
X569185Y487234D02*
X568807Y487159D01*
X568063Y486661D01*
X567566Y485917D01*
X567490Y485539D01*
X569185D01*
Y487234D01*
D02*
G37*
G36*
X546457Y405206D02*
X545517Y405082D01*
X544641Y404719D01*
X543889Y404142D01*
X543312Y403390D01*
X542949Y402515D01*
X542826Y401575D01*
X542949Y400635D01*
X543312Y399759D01*
X543889Y399007D01*
X544641Y398430D01*
X545517Y398067D01*
X546457Y397944D01*
X547397Y398067D01*
X548272Y398430D01*
X549024Y399007D01*
X549601Y399759D01*
X549964Y400635D01*
X550088Y401575D01*
X549964Y402515D01*
X549601Y403390D01*
X549024Y404142D01*
X548272Y404719D01*
X547397Y405082D01*
X546457Y405206D01*
D02*
G37*
G36*
X564230Y405175D02*
X557030D01*
Y397975D01*
X564230D01*
Y405175D01*
D02*
G37*
G36*
X453543Y398425D02*
Y398228D01*
X453740D01*
X453543Y398425D01*
D02*
G37*
G36*
X503437Y401075D02*
X499968D01*
X500040Y400531D01*
X500443Y399557D01*
X501084Y398722D01*
X501920Y398081D01*
X502893Y397678D01*
X503437Y397606D01*
Y401075D01*
D02*
G37*
G36*
X507906D02*
X504437D01*
Y397606D01*
X504981Y397678D01*
X505954Y398081D01*
X506790Y398722D01*
X507431Y399557D01*
X507834Y400531D01*
X507906Y401075D01*
D02*
G37*
G36*
X532283Y405206D02*
X531344Y405082D01*
X530468Y404719D01*
X529716Y404142D01*
X529139Y403390D01*
X528776Y402515D01*
X528652Y401575D01*
X528776Y400635D01*
X529139Y399759D01*
X529716Y399007D01*
X530468Y398430D01*
X531344Y398067D01*
X532283Y397944D01*
X533223Y398067D01*
X534099Y398430D01*
X534851Y399007D01*
X535428Y399759D01*
X535791Y400635D01*
X535915Y401575D01*
X535791Y402515D01*
X535428Y403390D01*
X534851Y404142D01*
X534099Y404719D01*
X533223Y405082D01*
X532283Y405206D01*
D02*
G37*
G36*
X588083Y417216D02*
X586388D01*
X586463Y416839D01*
X586961Y416094D01*
X587705Y415597D01*
X588083Y415522D01*
Y417216D01*
D02*
G37*
G36*
X590777D02*
X589083D01*
Y415522D01*
X589461Y415597D01*
X590205Y416094D01*
X590702Y416839D01*
X590777Y417216D01*
D02*
G37*
G36*
X503437Y405544D02*
X502893Y405472D01*
X501920Y405069D01*
X501084Y404428D01*
X500443Y403592D01*
X500040Y402619D01*
X499968Y402075D01*
X503437D01*
Y405544D01*
D02*
G37*
G36*
X504437D02*
Y402075D01*
X507906D01*
X507834Y402619D01*
X507431Y403592D01*
X506790Y404428D01*
X505954Y405069D01*
X504981Y405472D01*
X504437Y405544D01*
D02*
G37*
G36*
X503256Y367748D02*
Y364280D01*
X506725D01*
X506653Y364824D01*
X506250Y365797D01*
X505609Y366632D01*
X504773Y367273D01*
X503800Y367677D01*
X503256Y367748D01*
D02*
G37*
G36*
X399894Y366823D02*
X398199D01*
X398274Y366445D01*
X398772Y365701D01*
X399516Y365203D01*
X399894Y365128D01*
Y366823D01*
D02*
G37*
G36*
X402588D02*
X400894D01*
Y365128D01*
X401272Y365203D01*
X402016Y365701D01*
X402513Y366445D01*
X402588Y366823D01*
D02*
G37*
G36*
X563049Y367379D02*
X555849D01*
Y360179D01*
X563049D01*
Y367379D01*
D02*
G37*
G36*
X411024Y364091D02*
X410302Y363947D01*
X409690Y363539D01*
X409281Y362927D01*
X409137Y362205D01*
X409235Y361714D01*
X403163Y355642D01*
X398462D01*
X398184Y356058D01*
X397572Y356467D01*
X396850Y356611D01*
X396129Y356467D01*
X395517Y356058D01*
X395108Y355446D01*
X394964Y354724D01*
X395108Y354003D01*
X395517Y353391D01*
X396129Y352982D01*
X396850Y352838D01*
X397572Y352982D01*
X398184Y353391D01*
X398462Y353807D01*
X403543D01*
X403895Y353877D01*
X404192Y354076D01*
X410533Y360416D01*
X411024Y360318D01*
X411745Y360462D01*
X412357Y360871D01*
X412766Y361483D01*
X412910Y362205D01*
X412766Y362927D01*
X412357Y363539D01*
X411745Y363947D01*
X411024Y364091D01*
D02*
G37*
G36*
X502256Y367748D02*
X501712Y367677D01*
X500739Y367273D01*
X499903Y366632D01*
X499262Y365797D01*
X498859Y364824D01*
X498787Y364280D01*
X502256D01*
Y367748D01*
D02*
G37*
G36*
X406328Y394579D02*
X404634D01*
Y392884D01*
X405012Y392959D01*
X405756Y393457D01*
X406253Y394201D01*
X406328Y394579D01*
D02*
G37*
G36*
X403634Y397273D02*
X403256Y397198D01*
X402512Y396701D01*
X402014Y395957D01*
X401939Y395579D01*
X403634D01*
Y397273D01*
D02*
G37*
G36*
X404634D02*
Y395579D01*
X406328D01*
X406253Y395957D01*
X405756Y396701D01*
X405012Y397198D01*
X404634Y397273D01*
D02*
G37*
G36*
X399894Y369517D02*
X399516Y369442D01*
X398772Y368945D01*
X398274Y368201D01*
X398199Y367823D01*
X399894D01*
Y369517D01*
D02*
G37*
G36*
X400894D02*
Y367823D01*
X402588D01*
X402513Y368201D01*
X402016Y368945D01*
X401272Y369442D01*
X400894Y369517D01*
D02*
G37*
G36*
X403634Y394579D02*
X401939D01*
X402014Y394201D01*
X402512Y393457D01*
X403256Y392959D01*
X403634Y392884D01*
Y394579D01*
D02*
G37*
G36*
X588083Y419911D02*
X587705Y419836D01*
X586961Y419339D01*
X586463Y418594D01*
X586388Y418217D01*
X588083D01*
Y419911D01*
D02*
G37*
G36*
X503831Y438221D02*
X503287Y438149D01*
X502314Y437746D01*
X501478Y437105D01*
X500837Y436269D01*
X500434Y435296D01*
X500362Y434752D01*
X503831D01*
Y438221D01*
D02*
G37*
G36*
X504831Y438221D02*
Y434752D01*
X508299D01*
X508228Y435296D01*
X507825Y436269D01*
X507184Y437105D01*
X506348Y437746D01*
X505375Y438149D01*
X504831Y438221D01*
D02*
G37*
G36*
X400608Y444645D02*
X393408D01*
Y437445D01*
X400608D01*
Y444645D01*
D02*
G37*
G36*
X387008Y434576D02*
X386068Y434452D01*
X385192Y434090D01*
X384440Y433512D01*
X383863Y432760D01*
X383501Y431885D01*
X383377Y430945D01*
X383501Y430005D01*
X383863Y429129D01*
X384440Y428377D01*
X385192Y427800D01*
X386068Y427438D01*
X387008Y427314D01*
X387948Y427438D01*
X388823Y427800D01*
X389575Y428377D01*
X390153Y429129D01*
X390515Y430005D01*
X390639Y430945D01*
X390515Y431885D01*
X390153Y432760D01*
X389575Y433512D01*
X388823Y434090D01*
X387948Y434452D01*
X387008Y434576D01*
D02*
G37*
G36*
X367108Y434676D02*
X366168Y434552D01*
X365292Y434190D01*
X364540Y433612D01*
X363963Y432860D01*
X363600Y431985D01*
X363477Y431045D01*
X363600Y430105D01*
X363963Y429229D01*
X364540Y428477D01*
X365292Y427900D01*
X366168Y427538D01*
X367108Y427414D01*
X368048Y427538D01*
X368923Y427900D01*
X369675Y428477D01*
X370252Y429229D01*
X370615Y430105D01*
X370739Y431045D01*
X370615Y431985D01*
X370252Y432860D01*
X369675Y433612D01*
X368923Y434190D01*
X368048Y434552D01*
X367108Y434676D01*
D02*
G37*
G36*
X589083Y419911D02*
Y418217D01*
X590777D01*
X590702Y418594D01*
X590205Y419339D01*
X589461Y419836D01*
X589083Y419911D01*
D02*
G37*
G36*
X376808Y434676D02*
X375868Y434552D01*
X374992Y434190D01*
X374240Y433612D01*
X373663Y432860D01*
X373301Y431985D01*
X373177Y431045D01*
X373301Y430105D01*
X373663Y429229D01*
X374240Y428477D01*
X374992Y427900D01*
X375868Y427538D01*
X376808Y427414D01*
X377748Y427538D01*
X378623Y427900D01*
X379375Y428477D01*
X379953Y429229D01*
X380315Y430105D01*
X380439Y431045D01*
X380315Y431985D01*
X379953Y432860D01*
X379375Y433612D01*
X378623Y434190D01*
X377748Y434552D01*
X376808Y434676D01*
D02*
G37*
G36*
X520119Y439070D02*
X516889D01*
X516537Y439000D01*
X516240Y438801D01*
X516152Y438713D01*
X513779D01*
X513428Y438643D01*
X513131Y438444D01*
X512932Y438146D01*
X512862Y437795D01*
Y404837D01*
X511180Y403155D01*
X510981Y402857D01*
X510912Y402506D01*
Y352738D01*
X510981Y352387D01*
X511180Y352089D01*
X515140Y348129D01*
X515043Y347638D01*
X515187Y346916D01*
X515595Y346304D01*
X516207Y345895D01*
X516929Y345752D01*
X517651Y345895D01*
X518263Y346304D01*
X518672Y346916D01*
X518678Y346949D01*
X519207Y347045D01*
X519751Y346683D01*
X520472Y346539D01*
X521194Y346683D01*
X521806Y347091D01*
X522215Y347703D01*
X522359Y348425D01*
X522215Y349147D01*
X521806Y349759D01*
X521194Y350168D01*
X520472Y350311D01*
X519982Y350214D01*
X513947Y356249D01*
Y361007D01*
X514447Y361147D01*
X515114Y360635D01*
X515989Y360272D01*
X516929Y360149D01*
X517869Y360272D01*
X518745Y360635D01*
X519497Y361212D01*
X520074Y361964D01*
X520436Y362840D01*
X520560Y363779D01*
X520436Y364719D01*
X520074Y365595D01*
X519497Y366347D01*
X518745Y366924D01*
X517869Y367287D01*
X516929Y367411D01*
X515989Y367287D01*
X515114Y366924D01*
X514447Y366412D01*
X513947Y366552D01*
Y401202D01*
X514018Y401244D01*
X514558Y400980D01*
X514603Y400635D01*
X514966Y399759D01*
X515543Y399007D01*
X516295Y398430D01*
X517170Y398067D01*
X518077Y397948D01*
X539944Y376081D01*
X539846Y375590D01*
X539990Y374869D01*
X540399Y374257D01*
X541011Y373848D01*
X541732Y373704D01*
X542454Y373848D01*
X543066Y374257D01*
X543475Y374869D01*
X543618Y375590D01*
X543475Y376312D01*
X543066Y376924D01*
X542454Y377333D01*
X541732Y377477D01*
X541241Y377379D01*
X520344Y398277D01*
X520376Y398776D01*
X520678Y399007D01*
X521255Y399759D01*
X521618Y400635D01*
X521741Y401575D01*
X521618Y402515D01*
X521255Y403390D01*
X520678Y404142D01*
X519926Y404719D01*
X519050Y405082D01*
X518217Y405192D01*
X517962Y405644D01*
X519153Y406835D01*
X519352Y407133D01*
X519422Y407484D01*
Y430742D01*
X519444Y430745D01*
X520320Y431107D01*
X521071Y431684D01*
X521649Y432436D01*
X522011Y433312D01*
X522121Y434145D01*
X522574Y434400D01*
X523371Y433603D01*
X523668Y433404D01*
X524019Y433334D01*
X529167D01*
X529170Y433312D01*
X529533Y432436D01*
X530110Y431684D01*
X530862Y431107D01*
X531737Y430745D01*
X532677Y430621D01*
X533617Y430745D01*
X534493Y431107D01*
X535245Y431684D01*
X535822Y432436D01*
X536185Y433312D01*
X536308Y434252D01*
X536185Y435192D01*
X535822Y436067D01*
X535245Y436820D01*
X534493Y437397D01*
X533617Y437759D01*
X532677Y437883D01*
X531737Y437759D01*
X530862Y437397D01*
X530110Y436820D01*
X529533Y436067D01*
X529170Y435192D01*
X529167Y435170D01*
X524400D01*
X520768Y438801D01*
X520471Y439000D01*
X520119Y439070D01*
D02*
G37*
G36*
X546850Y437883D02*
X545911Y437759D01*
X545035Y437397D01*
X544283Y436820D01*
X543706Y436067D01*
X543343Y435192D01*
X543219Y434252D01*
X543343Y433312D01*
X543706Y432436D01*
X544283Y431684D01*
X545035Y431107D01*
X545911Y430745D01*
X546850Y430621D01*
X547790Y430745D01*
X548666Y431107D01*
X549418Y431684D01*
X549995Y432436D01*
X550358Y433312D01*
X550482Y434252D01*
X550358Y435192D01*
X549995Y436067D01*
X549418Y436820D01*
X548666Y437397D01*
X547790Y437759D01*
X546850Y437883D01*
D02*
G37*
G36*
X564624Y437852D02*
X557424D01*
Y430652D01*
X564624D01*
Y437852D01*
D02*
G37*
G36*
X503831Y433752D02*
X500362D01*
X500434Y433208D01*
X500837Y432235D01*
X501478Y431399D01*
X502314Y430758D01*
X503287Y430355D01*
X503831Y430283D01*
Y433752D01*
D02*
G37*
G36*
X508299D02*
X504831D01*
Y430283D01*
X505375Y430355D01*
X506348Y430758D01*
X507184Y431399D01*
X507825Y432235D01*
X508228Y433208D01*
X508299Y433752D01*
D02*
G37*
%LPD*%
G36*
X515359Y432436D02*
X515936Y431684D01*
X516688Y431107D01*
X517564Y430745D01*
X517586Y430742D01*
Y407864D01*
X515159Y405437D01*
X514697Y405628D01*
Y432728D01*
X515197Y432828D01*
X515359Y432436D01*
D02*
G37*
%LPC*%
G36*
X228567Y476272D02*
X225067D01*
Y470850D01*
X228567D01*
Y476272D01*
D02*
G37*
G36*
X218601D02*
X215067D01*
Y470882D01*
X215611Y470953D01*
X216584Y471356D01*
X217420Y471997D01*
X218061Y472833D01*
X218464Y473806D01*
X218601Y474850D01*
Y476272D01*
D02*
G37*
G36*
X189539Y476272D02*
X186005D01*
Y474850D01*
X186142Y473806D01*
X186545Y472833D01*
X187187Y471997D01*
X188022Y471356D01*
X188995Y470953D01*
X189539Y470882D01*
Y476272D01*
D02*
G37*
G36*
X179539D02*
X176039D01*
Y470850D01*
X179539D01*
Y476272D01*
D02*
G37*
G36*
X184039D02*
X180539D01*
Y470850D01*
X184039D01*
Y476272D01*
D02*
G37*
G36*
X224067Y476272D02*
X220567D01*
Y470850D01*
X224067D01*
Y476272D01*
D02*
G37*
G36*
X209358Y442059D02*
Y438591D01*
X212827D01*
X212755Y439135D01*
X212352Y440108D01*
X211711Y440943D01*
X210875Y441585D01*
X209902Y441988D01*
X209358Y442059D01*
D02*
G37*
G36*
X264067Y441764D02*
X263523Y441692D01*
X262550Y441289D01*
X261714Y440648D01*
X261073Y439813D01*
X260670Y438839D01*
X260598Y438295D01*
X264067D01*
Y441764D01*
D02*
G37*
G36*
X265067D02*
Y438295D01*
X268536D01*
X268464Y438839D01*
X268061Y439813D01*
X267420Y440648D01*
X266584Y441289D01*
X265611Y441692D01*
X265067Y441764D01*
D02*
G37*
G36*
X208358Y442059D02*
X207814Y441988D01*
X206841Y441585D01*
X206005Y440943D01*
X205364Y440108D01*
X204961Y439135D01*
X204889Y438591D01*
X208358D01*
Y442059D01*
D02*
G37*
G36*
X266874Y483874D02*
X263374D01*
Y478453D01*
X266874D01*
Y483874D01*
D02*
G37*
G36*
X253374Y483843D02*
Y478453D01*
X256908D01*
Y479874D01*
X256771Y480918D01*
X256368Y481891D01*
X255727Y482727D01*
X254891Y483368D01*
X253918Y483771D01*
X253374Y483843D01*
D02*
G37*
G36*
X190539Y482662D02*
Y477272D01*
X194074D01*
Y478693D01*
X193936Y479737D01*
X193533Y480710D01*
X192892Y481546D01*
X192057Y482187D01*
X191084Y482590D01*
X190539Y482662D01*
D02*
G37*
G36*
X252374Y483843D02*
X251830Y483771D01*
X250857Y483368D01*
X250021Y482727D01*
X249380Y481891D01*
X248977Y480918D01*
X248839Y479874D01*
Y478453D01*
X252374D01*
Y483843D01*
D02*
G37*
G36*
X262374Y483874D02*
X258874D01*
Y478453D01*
X262374D01*
Y483874D01*
D02*
G37*
G36*
X107768Y496452D02*
X107107Y496387D01*
X105991Y496048D01*
X104962Y495498D01*
X104060Y494758D01*
X103321Y493857D01*
X102771Y492828D01*
X102432Y491712D01*
X102367Y491051D01*
X107768D01*
Y496452D01*
D02*
G37*
G36*
X108768D02*
Y491051D01*
X114168D01*
X114103Y491712D01*
X113765Y492828D01*
X113215Y493857D01*
X112475Y494758D01*
X111573Y495498D01*
X110545Y496048D01*
X109429Y496387D01*
X108768Y496452D01*
D02*
G37*
G36*
X189539Y482662D02*
X188995Y482590D01*
X188022Y482187D01*
X187187Y481546D01*
X186545Y480710D01*
X186142Y479737D01*
X186005Y478693D01*
Y477272D01*
X189539D01*
Y482662D01*
D02*
G37*
G36*
X266874Y477453D02*
X263374D01*
Y472031D01*
X266874D01*
Y477453D01*
D02*
G37*
G36*
X252374D02*
X248839D01*
Y476031D01*
X248977Y474987D01*
X249380Y474014D01*
X250021Y473179D01*
X250857Y472538D01*
X251830Y472134D01*
X252374Y472063D01*
Y477453D01*
D02*
G37*
G36*
X256908D02*
X253374D01*
Y472063D01*
X253918Y472134D01*
X254891Y472538D01*
X255727Y473179D01*
X256368Y474014D01*
X256771Y474987D01*
X256908Y476031D01*
Y477453D01*
D02*
G37*
G36*
X194074Y476272D02*
X190539D01*
Y470882D01*
X191084Y470953D01*
X192057Y471356D01*
X192892Y471997D01*
X193533Y472833D01*
X193936Y473806D01*
X194074Y474850D01*
Y476272D01*
D02*
G37*
G36*
X214067Y476272D02*
X210532D01*
Y474850D01*
X210670Y473806D01*
X211073Y472833D01*
X211714Y471997D01*
X212550Y471356D01*
X213523Y470953D01*
X214067Y470882D01*
Y476272D01*
D02*
G37*
G36*
X262374Y477453D02*
X258874D01*
Y472031D01*
X262374D01*
Y477453D01*
D02*
G37*
G36*
X228567Y482693D02*
X225067D01*
Y477272D01*
X228567D01*
Y482693D01*
D02*
G37*
G36*
X179539D02*
X176039D01*
Y477272D01*
X179539D01*
Y482693D01*
D02*
G37*
G36*
X184039D02*
X180539D01*
Y477272D01*
X184039D01*
Y482693D01*
D02*
G37*
G36*
X214067Y482662D02*
X213523Y482590D01*
X212550Y482187D01*
X211714Y481546D01*
X211073Y480710D01*
X210670Y479737D01*
X210532Y478693D01*
Y477272D01*
X214067D01*
Y482662D01*
D02*
G37*
G36*
X224067Y482693D02*
X220567D01*
Y477272D01*
X224067D01*
Y482693D01*
D02*
G37*
G36*
X215067Y482662D02*
Y477272D01*
X218601D01*
Y478693D01*
X218464Y479737D01*
X218061Y480710D01*
X217420Y481546D01*
X216584Y482187D01*
X215611Y482590D01*
X215067Y482662D01*
D02*
G37*
G36*
X150213Y417413D02*
X144004D01*
Y413173D01*
X150213D01*
Y417413D01*
D02*
G37*
G36*
X143004D02*
X136796D01*
Y413173D01*
X143004D01*
Y417413D01*
D02*
G37*
G36*
X212827Y437591D02*
X209358D01*
Y434122D01*
X209902Y434194D01*
X210875Y434597D01*
X211711Y435238D01*
X212352Y436073D01*
X212755Y437046D01*
X212827Y437591D01*
D02*
G37*
G36*
X254429Y441426D02*
X253489Y441303D01*
X252614Y440940D01*
X251862Y440363D01*
X251285Y439611D01*
X250922Y438735D01*
X250798Y437795D01*
X250922Y436856D01*
X251285Y435980D01*
X251862Y435228D01*
X252614Y434651D01*
X253489Y434288D01*
X254429Y434164D01*
X255369Y434288D01*
X256245Y434651D01*
X256997Y435228D01*
X257574Y435980D01*
X257937Y436856D01*
X258060Y437795D01*
X257937Y438735D01*
X257574Y439611D01*
X256997Y440363D01*
X256245Y440940D01*
X255369Y441303D01*
X254429Y441426D01*
D02*
G37*
G36*
X274705D02*
X273765Y441303D01*
X272889Y440940D01*
X272137Y440363D01*
X271560Y439611D01*
X271197Y438735D01*
X271074Y437795D01*
X271197Y436856D01*
X271560Y435980D01*
X272137Y435228D01*
X272889Y434651D01*
X273765Y434288D01*
X274705Y434164D01*
X275644Y434288D01*
X276520Y434651D01*
X277272Y435228D01*
X277849Y435980D01*
X278212Y436856D01*
X278336Y437795D01*
X278212Y438735D01*
X277849Y439611D01*
X277272Y440363D01*
X276520Y440940D01*
X275644Y441303D01*
X274705Y441426D01*
D02*
G37*
G36*
X264067Y437295D02*
X260598D01*
X260670Y436751D01*
X261073Y435778D01*
X261714Y434942D01*
X262550Y434301D01*
X263523Y433898D01*
X264067Y433827D01*
Y437295D01*
D02*
G37*
G36*
X268536D02*
X265067D01*
Y433827D01*
X265611Y433898D01*
X266584Y434301D01*
X267420Y434942D01*
X268061Y435778D01*
X268464Y436751D01*
X268536Y437295D01*
D02*
G37*
G36*
X208358Y437591D02*
X204889D01*
X204961Y437046D01*
X205364Y436073D01*
X206005Y435238D01*
X206841Y434597D01*
X207814Y434194D01*
X208358Y434122D01*
Y437591D01*
D02*
G37*
G36*
X175591Y440528D02*
X174781Y440422D01*
X174027Y440109D01*
X173380Y439612D01*
X172883Y438965D01*
X172570Y438211D01*
X172464Y437402D01*
X172570Y436592D01*
X172883Y435838D01*
X173380Y435191D01*
X174027Y434694D01*
X174781Y434381D01*
X175591Y434275D01*
X176400Y434381D01*
X177154Y434694D01*
X177802Y435191D01*
X178298Y435838D01*
X178611Y436592D01*
X178717Y437402D01*
X178611Y438211D01*
X178298Y438965D01*
X177802Y439612D01*
X177154Y440109D01*
X176400Y440422D01*
X175591Y440528D01*
D02*
G37*
G36*
X198720Y441722D02*
X197781Y441598D01*
X196905Y441235D01*
X196153Y440658D01*
X195576Y439906D01*
X195213Y439030D01*
X195089Y438091D01*
X195213Y437151D01*
X195576Y436275D01*
X196153Y435523D01*
X196905Y434946D01*
X197781Y434583D01*
X198720Y434460D01*
X199660Y434583D01*
X200536Y434946D01*
X201288Y435523D01*
X201865Y436275D01*
X202228Y437151D01*
X202351Y438091D01*
X202228Y439030D01*
X201865Y439906D01*
X201288Y440658D01*
X200536Y441235D01*
X199660Y441598D01*
X198720Y441722D01*
D02*
G37*
G36*
X218996D02*
X218056Y441598D01*
X217180Y441235D01*
X216428Y440658D01*
X215851Y439906D01*
X215489Y439030D01*
X215365Y438091D01*
X215489Y437151D01*
X215851Y436275D01*
X216428Y435523D01*
X217180Y434946D01*
X218056Y434583D01*
X218996Y434460D01*
X219936Y434583D01*
X220812Y434946D01*
X221564Y435523D01*
X222141Y436275D01*
X222503Y437151D01*
X222627Y438091D01*
X222503Y439030D01*
X222141Y439906D01*
X221564Y440658D01*
X220812Y441235D01*
X219936Y441598D01*
X218996Y441722D01*
D02*
G37*
G36*
X145473Y441976D02*
X141536D01*
X140403Y441827D01*
X139347Y441390D01*
X138440Y440694D01*
X137745Y439787D01*
X137307Y438731D01*
X137158Y437598D01*
X137307Y436465D01*
X137745Y435410D01*
X138440Y434503D01*
X139347Y433807D01*
X140403Y433370D01*
X141536Y433221D01*
X145473D01*
X146606Y433370D01*
X147662Y433807D01*
X148568Y434503D01*
X149264Y435410D01*
X149701Y436465D01*
X149850Y437598D01*
X149701Y438731D01*
X149264Y439787D01*
X148568Y440694D01*
X147662Y441390D01*
X146606Y441827D01*
X145473Y441976D01*
D02*
G37*
G36*
X150213Y422653D02*
X144004D01*
Y418413D01*
X150213D01*
Y422653D01*
D02*
G37*
G36*
X143004D02*
X136796D01*
Y418413D01*
X143004D01*
Y422653D01*
D02*
G37*
G36*
X150797Y313395D02*
X138180D01*
Y304715D01*
X150797D01*
Y313395D01*
D02*
G37*
G36*
X242035Y290581D02*
Y288886D01*
X243730D01*
X243655Y289264D01*
X243158Y290008D01*
X242413Y290505D01*
X242035Y290581D01*
D02*
G37*
G36*
X241035Y287886D02*
X239341D01*
X239416Y287508D01*
X239913Y286764D01*
X240657Y286266D01*
X241035Y286191D01*
Y287886D01*
D02*
G37*
G36*
X243730D02*
X242035D01*
Y286191D01*
X242413Y286266D01*
X243158Y286764D01*
X243655Y287508D01*
X243730Y287886D01*
D02*
G37*
G36*
X241035Y290581D02*
X240657Y290505D01*
X239913Y290008D01*
X239416Y289264D01*
X239341Y288886D01*
X241035D01*
Y290581D01*
D02*
G37*
G36*
X146457Y333118D02*
X142520D01*
X141387Y332969D01*
X140331Y332531D01*
X139424Y331836D01*
X138729Y330929D01*
X138291Y329873D01*
X138142Y328740D01*
X138291Y327607D01*
X138729Y326551D01*
X139424Y325645D01*
X140331Y324949D01*
X141387Y324512D01*
X142520Y324363D01*
X146457D01*
X147590Y324512D01*
X148645Y324949D01*
X149552Y325645D01*
X150248Y326551D01*
X150685Y327607D01*
X150834Y328740D01*
X150685Y329873D01*
X150248Y330929D01*
X149552Y331836D01*
X148645Y332531D01*
X147590Y332969D01*
X146457Y333118D01*
D02*
G37*
G36*
X290264Y253769D02*
Y252075D01*
X291958D01*
X291883Y252453D01*
X291386Y253197D01*
X290642Y253694D01*
X290264Y253769D01*
D02*
G37*
G36*
X145276Y262252D02*
X141339D01*
X140206Y262103D01*
X139150Y261665D01*
X138243Y260969D01*
X137548Y260063D01*
X137110Y259007D01*
X136961Y257874D01*
X137110Y256741D01*
X137548Y255685D01*
X138243Y254779D01*
X139150Y254083D01*
X140206Y253646D01*
X141339Y253496D01*
X145276D01*
X146409Y253646D01*
X147464Y254083D01*
X148371Y254779D01*
X149067Y255685D01*
X149504Y256741D01*
X149653Y257874D01*
X149504Y259007D01*
X149067Y260063D01*
X148371Y260969D01*
X147464Y261665D01*
X146409Y262103D01*
X145276Y262252D01*
D02*
G37*
G36*
X217315Y246978D02*
X216937Y246903D01*
X216193Y246406D01*
X215696Y245661D01*
X215620Y245284D01*
X217315D01*
Y246978D01*
D02*
G37*
G36*
X218315D02*
Y245284D01*
X220010D01*
X219934Y245661D01*
X219437Y246406D01*
X218693Y246903D01*
X218315Y246978D01*
D02*
G37*
G36*
X149616Y242529D02*
X136998D01*
Y233849D01*
X149616D01*
Y242529D01*
D02*
G37*
G36*
X217315Y244284D02*
X215620D01*
X215696Y243906D01*
X216193Y243161D01*
X216937Y242664D01*
X217315Y242589D01*
Y244284D01*
D02*
G37*
G36*
X220010D02*
X218315D01*
Y242589D01*
X218693Y242664D01*
X219437Y243161D01*
X219934Y243906D01*
X220010Y244284D01*
D02*
G37*
%LPD*%
D22*
X621654Y206693D02*
Y237795D01*
X252362Y203150D02*
Y224410D01*
X631102Y343701D02*
Y348819D01*
X612205Y254331D02*
X628740D01*
X165354Y383858D02*
Y406693D01*
X303543Y409842D02*
X324410D01*
X317717Y396063D02*
Y400000D01*
X298425Y387795D02*
X304724Y394094D01*
X316929D01*
X295276Y389370D02*
Y400787D01*
X291339Y339370D02*
X314173D01*
X296850Y357480D02*
X322835D01*
X424409Y380709D02*
X446063D01*
X612598Y299606D02*
X613386Y298819D01*
X627559D01*
X292520Y280315D02*
X309842D01*
X348031Y212205D02*
Y246850D01*
D23*
X117717Y0D02*
X396850D01*
X390258Y437795D02*
X397108Y430945D01*
X384370Y437795D02*
X385313Y436853D01*
X388703D01*
X389645Y437795D01*
X390258D01*
X374470D02*
X375413Y436853D01*
X378803D01*
X379745Y437795D01*
X384370D01*
X333071D02*
X364470D01*
X365413Y436853D01*
X368803D01*
X369745Y437795D01*
X374470D01*
X298425Y387795D02*
X298425D01*
X257382Y257579D02*
X257544D01*
X311811Y203150D02*
Y203312D01*
X257544Y257579D02*
X311811Y203312D01*
X281594Y215748D02*
X308760Y188583D01*
D25*
X620079Y239370D02*
X621654Y237795D01*
X250787Y225984D02*
X252362Y224410D01*
X611811Y254724D02*
X612205Y254331D01*
X259350Y252461D02*
X297638Y214173D01*
X272146Y250000D02*
Y260138D01*
Y250000D02*
X298917Y223228D01*
X274015Y263385D02*
X333071Y204330D01*
X335827Y115748D02*
Y120233D01*
X339727Y124133D01*
Y133428D01*
X340551Y134252D01*
X339370Y204331D02*
X398976D01*
X405118Y198189D01*
X525196Y300787D02*
X526590Y302181D01*
X433858Y286614D02*
X533071D01*
X394880Y331102D02*
X394881Y331102D01*
X276772Y331102D02*
X394880D01*
X329921Y162205D02*
X354331Y186614D01*
X363386Y199213D02*
X363779Y199606D01*
X354331Y186614D02*
X357874D01*
X363386Y192126D01*
Y199213D01*
X374410Y222047D02*
X435039Y282677D01*
X535433D01*
X333858Y159055D02*
X367717Y192913D01*
Y199606D01*
X377165Y219685D02*
X435826Y278346D01*
X539370D01*
X394488Y325984D02*
X433858Y286614D01*
X528739Y303149D02*
X543701D01*
X526590Y302181D02*
Y302257D01*
X526589Y302258D02*
X526590Y302257D01*
X526589Y302258D02*
Y304040D01*
X527848Y305299D01*
X545095D02*
X545276Y305118D01*
X527848Y305299D02*
X545095D01*
X543701Y303149D02*
X545276Y301575D01*
X502151Y298637D02*
X526086D01*
X528237Y300787D01*
X540945D01*
X524409Y329528D02*
X536221D01*
X543307Y322441D01*
X534930Y287795D02*
X544095D01*
X533961Y288764D02*
X534930Y287795D01*
X532180Y288764D02*
X533961D01*
X531230Y287814D02*
X532180Y288764D01*
X440926Y287814D02*
X531230D01*
X426378Y302362D02*
X440926Y287814D01*
X423622Y302362D02*
X426378D01*
X423228Y302756D02*
X423622Y302362D01*
X518110Y399213D02*
X541732Y375590D01*
X518110Y399213D02*
Y401575D01*
X518504Y407484D02*
Y434252D01*
X524019D02*
X532677D01*
X520119Y438152D02*
X524019Y434252D01*
X516889Y438152D02*
X520119D01*
X516532Y437795D02*
X516889Y438152D01*
X513779Y437795D02*
X516532D01*
X513029Y355869D02*
X520472Y348425D01*
X513029Y355869D02*
Y402009D01*
X518504Y407484D01*
X513779Y404457D02*
Y437795D01*
X511829Y402506D02*
X513779Y404457D01*
X511829Y352738D02*
Y402506D01*
Y352738D02*
X516929Y347638D01*
X396850Y354724D02*
X403543D01*
X411024Y362205D01*
X494488Y306299D02*
X502151Y298637D01*
X471260Y306299D02*
X494488D01*
X289764Y337795D02*
X291339Y339370D01*
X293701Y360630D02*
X296850Y357480D01*
X422441Y378740D02*
X424409Y380709D01*
X445669Y463779D02*
X459055D01*
X443701Y465748D02*
X445669Y463779D01*
X309842Y280315D02*
X311811Y278346D01*
X348031Y246850D02*
X348425Y247244D01*
X289764Y251575D02*
X294488D01*
X296850Y253937D01*
D26*
X108268Y490551D02*
D03*
X367108Y440945D02*
D03*
Y431045D02*
D03*
X377108Y440945D02*
D03*
X376808Y431045D02*
D03*
X387008Y440945D02*
D03*
Y430945D02*
D03*
X397108D02*
D03*
X264567Y437795D02*
D03*
X274705D02*
D03*
X254429D02*
D03*
X198720Y438091D02*
D03*
X218996D02*
D03*
X208858D02*
D03*
X345827Y125748D02*
D03*
X335827D02*
D03*
X325827D02*
D03*
X345827Y115748D02*
D03*
X335827D02*
D03*
X535354Y260787D02*
D03*
X525354D02*
D03*
X515354D02*
D03*
X535354Y250787D02*
D03*
X525354D02*
D03*
X503543Y464961D02*
D03*
X517717D02*
D03*
X531890D02*
D03*
X546063D02*
D03*
X504331Y434252D02*
D03*
X518504D02*
D03*
X532677D02*
D03*
X546850D02*
D03*
X503937Y401575D02*
D03*
X518110D02*
D03*
X532283D02*
D03*
X546457D02*
D03*
X502756Y363779D02*
D03*
X516929D02*
D03*
X531102D02*
D03*
X545276D02*
D03*
X108661Y108268D02*
D03*
X692126D02*
D03*
X692520Y492126D02*
D03*
D27*
X397008Y441045D02*
D03*
X325827Y115748D02*
D03*
X515354Y250787D02*
D03*
X560236Y464961D02*
D03*
X561024Y434252D02*
D03*
X560630Y401575D02*
D03*
X559449Y363779D02*
D03*
D28*
X405118Y208189D02*
D03*
X488189Y215118D02*
D03*
D29*
X405118Y198189D02*
D03*
Y188189D02*
D03*
X668898Y304173D02*
D03*
Y294173D02*
D03*
Y314173D02*
D03*
X488189Y205118D02*
D03*
Y195118D02*
D03*
D30*
X668898Y284173D02*
D03*
D31*
X143504Y417913D02*
D03*
X143307Y238189D02*
D03*
X144488Y309055D02*
D03*
D32*
X143504Y437598D02*
D03*
X143307Y257874D02*
D03*
X144488Y328740D02*
D03*
D33*
X190039Y476772D02*
D03*
X214567D02*
D03*
X252874Y477953D02*
D03*
D34*
X180039Y476772D02*
D03*
X224567D02*
D03*
X262874Y477953D02*
D03*
D35*
X175591Y437402D02*
D03*
X386221Y169291D02*
D03*
X276772Y331102D02*
D03*
D36*
X333071Y437795D02*
D03*
X404134Y395079D02*
D03*
X217815Y244783D02*
D03*
X281496Y250394D02*
D03*
X241535Y288386D02*
D03*
X308760Y188583D02*
D03*
X257382Y257579D02*
D03*
X311811Y203150D02*
D03*
X298917Y223228D02*
D03*
X259350Y252461D02*
D03*
X281594Y215748D02*
D03*
X297638Y214173D02*
D03*
X272146Y260138D02*
D03*
X274015Y263385D02*
D03*
X333071Y204330D02*
D03*
X340551Y134252D02*
D03*
X342913Y197244D02*
D03*
X264961Y164173D02*
D03*
X339370Y204331D02*
D03*
X529921Y345669D02*
D03*
X557874Y314173D02*
D03*
X610630Y322441D02*
D03*
X525196Y300787D02*
D03*
X545276Y305118D02*
D03*
X375984Y355512D02*
D03*
X400394Y367323D02*
D03*
X545276Y301575D02*
D03*
X533071Y286614D02*
D03*
X394488Y325984D02*
D03*
X394881Y331102D02*
D03*
X329921Y162205D02*
D03*
X363779Y199606D02*
D03*
X374410Y222047D02*
D03*
X535433Y282677D02*
D03*
X333858Y159055D02*
D03*
X367717Y199606D02*
D03*
X377165Y219685D02*
D03*
X539370Y278346D02*
D03*
X540945Y300787D02*
D03*
X528739Y303149D02*
D03*
X524409Y329528D02*
D03*
X543307Y322441D02*
D03*
X544095Y287795D02*
D03*
X423228Y302756D02*
D03*
X541732Y375590D02*
D03*
X520472Y348425D02*
D03*
X516929Y347638D02*
D03*
X411024Y362205D02*
D03*
X396850Y354724D02*
D03*
X471260Y306299D02*
D03*
X456693Y318110D02*
D03*
X569685Y485039D02*
D03*
X589764Y449213D02*
D03*
X588583Y417717D02*
D03*
X584252Y346457D02*
D03*
X289764Y251575D02*
D03*
M02*
